<svg version="1.1" xmlns="http://www.w3.org/2000/svg" viewBox="0 0 1241.658935276075 1173.3944075720328" width="3724.976805828225" height="3520.1832227160985">
  <!-- svg-source:excalidraw -->
  
  <defs>
    <style class="style-fonts">
      @font-face {
        font-family: "Virgil";
        src: url("https://excalidraw.com/Virgil.woff2");
      }
      @font-face {
        font-family: "Cascadia";
        src: url("https://excalidraw.com/Cascadia.woff2");
      }
      @font-face {
        font-family: "Assistant";
        src: url("https://excalidraw.com/Assistant-Regular.woff2");
      }
    </style>
    
  </defs>
  <rect x="0" y="0" width="1241.658935276075" height="1173.3944075720328" fill="#ffffff"></rect><g stroke-linecap="round" transform="translate(341.06629428482285 351.06255656613394) rotate(0 191.87852575687802 23.20110578822512)"><path d="M0 0 C0 0, 0 0, 0 0 M0 0 C0 0, 0 0, 0 0 M0.13 12.04 C4.74 7.93, 6.11 3.94, 10.63 -0.03 M0.13 12.04 C3.78 8.8, 5.57 5.26, 10.63 -0.03 M0.27 24.08 C6.6 14.29, 16.08 3.99, 21.26 -0.07 M0.27 24.08 C5.06 18.18, 8.3 14.2, 21.26 -0.07 M-0.26 36.88 C7.32 26.43, 17.13 15.56, 31.89 -0.1 M-0.26 36.88 C7.81 27.74, 16.2 17.92, 31.89 -0.1 M1.19 47.41 C12.73 32.25, 25.29 20.2, 42.52 -0.14 M1.19 47.41 C12.33 34, 23.45 22.55, 42.52 -0.14 M11.82 47.37 C23.49 36.74, 33.58 24.24, 53.15 -0.17 M11.82 47.37 C22.91 33.55, 33.89 21.14, 53.15 -0.17 M22.45 47.34 C33.77 36.55, 40.69 23.96, 63.78 -0.21 M22.45 47.34 C30.42 37.33, 38.96 27.5, 63.78 -0.21 M33.08 47.31 C40.67 38.38, 49.92 25.2, 74.41 -0.24 M33.08 47.31 C46.84 31.34, 59.75 16.53, 74.41 -0.24 M43.71 47.27 C54.27 34.52, 66.44 21.58, 85.04 -0.28 M43.71 47.27 C51.63 36.74, 60.39 26.51, 85.04 -0.28 M54.34 47.24 C70.99 28.32, 86.14 10.13, 95.67 -0.31 M54.34 47.24 C62.74 35.83, 72.78 25.38, 95.67 -0.31 M64.97 47.2 C79.65 33.29, 89.7 19.19, 106.3 -0.34 M64.97 47.2 C75.73 36.21, 84.27 25.07, 106.3 -0.34 M75.6 47.17 C90.34 29.06, 108.27 9.85, 116.27 0.38 M75.6 47.17 C86.02 37.34, 94.4 24.61, 116.27 0.38 M86.23 47.13 C95.52 37.78, 103.78 26.43, 126.91 0.34 M86.23 47.13 C100.67 29.39, 117.31 11.5, 126.91 0.34 M96.86 47.1 C108.34 37.52, 115.51 27.24, 137.54 0.31 M96.86 47.1 C110.64 31.71, 122.62 16.11, 137.54 0.31 M107.49 47.06 C117.51 37.31, 126.72 29.02, 148.17 0.27 M107.49 47.06 C120.68 33.65, 132.65 18.3, 148.17 0.27 M117.46 47.78 C128.74 37.33, 138.63 25.02, 158.8 0.24 M117.46 47.78 C126.6 36.82, 137.11 25.77, 158.8 0.24 M128.09 47.75 C143.22 30.23, 156.1 13.1, 169.43 0.2 M128.09 47.75 C136.88 37.13, 144.39 27.43, 169.43 0.2 M138.72 47.72 C145.64 39.83, 156.12 27.66, 180.06 0.17 M138.72 47.72 C147.27 36.97, 156.95 26.51, 180.06 0.17 M149.35 47.68 C160.92 35.16, 173.38 18.12, 190.69 0.13 M149.35 47.68 C159.1 36.81, 169.03 24.28, 190.69 0.13 M159.98 47.65 C173.57 31.29, 185.84 16.79, 201.32 0.1 M159.98 47.65 C173.6 32, 187.2 17.88, 201.32 0.1 M170.61 47.61 C185.35 31.27, 201.8 12.63, 211.95 0.06 M170.61 47.61 C182.83 34.46, 195 20.27, 211.95 0.06 M181.24 47.58 C189.01 37.17, 200.74 27.5, 222.58 0.03 M181.24 47.58 C193.98 33.51, 205.8 19.31, 222.58 0.03 M191.87 47.54 C209.2 27.22, 223.67 9.01, 233.21 0 M191.87 47.54 C201.16 36.22, 212.03 23.82, 233.21 0 M202.5 47.51 C211.52 34.34, 223.68 23.42, 243.84 -0.04 M202.5 47.51 C214.48 33.02, 228.82 17.51, 243.84 -0.04 M213.13 47.47 C226.95 28.59, 245.41 12.67, 254.47 -0.07 M213.13 47.47 C223.83 34.45, 234.96 20.93, 254.47 -0.07 M223.76 47.44 C237.6 31.57, 252.02 12.71, 265.1 -0.11 M223.76 47.44 C232.04 38.44, 240.89 27.48, 265.1 -0.11 M234.39 47.4 C249.21 28.19, 267.67 9.89, 275.73 -0.14 M234.39 47.4 C249.52 30.79, 263.27 14.73, 275.73 -0.14 M245.02 47.37 C260.6 29.56, 273.77 14.62, 286.36 -0.18 M245.02 47.37 C253.4 37.1, 262.89 25, 286.36 -0.18 M255.65 47.34 C265.49 36.29, 271.49 24.99, 296.99 -0.21 M255.65 47.34 C270.2 30.46, 285.62 12.35, 296.99 -0.21 M266.28 47.3 C278.51 32.28, 291.9 19.74, 307.62 -0.25 M266.28 47.3 C281.1 30.76, 295.17 14.14, 307.62 -0.25 M276.91 47.27 C284.33 37.84, 291.85 30.15, 318.25 -0.28 M276.91 47.27 C292.16 30.09, 307.25 13.17, 318.25 -0.28 M287.55 47.23 C298.79 33.41, 308.92 22.01, 328.88 -0.31 M287.55 47.23 C298.78 33.95, 310.86 19.65, 328.88 -0.31 M298.18 47.2 C314.11 29.6, 329.07 9.94, 339.51 -0.35 M298.18 47.2 C312.97 29.56, 328.54 12.22, 339.51 -0.35 M308.81 47.16 C322.52 32.28, 330.57 20.39, 349.48 0.37 M308.81 47.16 C322.65 30.99, 336.15 14.17, 349.48 0.37 M319.44 47.13 C331.51 33.96, 340.88 20.93, 360.11 0.34 M319.44 47.13 C332.06 32.74, 345.51 17.14, 360.11 0.34 M330.07 47.09 C344.81 31.69, 355.26 18.26, 370.74 0.3 M330.07 47.09 C343.34 32.54, 355.77 17.29, 370.74 0.3 M340.7 47.06 C355.39 27.6, 371.04 11.52, 381.37 0.27 M340.7 47.06 C355.03 30.86, 367.14 17.03, 381.37 0.27 M350.67 47.78 C361.02 34.76, 370.27 23.81, 388.72 4.01 M350.67 47.78 C359.07 39.13, 366.98 28.72, 388.72 4.01 M361.3 47.75 C368.61 36.39, 379.74 29.47, 388.85 16.05 M361.3 47.75 C367 40.51, 374.01 32.47, 388.85 16.05 M371.93 47.71 C379.71 41.22, 384.06 32.04, 388.33 28.84 M371.93 47.71 C378 41.76, 383.53 34.85, 388.33 28.84 M382.56 47.68 C383.87 45.66, 385.84 43.74, 388.46 40.88 M382.56 47.68 C384.08 46.31, 385.67 43.94, 388.46 40.88 M-0.33 46.11 C-0.33 46.11, -0.33 46.11, -0.33 46.11 M-0.33 46.11 C-0.33 46.11, -0.33 46.11, -0.33 46.11 M12.46 46.63 C7.92 42.01, 2.41 39.22, -0.37 35.48 M12.46 46.63 C9.46 43.43, 6.05 40.7, -0.37 35.48 M24.5 46.5 C18.51 41.49, 14.79 38.02, 0.35 25.51 M24.5 46.5 C17.02 39.26, 9.55 33.23, 0.35 25.51 M36.54 46.37 C28.48 37.82, 21.1 33.6, 0.32 14.88 M36.54 46.37 C23.47 35.25, 12.49 26.22, 0.32 14.88 M48.58 46.24 C32.81 31.12, 15.83 17.16, 0.28 4.25 M48.58 46.24 C35.13 34.25, 22.85 23.49, 0.28 4.25 M60.62 46.1 C43.92 32.92, 32.41 21.97, 7.04 -0.48 M60.62 46.1 C45.15 32.61, 29.67 19.41, 7.04 -0.48 M73.42 46.63 C52.87 27.92, 35.42 14.78, 19.08 -0.61 M73.42 46.63 C56.15 29.75, 36.29 14.05, 19.08 -0.61 M85.46 46.49 C66.42 32.43, 48.39 13.89, 31.12 -0.74 M85.46 46.49 C73.62 36.87, 61.32 25.87, 31.12 -0.74 M97.5 46.36 C77.47 28.44, 55.27 8.18, 43.16 -0.88 M97.5 46.36 C78.55 29.63, 58.51 12.06, 43.16 -0.88 M109.54 46.23 C88.41 28.2, 68.86 9.85, 55.2 -1.01 M109.54 46.23 C90.49 29.89, 70.73 12.67, 55.2 -1.01 M121.58 46.09 C104.4 31.58, 88.93 16.22, 68 -0.49 M121.58 46.09 C106.58 34.02, 92.38 21.36, 68 -0.49 M134.38 46.62 C117.75 30.81, 98.9 18.17, 80.04 -0.62 M134.38 46.62 C117.31 30.49, 100.33 16.43, 80.04 -0.62 M146.42 46.48 C131.23 33.55, 111.77 15.44, 92.08 -0.75 M146.42 46.48 C136.29 36.78, 123.9 26.45, 92.08 -0.75 M158.46 46.35 C146.18 34.58, 131.58 24.04, 104.12 -0.89 M158.46 46.35 C137.27 27.11, 115.07 8.88, 104.12 -0.89 M170.5 46.22 C152.07 32.39, 134.7 17.23, 116.16 -1.02 M170.5 46.22 C149.01 28.18, 128.84 8.96, 116.16 -1.02 M182.54 46.08 C161.61 26.23, 140.23 10.19, 128.96 -0.5 M182.54 46.08 C166.51 32.92, 150.93 18.65, 128.96 -0.5 M195.34 46.61 C180.48 31.91, 165.85 20.33, 141 -0.63 M195.34 46.61 C180.64 32.6, 165.48 19.34, 141 -0.63 M207.38 46.47 C189.62 31.48, 170.01 16.02, 153.04 -0.76 M207.38 46.47 C193.73 35.85, 181.15 23.07, 153.04 -0.76 M219.42 46.34 C206.91 34.26, 194.32 22.91, 165.08 -0.9 M219.42 46.34 C197.89 28.24, 176.06 8.45, 165.08 -0.9 M231.46 46.21 C212.53 28.3, 191.84 11.32, 177.12 -1.03 M231.46 46.21 C218.55 35.04, 203.35 22.97, 177.12 -1.03 M244.26 46.73 C223.33 28.94, 206.59 11.4, 189.92 -0.51 M244.26 46.73 C229.97 34.48, 214.94 21.2, 189.92 -0.51 M256.3 46.6 C243.51 38.47, 233.64 27.35, 201.96 -0.64 M256.3 46.6 C243.73 36.08, 233.56 25.93, 201.96 -0.64 M268.34 46.46 C255.94 36.24, 242.68 25.74, 214 -0.77 M268.34 46.46 C249.54 31.62, 231.74 15.24, 214 -0.77 M280.38 46.33 C265.95 33.79, 249.06 18.22, 226.04 -0.91 M280.38 46.33 C267.18 34.19, 251.58 21.5, 226.04 -0.91 M292.42 46.2 C273.18 31.2, 257.24 15.74, 238.08 -1.04 M292.42 46.2 C277.2 34.1, 264.78 21.84, 238.08 -1.04 M305.22 46.72 C285.41 30.09, 265.26 12.79, 250.88 -0.52 M305.22 46.72 C285.91 28.14, 264.51 11.94, 250.88 -0.52 M317.26 46.59 C297.5 28.81, 281.1 15.33, 262.92 -0.65 M317.26 46.59 C299.73 30.47, 281.24 13.64, 262.92 -0.65 M329.3 46.45 C310.92 30.41, 292.73 12.03, 274.96 -0.78 M329.3 46.45 C317.65 36.13, 307.13 27.41, 274.96 -0.78 M341.34 46.32 C328.71 34.49, 315.45 24.3, 287 -0.92 M341.34 46.32 C323.52 31.1, 305.79 15.09, 287 -0.92 M353.38 46.19 C333.45 30.32, 315.74 14.34, 299.04 -1.05 M353.38 46.19 C341.9 37.12, 329.85 26.71, 299.04 -1.05 M366.17 46.71 C345.5 30.11, 325.34 10.39, 311.84 -0.53 M366.17 46.71 C351.98 35.82, 340.53 24.29, 311.84 -0.53 M378.22 46.58 C359.46 29.38, 336.75 12.51, 323.88 -0.66 M378.22 46.58 C358.78 28.65, 339.52 13.19, 323.88 -0.66 M384.22 41.2 C370.21 27.46, 355.33 16.84, 335.92 -0.79 M384.22 41.2 C366.78 25.38, 350.38 12.29, 335.92 -0.79 M384.18 30.57 C371.47 19.06, 356.27 3.87, 347.96 -0.93 M384.18 30.57 C377.5 23.35, 368.93 17.08, 347.96 -0.93 M384.15 19.93 C374.88 9.92, 364.85 1.82, 360 -1.06 M384.15 19.93 C374.82 12.14, 367.61 5.71, 360 -1.06 M384.12 9.3 C380.7 5.06, 376.98 2.59, 372.79 -0.54 M384.12 9.3 C382.35 6.94, 379.64 5.86, 372.79 -0.54" stroke="#4dabf7" stroke-width="1" fill="none"></path><path d="M0 0 C120 -1.94, 237.25 -1.63, 383.76 0 M0 0 C97.4 -1.18, 195.09 -1.01, 383.76 0 M383.76 0 C385.37 16.22, 382.96 32.94, 383.76 46.4 M383.76 0 C384.39 15.1, 384.86 31, 383.76 46.4 M383.76 46.4 C280.46 48.22, 178.36 48.2, 0 46.4 M383.76 46.4 C301.69 47.79, 219.12 47.76, 0 46.4 M0 46.4 C-0.47 31.88, -0.47 21.94, 0 0 M0 46.4 C-0.11 35.34, -0.25 25.9, 0 0" stroke="#1e1e1e" stroke-width="2" fill="none"></path></g><g stroke-linecap="round" transform="translate(340.1888013776088 291.6333037583038) rotate(0 399.1422570863 349.5)"><path d="M0 0 C220.43 1.03, 441.02 1.07, 798.28 0 M0 0 C282.68 -1.25, 564.68 -1.72, 798.28 0 M798.28 0 C796.95 225.77, 797.5 451.22, 798.28 699 M798.28 0 C797.23 214.29, 797.24 427.77, 798.28 699 M798.28 699 C559.78 699.27, 319.75 698.79, 0 699 M798.28 699 C511.41 699.98, 223.45 699.69, 0 699 M0 699 C0.94 526.28, 0.46 353.78, 0 0 M0 699 C0.21 556.36, 0.11 414.06, 0 0" stroke="#1e1e1e" stroke-width="2" fill="none"></path></g><g stroke-linecap="round"><g transform="translate(726.1888013776088 292.6333037583038) rotate(0 -0.27662603868907354 165.17494141376577)"><path d="M-1.09 0.9 C-0.97 55.84, -0.21 273.93, -0.1 328.66 M0.54 0.32 C0.56 55.53, -0.78 274.94, -1.1 330.03" stroke="#1e1e1e" stroke-width="2" fill="none"></path></g></g><mask></mask><g stroke-linecap="round"><g transform="translate(339.1888013776088 620.6333037583038) rotate(0 401.4991229112396 0.034481561757161217)"><path d="M0.82 -1.14 C134.5 -1.07, 669.31 -0.65, 803.2 -0.35 M-0.2 0.88 C133.2 1.19, 668.13 1.37, 802.13 1.01" stroke="#1e1e1e" stroke-width="2" fill="none"></path></g></g><mask></mask><g transform="translate(457.1888013776088 295.6333037583038) rotate(0 72.9707308959961 25.5)"><text x="0" y="35.74080000000001" font-family="Virgil, Segoe UI Emoji" font-size="40.800000000000004px" fill="#1e1e1e" text-anchor="start" style="white-space: pre;" direction="ltr" dominant-baseline="alphabetic">Analisis</text></g><g transform="translate(1080.2398182157087 540.2446780772009) rotate(89.99999999999994 102.28556823730469 25.5)"><text x="0" y="35.74080000000001" font-family="Virgil, Segoe UI Emoji" font-size="40.800000000000004px" fill="#1e1e1e" text-anchor="start" style="white-space: pre;" direction="ltr" dominant-baseline="alphabetic">Planeación</text></g><g transform="translate(359.4721530816595 353.0086314767864) rotate(0 171.087890625 20.700000000000003)"><text x="0" y="33.120703125" font-family="Helvetica, Segoe UI Emoji" font-size="36px" fill="#1e1e1e" text-anchor="start" style="white-space: pre;" direction="ltr" dominant-baseline="alphabetic">Analisis del problema</text></g><g transform="translate(362.6413182401608 539.1665185632489) rotate(0 185.3622187437681 12.631748481865088)"><text x="0" y="17.70465867218209" font-family="Virgil, Segoe UI Emoji" font-size="20.210797570984123px" fill="#1e1e1e" text-anchor="start" style="white-space: pre;" direction="ltr" dominant-baseline="alphabetic">Listan y evaluan los requerimientos</text></g><g transform="translate(869.2604395052676 296.1933738697357) rotate(0 65.70838165283203 25.5)"><text x="0" y="35.74080000000001" font-family="Virgil, Segoe UI Emoji" font-size="40.800000000000004px" fill="#1e1e1e" text-anchor="start" style="white-space: pre;" direction="ltr" dominant-baseline="alphabetic">Diseño</text></g><g stroke-linecap="round"><g transform="translate(726.0177115198424 342.58147979678824) rotate(0 205.5328120208364 -0.49204446765976684)"><path d="M0.22 -0.19 C68.75 -0.38, 343.34 -0.79, 412.19 -0.78 M-1.12 -1.33 C67.12 -1.42, 341.97 -0.05, 410.97 0.35" stroke="#1e1e1e" stroke-width="2" fill="none"></path></g></g><mask></mask><g transform="translate(750.3350239528379 353.391993157611) rotate(0 174.6357879638672 21.189758112128146)"><text x="174.6357879638672" y="29.699564969958807" font-family="Virgil, Segoe UI Emoji" font-size="33.90361297940503px" fill="#2f9e44" text-anchor="middle" style="white-space: pre;" direction="ltr" dominant-baseline="alphabetic"> Diseño de Software</text></g><g transform="translate(808.5628462935188 397.96199442211537) rotate(0 126.43205235490905 28.101511067605372)"><text x="126.43205235490908" y="19.69353895617784" font-family="Virgil, Segoe UI Emoji" font-size="22.48120885408429px" fill="#1e1e1e" text-anchor="middle" style="white-space: pre;" direction="ltr" dominant-baseline="alphabetic">Para dar más detalle </text><text x="126.43205235490908" y="47.795050023783205" font-family="Virgil, Segoe UI Emoji" font-size="22.48120885408429px" fill="#1e1e1e" text-anchor="middle" style="white-space: pre;" direction="ltr" dominant-baseline="alphabetic">a los requerimientos</text></g><g stroke-linecap="round"><g transform="translate(726.0177115198424 478.978187329414) rotate(0 205.75944213578208 0.8951274898278712)"><path d="M-1.14 0.95 C67.68 0.77, 343.77 0.08, 412.65 0.09 M0.47 0.4 C69.14 0.94, 343.23 1.88, 411.68 1.67" stroke="#1e1e1e" stroke-width="2" fill="none"></path></g></g><mask></mask><g transform="translate(725.5872695760193 496.90879013602995) rotate(0 203.10031127929688 18.788167927403407)"><text x="203.10031127929688" y="26.333496167048622" font-family="Virgil, Segoe UI Emoji" font-size="30.061068683845455px" fill="#2f9e44" text-anchor="middle" style="white-space: pre;" direction="ltr" dominant-baseline="alphabetic"> Diseño de grafico web/app</text></g><g transform="translate(785.5007697140807 541.6871632106362) rotate(0 148.60394287109375 28.101511067605372)"><text x="148.60394287109375" y="19.69353895617784" font-family="Virgil, Segoe UI Emoji" font-size="22.48120885408429px" fill="#1e1e1e" text-anchor="middle" style="white-space: pre;" direction="ltr" dominant-baseline="alphabetic">UI / Interfase de usuario</text><text x="148.60394287109375" y="47.795050023783205" font-family="Virgil, Segoe UI Emoji" font-size="22.48120885408429px" fill="#1e1e1e" text-anchor="middle" style="white-space: pre;" direction="ltr" dominant-baseline="alphabetic">Prototipo / Producto</text></g><g transform="translate(370.6130398330073 566.0765014186572) rotate(0 164.62586975097656 14.93703217789485)"><text x="0" y="20.935744300537415" font-family="Virgil, Segoe UI Emoji" font-size="23.899251484631755px" fill="#1e1e1e" text-anchor="start" style="white-space: pre;" direction="ltr" dominant-baseline="alphabetic">Elicitación de requerimientos</text></g><g stroke-linecap="round" transform="translate(371.3857001606275 455.88107402248716) rotate(0 21.223584113063225 21.223584113063197)"><path d="M6.88 5.98 C6.88 5.98, 6.88 5.98, 6.88 5.98 M6.88 5.98 C6.88 5.98, 6.88 5.98, 6.88 5.98 M1.11 24.81 C7.29 15.98, 16.16 8.91, 21.44 1.42 M1.11 24.81 C7.77 16.48, 15.25 8.16, 21.44 1.42 M3.86 33.83 C12 22.47, 21.1 12.37, 30.11 3.64 M3.86 33.83 C10.39 25.85, 17.38 18.23, 30.11 3.64 M10.56 38.33 C20.9 28.09, 30.54 15.84, 36.14 8.89 M10.56 38.33 C17.85 30.59, 24.64 23.26, 36.14 8.89 M18.56 41.31 C24.71 34.63, 28.55 28.74, 41.52 14.9 M18.56 41.31 C23.54 35.27, 29.47 29.73, 41.52 14.9 M29.85 40.52 C33.3 36.7, 35.52 32.81, 41 27.69 M29.85 40.52 C32.29 37.82, 34.82 35.2, 41 27.69 M3.03 33.1 C3.03 33.1, 3.03 33.1, 3.03 33.1 M3.03 33.1 C3.03 33.1, 3.03 33.1, 3.03 33.1 M24.13 40.84 C15.9 34.71, 9.51 26.86, -0.02 19.84 M24.13 40.84 C14.32 33.12, 5.35 24.31, -0.02 19.84 M32.39 37.42 C22.58 28.08, 11.35 18.48, 3.72 12.49 M32.39 37.42 C23.46 29.61, 13.95 21.51, 3.72 12.49 M38.4 32.04 C26.57 21.85, 16.39 13.23, 8.21 5.8 M38.4 32.04 C28.29 23.08, 17.75 13.76, 8.21 5.8 M41.38 24.04 C30.21 16.11, 21.91 6.02, 15.72 1.73 M41.38 24.04 C32.17 16.08, 22.98 8.58, 15.72 1.73 M39.08 11.44 C35.51 8.92, 32.34 4.98, 29.27 2.91 M39.08 11.44 C34.99 8.08, 31.3 4.8, 29.27 2.91" stroke="#4dabf7" stroke-width="1" fill="none"></path><path d="M19.94 0.38 C24.14 -0.17, 29.61 1.94, 33.26 4.53 C36.91 7.12, 40.6 11.54, 41.81 15.9 C43.02 20.27, 42.62 26.63, 40.54 30.72 C38.46 34.81, 33.56 38.66, 29.32 40.42 C25.09 42.19, 19.49 42.51, 15.14 41.32 C10.8 40.14, 5.86 37.11, 3.28 33.31 C0.69 29.52, -0.93 23.09, -0.36 18.57 C0.21 14.04, 3.16 9.35, 6.7 6.18 C10.24 3.02, 18.56 0.5, 20.86 -0.43 C23.17 -1.36, 20.53 0.23, 20.55 0.58 M19.4 0.31 C23.87 -0.37, 30.42 1, 34.11 3.66 C37.81 6.31, 40.65 11.66, 41.57 16.24 C42.5 20.83, 41.51 27.04, 39.66 31.16 C37.81 35.29, 34.62 39.24, 30.48 41.01 C26.34 42.77, 19.22 43.13, 14.84 41.76 C10.46 40.39, 6.63 36.54, 4.19 32.8 C1.75 29.06, -0.17 23.9, 0.2 19.32 C0.58 14.74, 3.25 8.51, 6.45 5.31 C9.65 2.11, 17.21 0.86, 19.38 0.13 C21.56 -0.6, 19.44 0.64, 19.5 0.94" stroke="#1e1e1e" stroke-width="2" fill="none"></path></g><g stroke-linecap="round" transform="translate(419.03048082260625 455.88107402248716) rotate(0 21.223584113063225 21.223584113063197)"><path d="M6.03 6.57 C6.03 6.57, 6.03 6.57, 6.03 6.57 M6.03 6.57 C6.03 6.57, 6.03 6.57, 6.03 6.57 M0.92 24.65 C8.34 17.45, 13.76 9.88, 21.26 1.25 M0.92 24.65 C5.82 19.34, 10.95 13.37, 21.26 1.25 M4.33 32.92 C9.43 26.33, 14.81 20.43, 30.57 2.73 M4.33 32.92 C11.65 24.47, 19.73 15.07, 30.57 2.73 M10.37 38.16 C20.05 26.69, 31.1 14.62, 36.61 7.98 M10.37 38.16 C18.15 29.15, 25.59 20.53, 36.61 7.98 M17.06 42.66 C21.53 35.91, 27.36 30.32, 41.34 14.73 M17.06 42.66 C23.24 35.71, 29.14 28.51, 41.34 14.73 M29.66 40.36 C32.68 37.55, 34.42 34.83, 41.47 26.78 M29.66 40.36 C32.43 37.35, 35.05 34.3, 41.47 26.78 M4.43 34.54 C4.43 34.54, 4.43 34.54, 4.43 34.54 M4.43 34.54 C4.43 34.54, 4.43 34.54, 4.43 34.54 M24.01 40.97 C19.42 37.21, 14.37 32.62, -0.14 19.97 M24.01 40.97 C17.65 35.88, 11.61 29.97, -0.14 19.97 M33.04 38.21 C26.15 32.15, 18.44 26.78, 3.6 12.62 M33.04 38.21 C24.53 30.69, 16.91 23.95, 3.6 12.62 M38.28 32.17 C31.99 26.89, 25.88 21.95, 8.1 5.93 M38.28 32.17 C30.94 25.35, 23.13 18.95, 8.1 5.93 M41.27 24.17 C34.5 18.51, 29.31 12.16, 15.61 1.86 M41.27 24.17 C34.35 18.63, 27.79 11.96, 15.61 1.86 M41.23 13.54 C36.64 10.35, 33.17 7.09, 27.65 1.73 M41.23 13.54 C37.48 9.78, 33.05 6.22, 27.65 1.73" stroke="#b2f2bb" stroke-width="1" fill="none"></path><path d="M17.97 0.28 C22.19 -0.66, 28.76 0.49, 32.62 2.79 C36.48 5.09, 39.77 9.76, 41.13 14.07 C42.48 18.38, 42.44 24.32, 40.74 28.62 C39.04 32.93, 34.91 37.68, 30.92 39.91 C26.93 42.15, 21.2 42.92, 16.8 42.04 C12.4 41.16, 7.39 38.17, 4.53 34.63 C1.66 31.08, -0.59 25.39, -0.38 20.76 C-0.16 16.12, 2.6 10.29, 5.82 6.82 C9.03 3.35, 16.71 1.05, 18.93 -0.06 C21.14 -1.18, 19.19 -0.32, 19.12 0.14 M22.28 -0.2 C26.69 -0.58, 32.14 1.72, 35.46 4.8 C38.78 7.88, 41.49 13.72, 42.18 18.27 C42.88 22.82, 42 28.2, 39.62 32.1 C37.24 35.99, 32.29 40.21, 27.91 41.64 C23.52 43.07, 17.63 42.35, 13.31 40.66 C8.98 38.98, 4.1 35.49, 1.98 31.55 C-0.15 27.61, -0.53 21.48, 0.56 17.02 C1.65 12.57, 5.05 7.52, 8.52 4.8 C11.99 2.09, 19.29 1.45, 21.38 0.73 C23.47 0.02, 21.16 0.31, 21.06 0.53" stroke="#1e1e1e" stroke-width="2" fill="none"></path></g><g stroke-linecap="round" transform="translate(465.8089927452763 455.88107402248716) rotate(0 21.223584113063225 21.223584113063197)"><path d="M6.1 6.63 C6.1 6.63, 6.1 6.63, 6.1 6.63 M6.1 6.63 C6.1 6.63, 6.1 6.63, 6.1 6.63 M1.64 23.96 C7.62 18.83, 11.08 11.79, 21.33 1.31 M1.64 23.96 C7.2 17.9, 12.23 12.06, 21.33 1.31 M4.4 32.98 C12.65 24.26, 20.03 15.92, 29.99 3.54 M4.4 32.98 C10.44 26.68, 16.28 19.56, 29.99 3.54 M10.44 38.23 C18.04 30.37, 25.58 21.66, 36.68 8.04 M10.44 38.23 C17.27 30.7, 23.28 23.2, 36.68 8.04 M17.79 41.96 C27.19 31.99, 36.41 21.44, 41.41 14.8 M17.79 41.96 C24.56 33.64, 32.02 25.96, 41.41 14.8 M30.39 39.67 C34.16 35.61, 38 31.15, 41.54 26.84 M30.39 39.67 C33.31 36.56, 35.73 32.81, 41.54 26.84 M4.57 34.38 C4.57 34.38, 4.57 34.38, 4.57 34.38 M4.57 34.38 C4.57 34.38, 4.57 34.38, 4.57 34.38 M24.15 40.81 C18.26 35.69, 11.62 29.94, 0 19.81 M24.15 40.81 C15.24 32.47, 5.59 25.02, 0 19.81 M32.42 37.39 C22.56 28.38, 13.21 21.61, 3.74 12.46 M32.42 37.39 C23.31 29.74, 14.87 21.68, 3.74 12.46 M38.42 32.01 C31.62 24.97, 22.99 19.06, 8.24 5.77 M38.42 32.01 C31.95 26.95, 26.14 20.64, 8.24 5.77 M41.41 24.01 C30.91 15.88, 22.29 7.09, 15.75 1.7 M41.41 24.01 C31.98 15.89, 23.05 8.41, 15.75 1.7 M38.35 10.75 C35.44 7.92, 33.25 5.48, 27.79 1.57 M38.35 10.75 C34.55 7.65, 31.42 4.78, 27.79 1.57" stroke="#ffec99" stroke-width="1" fill="none"></path><path d="M18.77 0.26 C23.05 -0.35, 28.96 1.49, 32.77 3.95 C36.57 6.41, 40.19 10.8, 41.59 15.03 C43 19.26, 42.99 25.2, 41.2 29.31 C39.4 33.43, 34.96 37.62, 30.81 39.71 C26.65 41.81, 20.68 42.83, 16.26 41.9 C11.83 40.97, 7.01 37.76, 4.28 34.13 C1.54 30.49, -0.44 24.66, -0.14 20.08 C0.16 15.49, 2.79 9.94, 6.1 6.64 C9.4 3.34, 17.23 1.22, 19.68 0.26 C22.14 -0.69, 20.87 0.52, 20.83 0.91 M16.13 0.96 C20.32 -0.3, 27.25 -0.07, 31.46 1.89 C35.67 3.84, 39.81 8.5, 41.41 12.69 C43 16.88, 42.5 22.55, 41.03 27.01 C39.55 31.46, 36.26 36.94, 32.55 39.43 C28.84 41.93, 23.39 42.75, 18.77 41.98 C14.16 41.21, 7.9 38.2, 4.85 34.82 C1.8 31.44, 0.57 26.21, 0.47 21.71 C0.37 17.21, 1.53 11.35, 4.26 7.8 C6.98 4.25, 14.83 1.59, 16.82 0.42 C18.81 -0.75, 16.24 0.35, 16.19 0.78" stroke="#f08c00" stroke-width="2" fill="none"></path></g><g stroke-linecap="round" transform="translate(512.5875046679463 455.88107402248716) rotate(0 21.22358411306317 21.223584113063197)"><path d="M1.82 13.5 C1.82 13.5, 1.82 13.5, 1.82 13.5 M1.82 13.5 C1.82 13.5, 1.82 13.5, 1.82 13.5 M0.64 27.05 C7.26 20.33, 14.7 11.76, 22.94 1.39 M0.64 27.05 C5.82 21.6, 10.76 15.75, 22.94 1.39 M6.02 33.06 C13.28 23.9, 20.12 15.81, 30.95 4.38 M6.02 33.06 C13.52 23.87, 22.17 14.91, 30.95 4.38 M10.74 39.82 C18.99 31.42, 25.16 22.4, 37.64 8.87 M10.74 39.82 C16.66 32.88, 22.08 26.68, 37.64 8.87 M19.41 42.05 C24.94 34.26, 32.64 27.32, 41.06 17.14 M19.41 42.05 C24.34 37.11, 28.82 32.12, 41.06 17.14 M33.97 37.48 C35.09 36.47, 36.41 35.21, 39.22 31.44 M33.97 37.48 C35.31 35.84, 36.88 34.01, 39.22 31.44 M9.92 38.89 C9.92 38.89, 9.92 38.89, 9.92 38.89 M9.92 38.89 C9.92 38.89, 9.92 38.89, 9.92 38.89 M24.98 41.38 C18.9 36.38, 12.99 31.17, 1.59 21.04 M24.98 41.38 C18.66 36.11, 11.81 30.27, 1.59 21.04 M32.49 37.31 C26.46 31.59, 18.32 25.73, 3.06 11.72 M32.49 37.31 C24.03 29.88, 16.38 22.83, 3.06 11.72 M38.5 31.93 C28.37 23.86, 17.08 14.52, 8.31 5.68 M38.5 31.93 C28.07 23.09, 16.84 13.74, 8.31 5.68 M41.48 23.92 C33.03 18, 25.57 10.82, 15.82 1.61 M41.48 23.92 C36.45 19.46, 30.43 14.85, 15.82 1.61 M39.18 11.32 C35.34 7.16, 30.55 3.83, 25.6 -0.49 M39.18 11.32 C35.97 8.17, 32.68 5.13, 25.6 -0.49" stroke="#b2f2bb" stroke-width="1" fill="none"></path><path d="M25.45 0.05 C29.61 0.75, 34.97 4.97, 37.83 8.59 C40.68 12.21, 42.82 17.24, 42.58 21.76 C42.35 26.27, 39.58 32.21, 36.41 35.68 C33.23 39.15, 27.93 42, 23.55 42.56 C19.17 43.12, 13.92 41.6, 10.11 39.05 C6.3 36.49, 2.07 31.5, 0.69 27.24 C-0.68 22.97, 0.03 17.62, 1.85 13.47 C3.67 9.31, 7.42 4.37, 11.6 2.29 C15.78 0.22, 24.27 1.26, 26.94 1.03 C29.61 0.79, 27.72 0.63, 27.6 0.89 M21.06 0.37 C25.32 -0.1, 30.97 1.69, 34.51 4.38 C38.05 7.07, 41.39 12.06, 42.31 16.53 C43.23 21, 42.36 27.25, 40.02 31.2 C37.68 35.16, 32.51 38.56, 28.25 40.26 C23.98 41.97, 18.52 42.79, 14.43 41.43 C10.33 40.07, 5.93 36.06, 3.66 32.13 C1.39 28.2, 0.22 22.39, 0.82 17.83 C1.43 13.27, 3.92 7.65, 7.3 4.79 C10.69 1.94, 18.85 1.36, 21.14 0.72 C23.44 0.09, 21.15 0.79, 21.06 0.99" stroke="#2f9e44" stroke-width="2" fill="none"></path></g><g stroke-linecap="round" transform="translate(559.3660165906164 455.88107402248716) rotate(0 21.22358411306317 21.223584113063197)"><path d="M6.81 5.92 C6.81 5.92, 6.81 5.92, 6.81 5.92 M6.81 5.92 C6.81 5.92, 6.81 5.92, 6.81 5.92 M1.7 24 C6.39 18, 12.66 11.38, 22.03 0.6 M1.7 24 C6.92 18.28, 12.5 11.32, 22.03 0.6 M4.45 33.02 C11.63 24.76, 20.01 16.23, 30.04 3.59 M4.45 33.02 C12.25 24.04, 19.26 15.3, 30.04 3.59 M10.49 38.27 C19.74 26.85, 29.34 15.66, 36.73 8.08 M10.49 38.27 C17.63 29.75, 24.73 22.46, 36.73 8.08 M17.84 42.01 C25.06 34.27, 32.02 26.9, 41.46 14.84 M17.84 42.01 C26.75 32.63, 34.91 22.21, 41.46 14.84 M29.13 41.22 C33.69 36.39, 37.01 33.06, 41.59 26.88 M29.13 41.22 C33.66 36.12, 38.32 30.95, 41.59 26.88 M3.36 32.72 C3.36 32.72, 3.36 32.72, 3.36 32.72 M3.36 32.72 C3.36 32.72, 3.36 32.72, 3.36 32.72 M24.45 40.46 C17.99 34.44, 11.19 30.09, 0.3 19.47 M24.45 40.46 C17.16 34.81, 11.04 28.4, 0.3 19.47 M32.72 37.05 C24.54 30.23, 15.5 23.07, 3.29 11.46 M32.72 37.05 C24.37 29.86, 17.15 23.37, 3.29 11.46 M39.48 32.32 C33.32 26.5, 26.99 20.16, 8.53 5.42 M39.48 32.32 C32.4 26.4, 24.84 20.08, 8.53 5.42 M41.71 23.66 C35.29 17.77, 29.31 12.58, 16.8 2.01 M41.71 23.66 C34.78 18.09, 28.01 11.65, 16.8 2.01 M38.65 10.41 C36.07 8.61, 33.95 6.05, 30.35 3.19 M38.65 10.41 C36.91 8.95, 34.6 6.89, 30.35 3.19" stroke="#a5d8ff" stroke-width="1" fill="none"></path><path d="M20.5 0.39 C24.72 0.04, 30.55 2.1, 34.22 4.91 C37.89 7.72, 41.56 12.81, 42.52 17.23 C43.48 21.65, 42.23 27.53, 40 31.43 C37.77 35.34, 33.43 38.94, 29.16 40.65 C24.9 42.35, 18.75 43.01, 14.41 41.66 C10.06 40.3, 5.52 36.44, 3.12 32.51 C0.72 28.59, -0.66 22.58, 0 18.09 C0.67 13.59, 3.53 8.6, 7.13 5.56 C10.73 2.51, 19.04 0.59, 21.58 -0.19 C24.13 -0.96, 22.44 0.59, 22.39 0.89 M22.41 0.05 C26.68 -0.12, 32.33 2.24, 35.54 5.27 C38.75 8.3, 41.09 13.58, 41.66 18.25 C42.23 22.92, 41.26 29.4, 38.97 33.27 C36.68 37.15, 32.28 40.25, 27.9 41.52 C23.52 42.78, 16.9 42.6, 12.68 40.88 C8.46 39.16, 4.62 35.28, 2.59 31.19 C0.57 27.09, -0.52 20.8, 0.53 16.3 C1.57 11.81, 5.23 6.92, 8.88 4.24 C12.52 1.56, 20.26 0.99, 22.39 0.24 C24.53 -0.51, 21.67 -0.54, 21.68 -0.24" stroke="#1e1e1e" stroke-width="2" fill="none"></path></g><g stroke-linecap="round" transform="translate(607.0107972525951 455.88107402248716) rotate(0 21.22358411306317 21.223584113063197)"><path d="M9.06 3.9 C9.06 3.9, 9.06 3.9, 9.06 3.9 M9.06 3.9 C9.06 3.9, 9.06 3.9, 9.06 3.9 M1.98 24.24 C9.42 15.89, 15.49 8.29, 22.97 0.09 M1.98 24.24 C9.29 16.31, 16.13 7.68, 22.97 0.09 M4.73 33.27 C13.66 22.83, 22.77 11.7, 30.32 3.83 M4.73 33.27 C14.79 22.38, 23.71 10.77, 30.32 3.83 M10.12 39.27 C18.36 29.77, 27.02 20.85, 37.67 7.57 M10.12 39.27 C17.59 30.87, 24.28 23.05, 37.67 7.57 M18.78 41.5 C26.29 32.44, 33.19 24.3, 41.08 15.84 M18.78 41.5 C25 34.7, 30.94 28.01, 41.08 15.84 M30.72 39.95 C32.88 37.15, 35.87 35.04, 40.56 28.63 M30.72 39.95 C34.03 36.19, 37.34 32.82, 40.56 28.63" stroke="#ffec99" stroke-width="1" fill="none"></path><path d="M23.09 0.2 C27.42 0.36, 33.14 2.97, 36.31 6.23 C39.49 9.49, 41.76 15.21, 42.13 19.76 C42.49 24.32, 41.05 29.96, 38.5 33.57 C35.96 37.19, 31.32 40.25, 26.87 41.44 C22.42 42.63, 15.97 42.69, 11.81 40.73 C7.64 38.78, 3.68 33.88, 1.9 29.74 C0.12 25.59, -0.07 20.16, 1.13 15.86 C2.32 11.55, 5.21 6.45, 9.07 3.89 C12.92 1.34, 21.62 0.98, 24.27 0.5 C26.92 0.03, 24.94 0.71, 24.95 1.04 M15.63 0.76 C19.84 -0.5, 26.52 -0.22, 30.66 1.85 C34.8 3.91, 38.76 9, 40.47 13.15 C42.19 17.3, 42.1 22.51, 40.95 26.72 C39.8 30.94, 37.25 35.74, 33.58 38.45 C29.92 41.15, 23.53 43.45, 18.97 42.95 C14.41 42.46, 9.36 38.91, 6.21 35.47 C3.06 32.04, 0.54 26.85, 0.06 22.34 C-0.42 17.82, 0.63 11.97, 3.34 8.36 C6.06 4.76, 14.14 1.94, 16.36 0.71 C18.59 -0.51, 16.73 0.67, 16.71 1.01" stroke="#f08c00" stroke-width="2" fill="none"></path></g><g stroke-linecap="round" transform="translate(654.6555779145739 455.88107402248716) rotate(0 21.22358411306317 21.223584113063197)"><path d="M3.83 8.63 C3.83 8.63, 3.83 8.63, 3.83 8.63 M3.83 8.63 C3.83 8.63, 3.83 8.63, 3.83 8.63 M0.69 24.45 C4.83 19.2, 9.97 13.97, 21.02 1.05 M0.69 24.45 C6.45 18.01, 12.44 10.44, 21.02 1.05 M4.76 31.96 C10.82 25.25, 17.21 16.79, 31 1.77 M4.76 31.96 C13.1 22.15, 21.14 12.81, 31 1.77 M10.14 37.96 C18.83 27.8, 27.69 19.14, 36.38 7.77 M10.14 37.96 C19.72 27.05, 29.75 15.58, 36.38 7.77 M17.49 41.7 C24.45 34.38, 31.57 26, 41.76 13.78 M17.49 41.7 C22.52 35.54, 28.56 29.54, 41.76 13.78 M28.77 40.91 C32.68 36.6, 35.97 32.21, 41.89 25.82 M28.77 40.91 C34.15 34.6, 38.85 28.81, 41.89 25.82 M6.14 35.62 C6.14 35.62, 6.14 35.62, 6.14 35.62 M6.14 35.62 C6.14 35.62, 6.14 35.62, 6.14 35.62 M24.21 40.74 C16.26 34.88, 10.71 27.73, 0.82 20.4 M24.21 40.74 C15.29 32.94, 7.53 25.86, 0.82 20.4 M33.99 38.64 C25.09 31.84, 16.35 23.99, 3.05 11.74 M33.99 38.64 C22.81 29.34, 11.79 19.3, 3.05 11.74 M38.48 31.94 C32 27.47, 26.09 20.91, 8.3 5.7 M38.48 31.94 C26.1 21.47, 14.61 11.19, 8.3 5.7 M42.22 24.59 C33.45 16.39, 23.42 8.63, 15.05 0.97 M42.22 24.59 C33.17 15.9, 23.52 8.11, 15.05 0.97 M41.43 13.31 C37.67 11.33, 34.68 7.47, 27.85 1.5 M41.43 13.31 C38.76 10.64, 35.22 7.87, 27.85 1.5" stroke="#4dabf7" stroke-width="1" fill="none"></path><path d="M16.8 0.45 C20.96 -0.8, 26.67 -0.24, 30.69 1.95 C34.7 4.14, 39.08 9.32, 40.92 13.59 C42.76 17.86, 43.05 23.3, 41.73 27.58 C40.4 31.87, 36.79 36.9, 32.95 39.29 C29.11 41.67, 23.2 42.53, 18.69 41.88 C14.18 41.23, 9.05 38.73, 5.87 35.39 C2.7 32.06, -0.06 26.37, -0.37 21.88 C-0.68 17.39, 0.96 12, 4 8.45 C7.03 4.89, 15.16 1.79, 17.83 0.53 C20.5 -0.73, 19.81 0.58, 20.02 0.88 M18.53 0.24 C22.79 -0.79, 28.08 0.48, 31.98 2.73 C35.89 4.98, 40.36 9.32, 41.95 13.75 C43.53 18.19, 43.2 24.96, 41.5 29.35 C39.79 33.73, 35.91 37.89, 31.74 40.06 C27.57 42.23, 21.13 43.32, 16.5 42.37 C11.87 41.41, 6.74 37.84, 3.95 34.33 C1.15 30.82, -0.45 25.77, -0.28 21.31 C-0.12 16.84, 1.98 11.11, 4.95 7.54 C7.92 3.97, 15.3 1.12, 17.52 -0.1 C19.74 -1.32, 18.2 -0.08, 18.27 0.22" stroke="#1e1e1e" stroke-width="2" fill="none"></path></g><g stroke-linecap="round"><g transform="translate(363.7464097963176 476.02176859358485) rotate(0 -20.832845596463414 -64.01495477335311)"><path d="M0 0 C-8.74 -26.58, -21.03 -54.41, -41.67 -128.03 M0 0 C-12.74 -41.2, -26.7 -82.26, -41.67 -128.03" stroke="#1e1e1e" stroke-width="2" fill="none"></path></g><g transform="translate(363.7464097963176 476.02176859358485) rotate(0 -20.832845596463414 -64.01495477335311)"><path d="M-26.19 -108.39 C-28.26 -111.84, -34.9 -116.29, -41.67 -128.03 M-26.19 -108.39 C-30.38 -114.4, -35.81 -120.17, -41.67 -128.03" stroke="#1e1e1e" stroke-width="2" fill="none"></path></g><g transform="translate(363.7464097963176 476.02176859358485) rotate(0 -20.832845596463414 -64.01495477335311)"><path d="M-42.44 -103.04 C-41.05 -107.79, -44.19 -113.39, -41.67 -128.03 M-42.44 -103.04 C-41.34 -110.85, -41.48 -118.36, -41.67 -128.03" stroke="#1e1e1e" stroke-width="2" fill="none"></path></g></g><mask></mask><g transform="translate(10 189.54453029654456) rotate(0 144.0851593017578 127.50000000000003)"><text x="288.1703186035156" y="35.74080000000001" font-family="Virgil, Segoe UI Emoji" font-size="40.800000000000004px" fill="#1e1e1e" text-anchor="end" style="white-space: pre;" direction="ltr" dominant-baseline="alphabetic"></text><text x="288.1703186035156" y="86.74080000000001" font-family="Virgil, Segoe UI Emoji" font-size="40.800000000000004px" fill="#1e1e1e" text-anchor="end" style="white-space: pre;" direction="ltr" dominant-baseline="alphabetic">Requerimientos</text><text x="288.1703186035156" y="137.74080000000004" font-family="Virgil, Segoe UI Emoji" font-size="40.800000000000004px" fill="#1e1e1e" text-anchor="end" style="white-space: pre;" direction="ltr" dominant-baseline="alphabetic">Fronteras</text><text x="288.1703186035156" y="188.74080000000004" font-family="Virgil, Segoe UI Emoji" font-size="40.800000000000004px" fill="#1e1e1e" text-anchor="end" style="white-space: pre;" direction="ltr" dominant-baseline="alphabetic">Epicas</text><text x="288.1703186035156" y="239.74080000000004" font-family="Virgil, Segoe UI Emoji" font-size="40.800000000000004px" fill="#1e1e1e" text-anchor="end" style="white-space: pre;" direction="ltr" dominant-baseline="alphabetic">Modulos</text></g><g transform="translate(395.023430593772 508.442712868431) rotate(0 20.494320504671578 2.9991688543422015)" stroke="none"><path fill="#1e1e1e" d="M 0.38,-2.28 Q 0.38,-2.28 2.09,-1.96 3.81,-1.63 5.50,-1.19 7.19,-0.75 9.00,-0.23 10.80,0.27 12.96,0.85 15.12,1.43 16.74,1.91 18.35,2.40 20.36,2.86 22.37,3.33 23.63,3.37 24.89,3.41 26.06,3.41 27.22,3.41 28.89,3.13 30.55,2.85 32.35,1.68 34.15,0.51 35.36,-0.13 36.58,-0.79 37.54,-1.11 38.50,-1.42 38.82,-1.76 39.14,-2.09 39.55,-2.30 39.96,-2.51 40.42,-2.58 40.87,-2.65 41.33,-2.57 41.78,-2.49 42.19,-2.27 42.60,-2.05 42.91,-1.71 43.23,-1.38 43.42,-0.95 43.61,-0.53 43.65,-0.07 43.70,0.38 43.59,0.83 43.49,1.28 43.25,1.67 43.01,2.07 42.65,2.36 42.29,2.66 41.86,2.82 41.43,2.99 40.97,3.01 40.51,3.03 40.06,2.90 39.62,2.78 39.24,2.51 38.86,2.25 38.58,1.88 38.31,1.51 38.16,1.07 38.02,0.63 38.03,0.17 38.03,-0.29 38.18,-0.72 38.33,-1.16 38.62,-1.52 38.90,-1.89 39.29,-2.15 39.67,-2.40 40.12,-2.52 40.57,-2.64 41.03,-2.61 41.49,-2.58 41.92,-2.40 42.34,-2.23 42.69,-1.93 43.04,-1.62 43.28,-1.23 43.51,-0.83 43.61,-0.37 43.70,0.07 43.65,0.53 43.59,0.99 43.39,1.40 43.19,1.82 43.20,1.82 43.20,1.82 41.41,2.89 39.63,3.95 38.19,4.57 36.76,5.20 35.78,5.73 34.81,6.26 33.33,7.11 31.85,7.97 29.48,8.23 27.10,8.49 25.80,8.43 24.50,8.38 22.62,7.96 20.74,7.54 18.94,6.84 17.14,6.13 15.73,5.63 14.31,5.13 12.04,4.74 9.77,4.35 7.93,3.94 6.08,3.54 4.58,3.16 3.08,2.78 1.34,2.53 -0.38,2.28 -0.64,2.20 -0.91,2.12 -1.15,1.98 -1.40,1.84 -1.60,1.65 -1.80,1.45 -1.94,1.22 -2.09,0.98 -2.18,0.71 -2.27,0.45 -2.29,0.17 -2.31,-0.10 -2.26,-0.37 -2.22,-0.65 -2.11,-0.91 -2.00,-1.16 -1.83,-1.38 -1.66,-1.61 -1.44,-1.78 -1.23,-1.96 -0.97,-2.08 -0.72,-2.20 -0.45,-2.25 -0.17,-2.31 0.10,-2.29 0.38,-2.28 0.38,-2.28 L 0.38,-2.28 Z"></path></g><g transform="translate(452.0076388262735 508.442712868431) rotate(0 16.495428698882108 2.9991688543422015)" stroke="none"><path fill="#1e1e1e" d="M 1.67,-1.67 Q 1.67,-1.67 2.56,-0.84 3.44,-0.00 5.06,0.55 6.67,1.10 8.89,1.21 11.12,1.32 12.80,1.40 14.49,1.48 16.28,1.83 18.08,2.18 19.70,2.63 21.33,3.09 22.42,3.20 23.52,3.32 24.85,3.32 26.19,3.31 27.62,3.25 29.06,3.18 29.01,2.09 28.96,0.99 30.58,-0.77 32.21,-2.54 32.67,-2.72 33.14,-2.89 33.64,-2.91 34.14,-2.93 34.62,-2.79 35.10,-2.65 35.51,-2.36 35.92,-2.07 36.22,-1.67 36.51,-1.27 36.66,-0.79 36.82,-0.31 36.81,0.18 36.80,0.68 36.63,1.15 36.47,1.62 36.16,2.01 35.85,2.41 35.43,2.68 35.01,2.96 34.52,3.08 34.04,3.21 33.54,3.17 33.04,3.14 32.58,2.94 32.12,2.75 31.74,2.42 31.37,2.09 31.12,1.66 30.86,1.22 30.77,0.73 30.67,0.24 30.73,-0.24 30.79,-0.74 31.01,-1.19 31.23,-1.64 31.58,-2.00 31.93,-2.36 32.37,-2.58 32.82,-2.81 33.31,-2.88 33.81,-2.95 34.30,-2.87 34.79,-2.78 35.23,-2.53 35.67,-2.29 36.01,-1.92 36.35,-1.56 36.55,-1.10 36.75,-0.64 36.80,-0.14 36.84,0.35 36.73,0.83 36.61,1.32 36.35,1.74 36.08,2.17 35.69,2.49 35.31,2.80 35.31,2.80 35.31,2.80 34.31,4.37 33.31,5.94 32.59,6.85 31.86,7.77 30.02,8.27 28.18,8.77 27.05,8.68 25.92,8.58 24.37,8.36 22.83,8.15 21.46,7.91 20.10,7.68 18.65,7.31 17.19,6.93 15.80,6.69 14.42,6.44 12.67,6.48 10.92,6.52 9.50,6.46 8.08,6.40 6.83,6.23 5.58,6.06 3.91,5.59 2.24,5.12 1.12,4.28 0.00,3.45 -0.83,2.56 -1.67,1.67 -1.85,1.45 -2.03,1.22 -2.14,0.96 -2.26,0.70 -2.31,0.42 -2.36,0.14 -2.35,-0.14 -2.33,-0.42 -2.24,-0.70 -2.16,-0.97 -2.01,-1.21 -1.86,-1.46 -1.66,-1.66 -1.46,-1.86 -1.21,-2.01 -0.97,-2.16 -0.70,-2.24 -0.42,-2.33 -0.14,-2.35 0.14,-2.36 0.42,-2.31 0.70,-2.26 0.96,-2.14 1.22,-2.03 1.45,-1.85 1.67,-1.67 1.67,-1.67 L 1.67,-1.67 Z"></path></g><g transform="translate(496.9951716414063 506.4432669655362) rotate(0 21.494043456119016 2.4993073786184823)" stroke="none"><path fill="#1e1e1e" d="M 0.92,-2.16 Q 0.92,-2.16 2.88,-1.17 4.84,-0.19 6.62,0.84 8.40,1.88 9.71,2.52 11.02,3.16 12.36,3.67 13.69,4.19 15.27,4.33 16.84,4.48 18.02,4.49 19.20,4.50 20.29,4.48 21.39,4.46 22.71,4.46 24.03,4.45 25.44,4.47 26.84,4.48 28.13,3.50 29.41,2.52 30.38,1.91 31.34,1.29 32.59,0.54 33.83,-0.19 35.21,-1.21 36.58,-2.23 38.73,-3.29 40.88,-4.35 41.34,-4.57 41.80,-4.79 42.30,-4.85 42.81,-4.91 43.30,-4.80 43.80,-4.70 44.24,-4.44 44.67,-4.18 45.00,-3.80 45.34,-3.41 45.53,-2.94 45.72,-2.48 45.75,-1.97 45.78,-1.46 45.65,-0.97 45.52,-0.48 45.24,-0.06 44.96,0.35 44.56,0.66 44.16,0.97 43.68,1.14 43.20,1.31 42.69,1.31 42.18,1.31 41.70,1.16 41.22,1.00 40.81,0.70 40.41,0.39 40.12,-0.01 39.83,-0.43 39.69,-0.92 39.55,-1.41 39.57,-1.91 39.60,-2.42 39.78,-2.89 39.96,-3.37 40.29,-3.76 40.61,-4.15 41.05,-4.41 41.48,-4.68 41.97,-4.79 42.47,-4.90 42.97,-4.85 43.48,-4.80 43.94,-4.59 44.40,-4.38 44.77,-4.04 45.14,-3.69 45.39,-3.25 45.63,-2.80 45.71,-2.30 45.80,-1.80 45.72,-1.30 45.64,-0.80 45.41,-0.35 45.18,0.09 44.81,0.44 44.45,0.80 44.45,0.80 44.45,0.80 41.83,2.04 39.21,3.29 37.85,4.05 36.49,4.81 35.35,5.47 34.21,6.13 32.81,7.01 31.40,7.89 30.44,8.39 29.47,8.89 28.19,9.19 26.90,9.50 25.45,9.50 24.00,9.51 22.65,9.49 21.30,9.47 20.17,9.41 19.03,9.36 17.68,9.28 16.32,9.20 14.21,8.64 12.10,8.09 10.60,7.44 9.11,6.79 7.81,6.06 6.51,5.33 4.85,4.48 3.20,3.64 1.13,2.90 -0.92,2.16 -1.17,2.02 -1.42,1.88 -1.62,1.68 -1.82,1.48 -1.98,1.24 -2.13,1.00 -2.22,0.73 -2.31,0.46 -2.33,0.18 -2.35,-0.10 -2.30,-0.38 -2.26,-0.66 -2.15,-0.92 -2.03,-1.18 -1.86,-1.41 -1.69,-1.63 -1.47,-1.81 -1.25,-1.99 -0.99,-2.11 -0.74,-2.23 -0.46,-2.29 -0.18,-2.35 0.09,-2.33 0.38,-2.32 0.65,-2.24 0.92,-2.16 0.92,-2.16 L 0.92,-2.16 Z"></path></g><g transform="translate(546.9813192137761 506.4432669655362) rotate(0 17.495151650329433 4.998614757236965)" stroke="none"><path fill="#1e1e1e" d="M 1.91,-1.53 Q 1.91,-1.53 3.00,-0.04 4.09,1.43 4.87,2.27 5.66,3.10 6.53,3.99 7.40,4.88 8.37,5.36 9.33,5.83 10.80,6.38 12.27,6.93 13.40,7.11 14.54,7.28 15.84,7.32 17.15,7.35 18.74,6.70 20.32,6.06 22.22,4.80 24.13,3.55 25.43,3.15 26.74,2.76 27.62,2.04 28.50,1.33 29.53,0.76 30.56,0.19 31.58,-0.62 32.61,-1.43 32.94,-1.72 33.28,-2.02 33.69,-2.19 34.10,-2.36 34.54,-2.40 34.98,-2.43 35.41,-2.32 35.84,-2.21 36.22,-1.96 36.59,-1.72 36.86,-1.37 37.14,-1.02 37.29,-0.61 37.44,-0.19 37.45,0.25 37.46,0.69 37.32,1.12 37.19,1.54 36.93,1.90 36.66,2.26 36.30,2.51 35.94,2.77 35.51,2.90 35.09,3.02 34.64,3.01 34.20,2.99 33.78,2.84 33.37,2.68 33.02,2.40 32.68,2.12 32.44,1.74 32.20,1.36 32.10,0.93 32.00,0.50 32.04,0.06 32.08,-0.38 32.25,-0.78 32.43,-1.19 32.73,-1.52 33.03,-1.85 33.42,-2.06 33.81,-2.28 34.25,-2.36 34.68,-2.44 35.12,-2.37 35.56,-2.31 35.96,-2.11 36.36,-1.91 36.67,-1.59 36.98,-1.28 37.18,-0.88 37.37,-0.48 37.43,-0.03 37.48,0.40 37.40,0.83 37.31,1.27 37.09,1.65 36.86,2.04 36.86,2.04 36.86,2.04 34.25,3.79 31.64,5.54 29.21,6.88 26.78,8.22 25.82,8.76 24.87,9.30 23.46,10.21 22.04,11.11 20.79,11.52 19.54,11.94 18.23,12.22 16.93,12.50 15.28,12.24 13.64,11.97 12.19,11.65 10.75,11.33 8.86,10.72 6.97,10.10 5.44,9.19 3.91,8.27 2.98,7.25 2.04,6.23 1.27,5.27 0.49,4.31 -0.70,2.92 -1.91,1.53 -2.06,1.28 -2.22,1.02 -2.31,0.74 -2.40,0.46 -2.42,0.17 -2.44,-0.12 -2.39,-0.41 -2.34,-0.70 -2.22,-0.97 -2.11,-1.24 -1.93,-1.48 -1.75,-1.71 -1.52,-1.90 -1.28,-2.08 -1.02,-2.20 -0.75,-2.33 -0.46,-2.38 -0.17,-2.44 0.12,-2.43 0.41,-2.41 0.70,-2.33 0.98,-2.24 1.23,-2.09 1.49,-1.94 1.70,-1.73 1.91,-1.53 1.91,-1.53 L 1.91,-1.53 Z"></path></g><g transform="translate(589.9694061260142 509.4424358198784) rotate(0 19.994459028947915 3.499030330065864)" stroke="none"><path fill="#1e1e1e" d="M 1.23,-2.06 Q 1.23,-2.06 2.65,-1.17 4.07,-0.28 5.55,0.71 7.03,1.70 8.91,2.72 10.80,3.74 12.08,4.44 13.36,5.14 14.42,5.66 15.47,6.17 16.94,6.27 18.40,6.37 20.11,6.28 21.82,6.19 23.05,5.97 24.28,5.75 26.55,5.26 28.83,4.76 30.57,4.07 32.31,3.37 33.45,2.33 34.59,1.29 36.23,-0.70 37.87,-2.70 38.10,-2.96 38.34,-3.21 38.64,-3.38 38.95,-3.55 39.29,-3.61 39.64,-3.68 39.98,-3.63 40.33,-3.58 40.64,-3.42 40.95,-3.26 41.19,-3.01 41.44,-2.76 41.59,-2.45 41.74,-2.14 41.79,-1.79 41.83,-1.44 41.76,-1.10 41.69,-0.76 41.52,-0.46 41.34,-0.15 41.08,0.07 40.82,0.30 40.50,0.43 40.18,0.57 39.83,0.59 39.48,0.62 39.14,0.53 38.81,0.44 38.51,0.25 38.22,0.06 38.00,-0.20 37.79,-0.48 37.67,-0.80 37.55,-1.13 37.55,-1.48 37.54,-1.83 37.65,-2.16 37.75,-2.50 37.96,-2.78 38.16,-3.06 38.45,-3.26 38.73,-3.46 39.07,-3.56 39.40,-3.66 39.75,-3.65 40.10,-3.64 40.43,-3.51 40.75,-3.39 41.02,-3.17 41.29,-2.95 41.48,-2.65 41.66,-2.36 41.75,-2.02 41.83,-1.68 41.80,-1.33 41.76,-0.98 41.62,-0.66 41.48,-0.34 41.48,-0.34 41.48,-0.34 39.41,1.99 37.34,4.34 35.74,5.76 34.15,7.19 32.16,8.24 30.18,9.28 27.74,10.18 25.30,11.08 23.56,11.43 21.82,11.78 20.47,11.70 19.13,11.61 17.90,11.44 16.67,11.27 15.01,10.67 13.35,10.08 12.26,9.42 11.18,8.77 10.13,8.07 9.08,7.37 6.84,6.44 4.60,5.51 3.13,4.62 1.67,3.73 0.21,2.89 -1.23,2.06 -1.46,1.88 -1.69,1.70 -1.87,1.48 -2.05,1.25 -2.17,0.98 -2.29,0.72 -2.34,0.43 -2.40,0.15 -2.38,-0.13 -2.36,-0.42 -2.28,-0.70 -2.19,-0.98 -2.04,-1.22 -1.90,-1.47 -1.69,-1.68 -1.49,-1.89 -1.24,-2.04 -0.99,-2.19 -0.71,-2.27 -0.44,-2.36 -0.15,-2.38 0.13,-2.40 0.42,-2.35 0.70,-2.30 0.97,-2.18 1.23,-2.06 1.23,-2.06 L 1.23,-2.06 Z"></path></g><g transform="translate(640.9552766498314 501.4446522082992) rotate(0 20.494320504671578 7.9977836115791945)" stroke="none"><path fill="#1e1e1e" d="M 1.48,-1.69 Q 1.48,-1.69 3.70,0.41 5.91,2.51 7.37,3.63 8.83,4.75 10.23,5.44 11.63,6.12 13.01,7.08 14.40,8.03 15.64,9.41 16.89,10.78 18.01,11.39 19.12,12.00 20.24,12.57 21.36,13.13 23.30,13.29 25.25,13.46 26.32,13.47 27.39,13.47 29.34,12.82 31.30,12.16 32.61,11.13 33.91,10.09 34.73,9.11 35.55,8.12 36.16,7.15 36.77,6.17 37.54,4.50 38.32,2.83 38.46,2.43 38.61,2.03 38.88,1.69 39.15,1.36 39.51,1.13 39.88,0.90 40.29,0.80 40.71,0.69 41.14,0.73 41.56,0.77 41.96,0.94 42.35,1.11 42.67,1.39 42.99,1.68 43.20,2.05 43.41,2.43 43.49,2.85 43.57,3.27 43.51,3.70 43.45,4.12 43.26,4.50 43.07,4.89 42.76,5.19 42.46,5.49 42.07,5.68 41.69,5.87 41.26,5.93 40.84,5.99 40.42,5.90 40.00,5.82 39.62,5.61 39.25,5.40 38.97,5.08 38.68,4.76 38.51,4.36 38.34,3.97 38.31,3.54 38.28,3.11 38.38,2.70 38.48,2.28 38.72,1.92 38.95,1.56 39.28,1.29 39.62,1.03 40.02,0.88 40.42,0.73 40.85,0.72 41.28,0.71 41.69,0.84 42.10,0.96 42.45,1.22 42.80,1.47 43.05,1.82 43.29,2.16 43.42,2.57 43.54,2.98 43.53,3.41 43.52,3.84 43.52,3.84 43.52,3.84 42.32,6.42 41.13,9.01 40.34,10.19 39.55,11.38 38.42,12.77 37.29,14.16 36.14,15.06 34.99,15.96 33.89,16.48 32.80,17.01 31.42,17.42 30.04,17.84 28.64,18.10 27.24,18.37 26.04,18.27 24.84,18.18 23.35,18.01 21.86,17.83 20.56,17.40 19.25,16.98 18.09,16.27 16.93,15.56 15.39,14.54 13.86,13.52 12.92,12.40 11.97,11.28 10.91,10.43 9.86,9.58 8.21,8.72 6.56,7.85 4.92,6.69 3.27,5.53 0.89,3.61 -1.48,1.69 -1.66,1.49 -1.84,1.29 -1.97,1.05 -2.10,0.81 -2.16,0.54 -2.23,0.28 -2.23,0.01 -2.23,-0.25 -2.17,-0.52 -2.11,-0.78 -1.98,-1.02 -1.86,-1.26 -1.68,-1.47 -1.50,-1.67 -1.28,-1.83 -1.05,-1.98 -0.80,-2.08 -0.55,-2.18 -0.28,-2.21 -0.01,-2.25 0.25,-2.22 0.52,-2.18 0.77,-2.09 1.03,-1.99 1.25,-1.84 1.48,-1.69 1.48,-1.69 L 1.48,-1.69 Z"></path></g><g stroke-linecap="round" transform="translate(77.8961374047534 453.7626344345949) rotate(0 55.27366130477344 55.27366130477344)"><path d="M20.6 11.28 C20.6 11.28, 20.6 11.28, 20.6 11.28 M20.6 11.28 C20.6 11.28, 20.6 11.28, 20.6 11.28 M7.61 38.42 C14.15 33.23, 21.46 25.68, 36.48 5.21 M7.61 38.42 C19.29 25.59, 29.99 13.95, 36.48 5.21 M5.12 53.48 C23.23 33.92, 39.67 14.06, 49.08 2.91 M5.12 53.48 C19.11 37.09, 32.62 22.51, 49.08 2.91 M3.94 67.03 C17.79 49.78, 33.97 31.92, 59.05 3.63 M3.94 67.03 C23.63 43.66, 45.3 21.55, 59.05 3.63 M8.01 74.54 C27.93 54.24, 43 34.49, 68.37 5.11 M8.01 74.54 C28.3 52.49, 49.3 29.5, 68.37 5.11 M11.42 82.81 C36.13 57.18, 56.15 30.01, 77.69 6.58 M11.42 82.81 C30.03 62.83, 48.48 41.32, 77.69 6.58 M14.84 91.07 C32.74 67.93, 52.47 45.64, 84.38 11.07 M14.84 91.07 C34.64 69.06, 54.17 44.82, 84.38 11.07 M21.53 95.57 C39.59 75.96, 54.91 53.47, 90.42 16.32 M21.53 95.57 C40.92 72.14, 60.78 49.37, 90.42 16.32 M27.57 100.82 C49.65 71.07, 75.59 43.92, 97.11 20.82 M27.57 100.82 C42.7 84.28, 57.08 66.22, 97.11 20.82 M33.61 106.06 C57.71 79.34, 81.07 50.84, 103.15 26.07 M33.61 106.06 C54.89 80.79, 75.62 56.35, 103.15 26.07 M40.3 110.56 C61.8 86.13, 84.17 60.6, 106.56 34.33 M40.3 110.56 C62.85 84.85, 87.13 57.31, 106.56 34.33 M49.62 112.03 C69.05 89.03, 88.56 67.31, 109.98 42.6 M49.62 112.03 C63.57 96.24, 79.08 80.84, 109.98 42.6 M59.59 112.75 C74.3 92.16, 94.19 75.23, 113.39 50.87 M59.59 112.75 C71.61 99.99, 82.38 84.41, 113.39 50.87 M68.25 114.98 C78.67 101.38, 92.16 89.06, 112.21 64.42 M68.25 114.98 C79.18 100.46, 91.37 86.51, 112.21 64.42 M12.04 88.28 C12.04 88.28, 12.04 88.28, 12.04 88.28 M12.04 88.28 C12.04 88.28, 12.04 88.28, 12.04 88.28 M46.72 107.82 C32.84 95.88, 17.98 82.82, 2.95 69.77 M46.72 107.82 C36.76 100.62, 27.62 91.3, 2.95 69.77 M60.27 109 C40.87 93.11, 20.48 74.7, 0.65 57.17 M60.27 109 C39.83 91.95, 19.08 72.97, 0.65 57.17 M70.05 106.9 C44.38 84.56, 18.27 59.06, 2.12 47.86 M70.05 106.9 C49.91 88.94, 28.75 70.41, 2.12 47.86 M77.56 102.83 C53.4 83.55, 32.3 61.64, 3.6 38.54 M77.56 102.83 C49.39 80.22, 21.91 55.23, 3.6 38.54 M85.83 99.42 C57.69 72.51, 27.34 48.73, 7.34 31.19 M85.83 99.42 C59.85 76.85, 35.7 53.49, 7.34 31.19 M92.59 94.69 C69.74 76.87, 51.36 57.1, 11.83 24.49 M92.59 94.69 C71.51 76.93, 49.54 57.25, 11.83 24.49 M97.08 88 C72.56 65.68, 47.01 45.25, 16.33 17.8 M97.08 88 C65.17 60.68, 33.16 31.39, 16.33 17.8 M101.57 81.31 C76.84 60.07, 55.1 40.99, 20.82 11.11 M101.57 81.31 C82.73 63.25, 61.25 46.88, 20.82 11.11 M106.82 75.27 C89.27 61.36, 76.99 46.62, 29.09 7.69 M106.82 75.27 C86.4 58.56, 65.41 41.08, 29.09 7.69 M108.3 65.95 C88.82 49.77, 65.8 29.73, 37.35 4.28 M108.3 65.95 C94.04 53.74, 78.03 41.05, 37.35 4.28 M109.02 55.98 C95.79 43.76, 83.55 29.79, 45.62 0.87 M109.02 55.98 C87.89 38, 65.75 18.46, 45.62 0.87 M108.23 44.69 C94.06 30.82, 79.6 17.13, 58.42 1.39 M108.23 44.69 C93.97 32.36, 81.18 21.06, 58.42 1.39 M100.65 27.5 C94.49 20.92, 86.04 15.32, 72.72 3.22 M100.65 27.5 C93.05 20, 84.39 13.26, 72.72 3.22" stroke="#4dabf7" stroke-width="1" fill="none"></path><path d="M75.52 4.45 C83.66 7.2, 92.15 14.4, 97.74 21.55 C103.33 28.71, 107.6 38.51, 109.08 47.4 C110.56 56.29, 109.8 66.42, 106.63 74.89 C103.46 83.35, 97.43 92.37, 90.05 98.19 C82.67 104.01, 71.42 108.3, 62.35 109.79 C53.28 111.29, 43.99 110.7, 35.65 107.15 C27.31 103.6, 18.27 95.76, 12.29 88.49 C6.32 81.23, 1.14 72.41, -0.2 63.56 C-1.54 54.72, 0.81 44.09, 4.24 35.41 C7.67 26.74, 13.27 17.29, 20.41 11.5 C27.54 5.71, 37.16 1.49, 47.06 0.67 C56.96 -0.15, 73.59 5.06, 79.81 6.58 C86.02 8.1, 84.64 8.98, 84.35 9.82 M38.63 2.52 C46.91 -0.64, 59.17 0.96, 68.53 2.95 C77.89 4.93, 87.9 8.06, 94.78 14.43 C101.65 20.8, 107.5 32.08, 109.8 41.18 C112.1 50.28, 111.18 60.44, 108.57 69.02 C105.95 77.6, 100.52 86.28, 94.1 92.64 C87.68 99, 78.86 104.53, 70.05 107.17 C61.23 109.8, 50.17 110.37, 41.2 108.45 C32.22 106.53, 22.89 102.09, 16.2 95.64 C9.51 89.19, 3.46 78.49, 1.04 69.73 C-1.38 60.96, -0.73 51.66, 1.71 43.05 C4.15 34.43, 9.41 24.93, 15.67 18.03 C21.93 11.13, 35.38 4.02, 39.27 1.64 C43.16 -0.73, 38.7 2.98, 38.99 3.78" stroke="#1e1e1e" stroke-width="2" fill="none"></path></g><g transform="translate(31.30682406101812 473.2441950973146) rotate(0 99.8711877743284 33.78593378998559)"><text x="0" y="47.3543648000438" font-family="Virgil, Segoe UI Emoji" font-size="54.05749406397693px" fill="#1e1e1e" text-anchor="start" style="white-space: pre;" direction="ltr" dominant-baseline="alphabetic">Usuario</text></g><g stroke-linecap="round" transform="translate(174.22626084566508 550.8547544099897) rotate(0 36.5510288775705 36.5510288775705)"><path d="M4.45 21.09 C4.45 21.09, 4.45 21.09, 4.45 21.09 M4.45 21.09 C4.45 21.09, 4.45 21.09, 4.45 21.09 M2.61 35.4 C13.32 22.25, 24.1 7.5, 32.14 1.43 M2.61 35.4 C14.84 23.3, 25.15 9.66, 32.14 1.43 M3.4 46.68 C13.85 34.94, 22.61 24.53, 43.42 0.65 M3.4 46.68 C13.79 35.62, 23.69 24.62, 43.42 0.65 M7.47 54.2 C19.58 38.76, 32.24 22.95, 50.77 4.38 M7.47 54.2 C20.28 38.94, 34.5 23.48, 50.77 4.38 M11.54 61.71 C27.07 43.95, 40.78 27.92, 57.47 8.88 M11.54 61.71 C27.53 44.97, 41.48 27.6, 57.47 8.88 M18.24 66.2 C29.42 54.73, 41.47 40.62, 64.16 13.37 M18.24 66.2 C27.79 54.69, 37.27 44.08, 64.16 13.37 M25.58 69.94 C36.65 56.97, 50.87 40.19, 68.23 20.88 M25.58 69.94 C41.73 50.95, 59.2 31.52, 68.23 20.88 M34.25 72.17 C45.51 58.78, 55.43 47.14, 71.64 29.15 M34.25 72.17 C41.38 61.9, 50.12 52.96, 71.64 29.15 M46.19 70.63 C53.13 63.45, 58.77 55.31, 71.78 41.19 M46.19 70.63 C52.27 64.23, 57.05 57.94, 71.78 41.19 M11.15 61.86 C11.15 61.86, 11.15 61.86, 11.15 61.86 M11.15 61.86 C11.15 61.86, 11.15 61.86, 11.15 61.86 M34.51 71.57 C22.23 62.56, 8.77 48.2, 1.3 42.7 M34.51 71.57 C24.26 62.54, 13.35 52.98, 1.3 42.7 M45.04 70.12 C37.79 62.78, 27.02 52.94, 3.53 34.04 M45.04 70.12 C32.35 58.73, 20.46 47.99, 3.53 34.04 M54.06 67.37 C35.32 53.59, 20.01 36.04, 4.25 24.07 M54.06 67.37 C35.08 51.06, 16.58 33.84, 4.25 24.07 M60.07 61.99 C39.71 45.59, 21.97 29.86, 7.99 16.72 M60.07 61.99 C43.41 48.4, 26.22 32.94, 7.99 16.72 M65.32 55.95 C48.86 40.49, 27.45 24.08, 14 11.34 M65.32 55.95 C53.88 45.03, 41.9 34.18, 14 11.34 M69.81 49.25 C54.99 36.76, 41.13 27.69, 19.24 5.3 M69.81 49.25 C52.04 32.38, 34.3 17.31, 19.24 5.3 M71.28 39.94 C58.09 32.2, 49.69 20.81, 28.27 2.54 M71.28 39.94 C61.39 32.22, 51.97 23.72, 28.27 2.54 M72.76 30.62 C64.92 21.6, 52.93 13.77, 38.04 0.44 M72.76 30.62 C62.45 22.5, 53.6 14.15, 38.04 0.44 M62.16 10.8 C61.7 10.52, 61.21 10.03, 59.9 8.84 M62.16 10.8 C61.52 10.02, 60.75 9.45, 59.9 8.84" stroke="#b2f2bb" stroke-width="1" fill="none"></path><path d="M42.01 -0.57 C48.86 -0.06, 57.1 5.58, 62.28 10.83 C67.46 16.08, 72.03 23.9, 73.09 30.93 C74.14 37.95, 71.97 46.59, 68.61 52.96 C65.26 59.32, 59.29 65.8, 52.96 69.11 C46.63 72.42, 37.58 73.98, 30.64 72.79 C23.69 71.61, 16.16 66.99, 11.3 61.99 C6.43 56.99, 2.58 49.64, 1.46 42.8 C0.33 35.96, 1.39 27.44, 4.55 20.97 C7.71 14.51, 13.65 7.28, 20.41 3.99 C27.18 0.7, 40.76 1.54, 45.17 1.23 C49.57 0.91, 47.22 1.56, 46.85 2.1 M32.13 -0.71 C38.72 -2.36, 48.23 -0.61, 54.26 2.83 C60.29 6.26, 65.07 13.22, 68.31 19.9 C71.54 26.58, 74.68 36, 73.7 42.91 C72.72 49.81, 67.7 56.41, 62.41 61.34 C57.11 66.26, 48.95 71.39, 41.93 72.48 C34.91 73.57, 26.51 70.91, 20.29 67.9 C14.06 64.89, 8.09 60.55, 4.6 54.41 C1.11 48.27, -1.81 38.58, -0.66 31.06 C0.48 23.54, 6.28 14.6, 11.47 9.29 C16.66 3.97, 27.36 0.36, 30.47 -0.82 C33.58 -1.99, 29.99 1.5, 30.11 2.22" stroke="#1e1e1e" stroke-width="2" fill="none"></path></g><g transform="translate(130.27939625431037 566.3651154103097) rotate(0 88.40183194235675 22.341755774133986)"><text x="0" y="31.314204893026186" font-family="Virgil, Segoe UI Emoji" font-size="35.74680923861437px" fill="#1e1e1e" text-anchor="start" style="white-space: pre;" direction="ltr" dominant-baseline="alphabetic">Productos</text></g><g transform="translate(210.07468457600368 491.4474226938253) rotate(0 20.494320504671634 23.993350834737498)" stroke="none"><path fill="#1e1e1e" d="M -0.34,-1.74 Q -0.34,-1.74 1.07,-2.09 2.50,-2.44 4.38,-2.58 6.26,-2.72 7.90,-2.81 9.55,-2.89 12.09,-2.53 14.63,-2.17 16.85,-1.70 19.08,-1.22 22.12,-0.11 25.17,0.99 28.18,2.34 31.19,3.70 33.11,4.89 35.03,6.09 36.49,7.14 37.95,8.19 39.02,9.29 40.09,10.40 40.69,11.97 41.29,13.55 41.77,14.57 42.26,15.58 42.52,17.46 42.78,19.34 42.92,20.66 43.06,21.98 43.18,24.36 43.30,26.75 43.31,28.25 43.32,29.76 43.36,30.97 43.40,32.19 43.10,34.16 42.79,36.13 42.30,37.43 41.81,38.73 40.99,40.01 40.16,41.29 39.22,42.77 38.27,44.24 36.56,47.09 34.85,49.94 34.58,50.35 34.31,50.75 33.92,51.04 33.53,51.34 33.07,51.50 32.61,51.65 32.13,51.65 31.64,51.66 31.18,51.50 30.72,51.35 30.33,51.06 29.95,50.76 29.67,50.36 29.40,49.96 29.27,49.49 29.14,49.02 29.16,48.54 29.19,48.05 29.36,47.60 29.54,47.15 29.86,46.78 30.17,46.41 30.58,46.16 31.00,45.91 31.47,45.80 31.95,45.69 32.43,45.74 32.91,45.80 33.36,46.00 33.80,46.20 34.15,46.53 34.50,46.87 34.73,47.29 34.96,47.72 35.04,48.20 35.12,48.68 35.04,49.16 34.97,49.64 34.74,50.07 34.52,50.50 34.16,50.84 33.81,51.17 33.37,51.38 32.93,51.58 32.45,51.64 31.97,51.69 31.49,51.59 31.02,51.48 30.60,51.23 30.18,50.98 29.87,50.62 29.55,50.25 29.37,49.80 29.19,49.34 29.16,48.86 29.13,48.37 29.26,47.91 29.39,47.44 29.39,47.44 29.39,47.44 30.75,45.32 32.10,43.21 32.63,42.22 33.16,41.24 34.18,39.79 35.20,38.33 36.37,36.93 37.55,35.53 38.06,33.86 38.56,32.20 38.60,30.99 38.63,29.78 38.63,28.28 38.63,26.79 38.65,24.52 38.67,22.25 38.65,21.04 38.63,19.82 38.52,18.44 38.40,17.07 37.86,14.81 37.32,12.56 36.66,11.62 36.01,10.68 34.76,9.62 33.51,8.56 31.75,7.50 29.99,6.44 27.06,5.20 24.13,3.95 21.30,3.00 18.47,2.04 16.35,1.71 14.23,1.39 11.95,1.22 9.67,1.04 8.10,1.07 6.52,1.09 4.88,1.19 3.24,1.29 1.79,1.52 0.34,1.74 0.13,1.76 -0.07,1.77 -0.29,1.74 -0.50,1.70 -0.69,1.62 -0.89,1.53 -1.06,1.40 -1.23,1.27 -1.37,1.11 -1.50,0.94 -1.60,0.75 -1.69,0.55 -1.73,0.34 -1.77,0.13 -1.76,-0.07 -1.75,-0.29 -1.69,-0.49 -1.63,-0.70 -1.52,-0.89 -1.41,-1.07 -1.27,-1.22 -1.12,-1.38 -0.93,-1.49 -0.75,-1.61 -0.55,-1.67 -0.34,-1.74 -0.34,-1.74 L -0.34,-1.74 Z"></path></g><g transform="translate(75.11208613060523 587.4208260327753) rotate(0 0.00005000000000165983 0.00004999999998744897)" stroke="none"><path fill="#1e1e1e" d="M 1.57,-1.57 Q 1.57,-1.57 1.77,-1.27 1.98,-0.98 2.09,-0.64 2.20,-0.29 2.19,0.05 2.18,0.41 2.05,0.75 1.93,1.09 1.70,1.37 1.48,1.65 1.18,1.84 0.87,2.04 0.52,2.12 0.18,2.21 -0.17,2.18 -0.53,2.15 -0.86,2.01 -1.19,1.87 -1.46,1.63 -1.73,1.39 -1.90,1.07 -2.08,0.76 -2.15,0.41 -2.21,0.05 -2.17,-0.29 -2.12,-0.65 -1.96,-0.97 -1.80,-1.29 -1.54,-1.54 -1.29,-1.80 -0.97,-1.96 -0.65,-2.12 -0.29,-2.17 0.06,-2.21 0.41,-2.15 0.76,-2.08 1.07,-1.90 1.39,-1.73 1.63,-1.46 1.87,-1.19 2.01,-0.86 2.15,-0.53 2.18,-0.17 2.21,0.18 2.12,0.52 2.03,0.87 1.84,1.18 1.65,1.48 1.37,1.70 1.09,1.93 0.75,2.05 0.41,2.18 0.05,2.19 -0.30,2.20 -0.64,2.09 -0.98,1.98 -1.27,1.77 -1.57,1.56 -1.57,1.57 -1.57,1.57 -1.73,1.35 -1.90,1.14 -2.01,0.90 -2.12,0.66 -2.16,0.39 -2.21,0.13 -2.20,-0.13 -2.18,-0.40 -2.10,-0.65 -2.02,-0.91 -1.88,-1.14 -1.74,-1.36 -1.55,-1.55 -1.36,-1.74 -1.14,-1.88 -0.91,-2.02 -0.65,-2.10 -0.40,-2.18 -0.13,-2.20 0.13,-2.21 0.39,-2.16 0.66,-2.12 0.90,-2.01 1.14,-1.90 1.35,-1.73 1.57,-1.57 1.57,-1.57 L 1.57,-1.57 Z"></path></g><g transform="translate(1083.774042218688 744.0899263071972) rotate(89.99999999999994 101.5666419321742 46.31825112521261)"><text x="0" y="64.91966077709797" font-family="Virgil, Segoe UI Emoji" font-size="74.10920180034016px" fill="#f08c00" text-anchor="start" style="white-space: pre;" direction="ltr" dominant-baseline="alphabetic">Scrum</text></g><g transform="translate(386.5745494886329 632.2480829148377) rotate(0 80.90637969970703 25.5)"><text x="0" y="35.74080000000001" font-family="Virgil, Segoe UI Emoji" font-size="40.800000000000004px" fill="#e03131" text-anchor="start" style="white-space: pre;" direction="ltr" dominant-baseline="alphabetic">Backend</text></g><g transform="translate(596.896634724017 634.9973912185684) rotate(0 85.12916564941406 25.5)"><text x="0" y="35.74080000000001" font-family="Virgil, Segoe UI Emoji" font-size="40.800000000000004px" fill="#1e1e1e" text-anchor="start" style="white-space: pre;" direction="ltr" dominant-baseline="alphabetic">Frontend</text></g><g transform="translate(811.2947033563956 630.1310560379811) rotate(0 70.17597961425776 25.5)"><text x="0" y="35.74080000000001" font-family="Virgil, Segoe UI Emoji" font-size="40.800000000000004px" fill="#1e1e1e" text-anchor="start" style="white-space: pre;" direction="ltr" dominant-baseline="alphabetic">Devops</text></g><g transform="translate(606.7142124658675 683.5744676526374) rotate(0 32.67729112458903 9.216297267779282)"><text x="0" y="12.917562250519447" font-family="Virgil, Segoe UI Emoji" font-size="14.746075628446857px" fill="#1e1e1e" text-anchor="start" style="white-space: pre;" direction="ltr" dominant-baseline="alphabetic">Fullstack</text></g><g stroke-linecap="round"><g transform="translate(552.7730822388139 691.673768056802) rotate(0 -87.00367730797285 -0.5862546535615252)"><path d="M0 0 C-44.65 -0.5, -91.39 2.16, -174.01 -1.06 M0 0 C-45.09 -0.76, -88.17 -2.78, -174.01 -1.06" stroke="#f08c00" stroke-width="1" fill="none"></path></g><g transform="translate(552.7730822388139 691.673768056802) rotate(0 -87.00367730797285 -0.5862546535615252)"><path d="M-150.6 -9.84 C-154.98 -8.68, -161.52 -3.38, -174.01 -1.06 M-150.6 -9.84 C-157.07 -6.8, -161.62 -6.31, -174.01 -1.06" stroke="#f08c00" stroke-width="1" fill="none"></path></g><g transform="translate(552.7730822388139 691.673768056802) rotate(0 -87.00367730797285 -0.5862546535615252)"><path d="M-150.43 7.26 C-155 3.86, -161.59 4.59, -174.01 -1.06 M-150.43 7.26 C-157.1 5.92, -161.7 2.04, -174.01 -1.06" stroke="#f08c00" stroke-width="1" fill="none"></path></g></g><mask></mask><g stroke-linecap="round"><g transform="translate(722.1182488904458 692.6221901971128) rotate(0 94.85113647870253 -0.10459290989547299)"><path d="M0 0 C50.42 0.97, 97.51 1.28, 189.7 0 M0 0 C47.06 -2.06, 94.18 -0.56, 189.7 0" stroke="#f08c00" stroke-width="1" fill="none"></path></g><g transform="translate(722.1182488904458 692.6221901971128) rotate(0 94.85113647870253 -0.10459290989547299)"><path d="M166.14 8.35 C173.79 7.64, 178.04 5.79, 189.7 0 M166.14 8.35 C172.23 5.27, 178.31 4.71, 189.7 0" stroke="#f08c00" stroke-width="1" fill="none"></path></g><g transform="translate(722.1182488904458 692.6221901971128) rotate(0 94.85113647870253 -0.10459290989547299)"><path d="M166.28 -8.75 C173.74 -5.05, 177.95 -2.49, 189.7 0 M166.28 -8.75 C172.22 -7.61, 178.27 -3.95, 189.7 0" stroke="#f08c00" stroke-width="1" fill="none"></path></g></g><mask></mask><g transform="translate(984.9859127080219 634.1945019957631) rotate(0 58.28278350830078 25.5)"><text x="0" y="35.74080000000001" font-family="Virgil, Segoe UI Emoji" font-size="40.800000000000004px" fill="#1e1e1e" text-anchor="start" style="white-space: pre;" direction="ltr" dominant-baseline="alphabetic">Mobile</text></g><g stroke-linecap="round"><g transform="translate(1062.8370181234386 686.1945019957631) rotate(0 -59.494828205600925 2.310297811457758)"><path d="M0 0 C-37.32 2.58, -73.89 3.23, -118.99 4.62 M0 0 C-26.56 0.94, -53.2 1.05, -118.99 4.62" stroke="#e03131" stroke-width="1" fill="none"></path></g><g transform="translate(1062.8370181234386 686.1945019957631) rotate(0 -59.494828205600925 2.310297811457758)"><path d="M-95.94 -5.05 C-103.73 -0.24, -110.78 1.95, -118.99 4.62 M-95.94 -5.05 C-101.49 -2.14, -107.1 -0.93, -118.99 4.62" stroke="#e03131" stroke-width="1" fill="none"></path></g><g transform="translate(1062.8370181234386 686.1945019957631) rotate(0 -59.494828205600925 2.310297811457758)"><path d="M-95.11 12.03 C-103.14 11.57, -110.44 8.52, -118.99 4.62 M-95.11 12.03 C-100.74 11.18, -106.53 8.65, -118.99 4.62" stroke="#e03131" stroke-width="1" fill="none"></path></g></g><mask></mask><g transform="translate(395.02259709331906 258.8772319627375) rotate(0 346.22381591796875 16.824324617684397)"><text x="0" y="23.580973384146446" font-family="Virgil, Segoe UI Emoji" font-size="26.918919388295027px" fill="#f08c00" text-anchor="start" style="white-space: pre;" direction="ltr" dominant-baseline="alphabetic">Produc Designe - Product Manager - Product Owner</text></g><g transform="translate(623.4580870550938 876.9857822177819) rotate(0 126.94915771484375 25.5)"><text x="0" y="35.74080000000001" font-family="Virgil, Segoe UI Emoji" font-size="40.800000000000004px" fill="#e03131" text-anchor="start" style="white-space: pre;" direction="ltr" dominant-baseline="alphabetic">DB - Enginer</text></g><g transform="translate(399.15942662089697 697.8241028442459) rotate(0 33.79904185086815 16.96058575138494)"><text x="67.5980837017363" y="23.771956989141128" font-family="Virgil, Segoe UI Emoji" font-size="27.136937202215897px" fill="#1971c2" text-anchor="end" style="white-space: pre;" direction="ltr" dominant-baseline="alphabetic">Java</text></g><g transform="translate(355.33557789548036 762.1348761023961) rotate(0 43.54363250732422 16.96058575138494)"><text x="87.08726501464844" y="23.771956989141128" font-family="Virgil, Segoe UI Emoji" font-size="27.136937202215897px" fill="#2f9e44" text-anchor="end" style="white-space: pre;" direction="ltr" dominant-baseline="alphabetic">Python</text></g><g transform="translate(457.3038994642668 760.9182923072493) rotate(0 25.40723419189453 16.96058575138494)"><text x="50.81446838378906" y="23.771956989141128" font-family="Virgil, Segoe UI Emoji" font-size="27.136937202215897px" fill="#2f9e44" text-anchor="end" style="white-space: pre;" direction="ltr" dominant-baseline="alphabetic">PHP</text></g><g transform="translate(361.96467929994265 804.7153089325338) rotate(0 19.547157287597656 16.96058575138494)"><text x="39.09431457519531" y="23.771956989141128" font-family="Virgil, Segoe UI Emoji" font-size="27.136937202215897px" fill="#e03131" text-anchor="end" style="white-space: pre;" direction="ltr" dominant-baseline="alphabetic">C#</text></g><g transform="translate(436.41734268425535 798.6323899567999) rotate(0 28.24231719970703 16.96058575138494)"><text x="56.48463439941406" y="23.771956989141128" font-family="Virgil, Segoe UI Emoji" font-size="27.136937202215897px" fill="#e03131" text-anchor="end" style="white-space: pre;" direction="ltr" dominant-baseline="alphabetic">ROR</text></g><g transform="translate(388.4214352944131 937.1603413073678) rotate(0 35.09263610839844 16.96058575138494)"><text x="70.18527221679688" y="23.771956989141128" font-family="Virgil, Segoe UI Emoji" font-size="27.136937202215897px" fill="#1971c2" text-anchor="end" style="white-space: pre;" direction="ltr" dominant-baseline="alphabetic">Mysql</text></g><g transform="translate(475.1086838395064 935.5983540459576) rotate(0 37.27659606933594 16.96058575138494)"><text x="74.55319213867188" y="23.771956989141128" font-family="Virgil, Segoe UI Emoji" font-size="27.136937202215897px" fill="#2f9e44" text-anchor="end" style="white-space: pre;" direction="ltr" dominant-baseline="alphabetic">Sqlite</text></g><g transform="translate(578.0404594779909 938.7223285687782) rotate(0 58.99415588378906 16.96058575138494)"><text x="117.98831176757812" y="23.771956989141128" font-family="Virgil, Segoe UI Emoji" font-size="27.136937202215897px" fill="#e03131" text-anchor="end" style="white-space: pre;" direction="ltr" dominant-baseline="alphabetic">MongoDB</text></g><g transform="translate(720.3614059220606 934.0363667845475) rotate(0 57.73261260986328 16.96058575138494)"><text x="115.46522521972656" y="23.771956989141128" font-family="Virgil, Segoe UI Emoji" font-size="27.136937202215897px" fill="#1971c2" text-anchor="end" style="white-space: pre;" direction="ltr" dominant-baseline="alphabetic">MariaDB</text></g><g transform="translate(859.3322555754248 936.3793476766629) rotate(0 42.5262451171875 16.96058575138494)"><text x="85.052490234375" y="23.771956989141128" font-family="Virgil, Segoe UI Emoji" font-size="27.136937202215897px" fill="#e03131" text-anchor="end" style="white-space: pre;" direction="ltr" dominant-baseline="alphabetic">Oracle</text></g><g transform="translate(970.9355773824143 931.6933858924322) rotate(0 69.90040588378906 16.96058575138494)"><text x="139.80081176757812" y="23.771956989141128" font-family="Virgil, Segoe UI Emoji" font-size="27.136937202215897px" fill="#2f9e44" text-anchor="end" style="white-space: pre;" direction="ltr" dominant-baseline="alphabetic">Postgresql</text></g><g transform="translate(573.0771530740908 705.4946441260568) rotate(0 25.230880737304688 16.96058575138494)"><text x="50.461761474609375" y="23.771956989141128" font-family="Virgil, Segoe UI Emoji" font-size="27.136937202215897px" fill="#1971c2" text-anchor="end" style="white-space: pre;" direction="ltr" dominant-baseline="alphabetic">CSS</text></g><g transform="translate(641.8874687173427 704.4273099465944) rotate(0 36.89678955078125 16.96058575138494)"><text x="73.7935791015625" y="23.771956989141128" font-family="Virgil, Segoe UI Emoji" font-size="27.136937202215897px" fill="#1971c2" text-anchor="end" style="white-space: pre;" direction="ltr" dominant-baseline="alphabetic">HTML</text></g><g transform="translate(377.7836887134116 731.5144438671201) rotate(0 61.802101135253906 16.96058575138494)"><text x="123.60420227050781" y="23.771956989141128" font-family="Virgil, Segoe UI Emoji" font-size="27.136937202215897px" fill="#1971c2" text-anchor="end" style="white-space: pre;" direction="ltr" dominant-baseline="alphabetic">Node JS </text></g><g transform="translate(637.9062488439857 743.0216380095098) rotate(0 49.48373666738104 12.820249102244702)"><text x="98.96747333476208" y="17.968861141706157" font-family="Virgil, Segoe UI Emoji" font-size="20.512398563591503px" fill="#1971c2" text-anchor="end" style="white-space: pre;" direction="ltr" dominant-baseline="alphabetic">typescript</text></g><g transform="translate(543.7699752993378 806.2868748791349) rotate(0 41.834434509277344 16.96058575138494)"><text x="83.66886901855469" y="23.771956989141128" font-family="Virgil, Segoe UI Emoji" font-size="27.136937202215897px" fill="#1971c2" text-anchor="end" style="white-space: pre;" direction="ltr" dominant-baseline="alphabetic">Solidjs</text></g><g transform="translate(643.8936772632355 807.4473522271634) rotate(0 48.18285369873047 16.96058575138494)"><text x="96.36570739746094" y="23.771956989141128" font-family="Virgil, Segoe UI Emoji" font-size="27.136937202215897px" fill="#1971c2" text-anchor="end" style="white-space: pre;" direction="ltr" dominant-baseline="alphabetic">Angular</text></g><g transform="translate(643.1969875447179 841.267328119791) rotate(0 33.95317840576172 16.96058575138494)"><text x="67.90635681152344" y="23.771956989141128" font-family="Virgil, Segoe UI Emoji" font-size="27.136937202215897px" fill="#1971c2" text-anchor="end" style="white-space: pre;" direction="ltr" dominant-baseline="alphabetic">Vuejs</text></g><g transform="translate(559.6029784437151 841.7679239355452) rotate(0 27.401283264160156 16.96058575138494)"><text x="54.80256652832031" y="23.771956989141128" font-family="Virgil, Segoe UI Emoji" font-size="27.136937202215897px" fill="#1971c2" text-anchor="end" style="white-space: pre;" direction="ltr" dominant-baseline="alphabetic">Qwik</text></g><g stroke-linecap="round" transform="translate(341.03886194303 990.917054454483) rotate(0 398.6861487963564 86.2386765587749)"><path d="M0 0 C258.88 -1.12, 517.97 -2, 797.37 0 M0 0 C187.06 -2.64, 373.57 -2.67, 797.37 0 M797.37 0 C794.73 68.49, 795 136.14, 797.37 172.48 M797.37 0 C796.55 50.65, 796.02 100.55, 797.37 172.48 M797.37 172.48 C506.3 171.68, 214.25 170.54, 0 172.48 M797.37 172.48 C582 175.29, 366.4 175.67, 0 172.48 M0 172.48 C2.9 108.17, -0.79 40.39, 0 0 M0 172.48 C1.19 106.46, 0.2 41.1, 0 0" stroke="#1e1e1e" stroke-width="2" fill="none"></path></g><g transform="translate(786.3362749459209 714.275267947705) rotate(0 27.26563262939453 16.96058575138494)"><text x="54.53126525878906" y="23.771956989141128" font-family="Virgil, Segoe UI Emoji" font-size="27.136937202215897px" fill="#1971c2" text-anchor="end" style="white-space: pre;" direction="ltr" dominant-baseline="alphabetic">AWS</text></g><g transform="translate(783.8014033975254 750.2961045328599) rotate(0 37.61573028564453 16.96058575138494)"><text x="75.23146057128906" y="23.771956989141128" font-family="Virgil, Segoe UI Emoji" font-size="27.136937202215897px" fill="#1971c2" text-anchor="end" style="white-space: pre;" direction="ltr" dominant-baseline="alphabetic">Azure</text></g><g transform="translate(777.872569681804 792.8079699237071) rotate(0 85.54084014892578 16.96058575138494)"><text x="171.08168029785156" y="23.771956989141128" font-family="Virgil, Segoe UI Emoji" font-size="27.136937202215897px" fill="#1971c2" text-anchor="end" style="white-space: pre;" direction="ltr" dominant-baseline="alphabetic">Google Cloud</text></g><g transform="translate(769.0784522699275 838.8571338994961) rotate(0 89.8409423828125 16.96058575138494)"><text x="179.681884765625" y="23.771956989141128" font-family="Virgil, Segoe UI Emoji" font-size="27.136937202215897px" fill="#1971c2" text-anchor="end" style="white-space: pre;" direction="ltr" dominant-baseline="alphabetic">Digital Ocean</text></g><g transform="translate(865.5481694506088 703.3207634252918) rotate(0 47.31468963623047 33.92117150276988)"><text x="94.62937927246094" y="23.771956989141128" font-family="Virgil, Segoe UI Emoji" font-size="27.136937202215897px" fill="#1971c2" text-anchor="end" style="white-space: pre;" direction="ltr" dominant-baseline="alphabetic">Alibaba</text><text x="94.62937927246094" y="57.693128491911" font-family="Virgil, Segoe UI Emoji" font-size="27.136937202215897px" fill="#1971c2" text-anchor="end" style="white-space: pre;" direction="ltr" dominant-baseline="alphabetic">Cloud</text></g><g transform="translate(393.32018852252736 1000.8308420020148) rotate(0 56.79593883007482 33.20624045661714)"><text x="0" y="46.54186662399461" font-family="Virgil, Segoe UI Emoji" font-size="53.12998473058744px" fill="#2f9e44" text-anchor="start" style="white-space: pre;" direction="ltr" dominant-baseline="alphabetic">GIT</text></g><g transform="translate(682.4813029082908 993.5533581733713) rotate(0 122.90995788574213 25.5)"><text x="0" y="35.74080000000001" font-family="Virgil, Segoe UI Emoji" font-size="40.800000000000004px" fill="#1e1e1e" text-anchor="start" style="white-space: pre;" direction="ltr" dominant-baseline="alphabetic">Architecture</text></g><g transform="translate(1008.6710437291729 709.3266925414572) rotate(0 33.73612976074219 16.96058575138494)"><text x="67.47225952148438" y="23.771956989141128" font-family="Virgil, Segoe UI Emoji" font-size="27.136937202215897px" fill="#1971c2" text-anchor="end" style="white-space: pre;" direction="ltr" dominant-baseline="alphabetic">Swift</text></g><g transform="translate(1009.6027839688354 746.9976641272356) rotate(0 36.36774444580078 16.96058575138494)"><text x="72.73548889160156" y="23.771956989141128" font-family="Virgil, Segoe UI Emoji" font-size="27.136937202215897px" fill="#1971c2" text-anchor="end" style="white-space: pre;" direction="ltr" dominant-baseline="alphabetic">Kotlin</text></g><g transform="translate(1014.757477572351 793.5274484021334) rotate(0 33.79039764404297 16.96058575138494)"><text x="67.58079528808594" y="23.771956989141128" font-family="Virgil, Segoe UI Emoji" font-size="27.136937202215897px" fill="#1971c2" text-anchor="end" style="white-space: pre;" direction="ltr" dominant-baseline="alphabetic">Java</text></g><g transform="translate(991.5668248787979 846.7210121357047) rotate(0 59.208437993963685 12.088423657669864)"><text x="118.41687598792727" y="16.94313459859008" font-family="Virgil, Segoe UI Emoji" font-size="19.341477852271783px" fill="#1971c2" text-anchor="end" style="white-space: pre;" direction="ltr" dominant-baseline="alphabetic">ReactNative</text></g><g transform="translate(1017.3425343832735 883.6593176223261) rotate(0 33.96101379394531 12.088423657669864)"><text x="67.92202758789062" y="16.94313459859008" font-family="Virgil, Segoe UI Emoji" font-size="19.341477852271783px" fill="#1971c2" text-anchor="end" style="white-space: pre;" direction="ltr" dominant-baseline="alphabetic">Flutter</text></g><g transform="translate(405.689514961698 1062.2608650533423) rotate(0 42.63477325439453 16.96058575138494)"><text x="85.26954650878906" y="23.771956989141128" font-family="Virgil, Segoe UI Emoji" font-size="27.136937202215897px" fill="#2f9e44" text-anchor="end" style="white-space: pre;" direction="ltr" dominant-baseline="alphabetic">Github</text></g><g transform="translate(409.9090584483773 1089.7112905225404) rotate(0 40.84419250488281 16.96058575138494)"><text x="81.68838500976562" y="23.771956989141128" font-family="Virgil, Segoe UI Emoji" font-size="27.136937202215897px" fill="#e03131" text-anchor="end" style="white-space: pre;" direction="ltr" dominant-baseline="alphabetic">Gitlab</text></g><g transform="translate(386.75544925656345 1119.0768619547057) rotate(0 63.592681884765625 16.96058575138494)"><text x="127.18536376953125" y="23.771956989141128" font-family="Virgil, Segoe UI Emoji" font-size="27.136937202215897px" fill="#e03131" text-anchor="end" style="white-space: pre;" direction="ltr" dominant-baseline="alphabetic">Bitbucket</text></g><g transform="translate(564.1629814129892 1044.5359579517758) rotate(0 138.92462047646757 14.3886906335498)"><text x="277.8492409529351" y="20.167188791983428" font-family="Virgil, Segoe UI Emoji" font-size="23.021905013679714px" fill="#1971c2" text-anchor="end" style="white-space: pre;" direction="ltr" dominant-baseline="alphabetic">Infraestructure of code</text></g><g transform="translate(566.376728058981 1079.9533953326568) rotate(0 89.82395935058594 17.5)"><text x="179.64791870117188" y="24.528" font-family="Virgil, Segoe UI Emoji" font-size="28px" fill="#2f9e44" text-anchor="end" style="white-space: pre;" direction="ltr" dominant-baseline="alphabetic">Linux / UNIX</text></g><g transform="translate(602.5820812948491 1121.7556831500012) rotate(0 90.76883336545757 14.983914406711051)"><text x="181.5376667309152" y="21.001454432446216" font-family="Virgil, Segoe UI Emoji" font-size="23.974263050737694px" fill="#1971c2" text-anchor="end" style="white-space: pre;" direction="ltr" dominant-baseline="alphabetic">Cloud Providers</text></g><g transform="translate(786.6895896954076 1100.7998892944725) rotate(0 31.743969746523874 12.749577449915819)"><text x="63.487939493047726" y="17.869807753802032" font-family="Virgil, Segoe UI Emoji" font-size="20.39932391986533px" fill="#1971c2" text-anchor="end" style="white-space: pre;" direction="ltr" dominant-baseline="alphabetic">CI/CD</text></g><g transform="translate(948.2912329754022 1043.2591939764643) rotate(0 52.03644204674697 12.749577449915819)"><text x="104.07288409349385" y="17.869807753802032" font-family="Virgil, Segoe UI Emoji" font-size="20.39932391986533px" fill="#1971c2" text-anchor="end" style="white-space: pre;" direction="ltr" dominant-baseline="alphabetic">Containers</text></g><g transform="translate(866.5055018350761 1077.657662330338) rotate(0 106.7139628033201 12.749577449915819)"><text x="213.4279256066402" y="17.869807753802032" font-family="Virgil, Segoe UI Emoji" font-size="20.39932391986533px" fill="#1971c2" text-anchor="end" style="white-space: pre;" direction="ltr" dominant-baseline="alphabetic">Cloud Design patters</text></g><g transform="translate(907.4890117287141 1114.7584478516972) rotate(0 75.10651397705078 12.749577449915819)"><text x="150.21302795410156" y="17.869807753802032" font-family="Virgil, Segoe UI Emoji" font-size="20.39932391986533px" fill="#1971c2" text-anchor="end" style="white-space: pre;" direction="ltr" dominant-baseline="alphabetic">Design patters</text></g><g transform="translate(406.88836563180405 10) rotate(0 313.6404418945312 101.56843111639074)"><text x="313.64044189453125" y="47.45277101757776" font-family="Virgil, Segoe UI Emoji" font-size="54.16982992874173px" fill="#e03131" text-anchor="middle" style="white-space: pre;" direction="ltr" dominant-baseline="alphabetic">¿Cómo se </text><text x="313.64044189453125" y="115.16505842850492" font-family="Virgil, Segoe UI Emoji" font-size="54.16982992874173px" fill="#e03131" text-anchor="middle" style="white-space: pre;" direction="ltr" dominant-baseline="alphabetic">desarrolla un proyecto </text><text x="313.64044189453125" y="182.87734583943208" font-family="Virgil, Segoe UI Emoji" font-size="54.16982992874173px" fill="#e03131" text-anchor="middle" style="white-space: pre;" direction="ltr" dominant-baseline="alphabetic">de software?</text></g><g transform="translate(376.93844712224757 833.6465522684659) rotate(0 20.55096435546875 16.96058575138494)"><text x="41.1019287109375" y="23.771956989141128" font-family="Virgil, Segoe UI Emoji" font-size="27.136937202215897px" fill="#e03131" text-anchor="end" style="white-space: pre;" direction="ltr" dominant-baseline="alphabetic">GO</text></g><g transform="translate(435.3096467752131 833.646552268466) rotate(0 31.93199920654297 16.96058575138494)"><text x="63.86399841308594" y="23.771956989141128" font-family="Virgil, Segoe UI Emoji" font-size="27.136937202215897px" fill="#e03131" text-anchor="end" style="white-space: pre;" direction="ltr" dominant-baseline="alphabetic">Rust</text></g><g transform="translate(405.65047453842567 865.0935558944792) rotate(0 25.692092895507812 16.96058575138494)"><text x="51.384185791015625" y="23.771956989141128" font-family="Virgil, Segoe UI Emoji" font-size="27.136937202215897px" fill="#e03131" text-anchor="end" style="white-space: pre;" direction="ltr" dominant-baseline="alphabetic">C++</text></g><g stroke-linecap="round"><g transform="translate(538.9615150294449 698.9602477264807) rotate(0 0.7007642309641255 114.11159200437743)"><path d="M0 0 C0 57.82, 1.15 115.22, 0 228.22 M0 0 C1.48 48.36, 2.22 98.65, 0 228.22" stroke="#1e1e1e" stroke-width="2" fill="none"></path></g></g><mask></mask><g stroke-linecap="round"><g transform="translate(750.6296494209844 694.2302335501336) rotate(0 0.4191910078812384 85.73150694629385)"><path d="M0 0 C1.43 54.81, 0.77 112.58, 0 171.46 M0 0 C-0.05 56.49, 0.96 111.57, 0 171.46" stroke="#1e1e1e" stroke-width="2" fill="none"></path></g></g><mask></mask><g transform="translate(572.2028609679767 770.1594513872795) rotate(0 71.12125396728516 16.96058575138494)"><text x="142.2425079345703" y="23.771956989141128" font-family="Virgil, Segoe UI Emoji" font-size="27.136937202215897px" fill="#1971c2" text-anchor="end" style="white-space: pre;" direction="ltr" dominant-baseline="alphabetic">Javascript</text></g><g stroke-linecap="round"><g transform="translate(985.1991158757833 694.2302335501336) rotate(0 -0.27672052913294465 85.73150694629385)"><path d="M0 0 C-0.48 54.75, -1.71 112.27, 0 171.46 M0 0 C0.81 62.32, -0.16 123.03, 0 171.46" stroke="#1e1e1e" stroke-width="2" fill="none"></path></g></g><mask></mask><g transform="translate(547.6352952316032 738.3729911539011) rotate(0 40.138816833496094 16.96058575138494)"><text x="80.27763366699219" y="23.771956989141128" font-family="Virgil, Segoe UI Emoji" font-size="27.136937202215897px" fill="#1971c2" text-anchor="end" style="white-space: pre;" direction="ltr" dominant-baseline="alphabetic">React</text></g><g transform="translate(360.49725769620056 411.73747577398956) rotate(0 175.73999053459352 12.686276755761554)"><text x="0" y="17.781085500875374" font-family="Virgil, Segoe UI Emoji" font-size="20.298042809218465px" fill="#1e1e1e" text-anchor="start" style="white-space: pre;" direction="ltr" dominant-baseline="alphabetic">Presenta una solución de software</text></g><g stroke-linecap="round"><g transform="translate(374.2905291603969 502.4368486105287) rotate(0 -49.51930670192496 19.240358658411594)"><path d="M-0.86 -0.44 C-8.44 4.98, -30.11 25.46, -46.33 32.02 C-62.54 38.58, -89.38 37.99, -98.18 38.92" stroke="#f08c00" stroke-width="4.5" fill="none" stroke-dasharray="8 12"></path></g><g transform="translate(374.2905291603969 502.4368486105287) rotate(0 -49.51930670192496 19.240358658411594)"><path d="M-75.19 29.09 C-81.25 31.98, -85.84 33.46, -98.18 38.92" stroke="#f08c00" stroke-width="4.5" fill="none"></path></g><g transform="translate(374.2905291603969 502.4368486105287) rotate(0 -49.51930670192496 19.240358658411594)"><path d="M-74.25 46.17 C-80.45 45.13, -85.25 42.69, -98.18 38.92" stroke="#f08c00" stroke-width="4.5" fill="none"></path></g></g><mask></mask></svg>