<svg version="1.1" xmlns="http://www.w3.org/2000/svg" viewBox="0 0 969.9029831488886 667.1967767061449" width="2909.7089494466654" height="2001.5903301184346">
  <!-- svg-source:excalidraw -->
  
  <defs>
    <style class="style-fonts">
      @font-face {
        font-family: "Virgil";
        src: url("https://excalidraw.com/Virgil.woff2");
      }
      @font-face {
        font-family: "Cascadia";
        src: url("https://excalidraw.com/Cascadia.woff2");
      }
      @font-face {
        font-family: "Assistant";
        src: url("https://excalidraw.com/Assistant-Regular.woff2");
      }
    </style>
    
  </defs>
  <rect x="0" y="0" width="969.9029831488886" height="667.1967767061449" fill="#ffffff"></rect><g transform="translate(155.04301146054377 347.3820846167348) rotate(0 60.074624622678414 18.518867507031587)"><text x="120.14924924535683" y="25.956044697855454" font-family="Virgil, Segoe UI Emoji" font-size="29.630188011250517px" fill="#1971c2" text-anchor="end" style="white-space: pre;" direction="ltr" dominant-baseline="alphabetic">Node JS</text></g><g stroke-linecap="round" transform="translate(248.18666687765324 205.0965020063494) rotate(0 17.05387538111421 15.54347498773592)"><path d="M0.38 10.93 C0.38 10.93, 0.38 10.93, 0.38 10.93 M0.38 10.93 C0.38 10.93, 0.38 10.93, 0.38 10.93 M1.83 21.46 C8.01 15.47, 13.15 8.06, 19.54 1.09 M1.83 21.46 C6.45 16.08, 10.09 11.29, 19.54 1.09 M7.21 27.47 C15.29 20.01, 21.16 10.65, 27.55 4.07 M7.21 27.47 C12.56 20.82, 18.91 14.54, 27.55 4.07 M15.87 29.7 C21.07 23.82, 24.53 19.2, 32.27 10.83 M15.87 29.7 C22.06 22.4, 28.07 15.7, 32.27 10.83 M9.1 29.16 C9.1 29.16, 9.1 29.16, 9.1 29.16 M9.1 29.16 C9.1 29.16, 9.1 29.16, 9.1 29.16 M21.9 29.68 C16.05 24.34, 11.29 19.84, 0.01 10.66 M21.9 29.68 C16.62 25.55, 11.52 20.4, 0.01 10.66 M29.41 25.61 C22.49 20.86, 18.31 16.06, 6.01 5.28 M29.41 25.61 C24.06 21.42, 19.9 17.37, 6.01 5.28 M33.15 18.26 C26.47 10.82, 18.6 5.36, 13.53 1.21 M33.15 18.26 C28.44 13.93, 22.89 9.76, 13.53 1.21" stroke="#4dabf7" stroke-width="1" fill="none"></path><path d="M19.24 0.19 C22.69 0.41, 27.04 2.51, 29.53 4.99 C32.02 7.47, 34.05 11.7, 34.19 15.06 C34.32 18.42, 32.5 22.63, 30.34 25.16 C28.18 27.69, 24.79 29.58, 21.24 30.24 C17.69 30.9, 12.4 30.62, 9.06 29.12 C5.72 27.63, 2.66 24.29, 1.21 21.26 C-0.24 18.24, -0.81 14.15, 0.33 10.99 C1.48 7.82, 4.78 4.1, 8.06 2.27 C11.33 0.44, 17.92 0.23, 19.98 -0.01 C22.03 -0.25, 20.39 0.53, 20.38 0.83 M20.3 0.67 C23.79 1.07, 27.6 2.91, 29.95 5.53 C32.29 8.14, 34.41 12.88, 34.37 16.36 C34.34 19.85, 32.1 23.96, 29.73 26.44 C27.36 28.91, 23.67 30.91, 20.15 31.2 C16.62 31.5, 11.72 30, 8.58 28.22 C5.45 26.44, 2.46 23.66, 1.32 20.54 C0.17 17.42, 0.37 12.73, 1.7 9.52 C3.03 6.3, 6.14 2.75, 9.31 1.26 C12.49 -0.24, 18.89 0.72, 20.73 0.53 C22.57 0.34, 20.49 -0.12, 20.37 0.12" stroke="#1e1e1e" stroke-width="2" fill="none"></path></g><g transform="translate(299.04749001408504 183.81869244376787) rotate(0 165.96420288085938 36.8900721136352)"><text x="0" y="51.70512507447111" font-family="Virgil, Segoe UI Emoji" font-size="59.02411538181634px" fill="#1e1e1e" text-anchor="start" style="white-space: pre;" direction="ltr" dominant-baseline="alphabetic">Modulo Dev</text></g><g transform="translate(339.52090406664036 326.9479844796972) rotate(0 27.54900946871527 18.518867507031587)"><text x="55.0980189374305" y="25.956044697855454" font-family="Virgil, Segoe UI Emoji" font-size="29.630188011250517px" fill="#1971c2" text-anchor="end" style="white-space: pre;" direction="ltr" dominant-baseline="alphabetic">CSS</text></g><g transform="translate(330.33363551291734 358.4564497680785) rotate(0 40.28674287207036 18.518867507031587)"><text x="80.5734857441407" y="25.956044697855457" font-family="Virgil, Segoe UI Emoji" font-size="29.63018801125052px" fill="#1971c2" text-anchor="end" style="white-space: pre;" direction="ltr" dominant-baseline="alphabetic">HTML</text></g><g transform="translate(460.0576312904484 346.570151323692) rotate(0 52.609732755522 18.518867507031587)"><text x="105.21946551104399" y="25.956044697855454" font-family="Virgil, Segoe UI Emoji" font-size="29.630188011250517px" fill="#1971c2" text-anchor="end" style="white-space: pre;" direction="ltr" dominant-baseline="alphabetic">Angular</text></g><g transform="translate(600.8314393581293 350.23728494086004) rotate(0 29.770707542805468 18.518867507031587)"><text x="59.541415085610915" y="25.956044697855454" font-family="Virgil, Segoe UI Emoji" font-size="29.630188011250517px" fill="#1971c2" text-anchor="end" style="white-space: pre;" direction="ltr" dominant-baseline="alphabetic">AWS</text></g><g transform="translate(700.232422318941 357.0585225146019) rotate(0 37.081237881373866 13.199067494881433)"><text x="74.16247576274773" y="18.499813000825824" font-family="Virgil, Segoe UI Emoji" font-size="21.118507991810304px" fill="#1971c2" text-anchor="end" style="white-space: pre;" direction="ltr" dominant-baseline="alphabetic">Flutter</text></g><g transform="translate(492.9591713075059 411.01005049014134) rotate(0 63.036891498251265 18.518867507031587)"><text x="126.07378299650252" y="25.956044697855454" font-family="Virgil, Segoe UI Emoji" font-size="29.630188011250517px" fill="#1971c2" text-anchor="end" style="white-space: pre;" direction="ltr" dominant-baseline="alphabetic">MariaDB</text></g><g transform="translate(354.89816527235917 409.8836872780116) rotate(0 46.55191328082486 18.518867507031587)"><text x="93.10382656164977" y="25.956044697855457" font-family="Virgil, Segoe UI Emoji" font-size="29.63018801125052px" fill="#1971c2" text-anchor="end" style="white-space: pre;" direction="ltr" dominant-baseline="alphabetic">Github</text></g><g transform="translate(666.1565192579428 412.2612217614817) rotate(0 71.43648141013766 13.92096588093068)"><text x="142.87296282027532" y="19.511625778712443" font-family="Virgil, Segoe UI Emoji" font-size="22.27354540948909px" fill="#1971c2" text-anchor="end" style="white-space: pre;" direction="ltr" dominant-baseline="alphabetic">Linux / UNIX</text></g><g transform="translate(255.07491852518058 413.4939183801216) rotate(0 34.660499259885 13.92096588093068)"><text x="69.32099851977004" y="19.511625778712443" font-family="Virgil, Segoe UI Emoji" font-size="22.27354540948909px" fill="#1971c2" text-anchor="end" style="white-space: pre;" direction="ltr" dominant-baseline="alphabetic">CI/CD</text></g><g transform="translate(119.54129138246537 413.9063108662349) rotate(0 56.81737588115698 13.92096588093068)"><text x="113.63475176231397" y="19.511625778712443" font-family="Virgil, Segoe UI Emoji" font-size="22.27354540948909px" fill="#1971c2" text-anchor="end" style="white-space: pre;" direction="ltr" dominant-baseline="alphabetic">Containers</text></g><g stroke-opacity="0.9" fill-opacity="0.9" stroke-linecap="round" transform="translate(90.72358796156652 148.45221187616562) rotate(0 381.0795090270454 170.7742198129498)"><path d="M32 0 C232.78 0.97, 432.41 0.46, 730.16 0 M32 0 C293.66 2.29, 554.84 2.75, 730.16 0 M730.16 0 C752.53 1.17, 761.52 10.44, 762.16 32 M730.16 0 C753.76 1.19, 763.51 11.85, 762.16 32 M762.16 32 C761.93 100.29, 764.87 169.87, 762.16 309.55 M762.16 32 C761.53 142.43, 762.36 252.58, 762.16 309.55 M762.16 309.55 C762 329.45, 752.86 341.06, 730.16 341.55 M762.16 309.55 C763.9 328.82, 752.85 340.61, 730.16 341.55 M730.16 341.55 C488.19 340.8, 245.19 340.13, 32 341.55 M730.16 341.55 C579.99 342.09, 429.74 342.45, 32 341.55 M32 341.55 C10.86 342.45, -0.23 331.33, 0 309.55 M32 341.55 C11.27 341.19, 2.18 332.69, 0 309.55 M0 309.55 C3.03 213.1, 2.02 113.99, 0 32 M0 309.55 C-0.63 244.85, -0.62 180.94, 0 32 M0 32 C1.96 10.66, 9.19 -0.61, 32 0 M0 32 C1.14 12.05, 12.26 0.96, 32 0" stroke="#1e1e1e" stroke-width="2" fill="none"></path></g><g stroke-opacity="0.9" fill-opacity="0.9" transform="translate(287.7604776830975 53.009771683351914) rotate(0 186.69590759277344 22.5)"><text x="373.3918151855469" y="31.536" font-family="Virgil, Segoe UI Emoji" font-size="36px" fill="#1e1e1e" text-anchor="end" style="white-space: pre;" direction="ltr" dominant-baseline="alphabetic">Planificación y diseño</text></g><g stroke-opacity="0.9" fill-opacity="0.9" transform="translate(131.43473593724934 10) rotate(0 345.18585205078125 22.5)"><text x="690.3717041015625" y="31.536" font-family="Virgil, Segoe UI Emoji" font-size="36px" fill="#1e1e1e" text-anchor="end" style="white-space: pre;" direction="ltr" dominant-baseline="alphabetic">Configuración del entorno de desarrollo</text></g><g stroke-opacity="0.9" fill-opacity="0.9" transform="translate(407.65877193511994 301.17791328002056) rotate(0 38.82972717285156 11.632828191665624)"><text x="77.65945434570312" y="16.304571993438543" font-family="Virgil, Segoe UI Emoji" font-size="18.612525106665004px" fill="#1e1e1e" text-anchor="end" style="white-space: pre;" direction="ltr" dominant-baseline="alphabetic">Frontend</text></g><g stroke-opacity="0.9" fill-opacity="0.9" transform="translate(177.48727865058993 318.88781926728313) rotate(0 36.903594970703125 11.632828191665624)"><text x="73.80718994140625" y="16.304571993438543" font-family="Virgil, Segoe UI Emoji" font-size="18.612525106665004px" fill="#1e1e1e" text-anchor="end" style="white-space: pre;" direction="ltr" dominant-baseline="alphabetic">Backend</text></g><g stroke-opacity="0.9" fill-opacity="0.9" transform="translate(267.25390755537455 283.468007292758) rotate(0 50.84246826171875 11.632828191665624)"><text x="101.6849365234375" y="16.304571993438543" font-family="Virgil, Segoe UI Emoji" font-size="18.612525106665004px" fill="#1e1e1e" text-anchor="end" style="white-space: pre;" direction="ltr" dominant-baseline="alphabetic">Integración</text></g><g stroke-linecap="round"><g stroke-opacity="0.9" fill-opacity="0.9" transform="translate(258.88442830082295 297.1534756506144) rotate(0 -22.141339289247753 6.1760240831118836)"><path d="M-0.42 -0.18 C-7.74 1.87, -36.49 10.37, -43.87 12.54" stroke="#1e1e1e" stroke-width="2.5" fill="none" stroke-dasharray="8 10"></path></g><g stroke-opacity="0.9" fill-opacity="0.9" transform="translate(258.88442830082295 297.1534756506144) rotate(0 -22.141339289247753 6.1760240831118836)"><path d="M-25.34 -1.13 C-31.42 3.8, -37.07 6.59, -43.87 12.54" stroke="#1e1e1e" stroke-width="2.5" fill="none"></path></g><g stroke-opacity="0.9" fill-opacity="0.9" transform="translate(258.88442830082295 297.1534756506144) rotate(0 -22.141339289247753 6.1760240831118836)"><path d="M-20.89 13.98 C-28.39 14.18, -35.42 12.27, -43.87 12.54" stroke="#1e1e1e" stroke-width="2.5" fill="none"></path></g></g><mask></mask><g stroke-linecap="round"><g stroke-opacity="0.9" fill-opacity="0.9" transform="translate(373.99881721802967 290.828509226592) rotate(0 22.74921308600028 2.1095465529220974)"><path d="M-0.2 -0.35 C7.33 0.33, 38.12 3.75, 45.7 4.57" stroke="#1e1e1e" stroke-width="2.5" fill="none" stroke-dasharray="8 10"></path></g><g stroke-opacity="0.9" fill-opacity="0.9" transform="translate(373.99881721802967 290.828509226592) rotate(0 22.74921308600028 2.1095465529220974)"><path d="M23.44 10.02 C31.67 8.17, 40.29 5.2, 45.7 4.57" stroke="#1e1e1e" stroke-width="2.5" fill="none"></path></g><g stroke-opacity="0.9" fill-opacity="0.9" transform="translate(373.99881721802967 290.828509226592) rotate(0 22.74921308600028 2.1095465529220974)"><path d="M25.15 -5.56 C32.76 -1.19, 40.7 2.06, 45.7 4.57" stroke="#1e1e1e" stroke-width="2.5" fill="none"></path></g></g><mask></mask><g stroke-opacity="0.9" fill-opacity="0.9" transform="translate(292.75338233954153 500.8173945041342) rotate(0 187.3619384765625 22.5)"><text x="374.723876953125" y="31.536" font-family="Virgil, Segoe UI Emoji" font-size="36px" fill="#1e1e1e" text-anchor="end" style="white-space: pre;" direction="ltr" dominant-baseline="alphabetic">Pruebas y depuración</text></g><g stroke-linecap="round"><g stroke-opacity="0.9" fill-opacity="0.9" transform="translate(279.12432085769444 521.0572870610054) rotate(0 -47.67100730788667 -12.345936177798535)"><path d="M0.99 0.36 C-14.9 -3.69, -79.96 -20.95, -96.33 -25.05" stroke="#1e1e1e" stroke-width="2.5" fill="none" stroke-dasharray="8 10"></path></g><g stroke-opacity="0.9" fill-opacity="0.9" transform="translate(279.12432085769444 521.0572870610054) rotate(0 -47.67100730788667 -12.345936177798535)"><path d="M-71.45 -27.44 C-76.31 -24.93, -81.94 -25.9, -96.33 -25.05" stroke="#1e1e1e" stroke-width="2.5" fill="none"></path></g><g stroke-opacity="0.9" fill-opacity="0.9" transform="translate(279.12432085769444 521.0572870610054) rotate(0 -47.67100730788667 -12.345936177798535)"><path d="M-75.73 -10.89 C-79.55 -12.03, -84.24 -16.62, -96.33 -25.05" stroke="#1e1e1e" stroke-width="2.5" fill="none"></path></g></g><mask></mask><g stroke-linecap="round"><g stroke-opacity="0.9" fill-opacity="0.9" transform="translate(668.742252577471 528.6472467698322) rotate(0 60.04462063029774 -14.999958391274504)"><path d="M0.69 0.77 C20.48 -4.45, 99.86 -25.39, 119.4 -30.77" stroke="#1e1e1e" stroke-width="2.5" fill="none" stroke-dasharray="8 10"></path></g><g stroke-opacity="0.9" fill-opacity="0.9" transform="translate(668.742252577471 528.6472467698322) rotate(0 60.04462063029774 -14.999958391274504)"><path d="M98.93 -16.42 C107.38 -20.79, 114.75 -28.35, 119.4 -30.77" stroke="#1e1e1e" stroke-width="2.5" fill="none"></path></g><g stroke-opacity="0.9" fill-opacity="0.9" transform="translate(668.742252577471 528.6472467698322) rotate(0 60.04462063029774 -14.999958391274504)"><path d="M94.49 -32.93 C104.59 -31.5, 113.53 -33.22, 119.4 -30.77" stroke="#1e1e1e" stroke-width="2.5" fill="none"></path></g></g><mask></mask><g stroke-opacity="0.9" fill-opacity="0.9" transform="translate(585.858847934173 290.828509226592) rotate(0 47.06538333218256 11.74755707916205)"><text x="94.13076666436513" y="16.465376002153544" font-family="Virgil, Segoe UI Emoji" font-size="18.796091326659297px" fill="#1e1e1e" text-anchor="end" style="white-space: pre;" direction="ltr" dominant-baseline="alphabetic">Despliegue</text></g><g stroke-linecap="round"><g stroke-opacity="0.9" fill-opacity="0.9" transform="translate(625.4212877009538 321.1883480618993) rotate(0 1.8702922594601716 14.491345174273476)"><path d="M0.4 0.54 C0.9 5.35, 2.9 23.84, 3.34 28.44" stroke="#1e1e1e" stroke-width="2.5" fill="none" stroke-dasharray="8 10"></path></g><g stroke-opacity="0.9" fill-opacity="0.9" transform="translate(625.4212877009538 321.1883480618993) rotate(0 1.8702922594601716 14.491345174273476)"><path d="M-2.81 15.76 C0.04 20.91, 2.05 25.1, 3.34 28.44" stroke="#1e1e1e" stroke-width="2.5" fill="none"></path></g><g stroke-opacity="0.9" fill-opacity="0.9" transform="translate(625.4212877009538 321.1883480618993) rotate(0 1.8702922594601716 14.491345174273476)"><path d="M6.78 14.77 C6.19 20.31, 4.77 24.85, 3.34 28.44" stroke="#1e1e1e" stroke-width="2.5" fill="none"></path></g></g><mask></mask><g stroke-opacity="0.9" fill-opacity="0.9" transform="translate(364.9800273778068 551.4171258963122) rotate(0 117.34273687266307 31.354952993631173)"><text x="234.68547374532616" y="43.94710211587352" font-family="Virgil, Segoe UI Emoji" font-size="50.16792478980996px" fill="#e03131" text-anchor="end" style="white-space: pre;" direction="ltr" dominant-baseline="alphabetic">Seguridad</text></g><g stroke-opacity="0.9" fill-opacity="0.9" transform="translate(832.3550324042595 292.0935025113963) rotate(89.99999999999994 105.0479507446289 22.5)"><text x="210.0959014892578" y="31.536" font-family="Virgil, Segoe UI Emoji" font-size="36px" fill="#e03131" text-anchor="end" style="white-space: pre;" direction="ltr" dominant-baseline="alphabetic">Optimización</text></g><g stroke-opacity="0.9" fill-opacity="0.9" transform="translate(167.2339638863582 98.54952993631264) rotate(0 306.4138488769531 22.5)"><text x="612.8276977539062" y="31.536" font-family="Virgil, Segoe UI Emoji" font-size="36px" fill="#f08c00" text-anchor="end" style="white-space: pre;" direction="ltr" dominant-baseline="alphabetic">Internacionalización y accesibilidad</text></g><g stroke-opacity="0.9" fill-opacity="0.9" transform="translate(716.951276212208 297.1534756506145) rotate(89.99999999999994 172.60194396972656 22.5)"><text x="345.2038879394531" y="31.536" font-family="Virgil, Segoe UI Emoji" font-size="36px" fill="#f08c00" text-anchor="end" style="white-space: pre;" direction="ltr" dominant-baseline="alphabetic">Pruebas de usuario</text></g><g stroke-opacity="0.9" fill-opacity="0.9" transform="translate(-59.71320813830505 329.10605658094744) rotate(270 84.80265310971288 15.089444971407772)"><text x="169.6053062194258" y="21.14936607192518" font-family="Virgil, Segoe UI Emoji" font-size="24.143111954252486px" fill="#e03131" text-anchor="end" style="white-space: pre;" direction="ltr" dominant-baseline="alphabetic">Documentación</text></g><g stroke-opacity="0.9" fill-opacity="0.9" transform="translate(-99.15815083157702 314.6839769576419) rotate(270 157.1232972001696 15.08944497140783)"><text x="314.2465944003392" y="21.14936607192518" font-family="Virgil, Segoe UI Emoji" font-size="24.143111954252486px" fill="#f08c00" text-anchor="end" style="white-space: pre;" direction="ltr" dominant-baseline="alphabetic">Escalabilidad y rendimiento</text></g><g stroke-opacity="0.9" fill-opacity="0.9" transform="translate(218.87898975491214 448.7065154314373) rotate(0 75.02992716194984 9.973144349811832)"><text x="150.05985432389969" y="13.978359120696314" font-family="Virgil, Segoe UI Emoji" font-size="15.95703095969899px" fill="#1e1e1e" text-anchor="end" style="white-space: pre;" direction="ltr" dominant-baseline="alphabetic">Despliegue continuo</text></g><g stroke-linecap="round"><g stroke-opacity="0.9" fill-opacity="0.9" transform="translate(217.13964990227544 459.07261610558635) rotate(0 -29.85420892693287 -9.871567894986583)"><path d="M0.85 -0.64 C-9.29 -3.85, -50.5 -15.91, -60.56 -19.11" stroke="#1e1e1e" stroke-width="2.5" fill="none" stroke-dasharray="8 10"></path></g><g stroke-opacity="0.9" fill-opacity="0.9" transform="translate(217.13964990227544 459.07261610558635) rotate(0 -29.85420892693287 -9.871567894986583)"><path d="M-35.59 -20.46 C-44.64 -21.69, -51.78 -19.49, -60.56 -19.11" stroke="#1e1e1e" stroke-width="2.5" fill="none"></path></g><g stroke-opacity="0.9" fill-opacity="0.9" transform="translate(217.13964990227544 459.07261610558635) rotate(0 -29.85420892693287 -9.871567894986583)"><path d="M-40.56 -4.1 C-48.04 -10.59, -53.59 -13.63, -60.56 -19.11" stroke="#1e1e1e" stroke-width="2.5" fill="none"></path></g></g><mask></mask><g stroke-linecap="round"><g stroke-opacity="0.9" fill-opacity="0.9" transform="translate(376.5288037876386 457.80762282078194) rotate(0 23.98432756373694 -6.3753024139149375)"><path d="M0.32 0.13 C8.21 -2.01, 39.76 -10.82, 47.65 -12.88" stroke="#1e1e1e" stroke-width="2.5" fill="none" stroke-dasharray="8 10"></path></g><g stroke-opacity="0.9" fill-opacity="0.9" transform="translate(376.5288037876386 457.80762282078194) rotate(0 23.98432756373694 -6.3753024139149375)"><path d="M27.33 1.44 C34.94 -4.58, 41.65 -9.75, 47.65 -12.88" stroke="#1e1e1e" stroke-width="2.5" fill="none"></path></g><g stroke-opacity="0.9" fill-opacity="0.9" transform="translate(376.5288037876386 457.80762282078194) rotate(0 23.98432756373694 -6.3753024139149375)"><path d="M22.88 -14.97 C32.09 -15.05, 40.42 -14.28, 47.65 -12.88" stroke="#1e1e1e" stroke-width="2.5" fill="none"></path></g></g><mask></mask><g stroke-opacity="0.9" fill-opacity="0.9" transform="translate(207.37599880643756 622.1967767061449) rotate(0 282.5478515625 17.5)"><text x="565.095703125" y="24.528" font-family="Virgil, Segoe UI Emoji" font-size="28px" fill="#1e1e1e" text-anchor="end" style="white-space: pre;" direction="ltr" dominant-baseline="alphabetic">Soporte, Mantenimiento y actualizaciones</text></g><g transform="translate(682.157180172483 194.74222196644575) rotate(0 34.56336975097656 37.03773501406312)"><text x="34.56336975097656" y="25.956044697855454" font-family="Virgil, Segoe UI Emoji" font-size="29.630188011250517px" fill="#1971c2" text-anchor="middle" style="white-space: pre;" direction="ltr" dominant-baseline="alphabetic">Rest</text><text x="34.56336975097656" y="62.9937797119186" font-family="Virgil, Segoe UI Emoji" font-size="29.630188011250517px" fill="#1971c2" text-anchor="middle" style="white-space: pre;" direction="ltr" dominant-baseline="alphabetic">API</text></g></svg>