<svg version="1.1" xmlns="http://www.w3.org/2000/svg" viewBox="0 0 1259.6620086245184 667.5515322332008" width="3778.9860258735553" height="2002.6545966996023">
  <!-- svg-source:excalidraw -->
  
  <defs>
    <style class="style-fonts">
      @font-face {
        font-family: "Virgil";
        src: url("https://excalidraw.com/Virgil.woff2");
      }
      @font-face {
        font-family: "Cascadia";
        src: url("https://excalidraw.com/Cascadia.woff2");
      }
      @font-face {
        font-family: "Assistant";
        src: url("https://excalidraw.com/Assistant-Regular.woff2");
      }
    </style>
    
  </defs>
  <rect x="0" y="0" width="1259.6620086245184" height="667.5515322332008" fill="#ffffff"></rect><g stroke-linecap="round" transform="translate(415.5320298522231 238.31407725909855) rotate(0 259 181.5)"><path d="M32 0 C169.52 0.65, 306.89 1.57, 486 0 M32 0 C209.6 0.54, 387.26 0.47, 486 0 M486 0 C509.1 0.64, 517.29 10.98, 518 32 M486 0 C507.03 -1.13, 515.79 9.64, 518 32 M518 32 C518.52 151.43, 518.99 271.07, 518 331 M518 32 C519.99 121.72, 519.89 212.1, 518 331 M518 331 C518.38 354.04, 506.17 364.51, 486 363 M518 331 C515.86 351.58, 509.46 361.99, 486 363 M486 363 C350.34 360.53, 216.32 360.81, 32 363 M486 363 C392.8 362.13, 298.61 362.5, 32 363 M32 363 C9.89 363.15, 0 354.16, 0 331 M32 363 C8.49 364.59, 1.01 353.52, 0 331 M0 331 C-2.01 244, -1.66 154.45, 0 32 M0 331 C0.95 212.2, 1.16 94.54, 0 32 M0 32 C0.79 12.35, 10.48 1.58, 32 0 M0 32 C-1.28 11.03, 11.17 -0.98, 32 0" stroke="#1e1e1e" stroke-width="2" fill="none"></path></g><g stroke-linecap="round"><g transform="translate(414.5320298522231 300.31407725909855) rotate(0 259.2742361560464 0.016932812695088728)"><path d="M-0.81 0.01 C85.87 0.18, 432.56 1.13, 519.35 1.1 M0.97 -1.03 C87.59 -1.18, 432.14 -0.8, 518.59 -0.45" stroke="#1e1e1e" stroke-width="2" fill="none"></path></g></g><mask></mask><g transform="translate(583.5320298522231 238.31379941400127) rotate(0 100.59433715820313 32.50013892254864)"><text x="0" y="45.55219471384423" font-family="Virgil, Segoe UI Emoji" font-size="52.000222276077885px" fill="#e03131" text-anchor="start" style="white-space: pre;" direction="ltr" dominant-baseline="alphabetic">Persona</text></g><g transform="translate(464.3279313715029 304.31407725909855) rotate(0 46.44055938720703 17.50983342415509)"><text x="0" y="24.541782527295787" font-family="Virgil, Segoe UI Emoji" font-size="28.015733478648162px" fill="#1e1e1e" text-anchor="start" style="white-space: pre;" direction="ltr" dominant-baseline="alphabetic">Nombre</text></g><g transform="translate(466.5320298522231 334.37472891461096) rotate(0 34.7183837890625 17.50983342415509)"><text x="0" y="24.541782527295787" font-family="Virgil, Segoe UI Emoji" font-size="28.015733478648162px" fill="#1e1e1e" text-anchor="start" style="white-space: pre;" direction="ltr" dominant-baseline="alphabetic">Edad</text></g><g stroke-linecap="round"><g transform="translate(414.5320298522231 375.31407725909855) rotate(0 258.6488232474634 -0.6123576773056811)"><path d="M-0.2 0.35 C86.34 0.33, 432.76 0.41, 519.06 0.38 M-1.76 -0.51 C84.73 -0.95, 432.28 -1.89, 518.67 -1.54" stroke="#1e1e1e" stroke-width="2" fill="none"></path></g></g><mask></mask><g transform="translate(465.5132174297812 385.37472891461096) rotate(0 192.8428412698147 15.153228808716932)"><text x="0" y="21.23876549829766" font-family="Virgil, Segoe UI Emoji" font-size="24.245166093947102px" fill="#1e1e1e" text-anchor="start" style="white-space: pre;" direction="ltr" dominant-baseline="alphabetic">Persona(String nombre, int edad)</text></g><g transform="translate(465.5132174297812 429.63051972187253) rotate(0 74.92643249884134 15.153228808716932)"><text x="0" y="21.23876549829766" font-family="Virgil, Segoe UI Emoji" font-size="24.245166093947102px" fill="#1e1e1e" text-anchor="start" style="white-space: pre;" direction="ltr" dominant-baseline="alphabetic">getNombre() </text></g><g transform="translate(452.5320298522231 473.8863105291341) rotate(0 64.7819151484021 15.153228808716932)"><text x="0" y="21.23876549829766" font-family="Virgil, Segoe UI Emoji" font-size="24.245166093947102px" fill="#1e1e1e" text-anchor="start" style="white-space: pre;" direction="ltr" dominant-baseline="alphabetic"> getEdad()</text></g><g transform="translate(465.5132174297812 518.1421013363956) rotate(0 147.2955166396987 15.153228808716932)"><text x="0" y="21.23876549829766" font-family="Virgil, Segoe UI Emoji" font-size="24.245166093947102px" fill="#1e1e1e" text-anchor="start" style="white-space: pre;" direction="ltr" dominant-baseline="alphabetic">setNombre(String nombre)</text></g><g transform="translate(470.84027995563395 562.3978921436573) rotate(0 108.9596613684837 15.15322880871696)"><text x="0" y="21.23876549829766" font-family="Virgil, Segoe UI Emoji" font-size="24.245166093947102px" fill="#1e1e1e" text-anchor="start" style="white-space: pre;" direction="ltr" dominant-baseline="alphabetic">setEdad(int edad)</text></g><g transform="translate(96.20277737278502 63.93785618374079) rotate(0 553.255021089953 48.18960712411662)"><text x="0" y="67.54255334516188" font-family="Virgil, Segoe UI Emoji" font-size="77.10337139858662px" fill="#1971c2" text-anchor="start" style="white-space: pre;" direction="ltr" dominant-baseline="alphabetic">Abstración - Encapsulamiento</text></g><g transform="translate(437.3279313715029 303.31407725909855) rotate(0 8.753120422363281 17.50983342415509)"><text x="0" y="24.541782527295787" font-family="Virgil, Segoe UI Emoji" font-size="28.015733478648162px" fill="#2f9e44" text-anchor="start" style="white-space: pre;" direction="ltr" dominant-baseline="alphabetic">+</text></g><g transform="translate(437.3279313715029 333.31407725909855) rotate(0 5.756050109863281 17.50983342415509)"><text x="0" y="24.541782527295787" font-family="Virgil, Segoe UI Emoji" font-size="28.015733478648162px" fill="#2f9e44" text-anchor="start" style="white-space: pre;" direction="ltr" dominant-baseline="alphabetic">-</text></g><g transform="translate(437.3279313715029 381.31407725909855) rotate(0 8.753120422363281 17.50983342415509)"><text x="0" y="24.541782527295787" font-family="Virgil, Segoe UI Emoji" font-size="28.015733478648162px" fill="#2f9e44" text-anchor="start" style="white-space: pre;" direction="ltr" dominant-baseline="alphabetic">+</text></g><g transform="translate(437.3279313715029 430.31407725909855) rotate(0 8.753120422363281 17.50983342415509)"><text x="0" y="24.541782527295787" font-family="Virgil, Segoe UI Emoji" font-size="28.015733478648162px" fill="#2f9e44" text-anchor="start" style="white-space: pre;" direction="ltr" dominant-baseline="alphabetic">+</text></g><g transform="translate(437.3279313715029 476.31407725909855) rotate(0 8.753120422363281 17.50983342415509)"><text x="0" y="24.541782527295787" font-family="Virgil, Segoe UI Emoji" font-size="28.015733478648162px" fill="#2f9e44" text-anchor="start" style="white-space: pre;" direction="ltr" dominant-baseline="alphabetic">+</text></g><g transform="translate(437.3279313715029 520.3140772590986) rotate(0 8.753120422363281 17.50983342415509)"><text x="0" y="24.541782527295787" font-family="Virgil, Segoe UI Emoji" font-size="28.015733478648162px" fill="#2f9e44" text-anchor="start" style="white-space: pre;" direction="ltr" dominant-baseline="alphabetic">+</text></g><g transform="translate(437.3279313715029 558.3140772590986) rotate(0 8.753120422363281 17.50983342415509)"><text x="0" y="24.541782527295787" font-family="Virgil, Segoe UI Emoji" font-size="28.015733478648162px" fill="#2f9e44" text-anchor="start" style="white-space: pre;" direction="ltr" dominant-baseline="alphabetic">+</text></g><g stroke-linecap="round"><g transform="translate(934.5320298522231 320.04900925533593) rotate(0 43.33096664511447 -11.922444489922356)"><path d="M-1.11 -3.9 C5.71 -8.01, 25.42 -28.52, 40.24 -27.29 C55.05 -26.06, 80.03 -1.41, 87.78 3.5 M0.5 -5.15 C7.32 -9.19, 25.45 -27.11, 39.87 -26.03 C54.29 -24.95, 79.25 -3.44, 86.99 1.35" stroke="#2f9e44" stroke-width="2" fill="none"></path></g><g transform="translate(934.5320298522231 320.04900925533593) rotate(0 43.33096664511447 -11.922444489922356)"><path d="M62.93 -5.43 C68.14 -1.72, 73.73 -1.99, 86.99 1.35 M62.93 -5.43 C70.38 -2.9, 78.65 -1.67, 86.99 1.35" stroke="#2f9e44" stroke-width="2" fill="none"></path></g><g transform="translate(934.5320298522231 320.04900925533593) rotate(0 43.33096664511447 -11.922444489922356)"><path d="M72.92 -19.31 C75.82 -12.34, 78.99 -9.25, 86.99 1.35 M72.92 -19.31 C76.93 -12.26, 81.88 -6.43, 86.99 1.35" stroke="#2f9e44" stroke-width="2" fill="none"></path></g></g><mask></mask><g transform="translate(1020.2926354695267 310.82360940884337) rotate(0 74.54001947016343 20.220297010263394)"><text x="0" y="28.340768289585164" font-family="Virgil, Segoe UI Emoji" font-size="32.35247521642142px" fill="#2f9e44" text-anchor="start" style="white-space: pre;" direction="ltr" dominant-baseline="alphabetic">Atributos</text></g><g stroke-linecap="round"><g transform="translate(910.5320298522231 494.31407725909855) rotate(0 50.36630658032391 10.437418241638994)"><path d="M-0.03 0.38 C7.76 4.92, 30.81 27.96, 47.86 26.75 C64.91 25.53, 93.12 -1.1, 102.25 -6.91 M-1.51 -0.47 C6.54 4.24, 32.87 28.61, 49.98 27.76 C67.1 26.92, 92.4 0.36, 101.19 -5.54" stroke="#2f9e44" stroke-width="2" fill="none"></path></g><g transform="translate(910.5320298522231 494.31407725909855) rotate(0 50.36630658032391 10.437418241638994)"><path d="M88.49 15.99 C94.19 5.67, 96.9 -1.83, 101.19 -5.54 M88.49 15.99 C92.54 9.07, 97.24 2.84, 101.19 -5.54" stroke="#2f9e44" stroke-width="2" fill="none"></path></g><g transform="translate(910.5320298522231 494.31407725909855) rotate(0 50.36630658032391 10.437418241638994)"><path d="M77.62 2.79 C87.53 -2.34, 94.5 -4.67, 101.19 -5.54 M77.62 2.79 C85 0.04, 93.05 -2.13, 101.19 -5.54" stroke="#2f9e44" stroke-width="2" fill="none"></path></g></g><mask></mask><g transform="translate(1002.2327868738525 441.7791655782886) rotate(0 82.34864801962374 24.702619861758023)"><text x="0" y="34.62319199824006" font-family="Virgil, Segoe UI Emoji" font-size="39.52419177881285px" fill="#2f9e44" text-anchor="start" style="white-space: pre;" direction="ltr" dominant-baseline="alphabetic">Métodos</text></g><g transform="translate(72.15058419663671 291.25877343019636) rotate(0 130.51600646972656 121.32178206158034)"><text x="0" y="28.340768289585164" font-family="Virgil, Segoe UI Emoji" font-size="32.35247521642142px" fill="#2f9e44" text-anchor="start" style="white-space: pre;" direction="ltr" dominant-baseline="alphabetic">Encapsulamiento</text><text x="0" y="68.78136231011194" font-family="Virgil, Segoe UI Emoji" font-size="32.35247521642142px" fill="#2f9e44" text-anchor="start" style="white-space: pre;" direction="ltr" dominant-baseline="alphabetic">    public +</text><text x="0" y="109.2219563306387" font-family="Virgil, Segoe UI Emoji" font-size="32.35247521642142px" fill="#2f9e44" text-anchor="start" style="white-space: pre;" direction="ltr" dominant-baseline="alphabetic">    private -</text><text x="0" y="149.6625503511655" font-family="Virgil, Segoe UI Emoji" font-size="32.35247521642142px" fill="#2f9e44" text-anchor="start" style="white-space: pre;" direction="ltr" dominant-baseline="alphabetic">    protected #</text><text x="0" y="190.10314437169225" font-family="Virgil, Segoe UI Emoji" font-size="32.35247521642142px" fill="#2f9e44" text-anchor="start" style="white-space: pre;" direction="ltr" dominant-baseline="alphabetic">    readonly ?</text><text x="0" y="230.543738392219" font-family="Virgil, Segoe UI Emoji" font-size="32.35247521642142px" fill="#2f9e44" text-anchor="start" style="white-space: pre;" direction="ltr" dominant-baseline="alphabetic"></text></g><g stroke-linecap="round"><g transform="translate(423.7388800522483 404.66355253611596) rotate(0 -44.63440731156362 -36.83015709704088)"><path d="M0.59 0 C-4.47 -11.93, -14.55 -62.54, -29.48 -70.44 C-44.41 -78.34, -79.02 -51.4, -88.99 -47.39 M-0.56 -1.04 C-5.8 -12.84, -15.22 -64.84, -30.1 -72.41 C-44.98 -79.98, -80 -51, -89.86 -46.45" stroke="#2f9e44" stroke-width="2" fill="none"></path></g><g transform="translate(423.7388800522483 404.66355253611596) rotate(0 -44.63440731156362 -36.83015709704088)"><path d="M-74.48 -66.17 C-79.99 -57.76, -85.19 -51.81, -89.86 -46.45 M-74.48 -66.17 C-78.51 -61.37, -82.49 -56.78, -89.86 -46.45" stroke="#2f9e44" stroke-width="2" fill="none"></path></g><g transform="translate(423.7388800522483 404.66355253611596) rotate(0 -44.63440731156362 -36.83015709704088)"><path d="M-65.41 -51.67 C-74.41 -48.59, -82.98 -48.01, -89.86 -46.45 M-65.41 -51.67 C-71.55 -50.31, -77.7 -49.19, -89.86 -46.45" stroke="#2f9e44" stroke-width="2" fill="none"></path></g></g><mask></mask><g stroke-linecap="round" transform="translate(10 10) rotate(0 619.8310043122592 323.7757661166004)"><path d="M32 0 C305.25 -1.08, 579.08 -1.77, 1207.66 0 M32 0 C268.33 -2.26, 504.47 -2.21, 1207.66 0 M1207.66 0 C1228.33 -1.18, 1238.2 8.69, 1239.66 32 M1207.66 0 C1229.86 1.57, 1237.67 10.44, 1239.66 32 M1239.66 32 C1241.13 164.92, 1241.3 296.5, 1239.66 615.55 M1239.66 32 C1240.52 159.14, 1240.74 285.89, 1239.66 615.55 M1239.66 615.55 C1238.54 637.82, 1229.8 649.03, 1207.66 647.55 M1239.66 615.55 C1240.5 635.08, 1230.13 648.2, 1207.66 647.55 M1207.66 647.55 C776.1 651.99, 344.1 651.43, 32 647.55 M1207.66 647.55 C827.09 650.98, 445.7 650.95, 32 647.55 M32 647.55 C12.64 646.08, -0.31 637.15, 0 615.55 M32 647.55 C11.51 646.33, -2 637.38, 0 615.55 M0 615.55 C1.83 409.33, 1.4 201.84, 0 32 M0 615.55 C-0.18 425.11, 0.5 234.34, 0 32 M0 32 C1.44 11.91, 9.8 1.77, 32 0 M0 32 C0.11 10.45, 11.84 1.79, 32 0" stroke="#1971c2" stroke-width="4" fill="none"></path></g></svg>