<svg version="1.1" xmlns="http://www.w3.org/2000/svg" viewBox="0 0 1715.288073476945 1419.2458396490094" width="5145.864220430835" height="4257.737518947029">
  <!-- svg-source:excalidraw -->
  
  <defs>
    <style class="style-fonts">
      @font-face {
        font-family: "Virgil";
        src: url("https://excalidraw.com/Virgil.woff2");
      }
      @font-face {
        font-family: "Cascadia";
        src: url("https://excalidraw.com/Cascadia.woff2");
      }
      @font-face {
        font-family: "Assistant";
        src: url("https://excalidraw.com/Assistant-Regular.woff2");
      }
    </style>
    
  </defs>
  <rect x="0" y="0" width="1715.288073476945" height="1419.2458396490094" fill="#ffffff"></rect><g stroke-linecap="round" transform="translate(864.8409220806479 968.9373252842026) rotate(0 206.33152055743267 194.22996509951872)"><path d="M32 0 C142.5 1.27, 251.67 1.49, 380.66 0 M32 0 C144.78 0.43, 257.49 0.9, 380.66 0 M380.66 0 C403.65 -0.6, 412.85 11.74, 412.66 32 M380.66 0 C402.15 -1.45, 413.35 11.35, 412.66 32 M412.66 32 C413.81 150.31, 412.5 271.57, 412.66 356.46 M412.66 32 C410.2 100.55, 411.48 168.94, 412.66 356.46 M412.66 356.46 C413.93 377.52, 401.05 387.47, 380.66 388.46 M412.66 356.46 C414.48 379.99, 402.56 386.37, 380.66 388.46 M380.66 388.46 C242.86 388.46, 104.83 389.13, 32 388.46 M380.66 388.46 C291.48 390.5, 202.85 391.37, 32 388.46 M32 388.46 C9.05 388.54, -0.04 379.39, 0 356.46 M32 388.46 C10.79 387.54, -1.96 378.88, 0 356.46 M0 356.46 C-2.08 287.1, -0.67 218.8, 0 32 M0 356.46 C2.21 253, 1.21 147.89, 0 32 M0 32 C1.88 12.49, 8.94 0.8, 32 0 M0 32 C1.56 12.31, 12.57 -1.34, 32 0" stroke="#1e1e1e" stroke-width="2" fill="none"></path></g><g stroke-linecap="round"><g transform="translate(868.4713887180221 1039.1263469401035) rotate(0 205.54895829148074 -0.48772030371128494)"><path d="M-0.86 0.73 C67.6 0.62, 341.06 0.47, 409.59 0.28 M0.89 0.07 C69.85 -0.51, 343.84 -1.81, 411.96 -1.7" stroke="#1e1e1e" stroke-width="2" fill="none"></path></g></g><mask></mask><g transform="translate(977.3853878392474 974.6795420704186) rotate(0 80.51162851875256 34.643713526425245)"><text x="0" y="48.55662887863758" font-family="Virgil, Segoe UI Emoji" font-size="55.42994164228035px" fill="#e03131" text-anchor="start" style="white-space: pre;" direction="ltr" dominant-baseline="alphabetic">Animal</text></g><g transform="translate(913.0001530039726 1043.966969123269) rotate(0 56.200300492083215 21.1896220241249)"><text x="0" y="29.699374229013323" font-family="Virgil, Segoe UI Emoji" font-size="33.903395238599686px" fill="#1e1e1e" text-anchor="start" style="white-space: pre;" direction="ltr" dominant-baseline="alphabetic">Nombre</text></g><g stroke-linecap="round"><g transform="translate(868.4713887180221 1096.0036575922989) rotate(0 203.11324599716988 -0.053978569926584896)"><path d="M0.34 -0.63 C68.19 -0.52, 339.29 0.19, 407.16 0.24 M-0.94 1.65 C66.79 1.41, 338.46 -1.61, 406.51 -1.76" stroke="#1e1e1e" stroke-width="2" fill="none"></path></g></g><mask></mask><g transform="translate(917.0139201403149 1113.6424174710444) rotate(0 162.2288331372614 20.109437729872297)"><text x="0" y="28.185387922188998" font-family="Virgil, Segoe UI Emoji" font-size="32.17510036779566px" fill="#1e1e1e" text-anchor="start" style="white-space: pre;" direction="ltr" dominant-baseline="alphabetic">Animal(String nombre)</text></g><g transform="translate(915.1926513124642 1174.6546247244344) rotate(0 182.60695283898087 18.496748687521176)"><text x="0" y="25.925042960429813" font-family="Virgil, Segoe UI Emoji" font-size="29.594797900034035px" fill="#1e1e1e" text-anchor="start" style="white-space: pre;" direction="ltr" dominant-baseline="alphabetic">makeSound(String sound) </text></g><g transform="translate(880.325953267605 1042.7568135774775) rotate(0 10.59263722210278 21.1896220241249)"><text x="0" y="29.699374229013323" font-family="Virgil, Segoe UI Emoji" font-size="33.903395238599686px" fill="#2f9e44" text-anchor="start" style="white-space: pre;" direction="ltr" dominant-baseline="alphabetic">+</text></g><g transform="translate(881.7699433146399 1109.425194621818) rotate(0 11.616027996246657 23.236823606921917)"><text x="0" y="32.5687319674618" font-family="Virgil, Segoe UI Emoji" font-size="37.17891777107511px" fill="#2f9e44" text-anchor="start" style="white-space: pre;" direction="ltr" dominant-baseline="alphabetic">+</text></g><g transform="translate(879.1157977218136 1171.3552584544316) rotate(0 11.616027996246657 23.236823606921917)"><text x="0" y="32.5687319674618" font-family="Virgil, Segoe UI Emoji" font-size="37.17891777107511px" fill="#2f9e44" text-anchor="start" style="white-space: pre;" direction="ltr" dominant-baseline="alphabetic">+</text></g><g stroke-linecap="round"><g transform="translate(1279.65065291081 1088.4288930954624) rotate(0 73.73952093956154 -12.548823799865431)"><path d="M0.69 -0.09 C25.33 -3.84, 123.65 -19.18, 147.88 -23.45 M-0.4 -1.18 C24.17 -5.16, 123.31 -21.04, 147.55 -25.01" stroke="#2f9e44" stroke-width="2" fill="none"></path></g><g transform="translate(1279.65065291081 1088.4288930954624) rotate(0 73.73952093956154 -12.548823799865431)"><path d="M125.73 -12.82 C132.33 -14.7, 140.91 -21.37, 147.55 -25.01 M125.73 -12.82 C130.15 -16.28, 133.55 -18.34, 147.55 -25.01" stroke="#2f9e44" stroke-width="2" fill="none"></path></g><g transform="translate(1279.65065291081 1088.4288930954624) rotate(0 73.73952093956154 -12.548823799865431)"><path d="M123 -29.7 C130.31 -26.45, 139.71 -27.97, 147.55 -25.01 M123 -29.7 C128.13 -29.77, 132.08 -28.44, 147.55 -25.01" stroke="#2f9e44" stroke-width="2" fill="none"></path></g></g><mask></mask><g transform="translate(1434.8241841483944 1033.0755692111463) rotate(0 117.72528380225879 31.935062816183745)"><text x="0" y="44.76018404316305" font-family="Virgil, Segoe UI Emoji" font-size="51.09610050589389px" fill="#2f9e44" text-anchor="start" style="white-space: pre;" direction="ltr" dominant-baseline="alphabetic">Atributos</text></g><g stroke-linecap="round"><g transform="translate(1279.65065291081 1199.797925533908) rotate(0 41.5069861094197 -17.52407936056511)"><path d="M1.08 0.29 C3.64 -5.58, 2.52 -31.09, 16.14 -34.75 C29.77 -38.42, 71.83 -23.77, 82.82 -21.72 M0.19 -0.6 C3.06 -6.35, 4.65 -30.2, 18.39 -33.52 C32.13 -36.83, 71.93 -22.46, 82.61 -20.51" stroke="#2f9e44" stroke-width="2" fill="none"></path></g><g transform="translate(1279.65065291081 1199.797925533908) rotate(0 41.5069861094197 -17.52407936056511)"><path d="M57.71 -18.35 C67.3 -20.84, 74.98 -18.38, 82.61 -20.51 M57.71 -18.35 C65.34 -17.82, 70.94 -19.52, 82.61 -20.51" stroke="#2f9e44" stroke-width="2" fill="none"></path></g><g transform="translate(1279.65065291081 1199.797925533908) rotate(0 41.5069861094197 -17.52407936056511)"><path d="M62.15 -34.86 C70.18 -31.28, 76.23 -22.77, 82.61 -20.51 M62.15 -34.86 C68.57 -29.7, 72.91 -26.71, 82.61 -20.51" stroke="#2f9e44" stroke-width="2" fill="none"></path></g></g><mask></mask><g transform="translate(917.8467969052906 1234.6798822919711) rotate(0 99.42485143676174 20.109437729872297)"><text x="0" y="28.185387922188998" font-family="Virgil, Segoe UI Emoji" font-size="32.17510036779566px" fill="#1e1e1e" text-anchor="start" style="white-space: pre;" direction="ltr" dominant-baseline="alphabetic">getNombre() </text></g><g transform="translate(917.8467969052906 1297.9305179442106) rotate(0 168.26688083969498 17.310686736854905)"><text x="0" y="24.26265853037568" font-family="Virgil, Segoe UI Emoji" font-size="27.69709877896767px" fill="#1e1e1e" text-anchor="start" style="white-space: pre;" direction="ltr" dominant-baseline="alphabetic">setNombre(String nombre)</text></g><g transform="translate(880.4428705182268 1233.2853222870451) rotate(0 11.616027996246657 23.236823606921917)"><text x="0" y="32.5687319674618" font-family="Virgil, Segoe UI Emoji" font-size="37.17891777107511px" fill="#2f9e44" text-anchor="start" style="white-space: pre;" direction="ltr" dominant-baseline="alphabetic">+</text></g><g transform="translate(881.7699433146399 1295.2153861196587) rotate(0 11.616027996246657 23.236823606921917)"><text x="0" y="32.5687319674618" font-family="Virgil, Segoe UI Emoji" font-size="37.17891777107511px" fill="#2f9e44" text-anchor="start" style="white-space: pre;" direction="ltr" dominant-baseline="alphabetic">+</text></g><g stroke-linecap="round" transform="translate(1007.193047235558 476.39703326898234) rotate(0 170.5 61.378461491208554)"><path d="M30.69 0 C104.56 -0.81, 174.75 1.39, 310.31 0 M30.69 0 C102.58 -1.33, 176.04 -1.84, 310.31 0 M310.31 0 C329.32 -1.01, 341.7 9.44, 341 30.69 M310.31 0 C333.06 1.06, 338.75 10.38, 341 30.69 M341 30.69 C341.41 53.69, 339.52 71.82, 341 92.07 M341 30.69 C340.71 46.02, 341.85 59.23, 341 92.07 M341 92.07 C341.58 114.45, 331.38 124.08, 310.31 122.76 M341 92.07 C341.24 113.86, 329.4 124.5, 310.31 122.76 M310.31 122.76 C245.91 121.01, 184.64 120.6, 30.69 122.76 M310.31 122.76 C203.93 122.43, 98.4 121.06, 30.69 122.76 M30.69 122.76 C11.37 121.94, 0.27 111.36, 0 92.07 M30.69 122.76 C11.38 121.49, -0.79 111.12, 0 92.07 M0 92.07 C-1.8 75.16, -0.72 56.47, 0 30.69 M0 92.07 C-0.35 68.69, -0.19 45, 0 30.69 M0 30.69 C1.44 9.39, 9.98 -1.85, 30.69 0 M0 30.69 C-0.53 8.27, 8.05 1.82, 30.69 0" stroke="#1e1e1e" stroke-width="2" fill="none"></path></g><g transform="translate(1126.3089016929641 476.39371982858165) rotate(0 48.52509307861328 28.627488133163524)"><text x="0" y="40.124287367442065" font-family="Virgil, Segoe UI Emoji" font-size="45.80398101306172px" fill="#e03131" text-anchor="start" style="white-space: pre;" direction="ltr" dominant-baseline="alphabetic">Main</text></g><g transform="translate(1049.9877822206975 545.1613974772745) rotate(0 121.7496337890625 16.61723387527138)"><text x="0" y="23.290714999580384" font-family="Virgil, Segoe UI Emoji" font-size="26.587574200434226px" fill="#1e1e1e" text-anchor="start" style="white-space: pre;" direction="ltr" dominant-baseline="alphabetic">main(String[] args)</text></g><g transform="translate(1022.369259862923 546.1914994659492) rotate(0 9.598789210729365 19.201518092226706)"><text x="0" y="26.912847758064967" font-family="Virgil, Segoe UI Emoji" font-size="30.722428947562747px" fill="#2f9e44" text-anchor="start" style="white-space: pre;" direction="ltr" dominant-baseline="alphabetic">+</text></g><g stroke-linecap="round"><g transform="translate(1007.4315909722216 529.4836424445134) rotate(0 170.18999517129907 2.226236564923397)"><path d="M0.15 0.57 C56.81 1.05, 282.73 2.64, 339.52 3.26 M-1.23 -0.18 C55.82 0.44, 284.7 4.22, 341.61 4.64" stroke="#1e1e1e" stroke-width="2" fill="none"></path></g></g><mask></mask><g stroke-linecap="round"><g transform="translate(1349.1930472355582 564.6011295016597) rotate(0 51.66837242810868 -2.6984299089230035)"><path d="M-0.88 -0.49 C15.95 -1.33, 84.69 -4.33, 101.95 -4.9 M0.87 -1.8 C17.98 -2.48, 87.38 -2.93, 104.21 -3.65" stroke="#2f9e44" stroke-width="2" fill="none"></path></g><g transform="translate(1349.1930472355582 564.6011295016597) rotate(0 51.66837242810868 -2.6984299089230035)"><path d="M80.92 5.42 C89 0.7, 97.82 -1.54, 104.21 -3.65 M80.92 5.42 C88.72 3.14, 96.74 -0.2, 104.21 -3.65" stroke="#2f9e44" stroke-width="2" fill="none"></path></g><g transform="translate(1349.1930472355582 564.6011295016597) rotate(0 51.66837242810868 -2.6984299089230035)"><path d="M80.54 -11.68 C88.78 -9.86, 97.75 -5.56, 104.21 -3.65 M80.54 -11.68 C88.3 -8.27, 96.45 -5.91, 104.21 -3.65" stroke="#2f9e44" stroke-width="2" fill="none"></path></g></g><mask></mask><g transform="translate(1465.0660385948415 529.4549591807058) rotate(0 87.97110305146543 26.38922155688624)"><text x="0" y="36.98713293413175" font-family="Virgil, Segoe UI Emoji" font-size="42.22275449101798px" fill="#2f9e44" text-anchor="start" style="white-space: pre;" direction="ltr" dominant-baseline="alphabetic">Métodos</text></g><g stroke-linecap="round"><g transform="translate(1269.3646197095802 1209.3225436970226) rotate(0 -176.0731953741456 1.449084824244892)"><path d="M-0.69 1.11 C-59.4 1.31, -293.48 0.99, -352.06 1.1 M1.15 0.64 C-57.79 1, -294.23 1.85, -353.3 2.25" stroke="#2f9e44" stroke-width="2" fill="none"></path></g></g><mask></mask><g stroke-linecap="round"><g transform="translate(1294.6655671829938 580.368349462743) rotate(0 -121.14957602947925 0.866987646598659)"><path d="M-0.85 0.77 C-41.26 0.8, -203.02 0.38, -243.2 0.08 M0.9 0.13 C-39.07 0.38, -200.39 1.73, -240.96 1.65" stroke="#2f9e44" stroke-width="2" fill="none"></path></g></g><mask></mask><g stroke-linecap="round" transform="translate(129.24698561246112 195.46804927710878) rotate(0 314.9787887653927 350.88090394606434)"><path d="M32 0 C232.22 1.58, 431.84 1.18, 597.96 0 M32 0 C150.46 1.97, 268.97 1.45, 597.96 0 M597.96 0 C619.93 0.75, 629.32 9.36, 629.96 32 M597.96 0 C619.87 0.74, 630.5 11.52, 629.96 32 M629.96 32 C631.42 282.95, 630.92 535.59, 629.96 669.76 M629.96 32 C627.25 251.03, 627.77 469.66, 629.96 669.76 M629.96 669.76 C628.93 690.97, 619.68 699.76, 597.96 701.76 M629.96 669.76 C630.7 689.26, 620.68 702.08, 597.96 701.76 M597.96 701.76 C441.13 699.27, 284.02 700.34, 32 701.76 M597.96 701.76 C414.11 699.77, 230.98 699.52, 32 701.76 M32 701.76 C10.77 699.84, 0.44 689.65, 0 669.76 M32 701.76 C10.73 700.51, 0.87 691.29, 0 669.76 M0 669.76 C-0.2 540.62, 0.71 411.27, 0 32 M0 669.76 C-1.48 511.67, -1.47 353.86, 0 32 M0 32 C0.12 9.89, 9.3 -1.68, 32 0 M0 32 C0.73 8.97, 10.09 -0.7, 32 0" stroke="#1e1e1e" stroke-width="2" fill="none"></path></g><g stroke-linecap="round"><g transform="translate(132.24698561246112 248.95308712819065) rotate(0 311.41648325211173 0.8665218388931635)"><path d="M1.17 0.92 C104.99 0.84, 518.88 0.48, 622.51 0.42 M0.32 0.35 C104.07 0.3, 518.13 1.22, 621.86 1.38" stroke="#1e1e1e" stroke-width="2" fill="none"></path></g></g><mask></mask><g transform="translate(375.9945740396937 194.17585751109868) rotate(0 60.043792724609375 28.627488133163524)"><text x="0" y="40.124287367442065" font-family="Virgil, Segoe UI Emoji" font-size="45.80398101306172px" fill="#e03131" text-anchor="start" style="white-space: pre;" direction="ltr" dominant-baseline="alphabetic">Perro</text></g><g stroke-linecap="round"><g transform="translate(129.23701084651555 408.82714085115344) rotate(0 315.17109600405126 1.959194268887245)"><path d="M0.2 0.42 C105.28 1.15, 526.31 2.62, 631.5 3.38 M-1.16 -0.4 C103.72 0.51, 525.5 3.78, 630.83 4.32" stroke="#1e1e1e" stroke-width="2" fill="none"></path></g></g><mask></mask><g transform="translate(186.19234475651302 247.81638095337757) rotate(0 45.323143409536755 24.094436920940893)"><text x="0" y="33.77076278839081" font-family="Virgil, Segoe UI Emoji" font-size="38.5510990735055px" fill="#1e1e1e" text-anchor="start" style="white-space: pre;" direction="ltr" dominant-baseline="alphabetic">edad</text></g><g transform="translate(186.19234475651302 301.86107463941335) rotate(0 45.803571012950755 22.162168355007907)"><text x="0" y="31.062495166379133" font-family="Virgil, Segoe UI Emoji" font-size="35.459469368012705px" fill="#1e1e1e" text-anchor="start" style="white-space: pre;" direction="ltr" dominant-baseline="alphabetic">Raza</text></g><g transform="translate(142.04288713174117 253.81446744223808) rotate(0 12.691733742273499 25.388676605335263)"><text x="0" y="35.58476913003798" font-family="Virgil, Segoe UI Emoji" font-size="40.621882568536506px" fill="#2f9e44" text-anchor="start" style="white-space: pre;" direction="ltr" dominant-baseline="alphabetic">+</text></g><g transform="translate(143.77302636139552 305.72490181072044) rotate(0 9.153578974880503 27.841563158591953)"><text x="0" y="39.02273492308254" font-family="Virgil, Segoe UI Emoji" font-size="44.54650105374719px" fill="#2f9e44" text-anchor="start" style="white-space: pre;" direction="ltr" dominant-baseline="alphabetic">-</text></g><g transform="translate(136.3960619205384 341.61551632594524) rotate(0 18.601466659644444 37.2105679962084)"><text x="0" y="52.15433210348563" font-family="Virgil, Segoe UI Emoji" font-size="59.536908793933364px" fill="#2f9e44" text-anchor="start" style="white-space: pre;" direction="ltr" dominant-baseline="alphabetic">+</text></g><g transform="translate(182.8259056740185 352.0412311935829) rotate(0 50.81511158409472 24.094436920940893)"><text x="0" y="33.77076278839081" font-family="Virgil, Segoe UI Emoji" font-size="38.5510990735055px" fill="#1e1e1e" text-anchor="start" style="white-space: pre;" direction="ltr" dominant-baseline="alphabetic">peso </text></g><g transform="translate(140.2261391803621 419.9350584517806) rotate(0 9.598789210729336 19.201518092226706)"><text x="0" y="26.912847758064967" font-family="Virgil, Segoe UI Emoji" font-size="30.722428947562747px" fill="#2f9e44" text-anchor="start" style="white-space: pre;" direction="ltr" dominant-baseline="alphabetic">+</text></g><g transform="translate(172.51272987048526 509.39903394487214) rotate(0 98.74832544661285 19.97238755993851)"><text x="0" y="27.993298404009757" font-family="Virgil, Segoe UI Emoji" font-size="31.955820095901547px" fill="#1e1e1e" text-anchor="start" style="white-space: pre;" direction="ltr" dominant-baseline="alphabetic">getNombre() </text></g><g transform="translate(169.0686088400572 560.5615827289275) rotate(0 167.10366821289062 17.192710660605144)"><text x="0" y="24.097303261904166" font-family="Virgil, Segoe UI Emoji" font-size="27.508337056968223px" fill="#1e1e1e" text-anchor="start" style="white-space: pre;" direction="ltr" dominant-baseline="alphabetic">setNombre(String nombre)</text></g><g transform="translate(143.14979259326492 507.791369956351) rotate(0 10.082591160104982 20.16932055981374)"><text x="0" y="28.26931969663492" font-family="Virgil, Segoe UI Emoji" font-size="32.27091289570196px" fill="#2f9e44" text-anchor="start" style="white-space: pre;" direction="ltr" dominant-baseline="alphabetic">+</text></g><g transform="translate(142.6648274955853 556.4281894867693) rotate(0 10.082591160104982 20.16932055981374)"><text x="0" y="28.26931969663492" font-family="Virgil, Segoe UI Emoji" font-size="32.27091289570196px" fill="#2f9e44" text-anchor="start" style="white-space: pre;" direction="ltr" dominant-baseline="alphabetic">+</text></g><g transform="translate(179.42081640789513 422.1251214653437) rotate(0 279.45318603515625 38.02806940767505)"><text x="0" y="26.650071040898702" font-family="Virgil, Segoe UI Emoji" font-size="30.422455526140073px" fill="#1e1e1e" text-anchor="start" style="white-space: pre;" direction="ltr" dominant-baseline="alphabetic">Perro(String nombre, int edad, String </text><text x="0" y="64.6781404485738" font-family="Virgil, Segoe UI Emoji" font-size="30.422455526140073px" fill="#1e1e1e" text-anchor="start" style="white-space: pre;" direction="ltr" dominant-baseline="alphabetic">raza, string peso)</text></g><g transform="translate(172.58084298576352 606.1647777143162) rotate(0 85.37849105875222 19.97238755993851)"><text x="0" y="27.993298404009757" font-family="Virgil, Segoe UI Emoji" font-size="31.955820095901547px" fill="#1e1e1e" text-anchor="start" style="white-space: pre;" direction="ltr" dominant-baseline="alphabetic">getEdad() </text></g><g transform="translate(172.58084298576352 657.3273264983716) rotate(0 123.6124496459961 17.192710660605144)"><text x="0" y="24.097303261904166" font-family="Virgil, Segoe UI Emoji" font-size="27.508337056968223px" fill="#1e1e1e" text-anchor="start" style="white-space: pre;" direction="ltr" dominant-baseline="alphabetic">setEdad(int edad)</text></g><g transform="translate(176.02496401619157 702.9305214837602) rotate(0 87.06370544433594 19.97238755993851)"><text x="0" y="27.993298404009757" font-family="Virgil, Segoe UI Emoji" font-size="31.955820095901547px" fill="#1e1e1e" text-anchor="start" style="white-space: pre;" direction="ltr" dominant-baseline="alphabetic">getRaza() </text></g><g transform="translate(179.03493878213715 754.0930702678156) rotate(0 145.99745178222656 17.192710660605144)"><text x="0" y="24.097303261904166" font-family="Virgil, Segoe UI Emoji" font-size="27.508337056968223px" fill="#1e1e1e" text-anchor="start" style="white-space: pre;" direction="ltr" dominant-baseline="alphabetic">setRaza(String raza)</text></g><g transform="translate(179.03493878213783 799.6962652532043) rotate(0 82.59908882592151 19.97238755993851)"><text x="0" y="27.993298404009757" font-family="Virgil, Segoe UI Emoji" font-size="31.955820095901547px" fill="#1e1e1e" text-anchor="start" style="white-space: pre;" direction="ltr" dominant-baseline="alphabetic">getPeso() </text></g><g transform="translate(176.02496401619226 850.8588140372597) rotate(0 153.2437973692377 17.192710660605144)"><text x="0" y="24.097303261904166" font-family="Virgil, Segoe UI Emoji" font-size="27.508337056968223px" fill="#1e1e1e" text-anchor="start" style="white-space: pre;" direction="ltr" dominant-baseline="alphabetic">setPeso(String nombre)</text></g><g transform="translate(140.12914059777574 702.3386480780241) rotate(0 9.598789210729336 19.201518092226706)"><text x="0" y="26.912847758064967" font-family="Virgil, Segoe UI Emoji" font-size="30.722428947562747px" fill="#2f9e44" text-anchor="start" style="white-space: pre;" direction="ltr" dominant-baseline="alphabetic">+</text></g><g transform="translate(142.79496652838122 749.0398626732683) rotate(0 9.598789210729336 19.201518092226706)"><text x="0" y="26.912847758064967" font-family="Virgil, Segoe UI Emoji" font-size="30.722428947562747px" fill="#2f9e44" text-anchor="start" style="white-space: pre;" direction="ltr" dominant-baseline="alphabetic">+</text></g><g transform="translate(146.3304386353883 795.7410772685125) rotate(0 9.599998474121094 19.201518092226706)"><text x="0" y="26.912847758064967" font-family="Virgil, Segoe UI Emoji" font-size="30.722428947562747px" fill="#2f9e44" text-anchor="start" style="white-space: pre;" direction="ltr" dominant-baseline="alphabetic">+</text></g><g transform="translate(144.82545125241575 842.4422918637567) rotate(0 9.599998474121094 19.201518092226706)"><text x="0" y="26.912847758064967" font-family="Virgil, Segoe UI Emoji" font-size="30.722428947562747px" fill="#2f9e44" text-anchor="start" style="white-space: pre;" direction="ltr" dominant-baseline="alphabetic">+</text></g><g transform="translate(1377.5198792021245 1152.2209633376854) rotate(0 61.18911761135632 24.46970456451936)"><text x="0" y="34.29673791763035" font-family="Virgil, Segoe UI Emoji" font-size="39.151527303231px" fill="#2f9e44" text-anchor="start" style="white-space: pre;" direction="ltr" dominant-baseline="alphabetic">Static</text></g><g transform="translate(610.70318011345 10) rotate(0 246.6489237555756 78.45410558113133)"><text x="0" y="109.96127438251361" font-family="Virgil, Segoe UI Emoji" font-size="125.52656892981003px" fill="#1971c2" text-anchor="start" style="white-space: pre;" direction="ltr" dominant-baseline="alphabetic">Herencia</text></g><g transform="translate(427.7164166020674 941.031307492121) rotate(0 18.804577651729915 -13.47193622810505)" stroke="none"><path d="M0.54 -1.62 C4.48 -6.46, 17.71 -27.41, 22.05 -30.21 C26.4 -33.01, 23.8 -23.92, 26.6 -18.41 C29.4 -12.9, 43.4 -0.74, 38.85 2.85 C34.3 6.44, 5.64 3.18, -0.72 3.12" stroke="none" stroke-width="0" fill="#ffec99" fill-rule="evenodd"></path><path fill="#f08c00" d="M -2.26,-1.41 Q -2.26,-1.41 -1.74,-2.28 -1.23,-3.16 -0.54,-4.36 0.13,-5.56 1.02,-6.93 1.90,-8.30 2.82,-9.69 3.74,-11.08 4.39,-12.21 5.04,-13.35 5.60,-14.28 6.15,-15.20 6.74,-16.18 7.32,-17.15 8.04,-18.20 8.75,-19.24 9.42,-20.32 10.09,-21.39 10.68,-22.35 11.26,-23.30 12.02,-24.43 12.78,-25.55 13.49,-26.71 14.20,-27.86 15.14,-28.99 16.08,-30.13 16.80,-31.07 17.52,-32.02 17.51,-31.82 17.51,-31.62 17.68,-32.02 17.85,-32.43 18.11,-32.79 18.37,-33.14 18.71,-33.43 19.05,-33.71 19.45,-33.90 19.85,-34.10 20.28,-34.19 20.72,-34.28 21.16,-34.27 21.60,-34.25 22.03,-34.13 22.46,-34.01 22.84,-33.79 23.23,-33.58 23.55,-33.27 23.87,-32.97 24.11,-32.59 24.35,-32.22 24.49,-31.80 24.64,-31.38 24.67,-30.94 24.71,-30.50 24.65,-30.06 24.58,-29.63 25.39,-28.04 26.20,-26.46 26.64,-25.26 27.09,-24.05 27.82,-22.39 28.56,-20.73 29.45,-19.02 30.35,-17.32 31.03,-16.03 31.72,-14.75 32.32,-13.63 32.92,-12.51 33.64,-11.37 34.35,-10.22 34.90,-9.22 35.46,-8.23 36.07,-7.16 36.67,-6.09 37.23,-5.10 37.79,-4.12 38.39,-3.13 38.99,-2.15 39.53,-1.05 40.07,0.03 40.20,0.32 40.34,0.61 40.66,0.92 40.99,1.23 41.23,1.61 41.48,1.99 41.62,2.41 41.77,2.84 41.81,3.29 41.85,3.74 41.78,4.19 41.71,4.63 41.53,5.05 41.36,5.46 41.09,5.83 40.82,6.19 40.47,6.48 40.13,6.76 39.72,6.96 39.31,7.16 38.87,7.25 38.43,7.34 37.98,7.33 37.53,7.31 37.10,7.19 36.66,7.07 36.27,6.84 35.88,6.62 37.12,7.00 38.36,7.37 37.19,7.42 36.02,7.47 34.89,7.47 33.76,7.48 32.68,7.41 31.60,7.33 30.54,7.32 29.47,7.31 28.27,7.32 27.07,7.32 25.36,7.30 23.66,7.27 22.56,7.23 21.46,7.18 19.67,7.14 17.88,7.10 16.70,7.10 15.52,7.10 14.30,7.04 13.07,6.98 11.94,6.90 10.81,6.81 9.69,6.71 8.57,6.60 7.18,6.61 5.79,6.62 4.59,6.55 3.39,6.48 1.41,6.39 -0.56,6.29 -1.15,6.20 -1.74,6.10 -2.26,5.82 -2.79,5.54 -3.20,5.11 -3.60,4.68 -3.85,4.13 -4.10,3.59 -4.17,3.00 -4.23,2.41 -4.10,1.83 -3.97,1.25 -3.66,0.74 -3.36,0.23 -2.90,-0.15 -2.45,-0.53 -1.90,-0.75 -1.34,-0.97 -0.75,-1.00 -0.15,-1.03 0.41,-0.87 0.98,-0.71 1.48,-0.38 1.97,-0.04 2.33,0.42 2.69,0.90 2.88,1.46 3.07,2.02 3.06,2.62 3.06,3.21 2.87,3.78 2.68,4.34 2.32,4.82 1.96,5.29 1.47,5.62 0.97,5.96 0.40,6.11 -0.16,6.27 -0.76,6.24 -1.35,6.21 -1.91,5.99 -2.46,5.76 -2.91,5.38 -3.36,4.99 -3.67,4.48 -3.98,3.97 -4.10,3.39 -4.23,2.81 -4.16,2.22 -4.10,1.62 -3.85,1.09 -3.60,0.55 -3.19,0.11 -2.78,-0.31 -2.25,-0.59 -1.73,-0.86 -1.14,-0.96 -0.55,-1.05 -0.55,-1.05 -0.55,-1.05 1.04,-0.95 2.64,-0.84 3.85,-0.74 5.05,-0.64 6.24,-0.63 7.43,-0.62 8.73,-0.57 10.03,-0.52 11.22,-0.34 12.42,-0.15 13.97,-0.07 15.52,0.00 16.70,0.00 17.88,0.00 19.67,-0.03 21.46,-0.07 22.56,-0.12 23.66,-0.16 25.36,-0.19 27.07,-0.21 28.30,-0.20 29.53,-0.20 30.60,-0.18 31.67,-0.16 33.02,-0.08 34.37,-0.00 35.71,0.00 37.06,0.00 38.70,0.30 40.34,0.61 40.66,0.92 40.99,1.23 41.23,1.61 41.48,1.99 41.62,2.41 41.77,2.84 41.81,3.29 41.85,3.74 41.78,4.19 41.71,4.63 41.53,5.05 41.36,5.46 41.09,5.83 40.82,6.19 40.48,6.48 40.13,6.76 39.72,6.96 39.32,7.16 38.87,7.25 38.43,7.34 37.98,7.33 37.53,7.31 37.10,7.19 36.66,7.07 36.27,6.84 35.88,6.62 35.25,5.88 34.62,5.15 33.91,3.90 33.21,2.65 32.69,1.71 32.18,0.77 31.60,-0.21 31.03,-1.20 30.36,-2.41 29.69,-3.63 29.12,-4.78 28.56,-5.92 28.00,-6.93 27.44,-7.93 26.72,-9.13 26.01,-10.33 25.48,-11.32 24.96,-12.30 24.28,-13.66 23.60,-15.02 22.80,-16.49 22.01,-17.97 21.44,-19.16 20.87,-20.36 20.43,-21.47 20.00,-22.59 19.41,-24.22 18.82,-25.84 18.35,-27.22 17.87,-28.61 17.69,-30.11 17.51,-31.61 17.68,-32.02 17.85,-32.43 18.11,-32.79 18.37,-33.14 18.71,-33.43 19.05,-33.71 19.45,-33.90 19.85,-34.10 20.28,-34.19 20.72,-34.28 21.16,-34.27 21.60,-34.25 22.03,-34.13 22.45,-34.01 22.84,-33.79 23.23,-33.58 23.55,-33.27 23.87,-32.97 24.11,-32.59 24.35,-32.22 24.49,-31.80 24.64,-31.38 24.67,-30.94 24.71,-30.50 24.65,-30.06 24.58,-29.63 24.27,-29.02 23.96,-28.41 22.98,-27.46 22.01,-26.50 21.30,-25.51 20.60,-24.51 19.70,-23.28 18.79,-22.06 17.96,-20.96 17.13,-19.87 16.44,-18.79 15.74,-17.71 14.94,-16.48 14.13,-15.25 13.23,-14.02 12.33,-12.79 11.72,-11.82 11.11,-10.85 10.42,-9.90 9.74,-8.94 8.82,-7.57 7.91,-6.21 7.05,-5.14 6.18,-4.08 5.53,-3.22 4.88,-2.36 4.13,-1.32 3.38,-0.27 2.82,0.56 2.26,1.41 2.05,1.66 1.85,1.91 1.60,2.10 1.34,2.30 1.05,2.42 0.75,2.55 0.43,2.60 0.12,2.66 -0.19,2.63 -0.51,2.61 -0.82,2.51 -1.13,2.41 -1.40,2.24 -1.67,2.07 -1.89,1.84 -2.12,1.61 -2.28,1.33 -2.44,1.05 -2.53,0.74 -2.62,0.44 -2.64,0.12 -2.65,-0.20 -2.59,-0.51 -2.53,-0.83 -2.39,-1.12 -2.26,-1.41 -2.26,-1.41 L -2.26,-1.41 Z"></path></g><g stroke-linecap="round"><g transform="translate(447.40489954619875 945.9239164404105) rotate(0 207.6203999188886 126.88124987304957)"><path d="M-0.89 -0.47 C6.43 38.14, -25.76 189.78, 43.95 231.16 C113.66 272.54, 355.13 245.08, 417.37 247.78" stroke="#f08c00" stroke-width="4.5" fill="none" stroke-dasharray="8 12"></path></g></g><mask></mask><g transform="translate(962.1776129599855 547.8090611285234) rotate(90.71526073859083 18.804577651729915 -13.47193622810505)" stroke="none"><path d="M-0.44 -1.17 C3.5 -6.19, 17.9 -26.6, 22.41 -29.39 C26.92 -32.18, 24.02 -23.49, 26.63 -17.9 C29.24 -12.3, 42.39 0.74, 38.05 4.17 C33.7 7.6, 6.98 3.11, 0.55 2.67" stroke="none" stroke-width="0" fill="#ffec99" fill-rule="evenodd"></path><path fill="#f08c00" d="M -2.26,-1.41 Q -2.26,-1.41 -1.74,-2.28 -1.23,-3.16 -0.54,-4.36 0.13,-5.56 1.02,-6.93 1.90,-8.30 2.82,-9.69 3.74,-11.08 4.39,-12.21 5.04,-13.35 5.60,-14.28 6.15,-15.20 6.74,-16.18 7.32,-17.15 8.04,-18.20 8.75,-19.24 9.42,-20.32 10.09,-21.39 10.68,-22.35 11.26,-23.30 12.02,-24.43 12.78,-25.55 13.49,-26.71 14.20,-27.86 15.14,-28.99 16.08,-30.13 16.80,-31.07 17.52,-32.02 17.51,-31.82 17.51,-31.62 17.68,-32.02 17.85,-32.43 18.11,-32.79 18.37,-33.14 18.71,-33.43 19.05,-33.71 19.45,-33.90 19.85,-34.10 20.28,-34.19 20.72,-34.28 21.16,-34.27 21.60,-34.25 22.03,-34.13 22.46,-34.01 22.84,-33.79 23.23,-33.58 23.55,-33.27 23.87,-32.97 24.11,-32.59 24.35,-32.22 24.49,-31.80 24.64,-31.38 24.67,-30.94 24.71,-30.50 24.65,-30.06 24.58,-29.63 25.39,-28.04 26.20,-26.46 26.64,-25.26 27.09,-24.05 27.82,-22.39 28.56,-20.73 29.45,-19.02 30.35,-17.32 31.03,-16.03 31.72,-14.75 32.32,-13.63 32.92,-12.51 33.64,-11.37 34.35,-10.22 34.90,-9.22 35.46,-8.23 36.07,-7.16 36.67,-6.09 37.23,-5.10 37.79,-4.12 38.39,-3.13 38.99,-2.15 39.53,-1.05 40.07,0.03 40.20,0.32 40.34,0.61 40.66,0.92 40.99,1.23 41.23,1.61 41.48,1.99 41.62,2.41 41.77,2.84 41.81,3.29 41.85,3.74 41.78,4.19 41.71,4.63 41.53,5.05 41.36,5.46 41.09,5.83 40.82,6.19 40.47,6.48 40.13,6.76 39.72,6.96 39.31,7.16 38.87,7.25 38.43,7.34 37.98,7.33 37.53,7.31 37.10,7.19 36.66,7.07 36.27,6.84 35.88,6.62 37.12,7.00 38.36,7.37 37.19,7.42 36.02,7.47 34.89,7.47 33.76,7.48 32.68,7.41 31.60,7.33 30.54,7.32 29.47,7.31 28.27,7.32 27.07,7.32 25.36,7.30 23.66,7.27 22.56,7.23 21.46,7.18 19.67,7.14 17.88,7.10 16.70,7.10 15.52,7.10 14.30,7.04 13.07,6.98 11.94,6.90 10.81,6.81 9.69,6.71 8.57,6.60 7.18,6.61 5.79,6.62 4.59,6.55 3.39,6.48 1.41,6.39 -0.56,6.29 -1.15,6.20 -1.74,6.10 -2.26,5.82 -2.79,5.54 -3.20,5.11 -3.60,4.68 -3.85,4.13 -4.10,3.59 -4.17,3.00 -4.23,2.41 -4.10,1.83 -3.97,1.25 -3.66,0.74 -3.36,0.23 -2.90,-0.15 -2.45,-0.53 -1.90,-0.75 -1.34,-0.97 -0.75,-1.00 -0.15,-1.03 0.41,-0.87 0.98,-0.71 1.48,-0.38 1.97,-0.04 2.33,0.42 2.69,0.90 2.88,1.46 3.07,2.02 3.06,2.62 3.06,3.21 2.87,3.78 2.68,4.34 2.32,4.82 1.96,5.29 1.47,5.62 0.97,5.96 0.40,6.11 -0.16,6.27 -0.76,6.24 -1.35,6.21 -1.91,5.99 -2.46,5.76 -2.91,5.38 -3.36,4.99 -3.67,4.48 -3.98,3.97 -4.10,3.39 -4.23,2.81 -4.16,2.22 -4.10,1.62 -3.85,1.09 -3.60,0.55 -3.19,0.11 -2.78,-0.31 -2.25,-0.59 -1.73,-0.86 -1.14,-0.96 -0.55,-1.05 -0.55,-1.05 -0.55,-1.05 1.04,-0.95 2.64,-0.84 3.85,-0.74 5.05,-0.64 6.24,-0.63 7.43,-0.62 8.73,-0.57 10.03,-0.52 11.22,-0.34 12.42,-0.15 13.97,-0.07 15.52,0.00 16.70,0.00 17.88,0.00 19.67,-0.03 21.46,-0.07 22.56,-0.12 23.66,-0.16 25.36,-0.19 27.07,-0.21 28.30,-0.20 29.53,-0.20 30.60,-0.18 31.67,-0.16 33.02,-0.08 34.37,-0.00 35.71,0.00 37.06,0.00 38.70,0.30 40.34,0.61 40.66,0.92 40.99,1.23 41.23,1.61 41.48,1.99 41.62,2.41 41.77,2.84 41.81,3.29 41.85,3.74 41.78,4.19 41.71,4.63 41.53,5.05 41.36,5.46 41.09,5.83 40.82,6.19 40.48,6.48 40.13,6.76 39.72,6.96 39.32,7.16 38.87,7.25 38.43,7.34 37.98,7.33 37.53,7.31 37.10,7.19 36.66,7.07 36.27,6.84 35.88,6.62 35.25,5.88 34.62,5.15 33.91,3.90 33.21,2.65 32.69,1.71 32.18,0.77 31.60,-0.21 31.03,-1.20 30.36,-2.41 29.69,-3.63 29.12,-4.78 28.56,-5.92 28.00,-6.93 27.44,-7.93 26.72,-9.13 26.01,-10.33 25.48,-11.32 24.96,-12.30 24.28,-13.66 23.60,-15.02 22.80,-16.49 22.01,-17.97 21.44,-19.16 20.87,-20.36 20.43,-21.47 20.00,-22.59 19.41,-24.22 18.82,-25.84 18.35,-27.22 17.87,-28.61 17.69,-30.11 17.51,-31.61 17.68,-32.02 17.85,-32.43 18.11,-32.79 18.37,-33.14 18.71,-33.43 19.05,-33.71 19.45,-33.90 19.85,-34.10 20.28,-34.19 20.72,-34.28 21.16,-34.27 21.60,-34.25 22.03,-34.13 22.45,-34.01 22.84,-33.79 23.23,-33.58 23.55,-33.27 23.87,-32.97 24.11,-32.59 24.35,-32.22 24.49,-31.80 24.64,-31.38 24.67,-30.94 24.71,-30.50 24.65,-30.06 24.58,-29.63 24.27,-29.02 23.96,-28.41 22.98,-27.46 22.01,-26.50 21.30,-25.51 20.60,-24.51 19.70,-23.28 18.79,-22.06 17.96,-20.96 17.13,-19.87 16.44,-18.79 15.74,-17.71 14.94,-16.48 14.13,-15.25 13.23,-14.02 12.33,-12.79 11.72,-11.82 11.11,-10.85 10.42,-9.90 9.74,-8.94 8.82,-7.57 7.91,-6.21 7.05,-5.14 6.18,-4.08 5.53,-3.22 4.88,-2.36 4.13,-1.32 3.38,-0.27 2.82,0.56 2.26,1.41 2.05,1.66 1.85,1.91 1.60,2.10 1.34,2.30 1.05,2.42 0.75,2.55 0.43,2.60 0.12,2.66 -0.19,2.63 -0.51,2.61 -0.82,2.51 -1.13,2.41 -1.40,2.24 -1.67,2.07 -1.89,1.84 -2.12,1.61 -2.28,1.33 -2.44,1.05 -2.53,0.74 -2.62,0.44 -2.64,0.12 -2.65,-0.20 -2.59,-0.51 -2.53,-0.83 -2.39,-1.12 -2.26,-1.41 -2.26,-1.41 L -2.26,-1.41 Z"></path></g><g stroke-linecap="round"><g transform="translate(861.6194997270759 433.13896432944466) rotate(90.71526073859083 3.8310735191691947 101.75409669826593)"><path d="M-0.29 -1.06 C1.04 32.97, 6.51 170.35, 7.95 204.57" stroke="#f08c00" stroke-width="4.5" fill="none" stroke-dasharray="8 12"></path></g></g><mask></mask><g stroke-linecap="round" transform="translate(10 20.39468109526706) rotate(0 847.6440367384726 694.4255792768712)"><path d="M32 0 C451.62 2.79, 872.12 3.1, 1663.29 0 M32 0 C481.89 5.64, 931.37 5.47, 1663.29 0 M1663.29 0 C1686.61 -1.71, 1695.72 11.52, 1695.29 32 M1663.29 0 C1685.32 1.41, 1696.5 9.53, 1695.29 32 M1695.29 32 C1689.9 411.08, 1689.91 789.89, 1695.29 1356.85 M1695.29 32 C1697.97 298.98, 1697.69 565.64, 1695.29 1356.85 M1695.29 1356.85 C1694.87 1377.95, 1683.93 1388.59, 1663.29 1388.85 M1695.29 1356.85 C1693.18 1377.04, 1684.05 1389.12, 1663.29 1388.85 M1663.29 1388.85 C1147.51 1382.86, 632.81 1382.51, 32 1388.85 M1663.29 1388.85 C1075.68 1391.17, 488.84 1391.19, 32 1388.85 M32 1388.85 C10.12 1387.21, -0.65 1379.84, 0 1356.85 M32 1388.85 C11.1 1388.57, -0.66 1380.08, 0 1356.85 M0 1356.85 C0.12 873.36, -0.44 389.36, 0 32 M0 1356.85 C-0.39 1014.15, -0.89 670.67, 0 32 M0 32 C-1.94 9.4, 11.52 0.29, 32 0 M0 32 C-0.43 12.89, 12.48 -2.06, 32 0" stroke="#1971c2" stroke-width="4" fill="none"></path></g><g transform="translate(137.75427615981346 605.0650090171875) rotate(0 10.082591160104982 20.16932055981374)"><text x="0" y="28.26931969663492" font-family="Virgil, Segoe UI Emoji" font-size="32.27091289570196px" fill="#2f9e44" text-anchor="start" style="white-space: pre;" direction="ltr" dominant-baseline="alphabetic">+</text></g><g transform="translate(137.75427615981346 653.7018285476058) rotate(0 10.082591160104982 20.16932055981374)"><text x="0" y="28.26931969663492" font-family="Virgil, Segoe UI Emoji" font-size="32.27091289570196px" fill="#2f9e44" text-anchor="start" style="white-space: pre;" direction="ltr" dominant-baseline="alphabetic">+</text></g></svg>