<svg version="1.1" xmlns="http://www.w3.org/2000/svg" viewBox="0 0 1662.8458570010914 570.2760767397799" width="4988.537571003274" height="1710.8282302193397">
  <!-- svg-source:excalidraw -->
  
  <defs>
    <style class="style-fonts">
      @font-face {
        font-family: "Virgil";
        src: url("https://excalidraw.com/Virgil.woff2");
      }
      @font-face {
        font-family: "Cascadia";
        src: url("https://excalidraw.com/Cascadia.woff2");
      }
      @font-face {
        font-family: "Assistant";
        src: url("https://excalidraw.com/Assistant-Regular.woff2");
      }
    </style>
    
  </defs>
  <rect x="0" y="0" width="1662.8458570010914" height="570.2760767397799" fill="#ffffff"></rect><g stroke-linecap="round" transform="translate(444.13030949856307 135.68068792803842) rotate(0 130.625 31.75980392156862)"><path d="M4.23 3.67 C4.23 3.67, 4.23 3.67, 4.23 3.67 M4.23 3.67 C4.23 3.67, 4.23 3.67, 4.23 3.67 M3.31 10.83 C5.27 7.93, 7.39 6.03, 10.53 2.53 M3.31 10.83 C6.55 7.75, 8.7 4.51, 10.53 2.53 M2.39 17.98 C6.18 15.02, 8.43 9.6, 16.83 1.38 M2.39 17.98 C7.51 11.77, 12.84 7.03, 16.83 1.38 M2.79 23.62 C11.87 15.61, 19.31 6.48, 22.47 0.98 M2.79 23.62 C8.08 18.36, 11.91 11.68, 22.47 0.98 M2.53 30.02 C13.23 17.93, 20.01 7.14, 27.46 1.34 M2.53 30.02 C9.67 23.12, 15.94 13.73, 27.46 1.34 M2.92 35.66 C11.72 23.72, 20.49 12.9, 33.1 0.95 M2.92 35.66 C10.46 26.1, 18.51 16.47, 33.1 0.95 M3.31 41.31 C17.22 25.49, 29.94 10.41, 38.09 1.31 M3.31 41.31 C13.22 29.6, 24.96 16.87, 38.09 1.31 M3.05 47.7 C13.31 33.81, 27.65 20.04, 43.73 0.91 M3.05 47.7 C12.09 37.11, 21.39 25.55, 43.73 0.91 M1.48 55.61 C16.21 36.71, 33.05 19, 48.72 1.27 M1.48 55.61 C17.31 36.41, 33.56 18.53, 48.72 1.27 M4.5 58.24 C24.77 34.8, 41.63 12.74, 54.36 0.88 M4.5 58.24 C22.22 39.22, 38.86 17.8, 54.36 0.88 M6.86 61.61 C26.55 40.73, 43.56 17.68, 59.35 1.24 M6.86 61.61 C21.24 44.94, 37.49 26.1, 59.35 1.24 M10.54 63.48 C21.58 47.04, 35.22 34.47, 64.99 0.84 M10.54 63.48 C26.27 45.47, 42.84 25.16, 64.99 0.84 M14.21 65.35 C29.34 45.91, 47.3 24.07, 69.98 1.2 M14.21 65.35 C30.52 45.33, 48.85 26.97, 69.98 1.2 M19.85 64.96 C40.46 39.28, 59.76 16.68, 75.62 0.81 M19.85 64.96 C40.92 42.09, 60.53 18.73, 75.62 0.81 M24.84 65.32 C40.35 47.2, 59.28 26.5, 80.61 1.17 M24.84 65.32 C47.02 39.51, 67.71 16.12, 80.61 1.17 M30.48 64.92 C42.06 48.51, 54.66 35.62, 86.25 0.77 M30.48 64.92 C49.1 45.33, 66.94 23.5, 86.25 0.77 M35.47 65.28 C49.86 47.37, 62.16 33.45, 91.24 1.13 M35.47 65.28 C55.7 41.68, 78.3 16.99, 91.24 1.13 M41.11 64.89 C60.18 44.45, 79.07 20.57, 96.22 1.49 M41.11 64.89 C57.35 46.73, 74.07 25.67, 96.22 1.49 M46.1 65.25 C64.32 47.14, 79.22 25.26, 101.87 1.1 M46.1 65.25 C66.91 41.55, 85.63 19.17, 101.87 1.1 M51.74 64.86 C71.11 43.32, 91.36 18.03, 106.85 1.46 M51.74 64.86 C72.51 41.16, 94.04 15.41, 106.85 1.46 M56.73 65.22 C76.87 40.17, 99.8 17.4, 112.5 1.07 M56.73 65.22 C69.26 50.89, 81.14 35.57, 112.5 1.07 M61.72 65.58 C76.72 45.49, 94.29 29.21, 117.48 1.43 M61.72 65.58 C82.56 40.29, 104.47 17.54, 117.48 1.43 M67.36 65.18 C80.52 51.9, 92.49 39.38, 123.13 1.03 M67.36 65.18 C88.11 41.74, 108.57 18.06, 123.13 1.03 M72.35 65.54 C93.29 44.41, 111.79 19.25, 128.11 1.39 M72.35 65.54 C85.48 49.59, 99.09 33.49, 128.11 1.39 M77.99 65.15 C100.02 40.56, 120.78 15.56, 133.76 1 M77.99 65.15 C98.38 41.56, 117.88 17.69, 133.76 1 M82.98 65.51 C101.68 41.26, 123.71 17.57, 138.74 1.36 M82.98 65.51 C99.73 48.1, 114.91 30.46, 138.74 1.36 M88.62 65.11 C100.2 52.32, 111.81 36.63, 144.39 0.96 M88.62 65.11 C103.72 48.54, 119.32 30.94, 144.39 0.96 M93.61 65.47 C115.12 41.21, 137.29 16.08, 149.37 1.32 M93.61 65.47 C110.65 45.28, 126.98 26.86, 149.37 1.32 M99.25 65.08 C115.83 44.47, 136.12 24.83, 155.02 0.93 M99.25 65.08 C119.11 41.68, 138.89 18.68, 155.02 0.93 M104.24 65.44 C119.73 48, 134.46 29.86, 160 1.29 M104.24 65.44 C121.25 44.51, 138.84 24.95, 160 1.29 M109.88 65.04 C122.48 49.44, 139.79 31.06, 165.65 0.89 M109.88 65.04 C129.21 42.87, 150.08 19.53, 165.65 0.89 M114.87 65.4 C129.89 45.07, 147.83 27.01, 170.63 1.25 M114.87 65.4 C127.48 52.37, 140.67 37.05, 170.63 1.25 M120.51 65.01 C132.03 49.23, 145.22 34.72, 176.28 0.86 M120.51 65.01 C133.84 50.15, 145.99 35.85, 176.28 0.86 M125.5 65.37 C140.6 48.34, 157.22 29.62, 181.26 1.22 M125.5 65.37 C140.24 47.69, 157.58 30.86, 181.26 1.22 M131.14 64.97 C145.63 50.97, 155.29 34.72, 186.25 1.58 M131.14 64.97 C150.22 42.55, 170.39 19.99, 186.25 1.58 M136.13 65.33 C157.22 41.13, 176.13 17.31, 191.89 1.18 M136.13 65.33 C151.51 47.03, 167.14 28.27, 191.89 1.18 M141.12 65.69 C156.7 47.68, 172.24 32.61, 196.88 1.54 M141.12 65.69 C152.62 53.49, 164.61 40.15, 196.88 1.54 M146.76 65.3 C168.91 41.32, 187.59 16.9, 202.52 1.15 M146.76 65.3 C168.19 41.19, 189.88 14.56, 202.52 1.15 M151.75 65.66 C173.39 43.27, 194.7 19.21, 207.51 1.51 M151.75 65.66 C166.43 50.15, 180.67 32.16, 207.51 1.51 M157.39 65.27 C174.59 48.14, 188.55 27.54, 213.15 1.11 M157.39 65.27 C171.85 48.94, 186.31 31.46, 213.15 1.11 M162.38 65.63 C181.23 42.36, 202.65 19.63, 218.14 1.48 M162.38 65.63 C175.23 49.04, 188.38 33.8, 218.14 1.48 M168.02 65.23 C186.43 43.09, 204.4 20.84, 223.78 1.08 M168.02 65.23 C186.43 45.4, 203.69 24.54, 223.78 1.08 M173.01 65.59 C189.68 47.8, 201.5 29.93, 228.77 1.44 M173.01 65.59 C189.33 44.87, 207.64 26.05, 228.77 1.44 M178.65 65.2 C197.22 44.19, 211.85 26.34, 234.41 1.05 M178.65 65.2 C196.66 42.26, 216.23 21.22, 234.41 1.05 M183.64 65.56 C205.06 39.92, 223.23 20.23, 239.4 1.41 M183.64 65.56 C200.62 47.9, 216.9 29.52, 239.4 1.41 M189.28 65.16 C204.71 48.84, 215.76 35.19, 245.04 1.01 M189.28 65.16 C201.07 52.73, 212.83 38.43, 245.04 1.01 M194.27 65.52 C208.69 48.53, 227.84 30.01, 250.03 1.37 M194.27 65.52 C206.31 53.72, 216.29 39.7, 250.03 1.37 M199.91 65.13 C219.97 41.3, 237.75 21.13, 253.71 3.24 M199.91 65.13 C219.68 41.8, 242.24 18.08, 253.71 3.24 M204.9 65.49 C221.68 47.69, 238.35 30.81, 258.04 4.36 M204.9 65.49 C224.24 44.25, 242.1 23.03, 258.04 4.36 M210.54 65.09 C227.08 43.93, 247.6 24.93, 259.74 8.49 M210.54 65.09 C220.96 51.49, 233.08 38.34, 259.74 8.49 M215.53 65.45 C227.85 49.63, 241.4 34.62, 262.76 11.11 M215.53 65.45 C227.82 50.2, 242.27 36.85, 262.76 11.11 M221.17 65.06 C230.91 55.03, 241.06 43.17, 263.16 16.76 M221.17 65.06 C233.14 50.26, 244.01 36.39, 263.16 16.76 M226.16 65.42 C237.43 51.94, 250.47 36.76, 262.9 23.15 M226.16 65.42 C238.27 50.97, 248.05 38.97, 262.9 23.15 M231.14 65.78 C241.18 53.34, 248.52 45.36, 263.29 28.8 M231.14 65.78 C237.66 58.43, 244.64 49.95, 263.29 28.8 M236.79 65.38 C247.01 56.24, 252.78 46.19, 263.03 35.2 M236.79 65.38 C244.19 56.12, 252.85 46.49, 263.03 35.2 M241.77 65.74 C250.99 56.63, 259.08 48.09, 263.42 40.84 M241.77 65.74 C246.93 60.4, 251.14 55.55, 263.42 40.84 M247.42 65.35 C251.73 57.46, 258.49 51.84, 263.16 47.24 M247.42 65.35 C251.24 60.22, 256.33 54.84, 263.16 47.24" stroke="#ffec99" stroke-width="0.5" fill="none"></path><path d="M15.88 0 C74.37 2.72, 135.21 2.21, 245.37 0 M245.37 0 C256.08 -1.14, 261.28 4.33, 261.25 15.88 M261.25 15.88 C260.71 26.94, 261.67 39.17, 261.25 47.64 M261.25 47.64 C262.37 59.03, 256.95 65.49, 245.37 63.52 M245.37 63.52 C190.43 66.08, 137.08 65.63, 15.88 63.52 M15.88 63.52 C5.97 64.18, -0.27 58.86, 0 47.64 M0 47.64 C1.42 41.26, 1.45 33.14, 0 15.88 M0 15.88 C0.34 6.68, 6.01 -1.81, 15.88 0" stroke="#e03131" stroke-width="1.5" fill="none" stroke-dasharray="8 9"></path></g><g transform="translate(476.69877211547214 145.84223412581127) rotate(0 99.93968963623047 24.954196963932986)"><text x="0" y="34.9758024646485" font-family="Virgil, Segoe UI Emoji" font-size="39.926715142292814px" fill="#1e1e1e" text-anchor="start" style="white-space: pre;" direction="ltr" dominant-baseline="alphabetic">PRODUCT</text></g><g stroke-linecap="round" transform="translate(10 133.0860080951578) rotate(0 130.625 31.75980392156862)"><path d="M4.23 3.67 C4.23 3.67, 4.23 3.67, 4.23 3.67 M4.23 3.67 C4.23 3.67, 4.23 3.67, 4.23 3.67 M3.31 10.83 C6.57 8.22, 9.25 5.34, 10.53 2.53 M3.31 10.83 C4.95 8.26, 7.43 6.17, 10.53 2.53 M2.39 17.98 C4.08 16.07, 9.48 10.49, 16.83 1.38 M2.39 17.98 C6.31 14.66, 8.86 9.38, 16.83 1.38 M2.79 23.62 C7.37 16.02, 15.52 9.43, 22.47 0.98 M2.79 23.62 C7.88 16.98, 14.49 10.74, 22.47 0.98 M2.53 30.02 C6.57 23.65, 11.25 19.78, 27.46 1.34 M2.53 30.02 C10.58 20.83, 19.15 10.62, 27.46 1.34 M2.92 35.66 C14.06 24.04, 20.18 15.11, 33.1 0.95 M2.92 35.66 C12.16 24.56, 20.88 14.24, 33.1 0.95 M3.31 41.31 C16.45 27.92, 29.32 13.46, 38.09 1.31 M3.31 41.31 C16.61 25.5, 30.89 9.38, 38.09 1.31 M3.05 47.7 C17.03 34.26, 30.62 18.17, 43.73 0.91 M3.05 47.7 C13.39 35.35, 23.59 23.42, 43.73 0.91 M1.48 55.61 C11.7 45, 20.93 33.19, 48.72 1.27 M1.48 55.61 C13.16 42.5, 24.3 28.34, 48.72 1.27 M4.5 58.24 C23.13 37.14, 37.82 19.36, 54.36 0.88 M4.5 58.24 C16.59 46.29, 28.14 32.9, 54.36 0.88 M6.86 61.61 C25.83 40.77, 44.05 19.9, 59.35 1.24 M6.86 61.61 C22.29 43.1, 39.45 25.14, 59.35 1.24 M10.54 63.48 C29.01 40.87, 49.33 18.89, 64.99 0.84 M10.54 63.48 C31.47 39.12, 52.27 13.96, 64.99 0.84 M14.21 65.35 C33.32 42.45, 51.59 23.33, 69.98 1.2 M14.21 65.35 C33.2 41.91, 53.41 18.41, 69.98 1.2 M19.85 64.96 C34.29 49.72, 47.39 33.65, 75.62 0.81 M19.85 64.96 C35.34 46.3, 50.39 28.26, 75.62 0.81 M24.84 65.32 C40.8 46.15, 56.35 31.69, 80.61 1.17 M24.84 65.32 C40.4 46.05, 57.49 28.37, 80.61 1.17 M30.48 64.92 C46.43 46.08, 59.65 30.16, 86.25 0.77 M30.48 64.92 C45.25 48.14, 61.41 32.02, 86.25 0.77 M35.47 65.28 C49.61 49.21, 60.66 34.88, 91.24 1.13 M35.47 65.28 C52.97 47.94, 67.77 29.45, 91.24 1.13 M41.11 64.89 C54.86 49.81, 67.76 36.27, 96.22 1.49 M41.11 64.89 C57.85 44.32, 75.47 26.38, 96.22 1.49 M46.1 65.25 C64.92 44.55, 85.86 19.03, 101.87 1.1 M46.1 65.25 C58.65 49.03, 72.76 33.91, 101.87 1.1 M51.74 64.86 C63.58 50.22, 76.92 33.49, 106.85 1.46 M51.74 64.86 C61.97 51.63, 73.47 38.61, 106.85 1.46 M56.73 65.22 C66.84 52.35, 79.02 39.4, 112.5 1.07 M56.73 65.22 C77.99 41.08, 100.07 17.48, 112.5 1.07 M61.72 65.58 C82.33 41.89, 104.48 14.66, 117.48 1.43 M61.72 65.58 C79.3 45.05, 97.44 24.86, 117.48 1.43 M67.36 65.18 C80.47 52.01, 93.1 38.56, 123.13 1.03 M67.36 65.18 C88.91 40.12, 112.28 14.63, 123.13 1.03 M72.35 65.54 C88.41 50, 103.38 31.14, 128.11 1.39 M72.35 65.54 C86.78 49.03, 101.61 32.46, 128.11 1.39 M77.99 65.15 C91.15 48.6, 104.07 34.64, 133.76 1 M77.99 65.15 C96.85 43.64, 113.78 22.42, 133.76 1 M82.98 65.51 C97.09 50.33, 108.33 34.8, 138.74 1.36 M82.98 65.51 C95.35 50.97, 109.49 35.23, 138.74 1.36 M88.62 65.11 C110.46 43.15, 129.61 16.26, 144.39 0.96 M88.62 65.11 C105.95 44, 122.73 24.81, 144.39 0.96 M93.61 65.47 C117.03 43.06, 134.81 16.73, 149.37 1.32 M93.61 65.47 C108.48 48.04, 121.38 32.11, 149.37 1.32 M99.25 65.08 C118.78 44.86, 134.13 21.32, 155.02 0.93 M99.25 65.08 C120.98 40.69, 143.9 15.65, 155.02 0.93 M104.24 65.44 C125.47 44.88, 143.24 20.02, 160 1.29 M104.24 65.44 C123.66 42.52, 145.12 19.59, 160 1.29 M109.88 65.04 C127.07 42.73, 147.17 25.19, 165.65 0.89 M109.88 65.04 C128.38 44.38, 148.48 21.66, 165.65 0.89 M114.87 65.4 C133.28 46.18, 147.84 24.73, 170.63 1.25 M114.87 65.4 C134.69 41.29, 155.23 19.97, 170.63 1.25 M120.51 65.01 C139.66 42.84, 160.79 20.6, 176.28 0.86 M120.51 65.01 C140.87 40.59, 163.38 14.7, 176.28 0.86 M125.5 65.37 C147.37 40.82, 165.54 20.27, 181.26 1.22 M125.5 65.37 C144.25 43.53, 161.77 23.4, 181.26 1.22 M131.14 64.97 C148.48 45.15, 163.56 26.56, 186.25 1.58 M131.14 64.97 C149.86 43.36, 167.59 23.92, 186.25 1.58 M136.13 65.33 C158.37 40.82, 180.55 16.77, 191.89 1.18 M136.13 65.33 C152.64 46.39, 167.96 26.42, 191.89 1.18 M141.12 65.69 C151.87 50.05, 166.63 36.22, 196.88 1.54 M141.12 65.69 C156.23 49.72, 168.74 31.53, 196.88 1.54 M146.76 65.3 C166.97 43.07, 184.95 18.26, 202.52 1.15 M146.76 65.3 C166.58 43.92, 184.96 22.88, 202.52 1.15 M151.75 65.66 C170.63 47.53, 186.74 25.05, 207.51 1.51 M151.75 65.66 C170.64 43.25, 189.98 21.86, 207.51 1.51 M157.39 65.27 C169.87 52.63, 181.56 38.77, 213.15 1.11 M157.39 65.27 C175.13 45.64, 192.62 25.3, 213.15 1.11 M162.38 65.63 C177.17 44.05, 194.98 25.12, 218.14 1.48 M162.38 65.63 C179.12 45.76, 196.39 26.9, 218.14 1.48 M168.02 65.23 C182.25 50.2, 196.64 32.05, 223.78 1.08 M168.02 65.23 C187.06 44.72, 203.21 23.42, 223.78 1.08 M173.01 65.59 C185.21 48.35, 198.93 33.63, 228.77 1.44 M173.01 65.59 C191.73 42.28, 212.23 20.44, 228.77 1.44 M178.65 65.2 C193.17 48.98, 206.73 31.86, 234.41 1.05 M178.65 65.2 C192.04 49.78, 206.25 33.69, 234.41 1.05 M183.64 65.56 C196.84 52.38, 206.86 38.33, 239.4 1.41 M183.64 65.56 C206 39.73, 228.05 15.81, 239.4 1.41 M189.28 65.16 C200.31 51.28, 214.82 38.06, 245.04 1.01 M189.28 65.16 C210.62 40.68, 231.98 16.52, 245.04 1.01 M194.27 65.52 C209.29 48.83, 226.41 31.13, 250.03 1.37 M194.27 65.52 C209.73 49.44, 224.6 31.55, 250.03 1.37 M199.91 65.13 C212.22 49.92, 224.19 38.47, 253.71 3.24 M199.91 65.13 C212.32 49.39, 226.01 34.69, 253.71 3.24 M204.9 65.49 C223.95 39.02, 245.46 17.98, 258.04 4.36 M204.9 65.49 C221.29 45.19, 237.76 25.95, 258.04 4.36 M210.54 65.09 C226.65 49.04, 241.78 30.31, 259.74 8.49 M210.54 65.09 C227.99 45.76, 246.19 25.59, 259.74 8.49 M215.53 65.45 C231.16 45.16, 251.04 24.7, 262.76 11.11 M215.53 65.45 C234.75 44.57, 252.83 23.53, 262.76 11.11 M221.17 65.06 C232.41 52.01, 243.11 42.41, 263.16 16.76 M221.17 65.06 C231.23 53.48, 242.01 41.38, 263.16 16.76 M226.16 65.42 C241.02 50.81, 255.16 33.74, 262.9 23.15 M226.16 65.42 C235.71 54.43, 244.26 44.62, 262.9 23.15 M231.14 65.78 C243.27 53.01, 255.39 39.9, 263.29 28.8 M231.14 65.78 C238.55 56.45, 245.57 48.64, 263.29 28.8 M236.79 65.38 C245.22 54.14, 254.42 45.44, 263.03 35.2 M236.79 65.38 C245.43 56.36, 254.38 45.37, 263.03 35.2 M241.77 65.74 C249.27 56.57, 254 50.35, 263.42 40.84 M241.77 65.74 C249.09 57.65, 254.16 51.48, 263.42 40.84 M247.42 65.35 C252.47 58.09, 260.02 54.19, 263.16 47.24 M247.42 65.35 C251.38 61.66, 255.65 57.03, 263.16 47.24" stroke="#ffec99" stroke-width="0.5" fill="none"></path><path d="M15.88 0 C69.12 0.27, 120.56 -1, 245.37 0 M245.37 0 C255.88 -1.64, 259.57 5.09, 261.25 15.88 M261.25 15.88 C262.75 28.63, 260.9 40.84, 261.25 47.64 M261.25 47.64 C261.26 57.4, 255.2 62.01, 245.37 63.52 M245.37 63.52 C167.33 62.82, 85.61 63.45, 15.88 63.52 M15.88 63.52 C3.6 61.69, 1.8 56.75, 0 47.64 M0 47.64 C-1.91 35.32, -0.3 24.61, 0 15.88 M0 15.88 C-0.03 4.8, 6.54 1.91, 15.88 0" stroke="#e03131" stroke-width="1.5" fill="none" stroke-dasharray="8 9"></path></g><g transform="translate(29.114730246502177 142.04356438655225) rotate(0 111.91569519042969 24.954196963932986)"><text x="0" y="34.9758024646485" font-family="Virgil, Segoe UI Emoji" font-size="39.926715142292814px" fill="#1e1e1e" text-anchor="start" style="white-space: pre;" direction="ltr" dominant-baseline="alphabetic">productList</text></g><g stroke-linecap="round" transform="translate(147.25484932712334 276.36080695417206) rotate(0 157.71477289351117 31.75980392156862)"><path d="M4.23 3.67 C4.23 3.67, 4.23 3.67, 4.23 3.67 M4.23 3.67 C4.23 3.67, 4.23 3.67, 4.23 3.67 M1.34 13.09 C2.51 8.82, 5.6 5.36, 11.84 1.02 M1.34 13.09 C5.25 9.09, 7.24 6.35, 11.84 1.02 M0.42 20.24 C5.12 14.83, 10.95 8.01, 17.48 0.62 M0.42 20.24 C6.31 13.9, 11.93 8.18, 17.48 0.62 M0.16 26.64 C5.05 21.42, 12.11 12.98, 23.12 0.23 M0.16 26.64 C5.65 19.91, 11.06 13.23, 23.12 0.23 M0.56 32.28 C10.92 21.08, 19 13.18, 28.11 0.59 M0.56 32.28 C11.65 20.58, 21.83 8.55, 28.11 0.59 M0.95 37.93 C13.86 23.94, 25.73 12.23, 33.75 0.19 M0.95 37.93 C12.2 24.52, 25.74 10.61, 33.75 0.19 M0.69 44.33 C10.94 32.8, 20.21 20.92, 38.74 0.55 M0.69 44.33 C12.43 29.84, 24.11 16.53, 38.74 0.55 M1.08 49.97 C13.84 34.88, 21.64 22.18, 44.38 0.16 M1.08 49.97 C18.65 30.26, 34.11 10.59, 44.38 0.16 M1.48 55.61 C12.91 43.36, 25.93 30.19, 49.37 0.52 M1.48 55.61 C12.97 42.44, 24.98 30.01, 49.37 0.52 M3.84 58.99 C24.16 34.51, 43.05 14.27, 55.01 0.12 M3.84 58.99 C16.23 46.03, 28.02 31.95, 55.01 0.12 M6.86 61.61 C25.09 42.62, 41.02 23.06, 60 0.48 M6.86 61.61 C24.2 42.67, 40.34 24.47, 60 0.48 M10.54 63.48 C24.68 46.78, 41.88 29.28, 65.64 0.09 M10.54 63.48 C31.85 41.33, 50.35 18.15, 65.64 0.09 M15.52 63.84 C28.72 49.61, 41.68 35.32, 70.63 0.45 M15.52 63.84 C34.02 42.86, 51.28 21.62, 70.63 0.45 M20.51 64.2 C39.21 41.56, 57.32 19.83, 75.62 0.81 M20.51 64.2 C39.33 41.33, 61.07 18.55, 75.62 0.81 M26.15 63.81 C41.92 47.18, 55.13 27.63, 81.26 0.41 M26.15 63.81 C44.66 44.46, 61.32 22.59, 81.26 0.41 M31.14 64.17 C47.94 41.73, 67.94 21.81, 86.25 0.77 M31.14 64.17 C51.05 41.27, 72.64 18.31, 86.25 0.77 M36.78 63.78 C58.88 41.25, 77.96 17.53, 91.89 0.38 M36.78 63.78 C57.75 38.59, 79.35 15.75, 91.89 0.38 M41.77 64.14 C60.38 40.95, 79.13 22.02, 96.88 0.74 M41.77 64.14 C55.77 47.89, 69.71 32.61, 96.88 0.74 M47.41 63.74 C63.06 47.2, 74.85 30.87, 102.52 0.35 M47.41 63.74 C60.78 50.74, 72.7 36.33, 102.52 0.35 M52.4 64.1 C68.24 45.05, 83.5 27.21, 107.51 0.71 M52.4 64.1 C64.87 49.9, 77.3 35.98, 107.51 0.71 M58.04 63.71 C75.39 44.24, 91.57 24.69, 113.15 0.31 M58.04 63.71 C69.77 50.12, 81.55 37.65, 113.15 0.31 M63.03 64.07 C75.85 47.12, 90.28 30.42, 118.14 0.67 M63.03 64.07 C76.33 48.52, 89.71 32.91, 118.14 0.67 M68.67 63.67 C82.75 48.64, 93.24 36.52, 123.78 0.28 M68.67 63.67 C86.51 43.86, 105.01 22.75, 123.78 0.28 M73.66 64.03 C89.06 48.1, 99.28 32.3, 128.77 0.64 M73.66 64.03 C85.3 50.99, 96.19 38.71, 128.77 0.64 M79.3 63.64 C89.2 51.36, 102.78 38.67, 134.41 0.24 M79.3 63.64 C92.55 49.09, 105.18 34.45, 134.41 0.24 M84.29 64 C103.6 44.13, 120.15 19.79, 139.4 0.6 M84.29 64 C104.58 41.08, 123.36 18.58, 139.4 0.6 M89.93 63.6 C102.77 48.18, 114.52 34.29, 145.04 0.21 M89.93 63.6 C111.72 38.58, 133.76 12.93, 145.04 0.21 M94.92 63.96 C113.73 45.04, 131.1 21.88, 150.03 0.57 M94.92 63.96 C108.03 48.82, 121.6 32.81, 150.03 0.57 M99.91 64.32 C115.43 47.51, 129.44 32.43, 155.67 0.17 M99.91 64.32 C119.42 42.28, 138.35 21.08, 155.67 0.17 M105.55 63.93 C124.03 40.93, 143.72 18.31, 160.66 0.53 M105.55 63.93 C118.81 50.07, 130.38 35.56, 160.66 0.53 M110.54 64.29 C126.17 46.12, 141.4 28.63, 165.65 0.89 M110.54 64.29 C123.14 49.68, 138.08 34.79, 165.65 0.89 M116.18 63.89 C139.2 37.14, 158.67 15.72, 171.29 0.5 M116.18 63.89 C134.08 42.73, 153.91 20.47, 171.29 0.5 M121.17 64.25 C137.44 46.05, 155.2 24.01, 176.28 0.86 M121.17 64.25 C137.07 46.29, 153.33 26.8, 176.28 0.86 M126.81 63.86 C137.2 51.12, 151.91 37.34, 181.92 0.46 M126.81 63.86 C145.94 41.23, 166.01 17.13, 181.92 0.46 M131.8 64.22 C151.9 43.62, 169.75 20.09, 186.91 0.82 M131.8 64.22 C150.35 43.38, 167.78 22.47, 186.91 0.82 M137.44 63.82 C150.92 47.03, 163.37 34.1, 192.55 0.43 M137.44 63.82 C152.18 46.03, 166.94 29.31, 192.55 0.43 M142.43 64.18 C154.03 51.31, 165.39 36.46, 197.54 0.79 M142.43 64.18 C155.65 48.15, 170.03 31.22, 197.54 0.79 M148.07 63.79 C160.45 49.41, 172.18 35.12, 203.18 0.39 M148.07 63.79 C166.21 43.63, 184.38 22.15, 203.18 0.39 M153.06 64.15 C170.85 40.76, 188.63 19.26, 208.17 0.75 M153.06 64.15 C173.48 40.36, 195.85 16.14, 208.17 0.75 M158.7 63.76 C172.03 49.75, 182.63 34.85, 213.81 0.36 M158.7 63.76 C176.79 42.59, 197.03 19.04, 213.81 0.36 M163.69 64.12 C185.75 42.45, 204.74 17.55, 218.8 0.72 M163.69 64.12 C178.44 46.88, 194.27 28.51, 218.8 0.72 M169.33 63.72 C178.95 48.1, 191.07 36.03, 224.44 0.33 M169.33 63.72 C186.38 42.67, 204.04 24.59, 224.44 0.33 M174.32 64.08 C194.06 40.44, 211.52 22.05, 229.43 0.69 M174.32 64.08 C194.87 40.7, 213.33 19.49, 229.43 0.69 M179.96 63.69 C194.85 48.13, 210.24 32.1, 235.07 0.29 M179.96 63.69 C196.04 44.28, 211.9 26.21, 235.07 0.29 M184.95 64.05 C201.89 42.93, 220.03 25.02, 240.06 0.65 M184.95 64.05 C199.93 48.99, 213.09 31.55, 240.06 0.65 M190.59 63.65 C211.16 39.88, 231.65 18.62, 245.7 0.26 M190.59 63.65 C210.04 40.39, 230.05 16.57, 245.7 0.26 M195.58 64.01 C217.24 41.09, 237.79 19.09, 250.69 0.62 M195.58 64.01 C208.93 46.65, 224.03 31.24, 250.69 0.62 M200.57 64.37 C222.71 38.43, 243.27 15.94, 255.67 0.98 M200.57 64.37 C215.3 46.74, 231.29 28.61, 255.67 0.98 M206.21 63.98 C225.54 42.86, 245.2 19.73, 261.32 0.58 M206.21 63.98 C223.68 45.37, 240.36 23.75, 261.32 0.58 M211.2 64.34 C230.93 42.7, 251.62 19.28, 266.3 0.94 M211.2 64.34 C231.7 39.31, 254.15 14.2, 266.3 0.94 M216.84 63.94 C236.75 38.49, 256.73 17.49, 271.95 0.55 M216.84 63.94 C237.46 39.71, 258.96 15.52, 271.95 0.55 M221.83 64.3 C234.06 52.64, 245.11 36.68, 276.93 0.91 M221.83 64.3 C240.2 42.86, 258.93 20.8, 276.93 0.91 M227.47 63.91 C246.43 43.02, 263.98 25.75, 282.58 0.51 M227.47 63.91 C240.32 48.39, 255.73 32.24, 282.58 0.51 M232.46 64.27 C252.4 42.42, 268.23 20.08, 287.56 0.87 M232.46 64.27 C250.37 42.75, 269.32 19.22, 287.56 0.87 M238.1 63.87 C253.42 45.77, 271.33 28.92, 293.21 0.48 M238.1 63.87 C258.68 37.81, 281.23 13.7, 293.21 0.48 M243.09 64.23 C260.96 44.77, 277.13 26.45, 298.19 0.84 M243.09 64.23 C261.94 42.62, 281.88 19.96, 298.19 0.84 M248.73 63.84 C268.98 37.28, 290.13 14.04, 303.84 0.44 M248.73 63.84 C265.1 44.16, 282.27 25.29, 303.84 0.44 M253.72 64.2 C269.48 44.98, 287.36 26.81, 307.51 2.31 M253.72 64.2 C265.39 49.87, 279.34 36.39, 307.51 2.31 M259.36 63.81 C278.84 40.68, 297.46 20.85, 311.19 4.18 M259.36 63.81 C275.25 45.06, 291.14 26.71, 311.19 4.18 M264.35 64.17 C278.96 43.5, 295.37 28.19, 313.55 7.56 M264.35 64.17 C274.37 51.91, 285.27 39.45, 313.55 7.56 M269.99 63.77 C284.63 48.31, 300.19 28.83, 314.6 12.45 M269.99 63.77 C286.56 44.63, 303.17 25.73, 314.6 12.45 M274.98 64.13 C283.14 53.28, 293.21 43.67, 315 18.09 M274.98 64.13 C286.5 49.86, 298.93 36.35, 315 18.09 M280.62 63.74 C289.49 54.34, 296.02 47.28, 314.73 24.49 M280.62 63.74 C290.37 50.97, 300.87 39.82, 314.73 24.49 M285.61 64.1 C295.89 51.07, 309.37 38.54, 315.13 30.13 M285.61 64.1 C296.66 52.7, 306.66 40.51, 315.13 30.13 M290.59 64.46 C295.35 58, 299.78 50.99, 315.52 35.78 M290.59 64.46 C299.96 54.12, 309.2 42.83, 315.52 35.78 M296.24 64.06 C299.52 59.34, 305.78 51.76, 315.26 42.18 M296.24 64.06 C301.67 58.25, 305.99 52.63, 315.26 42.18 M301.88 63.67 C305.86 61.57, 307.07 56.36, 315.66 47.82 M301.88 63.67 C306.22 59.79, 308.99 55.24, 315.66 47.82 M309.49 61.01 C310.45 59.94, 310.52 59.3, 312.11 57.99 M309.49 61.01 C310.56 60.07, 311.24 58.85, 312.11 57.99" stroke="#ffec99" stroke-width="0.5" fill="none"></path><path d="M15.88 0 C123.33 -1.48, 232.23 -0.99, 299.55 0 M299.55 0 C312.13 1.72, 316.47 4.16, 315.43 15.88 M315.43 15.88 C314.74 25.28, 314.93 37.74, 315.43 47.64 M315.43 47.64 C313.85 59.39, 309.5 64.03, 299.55 63.52 M299.55 63.52 C195.05 63.96, 91.29 64.91, 15.88 63.52 M15.88 63.52 C7 63.03, 1.14 58.37, 0 47.64 M0 47.64 C-1.74 34.42, -0.96 23.61, 0 15.88 M0 15.88 C-0.43 3.86, 4.48 -1.38, 15.88 0" stroke="#e03131" stroke-width="1.5" fill="none" stroke-dasharray="8 9"></path></g><g transform="translate(165.3754330674933 285.3183632455665) rotate(0 140.63812255859375 24.954196963932986)"><text x="0" y="34.9758024646485" font-family="Virgil, Segoe UI Emoji" font-size="39.926715142292814px" fill="#1e1e1e" text-anchor="start" style="white-space: pre;" direction="ltr" dominant-baseline="alphabetic">productSystem</text></g><g stroke-linecap="round" transform="translate(653.1584529721833 275.36666044803974) rotate(0 157.71477289351128 31.75980392156862)"><path d="M4.23 3.67 C4.23 3.67, 4.23 3.67, 4.23 3.67 M4.23 3.67 C4.23 3.67, 4.23 3.67, 4.23 3.67 M1.34 13.09 C5.15 6.93, 8.15 2.97, 11.84 1.02 M1.34 13.09 C4.34 9.55, 6.68 7.54, 11.84 1.02 M0.42 20.24 C3.37 16.11, 6.3 13.25, 17.48 0.62 M0.42 20.24 C4.94 13.6, 9.97 8.08, 17.48 0.62 M0.16 26.64 C7.65 17.39, 16.31 8.14, 23.12 0.23 M0.16 26.64 C8.54 16.12, 18.05 6.8, 23.12 0.23 M0.56 32.28 C5.63 24.78, 14.59 18.32, 28.11 0.59 M0.56 32.28 C6.41 25.1, 12.8 18.81, 28.11 0.59 M0.95 37.93 C8.74 27.18, 20.03 18.33, 33.75 0.19 M0.95 37.93 C6.48 29.4, 13.63 23.47, 33.75 0.19 M0.69 44.33 C11.09 29.47, 24.35 15.79, 38.74 0.55 M0.69 44.33 C7.6 34.65, 16.55 26.08, 38.74 0.55 M1.08 49.97 C12.69 38.15, 22.64 25.19, 44.38 0.16 M1.08 49.97 C10.51 37.84, 20.46 26.79, 44.38 0.16 M1.48 55.61 C16.88 39.62, 30.89 23.09, 49.37 0.52 M1.48 55.61 C14.1 42.83, 26.19 28.15, 49.37 0.52 M3.84 58.99 C23.07 37.72, 41.48 15.28, 55.01 0.12 M3.84 58.99 C16.32 46.08, 26.22 33.88, 55.01 0.12 M6.86 61.61 C18.22 47.97, 30.77 33.7, 60 0.48 M6.86 61.61 C22.29 43.01, 37.7 24.47, 60 0.48 M10.54 63.48 C26.46 47.33, 38.11 31.13, 65.64 0.09 M10.54 63.48 C27.89 41.57, 46.92 22.12, 65.64 0.09 M15.52 63.84 C34.03 42.63, 54.35 19.24, 70.63 0.45 M15.52 63.84 C26.93 50.34, 38.66 37.72, 70.63 0.45 M20.51 64.2 C31.23 48.59, 44.96 37.6, 75.62 0.81 M20.51 64.2 C41.82 40.7, 61.93 17.81, 75.62 0.81 M26.15 63.81 C39.64 46.59, 57.37 26.89, 81.26 0.41 M26.15 63.81 C37.06 50.04, 49.01 37.62, 81.26 0.41 M31.14 64.17 C50.47 43.72, 69.44 19.15, 86.25 0.77 M31.14 64.17 C43.84 48.1, 57.59 33.23, 86.25 0.77 M36.78 63.78 C57.38 38.05, 79.11 12.68, 91.89 0.38 M36.78 63.78 C50.39 48.39, 64.58 31.86, 91.89 0.38 M41.77 64.14 C61.49 40.89, 82.2 18.59, 96.88 0.74 M41.77 64.14 C53.84 49.45, 66.85 35.74, 96.88 0.74 M47.41 63.74 C61.06 45.59, 77.84 29.28, 102.52 0.35 M47.41 63.74 C60.9 49.01, 74.58 32.92, 102.52 0.35 M52.4 64.1 C70.22 42.22, 87.05 24.73, 107.51 0.71 M52.4 64.1 C67.09 47.69, 81.21 29.74, 107.51 0.71 M58.04 63.71 C74.15 48.03, 86.59 28.64, 113.15 0.31 M58.04 63.71 C69.71 49.61, 82.13 37.42, 113.15 0.31 M63.03 64.07 C84.09 39.74, 103.86 13.69, 118.14 0.67 M63.03 64.07 C82.11 42.32, 100.69 20.64, 118.14 0.67 M68.67 63.67 C83.43 47.23, 96.67 34.86, 123.78 0.28 M68.67 63.67 C87.61 42.34, 106.77 20.53, 123.78 0.28 M73.66 64.03 C87.64 46.23, 102.06 33.11, 128.77 0.64 M73.66 64.03 C90.24 45.25, 106.31 25.36, 128.77 0.64 M79.3 63.64 C96.76 41.78, 115.49 23.15, 134.41 0.24 M79.3 63.64 C99.51 39.67, 119.82 17.88, 134.41 0.24 M84.29 64 C98.95 45.91, 116.19 25.44, 139.4 0.6 M84.29 64 C104.83 39.42, 126.4 14.89, 139.4 0.6 M89.93 63.6 C101.51 49.33, 112.97 36.86, 145.04 0.21 M89.93 63.6 C107.74 41.67, 125.82 22.05, 145.04 0.21 M94.92 63.96 C107.24 46.63, 121.4 32.2, 150.03 0.57 M94.92 63.96 C112.19 44.86, 128.43 23.79, 150.03 0.57 M99.91 64.32 C115.5 46.29, 130.74 26.95, 155.67 0.17 M99.91 64.32 C112.97 49.02, 127.53 32.86, 155.67 0.17 M105.55 63.93 C118.97 46.6, 134.62 29.3, 160.66 0.53 M105.55 63.93 C117.21 49.27, 129.74 35.37, 160.66 0.53 M110.54 64.29 C134.55 38.03, 154.64 15.29, 165.65 0.89 M110.54 64.29 C122.94 48.91, 136.89 33.44, 165.65 0.89 M116.18 63.89 C133.99 45.86, 149.71 24.61, 171.29 0.5 M116.18 63.89 C133.33 44.75, 151.42 23.73, 171.29 0.5 M121.17 64.25 C140.67 40.58, 162.83 16.86, 176.28 0.86 M121.17 64.25 C132.7 51.56, 144.81 36.3, 176.28 0.86 M126.81 63.86 C144.41 44.59, 163.26 19.49, 181.92 0.46 M126.81 63.86 C139.66 49.17, 150.42 35.23, 181.92 0.46 M131.8 64.22 C147.16 46.8, 167.08 26.71, 186.91 0.82 M131.8 64.22 C152.99 38.74, 175.02 15.63, 186.91 0.82 M137.44 63.82 C157.51 39.7, 177.55 17.49, 192.55 0.43 M137.44 63.82 C157.91 40.24, 179.67 15.78, 192.55 0.43 M142.43 64.18 C153.3 52.09, 166.31 37.99, 197.54 0.79 M142.43 64.18 C159.56 43.02, 177.09 23.04, 197.54 0.79 M148.07 63.79 C171.54 40.66, 192.36 16.07, 203.18 0.39 M148.07 63.79 C167.27 41.72, 185.61 21.14, 203.18 0.39 M153.06 64.15 C162.73 51.09, 175.84 38.12, 208.17 0.75 M153.06 64.15 C169.64 44.31, 187.89 23.54, 208.17 0.75 M158.7 63.76 C171.62 51.06, 181.86 36.93, 213.81 0.36 M158.7 63.76 C170.7 49.02, 182.84 35.11, 213.81 0.36 M163.69 64.12 C183.39 43.38, 200.29 23.24, 218.8 0.72 M163.69 64.12 C174.76 49.7, 188.26 37.44, 218.8 0.72 M169.33 63.72 C181.45 50.06, 194.34 36.72, 224.44 0.33 M169.33 63.72 C180.97 50.17, 194.97 34.56, 224.44 0.33 M174.32 64.08 C193.77 44.04, 212.81 21.37, 229.43 0.69 M174.32 64.08 C186.94 48.81, 199.31 34.95, 229.43 0.69 M179.96 63.69 C194.85 50.56, 205.67 33.24, 235.07 0.29 M179.96 63.69 C201.11 38.25, 224.1 12.48, 235.07 0.29 M184.95 64.05 C199.94 46.65, 213.19 29.47, 240.06 0.65 M184.95 64.05 C197.52 48.35, 212.17 32.86, 240.06 0.65 M190.59 63.65 C209.08 44.86, 224.71 20.43, 245.7 0.26 M190.59 63.65 C212.84 38.77, 234.21 14.09, 245.7 0.26 M195.58 64.01 C211.11 46.19, 228.38 28.92, 250.69 0.62 M195.58 64.01 C216.77 40.7, 235.67 17.7, 250.69 0.62 M200.57 64.37 C219.24 43.88, 233.65 24.94, 255.67 0.98 M200.57 64.37 C219.09 43.87, 235.74 22.31, 255.67 0.98 M206.21 63.98 C220.49 45.81, 235.32 29.73, 261.32 0.58 M206.21 63.98 C228.83 39.4, 249.17 14.59, 261.32 0.58 M211.2 64.34 C224.79 50.6, 236.58 34.2, 266.3 0.94 M211.2 64.34 C230.75 41.4, 250.39 20.19, 266.3 0.94 M216.84 63.94 C239.41 40.69, 260.12 16.3, 271.95 0.55 M216.84 63.94 C230.97 48.01, 243.97 30.78, 271.95 0.55 M221.83 64.3 C243.73 39.48, 261.67 15.85, 276.93 0.91 M221.83 64.3 C237.22 48.08, 251.54 29.42, 276.93 0.91 M227.47 63.91 C244.22 42.82, 260.85 22.96, 282.58 0.51 M227.47 63.91 C241.7 46.82, 256.34 29.63, 282.58 0.51 M232.46 64.27 C254.12 39.44, 274.6 15.43, 287.56 0.87 M232.46 64.27 C248.65 45.58, 266.58 25.74, 287.56 0.87 M238.1 63.87 C252.39 45.37, 270.81 26.91, 293.21 0.48 M238.1 63.87 C250.55 49.3, 263.27 33.81, 293.21 0.48 M243.09 64.23 C260.49 42.14, 280.07 21.28, 298.19 0.84 M243.09 64.23 C261.66 41.99, 280.58 21.04, 298.19 0.84 M248.73 63.84 C270.98 38.06, 289.87 13.68, 303.84 0.44 M248.73 63.84 C268.31 42.73, 286.77 19.21, 303.84 0.44 M253.72 64.2 C273.87 42.78, 291.34 19.2, 307.51 2.31 M253.72 64.2 C268.48 47.08, 285.11 27.81, 307.51 2.31 M259.36 63.81 C269.79 48.11, 282.8 36.26, 311.19 4.18 M259.36 63.81 C274.29 46.7, 290.06 27.33, 311.19 4.18 M264.35 64.17 C277.56 47.08, 293.51 27.53, 313.55 7.56 M264.35 64.17 C278.65 46.43, 294.97 30.38, 313.55 7.56 M269.99 63.77 C286.46 42.9, 301.58 25.1, 314.6 12.45 M269.99 63.77 C286.98 45.59, 302.49 26.95, 314.6 12.45 M274.98 64.13 C285.68 51.39, 299.89 36.13, 315 18.09 M274.98 64.13 C290.96 45.37, 305.48 29.08, 315 18.09 M280.62 63.74 C287.48 52.96, 295.18 45.7, 314.73 24.49 M280.62 63.74 C292.25 52.12, 303.11 38.32, 314.73 24.49 M285.61 64.1 C293.44 53.77, 298.95 47.67, 315.13 30.13 M285.61 64.1 C295.98 51.96, 308.54 38.81, 315.13 30.13 M290.59 64.46 C299.65 55.98, 308.3 43.88, 315.52 35.78 M290.59 64.46 C297.41 56.73, 304.98 46.19, 315.52 35.78 M296.24 64.06 C303.5 58.68, 307.14 49.75, 315.26 42.18 M296.24 64.06 C303.84 55.57, 309.48 48.24, 315.26 42.18 M301.88 63.67 C305.81 59.54, 310.76 51.84, 315.66 47.82 M301.88 63.67 C307.17 58.05, 312.83 50.56, 315.66 47.82 M309.49 61.01 C310.37 59.67, 311.74 58.82, 312.11 57.99 M309.49 61.01 C310.11 60.41, 310.51 59.63, 312.11 57.99" stroke="#ffec99" stroke-width="0.5" fill="none"></path><path d="M15.88 0 C120.23 1.77, 223.73 1.85, 299.55 0 M299.55 0 C309.3 0.92, 315.77 5.59, 315.43 15.88 M315.43 15.88 C315.73 25.84, 314.95 35.35, 315.43 47.64 M315.43 47.64 C314.5 58.82, 308.89 64.19, 299.55 63.52 M299.55 63.52 C223.96 65.77, 150.02 64.92, 15.88 63.52 M15.88 63.52 C4.08 62.22, -1.72 56.38, 0 47.64 M0 47.64 C1.8 33.74, 1.29 24.44, 0 15.88 M0 15.88 C1.42 5.73, 6.43 1.25, 15.88 0" stroke="#e03131" stroke-width="1.5" fill="none" stroke-dasharray="8 9"></path></g><g transform="translate(674.8910064316885 283.120226833056) rotate(0 132.9734649658203 24.954196963932986)"><text x="0" y="34.9758024646485" font-family="Virgil, Segoe UI Emoji" font-size="39.926715142292814px" fill="#1e1e1e" text-anchor="start" style="white-space: pre;" direction="ltr" dominant-baseline="alphabetic">qualitySystem</text></g><g stroke-linecap="round" transform="translate(1056.9367073669748 496.7564688966427) rotate(0 183.60055588064415 31.75980392156862)"><path d="M4.23 3.67 C4.23 3.67, 4.23 3.67, 4.23 3.67 M4.23 3.67 C4.23 3.67, 4.23 3.67, 4.23 3.67 M1.34 13.09 C3.86 8.76, 7.4 8.46, 11.84 1.02 M1.34 13.09 C4.24 10.27, 5.5 7.25, 11.84 1.02 M0.42 20.24 C3.5 13.43, 7.45 10.13, 17.48 0.62 M0.42 20.24 C7.1 13.45, 14.17 6.03, 17.48 0.62 M0.16 26.64 C8.35 18.19, 14.4 8.59, 23.12 0.23 M0.16 26.64 C8.35 16.89, 16.15 7.04, 23.12 0.23 M0.56 32.28 C8.55 22.05, 17.71 11.67, 28.11 0.59 M0.56 32.28 C10.33 22.18, 20.22 10.84, 28.11 0.59 M0.95 37.93 C5.7 29.21, 14.68 24.91, 33.75 0.19 M0.95 37.93 C9.87 26.48, 19.35 15.77, 33.75 0.19 M0.69 44.33 C9.67 31.83, 20.94 20.23, 38.74 0.55 M0.69 44.33 C12.4 31.57, 23.11 19.05, 38.74 0.55 M1.08 49.97 C14.67 35.08, 30.43 16.61, 44.38 0.16 M1.08 49.97 C14.35 32.97, 28.06 17.19, 44.38 0.16 M1.48 55.61 C13 43.96, 21.87 32.93, 49.37 0.52 M1.48 55.61 C17.22 37.49, 32.98 20.36, 49.37 0.52 M3.84 58.99 C19.48 41.03, 32.51 27.35, 55.01 0.12 M3.84 58.99 C22.53 36.44, 42.72 14.91, 55.01 0.12 M6.86 61.61 C19.18 48.2, 30.06 36.48, 60 0.48 M6.86 61.61 C21.28 44.52, 34.63 28.96, 60 0.48 M10.54 63.48 C27.25 41.92, 45.93 22.75, 65.64 0.09 M10.54 63.48 C29.27 41.69, 48.39 21.13, 65.64 0.09 M15.52 63.84 C28.11 50.29, 42.4 34.35, 70.63 0.45 M15.52 63.84 C31.96 45.36, 48.18 26.5, 70.63 0.45 M20.51 64.2 C37.6 44.84, 53.82 26.11, 75.62 0.81 M20.51 64.2 C38.7 41.97, 58.14 22.03, 75.62 0.81 M26.15 63.81 C41.58 47.13, 52.74 34, 81.26 0.41 M26.15 63.81 C37.97 49.06, 51.09 35.14, 81.26 0.41 M31.14 64.17 C53.36 37.03, 75.68 12.86, 86.25 0.77 M31.14 64.17 C47.33 44.98, 63.92 24.97, 86.25 0.77 M36.78 63.78 C51.82 46.37, 69.77 28.84, 91.89 0.38 M36.78 63.78 C48.39 49.04, 61.16 34.98, 91.89 0.38 M41.77 64.14 C60.26 41.18, 77.5 22.23, 96.88 0.74 M41.77 64.14 C61.75 39.14, 82.87 15.44, 96.88 0.74 M47.41 63.74 C58.14 50.21, 70.05 35.41, 102.52 0.35 M47.41 63.74 C68.64 41.83, 87.93 18.58, 102.52 0.35 M52.4 64.1 C72.7 39.52, 93.73 16.75, 107.51 0.71 M52.4 64.1 C69.21 46.59, 84.23 28.42, 107.51 0.71 M58.04 63.71 C79.33 39.13, 95.92 18.62, 113.15 0.31 M58.04 63.71 C69.7 50.12, 82.53 36.76, 113.15 0.31 M63.03 64.07 C80.54 44.2, 98.95 23.96, 118.14 0.67 M63.03 64.07 C74.5 49.68, 86.36 36.15, 118.14 0.67 M68.67 63.67 C82.65 49.81, 94.36 33.7, 123.78 0.28 M68.67 63.67 C83.63 47.07, 98.23 30.18, 123.78 0.28 M73.66 64.03 C93.14 44.35, 108.05 24.83, 128.77 0.64 M73.66 64.03 C92.05 44.09, 108.75 24.61, 128.77 0.64 M79.3 63.64 C93.09 48.58, 106.37 34.24, 134.41 0.24 M79.3 63.64 C97.58 43.39, 114.36 21.82, 134.41 0.24 M84.29 64 C97.09 49.95, 108.82 35.58, 139.4 0.6 M84.29 64 C103.91 40.63, 124.04 18.66, 139.4 0.6 M89.93 63.6 C102.95 48.56, 111.44 38.07, 145.04 0.21 M89.93 63.6 C104.6 46.28, 121.16 29.22, 145.04 0.21 M94.92 63.96 C113.25 44.37, 128.09 26.25, 150.03 0.57 M94.92 63.96 C114.82 43.45, 132.03 20.24, 150.03 0.57 M100.56 63.57 C111.9 51.64, 123.7 34.58, 155.67 0.17 M100.56 63.57 C119.94 42.19, 139.14 18.53, 155.67 0.17 M105.55 63.93 C119.17 46.28, 138.1 25.31, 160.66 0.53 M105.55 63.93 C118.49 47.58, 133.03 32.57, 160.66 0.53 M110.54 64.29 C131.56 41.7, 149.72 18.25, 166.3 0.14 M110.54 64.29 C125.02 48.25, 139.09 30.53, 166.3 0.14 M116.18 63.89 C130.68 43.78, 150.1 27.01, 171.29 0.5 M116.18 63.89 C131.98 45.38, 149.28 25.92, 171.29 0.5 M121.17 64.25 C142.21 41.32, 161.95 16.14, 176.28 0.86 M121.17 64.25 C134.5 48.88, 149.45 32.76, 176.28 0.86 M126.81 63.86 C147.82 39.97, 166.31 14.44, 181.92 0.46 M126.81 63.86 C141.31 46.55, 157.38 27.68, 181.92 0.46 M131.8 64.22 C148.34 44.72, 161.75 28.12, 186.91 0.82 M131.8 64.22 C145.93 48.14, 159.54 32.65, 186.91 0.82 M137.44 63.82 C153.12 43.22, 171.13 26.37, 192.55 0.43 M137.44 63.82 C151.13 49.04, 163.17 35.2, 192.55 0.43 M142.43 64.18 C160.16 45.03, 174.49 24.73, 197.54 0.79 M142.43 64.18 C159.85 43.13, 178.02 21.53, 197.54 0.79 M148.07 63.79 C159.36 50.89, 171.98 34.95, 203.18 0.39 M148.07 63.79 C170.09 40.08, 190.97 16.85, 203.18 0.39 M153.06 64.15 C170.4 42.34, 186.53 24.01, 208.17 0.75 M153.06 64.15 C165.55 49.33, 179.46 34.32, 208.17 0.75 M158.7 63.76 C179.84 39.1, 198.55 16.2, 213.81 0.36 M158.7 63.76 C179.6 39.67, 200.36 16.21, 213.81 0.36 M163.69 64.12 C177.63 52, 186.27 38.69, 218.8 0.72 M163.69 64.12 C176.81 49.86, 189.99 34.29, 218.8 0.72 M169.33 63.72 C192.26 37.08, 210.62 11.02, 224.44 0.33 M169.33 63.72 C182.42 46.83, 197.78 30.91, 224.44 0.33 M174.32 64.08 C193.36 39.65, 213.36 17.86, 229.43 0.69 M174.32 64.08 C192.53 43.31, 209.86 21.63, 229.43 0.69 M179.96 63.69 C192.63 48.54, 202.99 35.25, 235.07 0.29 M179.96 63.69 C196.36 45.5, 211.3 27.25, 235.07 0.29 M184.95 64.05 C204.12 40.23, 222.62 18.04, 240.06 0.65 M184.95 64.05 C205.8 39.27, 227.46 14.24, 240.06 0.65 M190.59 63.65 C210.21 41.11, 227.57 20.32, 245.7 0.26 M190.59 63.65 C210.47 42.08, 227.69 19.74, 245.7 0.26 M195.58 64.01 C208.12 51.68, 218.81 36.81, 250.69 0.62 M195.58 64.01 C207.1 49.89, 218.64 37.35, 250.69 0.62 M200.57 64.37 C220.52 42.17, 241.38 17.64, 256.33 0.22 M200.57 64.37 C216.13 45.52, 231.75 27.64, 256.33 0.22 M206.21 63.98 C218.95 46.91, 233.34 29.48, 261.32 0.58 M206.21 63.98 C224.43 44.51, 242.82 23.41, 261.32 0.58 M211.2 64.34 C227.83 44.04, 242 25.07, 266.3 0.94 M211.2 64.34 C224.03 49.34, 235.39 35.37, 266.3 0.94 M216.84 63.94 C235.26 42.78, 256.9 20.09, 271.95 0.55 M216.84 63.94 C234.78 42.87, 252.37 22.71, 271.95 0.55 M221.83 64.3 C233.47 51.1, 247.25 35.97, 276.93 0.91 M221.83 64.3 C235.52 48.49, 247.8 33.88, 276.93 0.91 M227.47 63.91 C242.31 47.37, 259.97 27.99, 282.58 0.51 M227.47 63.91 C247.98 42.56, 267.52 20.11, 282.58 0.51 M232.46 64.27 C244.33 49.76, 258.31 36.58, 287.56 0.87 M232.46 64.27 C247.43 49.17, 261.41 31.31, 287.56 0.87 M238.1 63.87 C250.51 50.68, 264.49 36.53, 293.21 0.48 M238.1 63.87 C250.64 48.64, 264.3 33.37, 293.21 0.48 M243.09 64.23 C258.1 45.19, 274.11 29.39, 298.19 0.84 M243.09 64.23 C263.78 40.89, 284.57 16.65, 298.19 0.84 M248.73 63.84 C260.87 50.33, 276.2 32.8, 303.84 0.44 M248.73 63.84 C267.66 42.92, 286.11 21.71, 303.84 0.44 M253.72 64.2 C271.46 44.22, 287.28 28.32, 308.82 0.8 M253.72 64.2 C271.89 43.41, 288.39 22.88, 308.82 0.8 M259.36 63.81 C278.78 41.02, 301.47 16.36, 314.47 0.41 M259.36 63.81 C274.52 44.02, 291.81 25.92, 314.47 0.41 M264.35 64.17 C283.01 42.26, 306.16 16.94, 319.45 0.77 M264.35 64.17 C278.41 49.14, 290.87 32.69, 319.45 0.77 M269.99 63.77 C291.95 37.78, 311.17 15.9, 325.1 0.38 M269.99 63.77 C284.42 45.34, 301.13 28.3, 325.1 0.38 M274.98 64.13 C293.68 44.64, 313.07 23.21, 330.08 0.74 M274.98 64.13 C290 47.38, 303.57 30.06, 330.08 0.74 M280.62 63.74 C291.48 49.11, 302.83 36.32, 335.73 0.34 M280.62 63.74 C300.2 41.03, 319.39 18.64, 335.73 0.34 M285.61 64.1 C302.82 46.09, 321.58 24.88, 340.71 0.7 M285.61 64.1 C306.9 41.01, 326.06 17.63, 340.71 0.7 M291.25 63.7 C305.6 48.03, 317.41 33.11, 346.36 0.31 M291.25 63.7 C310.36 42.73, 326.59 23.64, 346.36 0.31 M296.24 64.06 C309.52 50.87, 320.68 35.67, 351.34 0.67 M296.24 64.06 C313.06 46.68, 328.18 26.92, 351.34 0.67 M301.22 64.42 C319.73 42.69, 340.22 18.36, 356.33 1.03 M301.22 64.42 C315.68 48.26, 331.02 31.58, 356.33 1.03 M306.87 64.03 C319.92 46.33, 334.64 33.41, 360.01 2.9 M306.87 64.03 C317.38 50, 329.83 37.89, 360.01 2.9 M311.85 64.39 C333.79 41.94, 353.97 17.76, 363.68 4.77 M311.85 64.39 C332.08 41.8, 351.93 20.56, 363.68 4.77 M317.5 63.99 C331.92 50.77, 344.6 33.54, 366.04 8.14 M317.5 63.99 C332.94 47.14, 348.21 27.99, 366.04 8.14 M322.48 64.35 C334.42 50.42, 350.26 34.13, 366.44 13.79 M322.48 64.35 C340.32 44.94, 356.02 25.48, 366.44 13.79 M328.13 63.96 C339.08 49.3, 350.81 36.22, 366.83 19.43 M328.13 63.96 C342.16 46.17, 358.61 29.09, 366.83 19.43 M333.11 64.32 C338.82 56.27, 347.02 47.77, 366.57 25.83 M333.11 64.32 C343.3 51.77, 353.4 41.4, 366.57 25.83 M338.76 63.92 C346.5 54.84, 353.64 46.27, 366.97 31.47 M338.76 63.92 C344.84 55.64, 353.75 48.2, 366.97 31.47 M343.74 64.28 C351.69 54.78, 362.53 42.2, 366.71 37.87 M343.74 64.28 C348.95 57.22, 355.2 49.74, 366.71 37.87 M349.39 63.89 C354.86 57.3, 361.97 50.9, 367.1 43.51 M349.39 63.89 C355.15 58.46, 360.3 52.29, 367.1 43.51 M355.03 63.5 C358.84 59.57, 359.25 59.01, 367.49 49.16 M355.03 63.5 C358.4 59.33, 363.17 54.8, 367.49 49.16" stroke="#ffec99" stroke-width="0.5" fill="none"></path><path d="M15.88 0 C93.1 0.07, 172.61 -1.95, 351.32 0 M351.32 0 C362.27 1.05, 367.34 5.76, 367.2 15.88 M367.2 15.88 C365.71 27.55, 367.32 41.71, 367.2 47.64 M367.2 47.64 C367.2 59.51, 360.61 63.19, 351.32 63.52 M351.32 63.52 C223.97 60.96, 95.28 61.39, 15.88 63.52 M15.88 63.52 C5.83 64.09, 0.47 59.49, 0 47.64 M0 47.64 C0.52 37.47, -0.85 25.94, 0 15.88 M0 15.88 C0.85 6.31, 6.42 0.14, 15.88 0" stroke="#e03131" stroke-width="1.5" fill="none" stroke-dasharray="8 9"></path></g><g transform="translate(1075.0572911073448 505.7140251880369) rotate(0 164.64999389648438 24.954196963932986)"><text x="0" y="34.9758024646485" font-family="Virgil, Segoe UI Emoji" font-size="39.926715142292814px" fill="#1e1e1e" text-anchor="start" style="white-space: pre;" direction="ltr" dominant-baseline="alphabetic">purchasingSystem</text></g><g stroke-linecap="round" transform="translate(1073.7594445187494 294.1633026402924) rotate(0 169.15267700410504 31.75980392156862)"><path d="M4.23 3.67 C4.23 3.67, 4.23 3.67, 4.23 3.67 M4.23 3.67 C4.23 3.67, 4.23 3.67, 4.23 3.67 M1.34 13.09 C2.91 10.11, 7.53 8.34, 11.84 1.02 M1.34 13.09 C3.33 10.11, 6.02 7.43, 11.84 1.02 M0.42 20.24 C3.62 13.94, 9.59 6.41, 17.48 0.62 M0.42 20.24 C5.92 15.09, 10.75 9.39, 17.48 0.62 M0.16 26.64 C6.12 18.58, 14.16 8.43, 23.12 0.23 M0.16 26.64 C7.22 18.73, 14.18 12.05, 23.12 0.23 M0.56 32.28 C12.13 21.23, 20.18 8.53, 28.11 0.59 M0.56 32.28 C9.89 21.55, 18.07 10.78, 28.11 0.59 M0.95 37.93 C10.89 25.64, 24.71 9.78, 33.75 0.19 M0.95 37.93 C7.87 31.34, 14.45 23.47, 33.75 0.19 M0.69 44.33 C6.92 37.1, 17.66 28.37, 38.74 0.55 M0.69 44.33 C11.37 31.85, 22.41 20.29, 38.74 0.55 M1.08 49.97 C14.78 31.94, 28.81 15.4, 44.38 0.16 M1.08 49.97 C17.01 30.19, 33.53 12.42, 44.38 0.16 M1.48 55.61 C15.32 37.05, 32.64 20.57, 49.37 0.52 M1.48 55.61 C12.36 43.57, 21.1 31.35, 49.37 0.52 M3.84 58.99 C22.16 36.56, 40.54 15.48, 55.01 0.12 M3.84 58.99 C19.21 41.71, 34.01 25.81, 55.01 0.12 M6.86 61.61 C22.29 42.99, 40.01 20.7, 60 0.48 M6.86 61.61 C21.69 45.02, 37.26 26.39, 60 0.48 M10.54 63.48 C22.19 51, 30.5 38.91, 65.64 0.09 M10.54 63.48 C21.59 49.85, 32.95 37.59, 65.64 0.09 M15.52 63.84 C37.11 41.27, 57.41 15.14, 70.63 0.45 M15.52 63.84 C34.84 40.6, 54.65 17.61, 70.63 0.45 M20.51 64.2 C37.58 47.78, 51.56 30.12, 75.62 0.81 M20.51 64.2 C36.15 45.18, 52.4 26.17, 75.62 0.81 M26.15 63.81 C36.03 48.28, 47.93 36.54, 81.26 0.41 M26.15 63.81 C45.5 40.04, 67.24 16.49, 81.26 0.41 M31.14 64.17 C44.95 48.7, 57.51 29.53, 86.25 0.77 M31.14 64.17 C48.96 45.21, 65.49 25.16, 86.25 0.77 M36.78 63.78 C54.82 42.62, 75.97 19.92, 91.89 0.38 M36.78 63.78 C57.52 39.52, 79.17 15.68, 91.89 0.38 M41.77 64.14 C64.38 38.2, 85.26 15.86, 96.88 0.74 M41.77 64.14 C59.37 45.11, 75.18 27.15, 96.88 0.74 M47.41 63.74 C63.39 42.11, 83.06 24.59, 102.52 0.35 M47.41 63.74 C63.06 44.46, 79.11 26.23, 102.52 0.35 M52.4 64.1 C64.09 50.71, 73.43 38.3, 107.51 0.71 M52.4 64.1 C69.84 44.27, 86.54 23.91, 107.51 0.71 M58.04 63.71 C77.11 39.83, 97.58 17.68, 113.15 0.31 M58.04 63.71 C78.19 41.3, 98.05 18.99, 113.15 0.31 M63.03 64.07 C74.5 49.48, 89.93 35.51, 118.14 0.67 M63.03 64.07 C77.79 47.56, 93.21 30.05, 118.14 0.67 M68.67 63.67 C82.14 52.25, 92.48 36.65, 123.78 0.28 M68.67 63.67 C82.81 47.64, 97.5 31.83, 123.78 0.28 M73.66 64.03 C87 49.58, 101.15 30.51, 128.77 0.64 M73.66 64.03 C91.55 43.96, 107.82 24.59, 128.77 0.64 M79.3 63.64 C94.13 46.7, 107.54 30.37, 134.41 0.24 M79.3 63.64 C91.72 46.96, 105.31 32.68, 134.41 0.24 M84.29 64 C97.82 48.55, 113.38 28.11, 139.4 0.6 M84.29 64 C97.43 49.48, 109.48 33.62, 139.4 0.6 M89.93 63.6 C103.04 49.89, 115.61 38.72, 145.04 0.21 M89.93 63.6 C111.41 39.18, 133.79 14.35, 145.04 0.21 M94.92 63.96 C115.84 43.23, 135.13 18.26, 150.03 0.57 M94.92 63.96 C109.65 47.8, 124.36 30.5, 150.03 0.57 M100.56 63.57 C114.76 46.95, 127.8 33.22, 155.67 0.17 M100.56 63.57 C117.1 45.29, 134.28 26.28, 155.67 0.17 M105.55 63.93 C125.12 45.17, 143.13 22.31, 160.66 0.53 M105.55 63.93 C121.65 45.41, 138.41 25.45, 160.66 0.53 M110.54 64.29 C131.37 42.23, 151.21 18.21, 165.65 0.89 M110.54 64.29 C124.4 47.46, 137.34 32.86, 165.65 0.89 M116.18 63.89 C133.42 43.46, 154.38 20.28, 171.29 0.5 M116.18 63.89 C129.54 48.91, 141.23 35.76, 171.29 0.5 M121.17 64.25 C140.34 42.94, 160.62 20.84, 176.28 0.86 M121.17 64.25 C134.44 49.49, 146.4 34.97, 176.28 0.86 M126.81 63.86 C146.01 42.98, 160.43 24.72, 181.92 0.46 M126.81 63.86 C139.64 48.62, 154.34 32.43, 181.92 0.46 M131.8 64.22 C143.74 49.44, 155.22 37.65, 186.91 0.82 M131.8 64.22 C148.52 45.47, 164.88 27.62, 186.91 0.82 M137.44 63.82 C153.02 46.85, 163.26 32.17, 192.55 0.43 M137.44 63.82 C155.22 44, 172.17 23.31, 192.55 0.43 M142.43 64.18 C156.8 49.56, 170.69 30.53, 197.54 0.79 M142.43 64.18 C154.2 50.68, 167.72 35.79, 197.54 0.79 M148.07 63.79 C164.36 44.62, 183.67 25, 203.18 0.39 M148.07 63.79 C166.47 44.11, 183.69 23.12, 203.18 0.39 M153.06 64.15 C167 46.92, 180.75 32.13, 208.17 0.75 M153.06 64.15 C167.74 47.45, 180.46 32.05, 208.17 0.75 M158.7 63.76 C176.53 40.3, 196.63 19.21, 213.81 0.36 M158.7 63.76 C176.52 43.8, 194.87 20.74, 213.81 0.36 M163.69 64.12 C181.09 47.14, 193.67 31.02, 218.8 0.72 M163.69 64.12 C182.47 43.83, 200.98 21.51, 218.8 0.72 M169.33 63.72 C182.59 47.26, 197.66 32.16, 224.44 0.33 M169.33 63.72 C184.74 47.01, 199.48 27.44, 224.44 0.33 M174.32 64.08 C189.55 48.1, 205.3 29.6, 229.43 0.69 M174.32 64.08 C191.89 45.71, 208.15 25.59, 229.43 0.69 M179.96 63.69 C198.51 41.5, 216.85 24.3, 235.07 0.29 M179.96 63.69 C198.14 41.96, 217.03 21.12, 235.07 0.29 M184.95 64.05 C200.39 46.75, 217.28 27.94, 240.06 0.65 M184.95 64.05 C201.82 42.81, 219.5 24.41, 240.06 0.65 M190.59 63.65 C206.64 48.2, 221.62 27.34, 245.7 0.26 M190.59 63.65 C206.95 43.06, 224.79 23.85, 245.7 0.26 M195.58 64.01 C207.9 48.32, 221.35 35.96, 250.69 0.62 M195.58 64.01 C214.06 42, 235.36 19.68, 250.69 0.62 M200.57 64.37 C215.42 43.01, 233.29 27.68, 256.33 0.22 M200.57 64.37 C215.85 47.13, 230.73 30.24, 256.33 0.22 M206.21 63.98 C221.62 43.99, 239.84 27.48, 261.32 0.58 M206.21 63.98 C226.7 40.98, 246.66 16.16, 261.32 0.58 M211.2 64.34 C230.9 40.04, 255.05 15.79, 266.3 0.94 M211.2 64.34 C228.76 44.6, 245.96 25.97, 266.3 0.94 M216.84 63.94 C238.56 41.23, 259.31 18.83, 271.95 0.55 M216.84 63.94 C235.74 42.98, 254.07 19.91, 271.95 0.55 M221.83 64.3 C244.16 37.89, 262.85 15.76, 276.93 0.91 M221.83 64.3 C240.32 41.24, 261.38 18.54, 276.93 0.91 M227.47 63.91 C240.75 50.81, 252.62 36.95, 282.58 0.51 M227.47 63.91 C248.84 39.57, 269.23 14.89, 282.58 0.51 M232.46 64.27 C253.55 42.17, 270.17 18.95, 287.56 0.87 M232.46 64.27 C245.14 50.4, 256.75 37.14, 287.56 0.87 M238.1 63.87 C254.08 46.17, 268.39 30.31, 293.21 0.48 M238.1 63.87 C253.74 47.05, 269.66 28.89, 293.21 0.48 M243.09 64.23 C265.4 38.26, 288.23 14.08, 298.19 0.84 M243.09 64.23 C258.64 45.05, 274.93 27.36, 298.19 0.84 M248.73 63.84 C264.53 43.24, 283.57 27.16, 303.84 0.44 M248.73 63.84 C267.13 42.48, 285.22 22.66, 303.84 0.44 M253.72 64.2 C268.33 48.04, 280.57 31.75, 308.82 0.8 M253.72 64.2 C269.21 46.38, 284.26 30.38, 308.82 0.8 M259.36 63.81 C274.49 45.24, 289.31 31.3, 314.47 0.41 M259.36 63.81 C274.74 44.72, 291.56 26.56, 314.47 0.41 M264.35 64.17 C278.36 48.47, 292.76 29.39, 319.45 0.77 M264.35 64.17 C276.66 47.42, 291.59 32.84, 319.45 0.77 M269.99 63.77 C285.27 42.77, 304.01 24.47, 325.1 0.38 M269.99 63.77 C281.73 49.2, 296.1 34.35, 325.1 0.38 M274.98 64.13 C289.34 48.06, 302.99 30.3, 329.43 1.49 M274.98 64.13 C296.33 38.96, 317.64 16.12, 329.43 1.49 M280.62 63.74 C300.75 39.13, 319.49 19.84, 333.1 3.36 M280.62 63.74 C296.88 43.45, 314.89 24.7, 333.1 3.36 M285.61 64.1 C299.89 47.27, 314.27 31.47, 336.12 5.98 M285.61 64.1 C299.13 49.09, 312.54 34.11, 336.12 5.98 M290.59 64.46 C307.92 47.82, 320.89 26.94, 337.17 10.87 M290.59 64.46 C300.02 51.71, 310.77 40.78, 337.17 10.87 M296.24 64.06 C308.55 46.7, 324.82 30.91, 337.57 16.52 M296.24 64.06 C309.75 49.08, 323.47 31.38, 337.57 16.52 M301.22 64.42 C313.79 49.37, 326.79 35.09, 337.96 22.16 M301.22 64.42 C310.03 53.74, 320.39 43.52, 337.96 22.16 M306.87 64.03 C320.55 48.88, 332.61 36.19, 337.7 28.56 M306.87 64.03 C315.07 54.53, 322.87 45.63, 337.7 28.56 M311.85 64.39 C319.53 56.01, 325.28 51.34, 338.1 34.2 M311.85 64.39 C319.56 55.6, 327.08 48.68, 338.1 34.2 M317.5 63.99 C326.24 57.65, 331.94 48.57, 337.83 40.6 M317.5 63.99 C325.43 55.38, 333.04 46.34, 337.83 40.6 M323.14 63.6 C328.53 59.02, 331.5 55.24, 338.23 46.24 M323.14 63.6 C329.47 55.94, 334.08 49.6, 338.23 46.24 M328.78 63.2 C332.65 60.15, 336.91 56.26, 338.62 51.88 M328.78 63.2 C330.91 61.03, 332.86 57.55, 338.62 51.88" stroke="#ffec99" stroke-width="0.5" fill="none"></path><path d="M15.88 0 C125.42 2.44, 233.8 0.47, 322.43 0 M322.43 0 C333.6 -1.64, 337.84 4.45, 338.31 15.88 M338.31 15.88 C337.77 24.99, 338.51 28.53, 338.31 47.64 M338.31 47.64 C337.48 60.18, 332.17 62.12, 322.43 63.52 M322.43 63.52 C209.82 63.98, 99.89 63.87, 15.88 63.52 M15.88 63.52 C6.55 65.15, -0.48 57.66, 0 47.64 M0 47.64 C-0.33 36.87, -0.97 29.07, 0 15.88 M0 15.88 C-0.11 4.35, 6.95 -1.78, 15.88 0" stroke="#e03131" stroke-width="1.5" fill="none" stroke-dasharray="8 9"></path></g><g transform="translate(1093.0840181654974 303.1208589316868) rotate(0 152.41452026367188 24.954196963932986)"><text x="0" y="34.9758024646485" font-family="Virgil, Segoe UI Emoji" font-size="39.926715142292814px" fill="#1e1e1e" text-anchor="start" style="white-space: pre;" direction="ltr" dominant-baseline="alphabetic">shoppingStorage</text></g><g stroke-linecap="round" transform="translate(1273.6048461760208 133.46409008738271) rotate(0 189.6205054125353 31.75980392156862)"><path d="M4.23 3.67 C4.23 3.67, 4.23 3.67, 4.23 3.67 M4.23 3.67 C4.23 3.67, 4.23 3.67, 4.23 3.67 M1.34 13.09 C3.64 9.55, 7.47 6.33, 11.84 1.02 M1.34 13.09 C4.85 8.39, 8.21 3.73, 11.84 1.02 M0.42 20.24 C3.34 14.61, 8.11 11.43, 17.48 0.62 M0.42 20.24 C6.61 14.08, 10.72 7.32, 17.48 0.62 M0.16 26.64 C7.2 18.06, 10.61 13.56, 23.12 0.23 M0.16 26.64 C5.48 21.37, 10.03 14.45, 23.12 0.23 M0.56 32.28 C7.05 25.52, 12.9 17.32, 28.11 0.59 M0.56 32.28 C6.44 23.3, 14.09 15.54, 28.11 0.59 M0.95 37.93 C15.44 24.69, 26.35 9.58, 33.75 0.19 M0.95 37.93 C12.42 25.06, 22.44 13.25, 33.75 0.19 M0.69 44.33 C17.56 25.81, 32.71 10.16, 38.74 0.55 M0.69 44.33 C15.25 26.25, 30.2 9.08, 38.74 0.55 M1.08 49.97 C17.83 32.58, 36.25 13.22, 44.38 0.16 M1.08 49.97 C16.9 32.36, 33.3 13.37, 44.38 0.16 M1.48 55.61 C17.74 37.92, 32.16 19.22, 49.37 0.52 M1.48 55.61 C15.4 38.91, 30.75 21.65, 49.37 0.52 M3.84 58.99 C15.7 45.08, 27.04 34.01, 55.01 0.12 M3.84 58.99 C18.74 43.61, 32.3 27.31, 55.01 0.12 M6.86 61.61 C26.1 40.42, 47.7 17.81, 60 0.48 M6.86 61.61 C24.42 43.1, 41.21 22.13, 60 0.48 M10.54 63.48 C23.98 46.25, 39.78 33.45, 65.64 0.09 M10.54 63.48 C22.56 50.81, 34.7 36.1, 65.64 0.09 M15.52 63.84 C30.45 49.78, 44.05 34.17, 70.63 0.45 M15.52 63.84 C27.06 49.34, 38.29 37.41, 70.63 0.45 M20.51 64.2 C38.16 39.95, 59.98 20.88, 75.62 0.81 M20.51 64.2 C34.72 46.44, 49.52 29.38, 75.62 0.81 M26.15 63.81 C47.19 38.23, 67.46 13.57, 81.26 0.41 M26.15 63.81 C43.84 41.4, 63.29 20.14, 81.26 0.41 M31.14 64.17 C54.93 37.17, 77.26 13.7, 86.25 0.77 M31.14 64.17 C46.3 47.93, 59.43 31.18, 86.25 0.77 M36.78 63.78 C55.62 40.11, 74.26 19.22, 91.89 0.38 M36.78 63.78 C54.26 42.83, 70.19 23.51, 91.89 0.38 M41.77 64.14 C60.63 42.08, 78.36 22.87, 96.88 0.74 M41.77 64.14 C55.39 48, 71.12 29.47, 96.88 0.74 M47.41 63.74 C62.61 45.81, 79.46 26.88, 102.52 0.35 M47.41 63.74 C64.22 43.85, 81.35 24.41, 102.52 0.35 M52.4 64.1 C64.19 49.13, 79.81 32.36, 107.51 0.71 M52.4 64.1 C70.72 43.37, 89.88 21.02, 107.51 0.71 M58.04 63.71 C71.47 50.93, 81.23 35.32, 113.15 0.31 M58.04 63.71 C75.36 45.11, 93.38 25.33, 113.15 0.31 M63.03 64.07 C75.7 50.86, 88.54 36.34, 118.14 0.67 M63.03 64.07 C73.61 50.28, 86.57 37.46, 118.14 0.67 M68.67 63.67 C90 40.76, 111.98 18.08, 123.78 0.28 M68.67 63.67 C88.45 40.19, 107.49 18.01, 123.78 0.28 M73.66 64.03 C89.99 46.42, 104.47 31.02, 128.77 0.64 M73.66 64.03 C88.35 46.11, 105.14 27.63, 128.77 0.64 M79.3 63.64 C95.72 47.2, 107.47 27.1, 134.41 0.24 M79.3 63.64 C92.69 47.53, 105.86 32.19, 134.41 0.24 M84.29 64 C101.58 47.97, 116.42 29.71, 139.4 0.6 M84.29 64 C103.4 41.96, 124.64 18.9, 139.4 0.6 M89.93 63.6 C103.69 48.65, 111.88 35.9, 145.04 0.21 M89.93 63.6 C101.94 50.9, 112.86 35.99, 145.04 0.21 M94.92 63.96 C117.86 39.77, 137.33 16.58, 150.03 0.57 M94.92 63.96 C109.31 48.16, 123.23 31.89, 150.03 0.57 M100.56 63.57 C122.69 37.88, 145.78 14.09, 155.67 0.17 M100.56 63.57 C116.29 43.88, 133.62 24.37, 155.67 0.17 M105.55 63.93 C124.53 44.89, 140.65 23.4, 160.66 0.53 M105.55 63.93 C125.66 41.57, 145.18 18.47, 160.66 0.53 M110.54 64.29 C130.77 40.52, 152.96 15.68, 166.3 0.14 M110.54 64.29 C129.18 41.2, 149.3 20.33, 166.3 0.14 M116.18 63.89 C134.96 42.53, 153.8 20.09, 171.29 0.5 M116.18 63.89 C135.13 42.29, 152.79 20.55, 171.29 0.5 M121.17 64.25 C138.78 46.52, 152.75 23.89, 176.28 0.86 M121.17 64.25 C132.94 51.05, 144.58 35.75, 176.28 0.86 M126.81 63.86 C139.58 47.79, 155.44 33.31, 181.92 0.46 M126.81 63.86 C148.34 39.65, 169.38 15.97, 181.92 0.46 M131.8 64.22 C152.53 41.11, 170.76 16.53, 186.91 0.82 M131.8 64.22 C152.36 40.52, 174.55 16.19, 186.91 0.82 M137.44 63.82 C155.24 42.08, 176.92 18.06, 192.55 0.43 M137.44 63.82 C159.03 39.98, 180.4 14.98, 192.55 0.43 M142.43 64.18 C162.01 39.43, 184.43 17.65, 197.54 0.79 M142.43 64.18 C158.39 46.35, 175.95 25.74, 197.54 0.79 M148.07 63.79 C168.63 40.1, 190.62 16.12, 203.18 0.39 M148.07 63.79 C168.69 41.28, 188 17.59, 203.18 0.39 M153.06 64.15 C167.63 48.23, 179.61 31.68, 208.17 0.75 M153.06 64.15 C166.68 45.9, 182.05 30.54, 208.17 0.75 M158.7 63.76 C174 45.77, 191.76 25.2, 213.81 0.36 M158.7 63.76 C169.66 50.57, 183.28 35.54, 213.81 0.36 M163.69 64.12 C177.16 46.14, 190.28 31.32, 218.8 0.72 M163.69 64.12 C183.31 39.64, 205.06 16.89, 218.8 0.72 M169.33 63.72 C187.56 45.55, 204.72 24.33, 224.44 0.33 M169.33 63.72 C189.52 39.6, 209.57 16.04, 224.44 0.33 M174.32 64.08 C194.26 39.93, 214.05 15.89, 229.43 0.69 M174.32 64.08 C192.92 42.96, 211.2 21.8, 229.43 0.69 M179.96 63.69 C197.07 46.95, 211.69 26.35, 235.07 0.29 M179.96 63.69 C200.44 40.72, 222.78 16.37, 235.07 0.29 M184.95 64.05 C205.08 39.38, 226.71 14.14, 240.06 0.65 M184.95 64.05 C198.95 48.1, 213.06 32.18, 240.06 0.65 M190.59 63.65 C205.92 46.26, 221.72 27.64, 245.7 0.26 M190.59 63.65 C206.01 47.75, 219.26 31.95, 245.7 0.26 M195.58 64.01 C214.06 39.3, 235.07 16.25, 250.69 0.62 M195.58 64.01 C209.4 48.02, 223.3 32.04, 250.69 0.62 M200.57 64.37 C214.13 48.67, 229.88 29.36, 256.33 0.22 M200.57 64.37 C220.15 40.6, 241.99 17.42, 256.33 0.22 M206.21 63.98 C223.08 44.82, 242.18 20.5, 261.32 0.58 M206.21 63.98 C220.54 47.61, 235.38 30.46, 261.32 0.58 M211.2 64.34 C231.85 37.57, 255.94 14.46, 266.3 0.94 M211.2 64.34 C231.41 41.07, 252.56 17.21, 266.3 0.94 M216.84 63.94 C230.28 48.55, 246.02 30.41, 271.95 0.55 M216.84 63.94 C229.43 50.52, 241.02 35.59, 271.95 0.55 M221.83 64.3 C236.9 47.15, 251.57 28.89, 276.93 0.91 M221.83 64.3 C234.91 48.56, 248.65 33.06, 276.93 0.91 M227.47 63.91 C239.57 48.76, 256.12 32.25, 282.58 0.51 M227.47 63.91 C243.23 44.55, 260.6 25.57, 282.58 0.51 M232.46 64.27 C251.49 42.35, 272.43 18.92, 287.56 0.87 M232.46 64.27 C246.04 47.58, 261.27 30.31, 287.56 0.87 M238.1 63.87 C257.81 40.96, 275.68 19.28, 293.21 0.48 M238.1 63.87 C251.29 50.22, 264.17 34.94, 293.21 0.48 M243.09 64.23 C262.3 41.23, 283 17.84, 298.19 0.84 M243.09 64.23 C254.72 49.38, 268.15 36.89, 298.19 0.84 M248.73 63.84 C266.33 41.93, 286.06 16.47, 303.84 0.44 M248.73 63.84 C270.61 38.46, 291.98 15.06, 303.84 0.44 M253.72 64.2 C267.39 50.61, 278.38 38.46, 308.82 0.8 M253.72 64.2 C265.07 50.68, 277.3 37.57, 308.82 0.8 M259.36 63.81 C272.23 48.98, 284.18 38.45, 314.47 0.41 M259.36 63.81 C278.64 39.14, 300.2 15.33, 314.47 0.41 M264.35 64.17 C279.22 48.73, 294.39 31.08, 319.45 0.77 M264.35 64.17 C277.91 48.94, 291.4 32.61, 319.45 0.77 M269.99 63.77 C288.12 40.88, 308.21 16.96, 325.1 0.38 M269.99 63.77 C289.94 41.2, 308.68 18.59, 325.1 0.38 M274.98 64.13 C294.84 42.01, 314.57 19.63, 330.08 0.74 M274.98 64.13 C288.19 48.45, 301.32 33.84, 330.08 0.74 M280.62 63.74 C292.76 49, 306.15 33.57, 335.73 0.34 M280.62 63.74 C298.83 42.93, 317.5 22.14, 335.73 0.34 M285.61 64.1 C303.85 42.76, 319.28 21.37, 340.71 0.7 M285.61 64.1 C297.52 49.79, 309.58 37.45, 340.71 0.7 M291.25 63.7 C310.03 41.24, 331.91 16.03, 346.36 0.31 M291.25 63.7 C307.44 42.64, 326.1 23.68, 346.36 0.31 M296.24 64.06 C312.32 48.06, 328.58 29.05, 351.34 0.67 M296.24 64.06 C313.76 43.23, 331.96 23.4, 351.34 0.67 M301.22 64.42 C317.68 45.56, 329.13 29.14, 356.99 0.27 M301.22 64.42 C319.49 44.24, 335.22 24.68, 356.99 0.27 M306.87 64.03 C328.13 42.25, 344.63 18.14, 361.98 0.63 M306.87 64.03 C328.83 40.04, 349.31 14.04, 361.98 0.63 M311.85 64.39 C330.31 42.48, 351.62 21.12, 367.62 0.24 M311.85 64.39 C332.12 40.75, 351.94 16.82, 367.62 0.24 M317.5 63.99 C337.08 42.51, 353.19 22.21, 371.29 2.11 M317.5 63.99 C338.35 40.67, 360.71 15.59, 371.29 2.11 M322.48 64.35 C333.55 52.98, 342.47 41.64, 374.97 3.98 M322.48 64.35 C338.29 46.01, 353.18 28.23, 374.97 3.98 M328.13 63.96 C340.72 52.12, 351.48 39.26, 377.33 7.36 M328.13 63.96 C347.15 41.24, 365.25 20.23, 377.33 7.36 M333.11 64.32 C349.77 47.14, 362.8 28.47, 378.38 12.24 M333.11 64.32 C348.4 45.1, 365.1 27.04, 378.38 12.24 M338.76 63.92 C351.44 49.44, 364.96 35.21, 378.78 17.89 M338.76 63.92 C351.7 48.56, 366.56 32.54, 378.78 17.89 M343.74 64.28 C351.43 55.08, 360.53 46.7, 378.51 24.28 M343.74 64.28 C357.25 47.94, 370.29 33.36, 378.51 24.28 M349.39 63.89 C357.11 53.91, 363.19 44.24, 378.91 29.93 M349.39 63.89 C359.83 52.44, 368.8 41.99, 378.91 29.93 M354.37 64.25 C360.07 58.66, 367.43 51.66, 378.65 36.33 M354.37 64.25 C359.76 56.32, 366.9 48.76, 378.65 36.33 M360.02 63.86 C364.4 59.91, 368.27 54.79, 379.04 41.97 M360.02 63.86 C366.88 54.76, 374.64 48.07, 379.04 41.97 M365.66 63.46 C369.26 59.91, 373.69 52.04, 379.44 47.61 M365.66 63.46 C369.92 58.72, 373.53 54.52, 379.44 47.61 M373.27 60.8 C374.97 59.28, 375.69 58.87, 378.52 54.76 M373.27 60.8 C374.88 58.21, 376.56 56.26, 378.52 54.76" stroke="#ffec99" stroke-width="0.5" fill="none"></path><path d="M15.88 0 C105.47 0.05, 196.12 0.78, 363.36 0 M363.36 0 C375.54 0.73, 380.02 5.58, 379.24 15.88 M379.24 15.88 C378.56 25.47, 377.79 34.03, 379.24 47.64 M379.24 47.64 C378.03 57.58, 373.19 63.72, 363.36 63.52 M363.36 63.52 C245.74 65.05, 127.84 64.62, 15.88 63.52 M15.88 63.52 C4.44 62.12, 0.67 59.03, 0 47.64 M0 47.64 C0.68 37.59, -1.35 30.52, 0 15.88 M0 15.88 C-0.65 3.66, 3.42 -1.32, 15.88 0" stroke="#e03131" stroke-width="1.5" fill="none" stroke-dasharray="8 9"></path></g><g transform="translate(1306.907970337468 137.3118221354489) rotate(0 162.7537841796875 24.954196963932986)"><text x="0" y="34.9758024646485" font-family="Virgil, Segoe UI Emoji" font-size="39.926715142292814px" fill="#1e1e1e" text-anchor="start" style="white-space: pre;" direction="ltr" dominant-baseline="alphabetic">paymentGateway</text></g><g stroke-linecap="round" transform="translate(615.1970104612167 289.86480907132363) rotate(88.47122846222737 14.946475138778169 21.58935297823524)"><path d="M18.75 5.5 C21.09 10.52, 22.45 11.62, 26.14 16.5 C29.26 25.21, 31.34 19.63, 26.14 27.5 C24.16 30.83, 21.28 34.21, 18.75 37.68 C18.37 43.38, 13.03 44.43, 11.25 37.68 C6.81 31.82, 4.52 31.99, 3.75 27.5 C2.43 21.53, -0.72 23.98, 3.75 16.5 C5.39 11.73, 9.12 6.86, 11.25 5.5 C15.02 1.93, 17.21 3.2, 18.75 5.5" stroke="none" stroke-width="0" fill="#1e1e1e"></path><path d="M18.75 5.5 C20.56 9.1, 22.72 10.3, 26.14 16.5 M18.75 5.5 C21.86 9.72, 23.58 12.74, 26.14 16.5 M26.14 16.5 C31.15 20.64, 29.62 23.37, 26.14 27.5 M26.14 16.5 C27.7 23.1, 31.71 22.09, 26.14 27.5 M26.14 27.5 C22.78 29.52, 22.93 32.66, 18.75 37.68 M26.14 27.5 C24.4 30.9, 21.01 33.55, 18.75 37.68 M18.75 37.68 C14.9 43.75, 15.29 43.35, 11.25 37.68 M18.75 37.68 C16.3 43.09, 15.67 43.8, 11.25 37.68 M11.25 37.68 C10.05 35.01, 6.72 33.52, 3.75 27.5 M11.25 37.68 C8.95 35.12, 7.55 33.36, 3.75 27.5 M3.75 27.5 C-1.77 22.86, 0.67 21.79, 3.75 16.5 M3.75 27.5 C-1.73 21.34, -2.28 20.05, 3.75 16.5 M3.75 16.5 C4.61 12.89, 7.85 10.46, 11.25 5.5 M3.75 16.5 C5.97 14.29, 6.88 12.23, 11.25 5.5 M11.25 5.5 C14.51 0.66, 14.82 -1.12, 18.75 5.5 M11.25 5.5 C17.22 -0.52, 16.69 0.98, 18.75 5.5" stroke="#1e1e1e" stroke-width="2" fill="none"></path></g><g stroke-linecap="round" transform="translate(1235.1785157456695 453.1143883250925) rotate(180 14.946475138778169 21.589352978235297)"><path d="M18.75 5.5 C19.12 7.7, 21.9 12.49, 26.14 16.5 C29.54 24.11, 32.88 21.37, 26.14 27.5 C22.39 32.73, 22.76 32.53, 18.75 37.68 C11.63 40.51, 15.22 42.45, 11.25 37.68 C10.99 33.87, 7.43 33.93, 3.75 27.5 C-1.62 25.57, -1.78 18.75, 3.75 16.5 C6.81 13.97, 10.31 7.63, 11.25 5.5 C18.49 3.26, 13.46 -1.94, 18.75 5.5" stroke="none" stroke-width="0" fill="#b2f2bb"></path><path d="M18.75 5.5 C19.92 7.27, 23 9.5, 26.14 16.5 M18.75 5.5 C21.41 8.94, 24.06 12.14, 26.14 16.5 M26.14 16.5 C31.58 23.17, 30.53 20.28, 26.14 27.5 M26.14 16.5 C31.71 21.95, 29.98 21.47, 26.14 27.5 M26.14 27.5 C23.05 30.99, 21.9 34.43, 18.75 37.68 M26.14 27.5 C23.21 30.52, 20.9 34.73, 18.75 37.68 M18.75 37.68 C13.55 43.76, 14.91 44.5, 11.25 37.68 M18.75 37.68 C17.13 41.41, 15.81 44.45, 11.25 37.68 M11.25 37.68 C8.9 34.77, 6.28 31.21, 3.75 27.5 M11.25 37.68 C8.85 34.78, 6.01 31.13, 3.75 27.5 M3.75 27.5 C1.34 21.31, -1.01 22.65, 3.75 16.5 M3.75 27.5 C-0.78 23.79, -0.88 22.1, 3.75 16.5 M3.75 16.5 C7.39 11.17, 10.06 7.37, 11.25 5.5 M3.75 16.5 C5.62 13.3, 7.77 9.22, 11.25 5.5 M11.25 5.5 C15.68 -0.53, 13.76 -1.61, 18.75 5.5 M11.25 5.5 C16.22 -1.78, 13.71 2.12, 18.75 5.5" stroke="#2f9e44" stroke-width="2" fill="none"></path></g><g transform="translate(1461.6936415088069 206.89065466358204) rotate(0 -3.162710261077109 14.359431645120708)" stroke="none"><path d="M-3.57 -0.65 C-6.41 4.62, -23.46 25.16, -20.32 29.98 C-17.19 34.79, 10.99 30.85, 15.22 28.24 C19.46 25.64, 7.96 19.08, 5.1 14.35 C2.23 9.61, -0.51 2.16, -1.96 -0.17" stroke="none" stroke-width="0" fill="#ffec99" fill-rule="evenodd"></path><path fill="transparent" d="M 0.00,1.63 Q 0.00,1.63 -0.55,2.36 -1.10,3.09 -1.88,4.42 -2.65,5.75 -3.23,6.92 -3.82,8.09 -4.46,9.10 -5.10,10.11 -5.75,11.13 -6.39,12.16 -7.09,13.29 -7.78,14.41 -8.59,15.69 -9.39,16.96 -10.01,17.88 -10.64,18.81 -11.44,20.00 -12.24,21.19 -13.01,22.46 -13.78,23.72 -14.40,24.77 -15.02,25.81 -15.68,27.00 -16.34,28.19 -16.95,29.42 -17.57,30.66 -17.43,30.33 -17.30,30.01 -17.46,30.42 -17.62,30.82 -17.88,31.18 -18.13,31.54 -18.47,31.83 -18.80,32.11 -19.19,32.31 -19.58,32.51 -20.01,32.61 -20.44,32.71 -20.88,32.70 -21.32,32.69 -21.74,32.58 -22.17,32.47 -22.55,32.26 -22.94,32.05 -23.27,31.76 -23.59,31.46 -23.83,31.09 -24.08,30.73 -24.23,30.32 -24.38,29.90 -24.42,29.47 -24.47,29.03 -24.41,28.59 -24.35,28.16 -22.33,26.81 -20.30,25.47 -19.12,25.40 -17.94,25.33 -16.62,25.33 -15.30,25.32 -13.92,25.33 -12.53,25.35 -11.32,25.35 -10.11,25.36 -8.96,25.35 -7.82,25.34 -6.45,25.33 -5.07,25.33 -3.82,25.34 -2.56,25.35 -1.07,25.45 0.41,25.56 1.52,25.64 2.64,25.71 3.94,25.72 5.23,25.72 6.67,25.87 8.11,26.01 9.45,26.05 10.79,26.09 11.94,26.07 13.10,26.04 13.78,26.03 14.47,26.01 14.91,26.07 15.36,26.12 15.78,26.28 16.19,26.44 16.56,26.69 16.93,26.95 17.23,27.28 17.53,27.62 17.73,28.02 17.94,28.41 18.05,28.85 18.16,29.28 18.16,29.73 18.16,30.18 18.05,30.62 17.94,31.05 17.73,31.45 17.53,31.84 17.23,32.18 16.93,32.51 16.56,32.77 16.19,33.02 15.77,33.18 15.36,33.34 14.91,33.40 14.47,33.45 12.76,32.32 11.06,31.20 10.27,30.21 9.48,29.23 8.79,28.27 8.10,27.30 7.49,26.41 6.89,25.51 5.92,24.12 4.95,22.72 4.34,21.76 3.73,20.80 3.13,19.76 2.52,18.72 1.86,17.58 1.19,16.44 0.64,15.36 0.08,14.27 -0.58,12.88 -1.25,11.50 -1.73,10.50 -2.22,9.50 -2.68,8.49 -3.14,7.47 -3.72,6.22 -4.31,4.96 -5.33,2.25 -6.36,-0.45 -6.35,-1.06 -6.34,-1.67 -6.13,-2.24 -5.92,-2.82 -5.55,-3.30 -5.17,-3.77 -4.66,-4.11 -4.14,-4.44 -3.55,-4.59 -2.96,-4.74 -2.36,-4.70 -1.75,-4.65 -1.19,-4.41 -0.62,-4.18 -0.17,-3.77 0.28,-3.37 0.58,-2.84 0.89,-2.31 1.01,-1.72 1.13,-1.12 1.05,-0.51 0.97,0.08 0.70,0.63 0.44,1.18 0.01,1.61 -0.41,2.05 -0.95,2.32 -1.50,2.60 -2.10,2.68 -2.70,2.77 -3.30,2.66 -3.90,2.55 -4.44,2.25 -4.97,1.96 -5.38,1.51 -5.79,1.06 -6.04,0.50 -6.28,-0.05 -6.33,-0.66 -6.39,-1.27 -6.25,-1.86 -6.10,-2.45 -5.78,-2.97 -5.45,-3.48 -4.98,-3.87 -4.51,-4.25 -3.94,-4.47 -3.37,-4.68 -2.76,-4.70 -2.15,-4.73 -1.56,-4.55 -0.98,-4.38 -0.48,-4.02 0.01,-3.67 0.37,-3.18 0.72,-2.69 0.91,-2.10 1.09,-1.52 1.09,-1.52 1.09,-1.52 1.56,-0.47 2.03,0.58 2.55,1.75 3.08,2.92 3.54,3.97 3.99,5.01 4.59,6.28 5.18,7.55 5.66,8.56 6.14,9.56 6.59,10.53 7.04,11.50 7.59,12.50 8.14,13.50 8.78,14.57 9.43,15.64 10.12,16.82 10.82,17.99 11.49,18.95 12.16,19.90 12.82,20.86 13.49,21.82 14.31,23.03 15.13,24.24 15.80,25.21 16.46,26.18 17.10,27.07 17.73,27.95 16.10,26.98 14.47,26.01 14.91,26.07 15.36,26.12 15.77,26.28 16.19,26.44 16.56,26.69 16.93,26.95 17.23,27.28 17.53,27.62 17.73,28.02 17.94,28.41 18.05,28.85 18.16,29.28 18.16,29.73 18.16,30.18 18.05,30.61 17.94,31.05 17.73,31.45 17.53,31.84 17.23,32.18 16.93,32.51 16.56,32.77 16.19,33.02 15.78,33.18 15.36,33.34 14.91,33.40 14.47,33.45 13.89,33.44 13.32,33.43 12.22,33.40 11.11,33.37 10.01,33.34 8.92,33.31 7.37,33.23 5.82,33.14 4.62,33.09 3.42,33.04 1.90,32.96 0.38,32.89 -1.09,32.75 -2.56,32.61 -3.82,32.61 -5.07,32.62 -6.44,32.62 -7.82,32.62 -8.96,32.60 -10.11,32.59 -11.31,32.60 -12.52,32.61 -13.89,32.63 -15.26,32.64 -16.84,32.69 -18.41,32.73 -19.68,32.73 -20.94,32.74 -19.12,31.37 -17.30,30.01 -17.46,30.42 -17.62,30.82 -17.88,31.18 -18.13,31.54 -18.47,31.83 -18.80,32.11 -19.19,32.31 -19.58,32.51 -20.01,32.61 -20.44,32.71 -20.88,32.70 -21.32,32.69 -21.74,32.58 -22.17,32.47 -22.55,32.26 -22.94,32.05 -23.26,31.76 -23.59,31.46 -23.83,31.09 -24.08,30.73 -24.23,30.32 -24.38,29.90 -24.42,29.47 -24.47,29.03 -24.41,28.59 -24.35,28.16 -24.22,27.83 -24.09,27.50 -23.55,26.45 -23.01,25.40 -22.39,24.40 -21.77,23.41 -21.17,22.41 -20.57,21.41 -19.96,20.46 -19.35,19.51 -18.57,18.39 -17.78,17.26 -16.95,16.13 -16.11,15.00 -15.48,14.14 -14.85,13.29 -14.06,12.09 -13.28,10.90 -12.49,9.71 -11.70,8.53 -10.98,7.49 -10.25,6.45 -9.42,5.31 -8.59,4.17 -7.78,2.96 -6.97,1.75 -6.15,0.69 -5.32,-0.36 -4.71,-1.05 -4.10,-1.74 -3.87,-1.96 -3.63,-2.18 -3.36,-2.34 -3.08,-2.50 -2.77,-2.59 -2.46,-2.68 -2.14,-2.69 -1.82,-2.70 -1.51,-2.64 -1.19,-2.57 -0.90,-2.43 -0.61,-2.30 -0.37,-2.09 -0.12,-1.89 0.06,-1.63 0.26,-1.37 0.38,-1.08 0.51,-0.78 0.56,-0.47 0.61,-0.15 0.58,0.16 0.55,0.48 0.45,0.78 0.35,1.09 0.17,1.36 0.00,1.63 0.00,1.63 L 0.00,1.63 Z"></path></g><g stroke-linecap="round"><g transform="translate(1439.3764336888937 236.50652250839914) rotate(0 9.576933764967407 -14.41729696510589)"><path d="M-0.46 -0.8 C2.65 -5.65, 16.36 -25.22, 19.61 -30.22 M1.5 1.39 C4.47 -3.18, 16.43 -23.6, 19.27 -28.82" stroke="#f08c00" stroke-width="4" fill="none"></path></g></g><mask></mask><g stroke-linecap="round"><g transform="translate(1475.2146781838312 236.429375515757) rotate(0 -8.065270183931261 -15.453010179331727)"><path d="M1.16 -0.25 C-1.54 -5.23, -13.42 -25.76, -16.64 -30.66 M0.31 -1.43 C-2.46 -6.2, -14.6 -25.09, -17.29 -29.55" stroke="#f08c00" stroke-width="4" fill="none"></path></g></g><mask></mask><g stroke-linecap="round"><g transform="translate(1439.1583157398538 236.50652250839914) rotate(0 18.172525981879062 -0.22433721211507418)"><path d="M0.26 -0.38 C6.11 -0.38, 29.58 -0.11, 35.6 -0.14 M-0.26 0.62 C5.7 0.44, 30.52 -0.93, 36.61 -1.06" stroke="#f08c00" stroke-width="4" fill="none"></path></g></g><mask></mask><g transform="translate(569.3402558592804 208.81631619495693) rotate(0 -3.1627102610773363 14.359431645120708)" stroke="none"><path d="M-2.13 -0.71 C-5.31 4.42, -22.61 24.21, -20.06 29.12 C-17.51 34.03, 8.72 31.08, 13.16 28.74 C17.6 26.41, 8.99 19.91, 6.58 15.1 C4.16 10.3, 0.36 2.88, -1.34 -0.08" stroke="none" stroke-width="0" fill="#ffec99" fill-rule="evenodd"></path><path fill="transparent" d="M 0.00,1.63 Q 0.00,1.63 -0.55,2.36 -1.10,3.09 -1.88,4.42 -2.65,5.75 -3.23,6.92 -3.82,8.09 -4.46,9.10 -5.10,10.11 -5.75,11.13 -6.39,12.16 -7.09,13.29 -7.78,14.41 -8.59,15.69 -9.39,16.96 -10.01,17.88 -10.64,18.81 -11.44,20.00 -12.24,21.19 -13.01,22.46 -13.78,23.72 -14.40,24.77 -15.02,25.81 -15.68,27.00 -16.34,28.19 -16.95,29.42 -17.57,30.66 -17.43,30.33 -17.30,30.01 -17.46,30.42 -17.62,30.82 -17.88,31.18 -18.13,31.54 -18.47,31.83 -18.80,32.11 -19.19,32.31 -19.58,32.51 -20.01,32.61 -20.44,32.71 -20.88,32.70 -21.32,32.69 -21.74,32.58 -22.17,32.47 -22.55,32.26 -22.94,32.05 -23.27,31.76 -23.59,31.46 -23.83,31.09 -24.08,30.73 -24.23,30.32 -24.38,29.90 -24.42,29.47 -24.47,29.03 -24.41,28.59 -24.35,28.16 -22.33,26.81 -20.30,25.47 -19.12,25.40 -17.94,25.33 -16.62,25.33 -15.30,25.32 -13.92,25.33 -12.53,25.35 -11.32,25.35 -10.11,25.36 -8.96,25.35 -7.82,25.34 -6.45,25.33 -5.07,25.33 -3.82,25.34 -2.56,25.35 -1.07,25.45 0.41,25.56 1.52,25.64 2.64,25.71 3.94,25.72 5.23,25.72 6.67,25.87 8.11,26.01 9.45,26.05 10.79,26.09 11.94,26.07 13.10,26.04 13.78,26.03 14.47,26.01 14.91,26.07 15.36,26.12 15.78,26.28 16.19,26.44 16.56,26.69 16.93,26.95 17.23,27.28 17.53,27.62 17.73,28.02 17.94,28.41 18.05,28.85 18.16,29.28 18.16,29.73 18.16,30.18 18.05,30.62 17.94,31.05 17.73,31.45 17.53,31.84 17.23,32.18 16.93,32.51 16.56,32.77 16.19,33.02 15.77,33.18 15.36,33.34 14.91,33.40 14.47,33.45 12.76,32.32 11.06,31.20 10.27,30.21 9.48,29.23 8.79,28.27 8.10,27.30 7.49,26.41 6.89,25.51 5.92,24.12 4.95,22.72 4.34,21.76 3.73,20.80 3.13,19.76 2.52,18.72 1.86,17.58 1.19,16.44 0.64,15.36 0.08,14.27 -0.58,12.88 -1.25,11.50 -1.73,10.50 -2.22,9.50 -2.68,8.49 -3.14,7.47 -3.72,6.22 -4.31,4.96 -5.33,2.25 -6.36,-0.45 -6.35,-1.06 -6.34,-1.67 -6.13,-2.24 -5.92,-2.82 -5.55,-3.30 -5.17,-3.77 -4.66,-4.11 -4.14,-4.44 -3.55,-4.59 -2.96,-4.74 -2.36,-4.70 -1.75,-4.65 -1.19,-4.41 -0.62,-4.18 -0.17,-3.77 0.28,-3.37 0.58,-2.84 0.89,-2.31 1.01,-1.72 1.13,-1.12 1.05,-0.51 0.97,0.08 0.70,0.63 0.44,1.18 0.01,1.61 -0.41,2.05 -0.95,2.32 -1.50,2.60 -2.10,2.68 -2.70,2.77 -3.30,2.66 -3.90,2.55 -4.44,2.25 -4.97,1.96 -5.38,1.51 -5.79,1.06 -6.04,0.50 -6.28,-0.05 -6.33,-0.66 -6.39,-1.27 -6.25,-1.86 -6.10,-2.45 -5.78,-2.97 -5.45,-3.48 -4.98,-3.87 -4.51,-4.25 -3.94,-4.47 -3.37,-4.68 -2.76,-4.70 -2.15,-4.73 -1.56,-4.55 -0.98,-4.38 -0.48,-4.02 0.01,-3.67 0.37,-3.18 0.72,-2.69 0.91,-2.10 1.09,-1.52 1.09,-1.52 1.09,-1.52 1.56,-0.47 2.03,0.58 2.55,1.75 3.08,2.92 3.54,3.97 3.99,5.01 4.59,6.28 5.18,7.55 5.66,8.56 6.14,9.56 6.59,10.53 7.04,11.50 7.59,12.50 8.14,13.50 8.78,14.57 9.43,15.64 10.12,16.82 10.82,17.99 11.49,18.95 12.16,19.90 12.82,20.86 13.49,21.82 14.31,23.03 15.13,24.24 15.80,25.21 16.46,26.18 17.10,27.07 17.73,27.95 16.10,26.98 14.47,26.01 14.91,26.07 15.36,26.12 15.77,26.28 16.19,26.44 16.56,26.69 16.93,26.95 17.23,27.28 17.53,27.62 17.73,28.02 17.94,28.41 18.05,28.85 18.16,29.28 18.16,29.73 18.16,30.18 18.05,30.61 17.94,31.05 17.73,31.45 17.53,31.84 17.23,32.18 16.93,32.51 16.56,32.77 16.19,33.02 15.78,33.18 15.36,33.34 14.91,33.40 14.47,33.45 13.89,33.44 13.32,33.43 12.22,33.40 11.11,33.37 10.01,33.34 8.92,33.31 7.37,33.23 5.82,33.14 4.62,33.09 3.42,33.04 1.90,32.96 0.38,32.89 -1.09,32.75 -2.56,32.61 -3.82,32.61 -5.07,32.62 -6.44,32.62 -7.82,32.62 -8.96,32.60 -10.11,32.59 -11.31,32.60 -12.52,32.61 -13.89,32.63 -15.26,32.64 -16.84,32.69 -18.41,32.73 -19.68,32.73 -20.94,32.74 -19.12,31.37 -17.30,30.01 -17.46,30.42 -17.62,30.82 -17.88,31.18 -18.13,31.54 -18.47,31.83 -18.80,32.11 -19.19,32.31 -19.58,32.51 -20.01,32.61 -20.44,32.71 -20.88,32.70 -21.32,32.69 -21.74,32.58 -22.17,32.47 -22.55,32.26 -22.94,32.05 -23.26,31.76 -23.59,31.46 -23.83,31.09 -24.08,30.73 -24.23,30.32 -24.38,29.90 -24.42,29.47 -24.47,29.03 -24.41,28.59 -24.35,28.16 -24.22,27.83 -24.09,27.50 -23.55,26.45 -23.01,25.40 -22.39,24.40 -21.77,23.41 -21.17,22.41 -20.57,21.41 -19.96,20.46 -19.35,19.51 -18.57,18.39 -17.78,17.26 -16.95,16.13 -16.11,15.00 -15.48,14.14 -14.85,13.29 -14.06,12.09 -13.28,10.90 -12.49,9.71 -11.70,8.53 -10.98,7.49 -10.25,6.45 -9.42,5.31 -8.59,4.17 -7.78,2.96 -6.97,1.75 -6.15,0.69 -5.32,-0.36 -4.71,-1.05 -4.10,-1.74 -3.87,-1.96 -3.63,-2.18 -3.36,-2.34 -3.08,-2.50 -2.77,-2.59 -2.46,-2.68 -2.14,-2.69 -1.82,-2.70 -1.51,-2.64 -1.19,-2.57 -0.90,-2.43 -0.61,-2.30 -0.37,-2.09 -0.12,-1.89 0.06,-1.63 0.26,-1.37 0.38,-1.08 0.51,-0.78 0.56,-0.47 0.61,-0.15 0.58,0.16 0.55,0.48 0.45,0.78 0.35,1.09 0.17,1.36 0.00,1.63 0.00,1.63 L 0.00,1.63 Z"></path></g><g stroke-linecap="round"><g transform="translate(547.0230480393673 238.43218403977403) rotate(0 8.69118533216249 -15.021880373128226)"><path d="M0.23 0.49 C3.2 -4.73, 15.52 -25.51, 18.49 -30.53 M-1.1 -0.3 C1.65 -5.44, 14.53 -24.64, 17.56 -29.29" stroke="#f08c00" stroke-width="4" fill="none"></path></g></g><mask></mask><g stroke-linecap="round"><g transform="translate(582.8612925343048 238.35503704713187) rotate(0 -8.535475809501804 -15.400994147962194)"><path d="M0.91 0.11 C-2 -5.16, -14.15 -26.09, -17.1 -30.91 M-0.07 -0.88 C-3.17 -6.1, -15.1 -24.98, -17.98 -29.95" stroke="#f08c00" stroke-width="4" fill="none"></path></g></g><mask></mask><g stroke-linecap="round"><g transform="translate(546.8049300903274 238.43218403977403) rotate(0 18.30386138722099 -0.12733311439171757)"><path d="M0.26 0.18 C6.21 0.05, 29.79 -0.36, 35.78 -0.43 M-0.27 -0.21 C5.86 -0.28, 30.84 0.07, 36.87 0.16" stroke="#f08c00" stroke-width="4" fill="none"></path></g></g><mask></mask><g stroke-linecap="round"><g transform="translate(465.01216024967084 309.95786340636084) rotate(0 51.62941368068732 -33.69808372620929)"><path d="M0.38 -0.57 C15.78 -1.57, 74.96 4.62, 91.59 -6.87 C108.22 -18.36, 98.61 -59.14, 100.16 -69.51 M-0.88 1.75 C14.95 0.96, 76.48 5.84, 93.72 -5.78 C110.95 -17.41, 101.32 -57.11, 102.55 -68.02" stroke="#f08c00" stroke-width="4" fill="none"></path></g></g><mask></mask><g stroke-linecap="round"><g transform="translate(462.6041804369145 309.95786340636084) rotate(0 76.09842714774572 -0.4644794805396941)"><path d="M0.82 0.25 C26.24 0.34, 127.03 0.52, 152.4 0.47 M-0.21 -0.67 C25.01 -0.92, 125.76 -1.66, 151.18 -1.33" stroke="#1e1e1e" stroke-width="2" fill="none"></path></g></g><mask></mask><g stroke-linecap="round" transform="translate(280.44957049698337 140.99136423041637) rotate(270 14.946475138778283 21.58935297823524)"><path d="M18.75 5.5 C20.78 10.27, 22.3 12.64, 26.14 16.5 C31.36 25.34, 28.09 18.65, 26.14 27.5 C24.88 29.57, 19.93 36.59, 18.75 37.68 C12.46 39.99, 18.51 44.91, 11.25 37.68 C10.52 34.11, 5.3 29.77, 3.75 27.5 C1.18 21.37, 2.51 21.96, 3.75 16.5 C8.08 11.79, 8.43 7.79, 11.25 5.5 C17.8 -1.27, 12.92 0.03, 18.75 5.5" stroke="none" stroke-width="0" fill="#b2f2bb"></path><path d="M18.75 5.5 C20.88 8, 21.64 10.45, 26.14 16.5 M18.75 5.5 C21.29 10.38, 24.31 14.14, 26.14 16.5 M26.14 16.5 C28.45 23.48, 31.1 20.45, 26.14 27.5 M26.14 16.5 C27.7 23.33, 30.02 21.9, 26.14 27.5 M26.14 27.5 C23.36 31.6, 20.11 34.56, 18.75 37.68 M26.14 27.5 C24.38 30.67, 21.63 33.37, 18.75 37.68 M18.75 37.68 C14.7 43.84, 16.95 41.49, 11.25 37.68 M18.75 37.68 C15.06 43.61, 14.94 42.09, 11.25 37.68 M11.25 37.68 C8.46 35.38, 6.4 32.48, 3.75 27.5 M11.25 37.68 C8.66 34.22, 6.87 31.42, 3.75 27.5 M3.75 27.5 C-0.16 23.31, -1.66 22.39, 3.75 16.5 M3.75 27.5 C0.06 20.2, 1.39 23.58, 3.75 16.5 M3.75 16.5 C5.56 12.17, 8.27 7.74, 11.25 5.5 M3.75 16.5 C5.63 13.1, 8.53 9.38, 11.25 5.5 M11.25 5.5 C16.57 -1.82, 16.79 1.81, 18.75 5.5 M11.25 5.5 C14.35 -1.39, 12.92 -1.66, 18.75 5.5" stroke="#2f9e44" stroke-width="2" fill="none"></path></g><g stroke-linecap="round"><g transform="translate(313.62090205870004 162.83717298990632) rotate(0 64.84038313559336 0.9110384803442457)"><path d="M-0.73 -0.81 C20.87 -0.37, 108.65 0.84, 130.41 1.47 M1.08 1.38 C22.47 2.07, 108.26 2.68, 129.55 2.63" stroke="#2f9e44" stroke-width="2" fill="none"></path></g></g><mask></mask><g stroke-linecap="round"><g transform="translate(1418.0595158897088 325.7995560983845) rotate(0 22.839150427570758 -41.07481561653651)"><path d="M0.53 0.64 C7.77 0.34, 36.6 11.95, 43.55 -2.64 C50.5 -17.23, 42.21 -72.96, 42.24 -86.89 M-0.65 -0.07 C6.42 -0.62, 35.66 10.07, 42.63 -4.23 C49.6 -18.54, 40.87 -72.45, 41.16 -85.92" stroke="#f08c00" stroke-width="4" fill="none"></path></g></g><mask></mask><g stroke-linecap="round" transform="translate(815.5433255891164 142.93779306641534) rotate(88.47122846222737 14.946475138778169 21.58935297823524)"><path d="M18.75 5.5 C18.5 9.1, 21.7 10.38, 26.14 16.5 C27.52 23.9, 31.21 23.97, 26.14 27.5 C24.58 32.71, 22.54 34.05, 18.75 37.68 C16.06 45.42, 12.16 39.77, 11.25 37.68 C8.41 35.98, 6.96 32.79, 3.75 27.5 C-0.48 25.07, 0.02 18.73, 3.75 16.5 C6.43 14.96, 10.72 8.28, 11.25 5.5 C17.34 0.11, 17.48 -1.02, 18.75 5.5" stroke="none" stroke-width="0" fill="#1e1e1e"></path><path d="M18.75 5.5 C21.04 10.49, 23.43 11.68, 26.14 16.5 M18.75 5.5 C21.28 8.58, 22.46 12.05, 26.14 16.5 M26.14 16.5 C30.64 21.92, 29.43 22.34, 26.14 27.5 M26.14 16.5 C32.13 22.2, 29.97 20.86, 26.14 27.5 M26.14 27.5 C23.05 32.42, 20.59 35.47, 18.75 37.68 M26.14 27.5 C23.92 30.71, 20.28 34.94, 18.75 37.68 M18.75 37.68 C13.73 43.08, 14.84 44.41, 11.25 37.68 M18.75 37.68 C15.69 43.15, 15.19 41.07, 11.25 37.68 M11.25 37.68 C8.4 35.59, 7.62 31.55, 3.75 27.5 M11.25 37.68 C9.31 34.72, 6.74 31.44, 3.75 27.5 M3.75 27.5 C1.84 21.85, 0.06 22.69, 3.75 16.5 M3.75 27.5 C1.02 21.82, 0.43 23.14, 3.75 16.5 M3.75 16.5 C6.53 13.69, 8.46 11.2, 11.25 5.5 M3.75 16.5 C6.38 13.14, 8.5 10.53, 11.25 5.5 M11.25 5.5 C16.6 1.83, 16.77 -2, 18.75 5.5 M11.25 5.5 C15.45 1.55, 12.95 -1.88, 18.75 5.5" stroke="#1e1e1e" stroke-width="2" fill="none"></path></g><g stroke-linecap="round"><g transform="translate(710.9792667427653 163.14059016779095) rotate(0 50.64409807615175 0.1679202165370839)"><path d="M1.16 -0.3 C17.73 -0.18, 82.52 0.48, 98.83 0.45 M0.32 -1.5 C17.29 -1.19, 84.12 1.54, 100.97 1.83" stroke="#1e1e1e" stroke-width="2" fill="none"></path></g></g><mask></mask><g transform="translate(465.6200418390779 10) rotate(0 374.77899169921875 41.14039167915615)"><text x="0" y="57.66237297750524" font-family="Virgil, Segoe UI Emoji" font-size="65.82462668664982px" fill="#e03131" text-anchor="start" style="white-space: pre;" direction="ltr" dominant-baseline="alphabetic">Diagrama de Jerarquia</text></g><g stroke-linecap="round" transform="translate(854.0530666635493 129.1349826223592) rotate(0 136.3458423017446 31.75980392156862)"><path d="M4.23 3.67 C4.23 3.67, 4.23 3.67, 4.23 3.67 M4.23 3.67 C4.23 3.67, 4.23 3.67, 4.23 3.67 M1.34 13.09 C4.13 8.96, 5.15 7.44, 11.84 1.02 M1.34 13.09 C4.54 10.57, 6.39 6.74, 11.84 1.02 M0.42 20.24 C6.47 13.37, 15.5 4.83, 17.48 0.62 M0.42 20.24 C6.33 12.77, 13.47 4.95, 17.48 0.62 M0.16 26.64 C8.33 15.56, 16.86 7.95, 23.12 0.23 M0.16 26.64 C6.08 20.11, 10.73 14.46, 23.12 0.23 M0.56 32.28 C7.67 24.81, 14.05 17.14, 28.11 0.59 M0.56 32.28 C7.35 25.52, 13.31 17.52, 28.11 0.59 M0.95 37.93 C10.96 25.77, 24.39 13.78, 33.75 0.19 M0.95 37.93 C11.42 24.88, 22.34 12.65, 33.75 0.19 M0.69 44.33 C9.62 32.67, 20.32 20.51, 38.74 0.55 M0.69 44.33 C11.97 29.68, 24.59 16.66, 38.74 0.55 M1.08 49.97 C17.63 29.68, 34.89 11.29, 44.38 0.16 M1.08 49.97 C13.36 34.8, 26.49 19.73, 44.38 0.16 M1.48 55.61 C17.79 35.69, 36.42 15.33, 49.37 0.52 M1.48 55.61 C19.33 35.24, 34.75 15.69, 49.37 0.52 M3.84 58.99 C20.28 40.59, 34.92 19.14, 55.01 0.12 M3.84 58.99 C19.25 41.27, 33.4 24.47, 55.01 0.12 M6.86 61.61 C24.18 42.52, 41.36 19.96, 60 0.48 M6.86 61.61 C19.32 47.79, 32.27 31.58, 60 0.48 M10.54 63.48 C24.45 44.77, 40.12 27.6, 65.64 0.09 M10.54 63.48 C24.07 48.09, 38.87 30.72, 65.64 0.09 M15.52 63.84 C34.33 43.19, 51.99 22.66, 70.63 0.45 M15.52 63.84 C33.97 43, 52.4 22.5, 70.63 0.45 M20.51 64.2 C39.84 39.48, 59.7 16.14, 75.62 0.81 M20.51 64.2 C37.25 43.84, 54.95 24.29, 75.62 0.81 M26.15 63.81 C42.96 47.57, 57.52 26.17, 81.26 0.41 M26.15 63.81 C48.06 38.29, 67.74 14.57, 81.26 0.41 M31.14 64.17 C50.87 40.26, 72.24 14.37, 86.25 0.77 M31.14 64.17 C51.28 40.27, 73.03 17.08, 86.25 0.77 M36.78 63.78 C54.21 44.16, 72.87 21.5, 91.89 0.38 M36.78 63.78 C48.68 50.37, 61.6 36.26, 91.89 0.38 M41.77 64.14 C58.68 45.51, 77.31 25.03, 96.88 0.74 M41.77 64.14 C59.43 45.44, 74.99 26.31, 96.88 0.74 M47.41 63.74 C69.56 37.18, 90.43 13.52, 102.52 0.35 M47.41 63.74 C61.61 46.99, 76.12 30.11, 102.52 0.35 M52.4 64.1 C66.37 50.78, 80.58 35.19, 107.51 0.71 M52.4 64.1 C75.64 38.38, 95.66 14.3, 107.51 0.71 M58.04 63.71 C81.34 40.72, 102.79 15.29, 113.15 0.31 M58.04 63.71 C69.01 49.4, 82.78 35.19, 113.15 0.31 M63.03 64.07 C76.56 47.95, 93.74 29.71, 118.14 0.67 M63.03 64.07 C78.25 46.53, 94.07 29.53, 118.14 0.67 M68.67 63.67 C80.95 50.13, 97.41 33.77, 123.78 0.28 M68.67 63.67 C88.17 40.91, 106.83 19.14, 123.78 0.28 M73.66 64.03 C94.13 42.1, 111.86 22.5, 128.77 0.64 M73.66 64.03 C85.86 50.63, 96.85 37.16, 128.77 0.64 M79.3 63.64 C95.65 46.35, 108.97 30.51, 134.41 0.24 M79.3 63.64 C92.27 47.92, 104.37 33.69, 134.41 0.24 M84.29 64 C96.67 48.66, 110.23 32, 139.4 0.6 M84.29 64 C105.29 40.43, 125.67 15.16, 139.4 0.6 M89.93 63.6 C106.78 44.24, 124 22.99, 145.04 0.21 M89.93 63.6 C101.69 50.43, 112.35 36.02, 145.04 0.21 M94.92 63.96 C104.9 50.26, 117.41 37.63, 150.03 0.57 M94.92 63.96 C107.73 49.96, 118.76 35.88, 150.03 0.57 M99.91 64.32 C117.05 41.72, 135.96 21.83, 155.67 0.17 M99.91 64.32 C115.75 43.81, 133.87 24.07, 155.67 0.17 M105.55 63.93 C121.51 45.38, 139.48 24.88, 160.66 0.53 M105.55 63.93 C121.48 45.11, 136.41 27.22, 160.66 0.53 M110.54 64.29 C130.88 43.31, 149.97 21.22, 165.65 0.89 M110.54 64.29 C129.79 42.84, 147.8 21.39, 165.65 0.89 M116.18 63.89 C128.45 50.02, 143.79 33.2, 171.29 0.5 M116.18 63.89 C135.92 40.01, 156.19 17.46, 171.29 0.5 M121.17 64.25 C136.07 44.87, 150.15 28.22, 176.28 0.86 M121.17 64.25 C131.04 51.81, 143.15 37.86, 176.28 0.86 M126.81 63.86 C148.22 41.3, 169.92 14.68, 181.92 0.46 M126.81 63.86 C147.48 39.16, 168.58 14.34, 181.92 0.46 M131.8 64.22 C151.88 41.67, 169.06 21.57, 186.91 0.82 M131.8 64.22 C151.56 40.09, 173.58 15.97, 186.91 0.82 M137.44 63.82 C155.29 40.32, 173.39 19.23, 192.55 0.43 M137.44 63.82 C154.72 45.49, 170.46 25.44, 192.55 0.43 M142.43 64.18 C154.48 47.12, 172.64 30.32, 197.54 0.79 M142.43 64.18 C154.15 49.73, 166.6 36.95, 197.54 0.79 M148.07 63.79 C163.45 42.41, 184.65 22.48, 203.18 0.39 M148.07 63.79 C158.5 50.29, 170.85 37.79, 203.18 0.39 M153.06 64.15 C164.02 49.57, 175.7 37.04, 208.17 0.75 M153.06 64.15 C167.61 46.56, 181.46 30.34, 208.17 0.75 M158.7 63.76 C173.53 48.39, 183.27 34.03, 213.81 0.36 M158.7 63.76 C170.36 50.39, 183.74 35.36, 213.81 0.36 M163.69 64.12 C180.66 45.7, 195.36 27.64, 218.8 0.72 M163.69 64.12 C183.33 42.83, 202.94 19.08, 218.8 0.72 M169.33 63.72 C189.57 36.95, 212.63 13.49, 224.44 0.33 M169.33 63.72 C191.32 37.66, 213.41 12.93, 224.44 0.33 M174.32 64.08 C188.62 46.13, 205.6 27.32, 229.43 0.69 M174.32 64.08 C190.61 45.81, 207.26 27.67, 229.43 0.69 M179.96 63.69 C201.93 38.69, 222.39 14.27, 235.07 0.29 M179.96 63.69 C191.24 49.33, 204.24 36.11, 235.07 0.29 M184.95 64.05 C202 47.74, 214.62 29.21, 240.06 0.65 M184.95 64.05 C204.18 41.95, 225.22 18.76, 240.06 0.65 M189.94 64.41 C210.53 41.03, 231.45 18.06, 245.04 1.01 M189.94 64.41 C207.52 45.47, 225.02 25.02, 245.04 1.01 M195.58 64.01 C210 50.89, 221.52 34.55, 250.69 0.62 M195.58 64.01 C210.12 46.99, 223.43 30.82, 250.69 0.62 M200.57 64.37 C214.85 47.01, 228.29 30.66, 255.67 0.98 M200.57 64.37 C219.76 43.7, 238.01 22.14, 255.67 0.98 M206.21 63.98 C230.59 41.1, 250.54 15.4, 261.32 0.58 M206.21 63.98 C223.72 45.18, 239.87 25.13, 261.32 0.58 M211.2 64.34 C227.23 43.89, 246.43 22.73, 264.99 2.45 M211.2 64.34 C225.34 48, 239.7 31.12, 264.99 2.45 M216.84 63.94 C235.71 44.51, 253.49 24.45, 268.67 4.32 M216.84 63.94 C230.2 47.75, 246 31.56, 268.67 4.32 M221.83 64.3 C237.81 48.78, 252.18 32.01, 271.03 7.7 M221.83 64.3 C238.19 45.07, 253.92 27.73, 271.03 7.7 M227.47 63.91 C241.51 47.58, 254.2 33.38, 272.08 12.59 M227.47 63.91 C244.86 44.63, 262.13 26.01, 272.08 12.59 M232.46 64.27 C246.2 48.31, 261.24 34.7, 272.48 18.23 M232.46 64.27 C243 52.18, 253.56 39.59, 272.48 18.23 M238.1 63.87 C243.15 53.53, 253.46 46.61, 272.21 24.63 M238.1 63.87 C245.6 55.51, 253.52 45.99, 272.21 24.63 M243.09 64.23 C253.62 54.97, 260.88 44.86, 272.61 30.27 M243.09 64.23 C250.97 55.71, 259.34 44.75, 272.61 30.27 M248.73 63.84 C254.65 56.92, 261.81 47.87, 273 35.92 M248.73 63.84 C256.06 56.27, 263.65 47.06, 273 35.92 M253.72 64.2 C258.34 60.42, 263.83 53.87, 272.74 42.31 M253.72 64.2 C259.45 57.33, 263.59 52.97, 272.74 42.31 M260.01 63.05 C263.97 59.09, 266.2 55.64, 273.14 47.96 M260.01 63.05 C263.53 60.07, 267.23 55.38, 273.14 47.96 M266.97 61.15 C267.78 60.45, 268.39 60.05, 269.59 58.13 M266.97 61.15 C267.43 60.61, 268.16 59.8, 269.59 58.13" stroke="#ffec99" stroke-width="0.5" fill="none"></path><path d="M15.88 0 C77.58 2.06, 136.93 1.04, 256.81 0 M256.81 0 C268.82 -0.82, 270.9 4.08, 272.69 15.88 M272.69 15.88 C272.94 24.72, 273.09 31.49, 272.69 47.64 M272.69 47.64 C273.78 58.7, 266.04 65.09, 256.81 63.52 M256.81 63.52 C186.09 60.48, 119.22 63.37, 15.88 63.52 M15.88 63.52 C5.44 63.85, -1.77 57.7, 0 47.64 M0 47.64 C0.77 37.82, -2.19 27.18, 0 15.88 M0 15.88 C0.33 4.07, 4.58 0.22, 15.88 0" stroke="#e03131" stroke-width="1.5" fill="none" stroke-dasharray="8 9"></path></g><g transform="translate(873.3776403102972 138.09253891375363) rotate(0 121.15716552734375 24.954196963932986)"><text x="0" y="34.9758024646485" font-family="Virgil, Segoe UI Emoji" font-size="39.926715142292814px" fill="#1e1e1e" text-anchor="start" style="white-space: pre;" direction="ltr" dominant-baseline="alphabetic">shoppingCart</text></g><g stroke-linecap="round" transform="translate(1235.0731511768743 140.94950005415114) rotate(88.47122846222737 14.946475138778169 21.58935297823524)"><path d="M18.75 5.5 C22.6 7.24, 24.73 10.02, 26.14 16.5 C28.65 25.07, 30.31 22.5, 26.14 27.5 C22.85 32.27, 22.59 32.15, 18.75 37.68 C16.49 40.04, 18.15 46.3, 11.25 37.68 C7.2 34.78, 6.88 29.26, 3.75 27.5 C-2.42 22.13, -1.32 19.43, 3.75 16.5 C6.81 14.23, 7.39 7.79, 11.25 5.5 C14.91 2.82, 11.67 1.84, 18.75 5.5" stroke="none" stroke-width="0" fill="#1e1e1e"></path><path d="M18.75 5.5 C19.96 10.2, 24.07 13.01, 26.14 16.5 M18.75 5.5 C21.05 8.8, 22.22 10.98, 26.14 16.5 M26.14 16.5 C30.03 22.97, 31.36 22.24, 26.14 27.5 M26.14 16.5 C31.3 22.76, 29.88 21.48, 26.14 27.5 M26.14 27.5 C24.61 29.71, 22.79 32.7, 18.75 37.68 M26.14 27.5 C24.05 30.36, 21.56 33.63, 18.75 37.68 M18.75 37.68 C16.75 41.31, 13.35 45.06, 11.25 37.68 M18.75 37.68 C13.9 41.97, 16.57 43.94, 11.25 37.68 M11.25 37.68 C9.43 34.81, 5.48 30.19, 3.75 27.5 M11.25 37.68 C8.68 34.14, 5.69 29.97, 3.75 27.5 M3.75 27.5 C-0.31 23.36, 0.04 23.66, 3.75 16.5 M3.75 27.5 C0.64 22.81, -1.24 21.61, 3.75 16.5 M3.75 16.5 C5.63 13.3, 7.15 12.05, 11.25 5.5 M3.75 16.5 C5.42 13.45, 7.43 10.36, 11.25 5.5 M11.25 5.5 C16.3 1.68, 16.62 0.11, 18.75 5.5 M11.25 5.5 C16.88 -0.11, 15.4 2.17, 18.75 5.5" stroke="#1e1e1e" stroke-width="2" fill="none"></path></g><g stroke-linecap="round"><g transform="translate(1130.5090923305231 161.15229715552675) rotate(0 49.68225471208052 1.4021442204816026)"><path d="M-1.18 1.06 C15.5 1.29, 83.78 0.74, 100.54 0.72 M0.4 0.57 C16.94 1.05, 83.6 1.94, 99.92 2.24" stroke="#1e1e1e" stroke-width="2" fill="none"></path></g></g><mask></mask><g stroke-linecap="round"><g transform="translate(1248.8027675565856 360.33444371750284) rotate(0 0.6269512284657139 46.07842434143231)"><path d="M0.47 -1.06 C0.62 14.31, 1.87 77.62, 2 93.22 M-0.74 0.99 C-0.83 15.94, 0.34 76.02, 1.09 91.5" stroke="#2f9e44" stroke-width="2" fill="none"></path></g></g><mask></mask><g transform="translate(1195.1664660289396 390.5570294900258) rotate(0 56.1683349609375 14.764311505840396)"><text x="0" y="20.693659006585957" font-family="Virgil, Segoe UI Emoji" font-size="23.6228984093447px" fill="#2f9e44" text-anchor="start" style="white-space: pre;" direction="ltr" dominant-baseline="alphabetic">Interface</text></g><g transform="translate(316.2766961764753 128.6785370194516) rotate(0 56.1683349609375 14.764311505840453)"><text x="0" y="20.693659006585957" font-family="Virgil, Segoe UI Emoji" font-size="23.6228984093447px" fill="#2f9e44" text-anchor="start" style="white-space: pre;" direction="ltr" dominant-baseline="alphabetic">Interface</text></g><g transform="translate(721.2302674602417 167.0480592294913) rotate(0 41.94993885731401 9.631567069973414)"><text x="0" y="13.499604405274773" font-family="Virgil, Segoe UI Emoji" font-size="15.410507311957502px" fill="#1e1e1e" text-anchor="start" style="white-space: pre;" direction="ltr" dominant-baseline="alphabetic">Composition</text></g><g transform="translate(1140.2358554131604 169.60297135115536) rotate(0 41.94993885731401 9.631567069973414)"><text x="0" y="13.499604405274773" font-family="Virgil, Segoe UI Emoji" font-size="15.410507311957502px" fill="#1e1e1e" text-anchor="start" style="white-space: pre;" direction="ltr" dominant-baseline="alphabetic">Composition</text></g><g transform="translate(490.01072044963644 316.5104183468435) rotate(0 41.94993885731412 9.631567069973414)"><text x="0" y="13.499604405274773" font-family="Virgil, Segoe UI Emoji" font-size="15.410507311957502px" fill="#1e1e1e" text-anchor="start" style="white-space: pre;" direction="ltr" dominant-baseline="alphabetic">Composition</text></g></svg>