<svg version="1.1" xmlns="http://www.w3.org/2000/svg" viewBox="0 0 882.1022303647535 502.6162525181619" width="2646.3066910942607" height="1507.8487575544857">
  <!-- svg-source:excalidraw -->
  
  <defs>
    <style class="style-fonts">
      @font-face {
        font-family: "Virgil";
        src: url("https://excalidraw.com/Virgil.woff2");
      }
      @font-face {
        font-family: "Cascadia";
        src: url("https://excalidraw.com/Cascadia.woff2");
      }
      @font-face {
        font-family: "Assistant";
        src: url("https://excalidraw.com/Assistant-Regular.woff2");
      }
    </style>
    
  </defs>
  <rect x="0" y="0" width="882.1022303647535" height="502.6162525181619" fill="#ffffff"></rect><g stroke-linecap="round" transform="translate(233.94364056350196 92.17437784509626) rotate(0 157.6146041021169 179.39610862735142)"><path d="M32 0 C130.81 -0.25, 231.03 0.58, 283.23 0 M32 0 C91.88 0.82, 151.27 0.51, 283.23 0 M283.23 0 C305.22 -0.25, 313.36 9.11, 315.23 32 M283.23 0 C305.76 2.08, 315.13 10.47, 315.23 32 M315.23 32 C314.46 92.36, 313.84 153.3, 315.23 326.79 M315.23 32 C313.6 115.85, 313.87 198.81, 315.23 326.79 M315.23 326.79 C316.84 348.83, 302.78 359.04, 283.23 358.79 M315.23 326.79 C314.74 348.04, 303.72 357.54, 283.23 358.79 M283.23 358.79 C206.84 359.39, 127.66 358.06, 32 358.79 M283.23 358.79 C232.73 358.49, 182.73 359.27, 32 358.79 M32 358.79 C9.98 358, 0.32 347.82, 0 326.79 M32 358.79 C10.92 356.87, -0.15 349.71, 0 326.79 M0 326.79 C1.19 213.64, 0.87 100.07, 0 32 M0 326.79 C2.65 268.23, 1.51 207.56, 0 32 M0 32 C-1.97 9.38, 9.8 -0.42, 32 0 M0 32 C1.77 10.46, 12.33 -1.59, 32 0" stroke="#1e1e1e" stroke-width="4" fill="none"></path></g><g stroke-linecap="round"><g transform="translate(234.8592889437832 140.71655365495565) rotate(0 155.72939157847236 0.07902739358570443)"><path d="M1.15 -0.92 C52.94 -1.02, 259.52 -1.08, 311.16 -1.05 M0.3 1.21 C51.9 1.27, 258.66 0.11, 310.31 -0.06" stroke="#1e1e1e" stroke-width="4" fill="none"></path></g></g><mask></mask><g transform="translate(253.68647363452646 143.0824757774983) rotate(0 26.169830322265625 17.10526161239801)"><text x="0" y="23.97473467593705" font-family="Virgil, Segoe UI Emoji" font-size="27.368418579836817px" fill="#1e1e1e" text-anchor="start" style="white-space: pre;" direction="ltr" dominant-baseline="alphabetic">+ id</text></g><g stroke-linecap="round"><g transform="translate(235.41699262598945 222.56307148555476) rotate(0 156.22815267376586 -0.33582795219047057)"><path d="M-0.46 -1.19 C51.68 -1.29, 260.82 -1.58, 312.92 -1.46 M1.5 0.81 C53.52 0.92, 260.61 -0.36, 312.23 -0.33" stroke="#1e1e1e" stroke-width="4" fill="none"></path></g></g><mask></mask><g transform="translate(240.4858163733611 277.07722613915166) rotate(0 137.36117553710926 13.24160651916307)"><text x="0" y="18.55943569725897" font-family="Virgil, Segoe UI Emoji" font-size="21.18657043066092px" fill="#1e1e1e" text-anchor="start" style="white-space: pre;" direction="ltr" dominant-baseline="alphabetic">+ makeSound(String sound)</text></g><g stroke-linecap="round"><g transform="translate(266.6545196127986 304.7423876370269) rotate(0 123.05264980122445 0.18434929539793643)"><path d="M-0.87 0.24 C40.44 0.26, 205.72 -0.4, 246.97 -0.32 M0.88 -0.69 C42.1 -0.45, 205.21 1.14, 246.01 1.05" stroke="#2f9e44" stroke-width="4" fill="none"></path></g></g><mask></mask><g transform="translate(240.8843360990063 313.42582627116514) rotate(0 46.72996520996094 12.5)"><text x="0" y="17.52" font-family="Virgil, Segoe UI Emoji" font-size="20px" fill="#1e1e1e" text-anchor="start" style="white-space: pre;" direction="ltr" dominant-baseline="alphabetic">+ getAll()</text></g><g transform="translate(240.8843360990063 377.84950852178235) rotate(0 109.55989837646473 12.5)"><text x="0" y="17.52" font-family="Virgil, Segoe UI Emoji" font-size="20px" fill="#1e1e1e" text-anchor="start" style="white-space: pre;" direction="ltr" dominant-baseline="alphabetic">+ update(id, response)</text></g><g stroke-linecap="round"><g transform="translate(497.8448244004446 112.9272757445432) rotate(0 61.771972011460775 -16.48509136935715)"><path d="M1.19 1.18 C21.61 -4.54, 102.79 -28.47, 123.19 -34.15 M0.36 0.76 C20.53 -4.87, 101.6 -27.8, 122.01 -33.18" stroke="#2f9e44" stroke-width="4" fill="none"></path></g><g transform="translate(497.8448244004446 112.9272757445432) rotate(0 61.771972011460775 -16.48509136935715)"><path d="M101.62 -18.71 C110.8 -24.76, 114.27 -29.2, 122.01 -33.18 M101.62 -18.71 C107.57 -22.39, 113.79 -27.31, 122.01 -33.18" stroke="#2f9e44" stroke-width="4" fill="none"></path></g><g transform="translate(497.8448244004446 112.9272757445432) rotate(0 61.771972011460775 -16.48509136935715)"><path d="M97.1 -35.2 C107.9 -35.45, 112.97 -34.04, 122.01 -33.18 M97.1 -35.2 C104.48 -33.72, 112.11 -33.52, 122.01 -33.18" stroke="#2f9e44" stroke-width="4" fill="none"></path></g></g><mask></mask><g transform="translate(646.5144007749097 44.30145779044872) rotate(0 112.79391479492188 24.954196963933008)"><text x="0" y="34.9758024646485" font-family="Virgil, Segoe UI Emoji" font-size="39.926715142292814px" fill="#1e1e1e" text-anchor="start" style="white-space: pre;" direction="ltr" dominant-baseline="alphabetic">Class Name</text></g><g stroke-linecap="round"><g transform="translate(495.13394535114753 177.9883729276686) rotate(0 61.80016059413356 -16.57999300709014)"><path d="M-0.14 0.14 C20.37 -5.39, 102.45 -27.64, 122.92 -33.3 M-1.67 -0.84 C19.23 -6.17, 104.15 -26.53, 125.27 -31.88" stroke="#2f9e44" stroke-width="4" fill="none"></path></g><g transform="translate(495.13394535114753 177.9883729276686) rotate(0 61.80016059413356 -16.57999300709014)"><path d="M104.5 -17.97 C110.81 -23.16, 116.27 -27.64, 125.27 -31.88 M104.5 -17.97 C108.88 -21.55, 114.02 -23.69, 125.27 -31.88" stroke="#2f9e44" stroke-width="4" fill="none"></path></g><g transform="translate(495.13394535114753 177.9883729276686) rotate(0 61.80016059413356 -16.57999300709014)"><path d="M100.42 -34.58 C107.9 -34.92, 114.56 -34.55, 125.27 -31.88 M100.42 -34.58 C105.72 -34.19, 111.82 -32.4, 125.27 -31.88" stroke="#2f9e44" stroke-width="4" fill="none"></path></g></g><mask></mask><g transform="translate(643.8035217256131 109.36255497357412) rotate(0 80.99765014648438 24.954196963933)"><text x="0" y="34.9758024646485" font-family="Virgil, Segoe UI Emoji" font-size="39.926715142292814px" fill="#1e1e1e" text-anchor="start" style="white-space: pre;" direction="ltr" dominant-baseline="alphabetic">Atribute</text></g><g stroke-linecap="round"><g transform="translate(507.12392465744165 325.89497363513107) rotate(0 61.175114709805484 -24.210780568337952)"><path d="M0.89 0.11 C21.26 -7.95, 102.2 -40.55, 122.45 -48.53 M-0.1 -0.88 C20.18 -8.71, 101.68 -38.79, 122.05 -46.91" stroke="#2f9e44" stroke-width="4" fill="none"></path></g><g transform="translate(507.12392465744165 325.89497363513107) rotate(0 61.175114709805484 -24.210780568337952)"><path d="M103.16 -30.54 C109.44 -34.17, 115.6 -39.52, 122.05 -46.91 M103.16 -30.54 C110.17 -37.27, 116.81 -43.75, 122.05 -46.91" stroke="#2f9e44" stroke-width="4" fill="none"></path></g><g transform="translate(507.12392465744165 325.89497363513107) rotate(0 61.175114709805484 -24.210780568337952)"><path d="M97.06 -46.52 C105.28 -45.06, 113.4 -45.27, 122.05 -46.91 M97.06 -46.52 C106.33 -47.19, 115.28 -47.64, 122.05 -46.91" stroke="#2f9e44" stroke-width="4" fill="none"></path></g></g><mask></mask><g transform="translate(648.1409282044881 244.36433162855928) rotate(0 69.76017761230469 24.954196963933015)"><text x="0" y="34.9758024646485" font-family="Virgil, Segoe UI Emoji" font-size="39.926715142292814px" fill="#1e1e1e" text-anchor="start" style="white-space: pre;" direction="ltr" dominant-baseline="alphabetic">Method</text></g><g stroke-linecap="round"><g transform="translate(264.24767205982744 303.20682294861274) rotate(0 -49.84204340697363 -17.899158867753158)"><path d="M0 -0.51 C-16.48 -6.35, -82.07 -29.72, -98.48 -35.29 M-1.46 -1.82 C-18.17 -7.52, -83.34 -28.54, -99.68 -34.25" stroke="#2f9e44" stroke-width="4" fill="none"></path></g><g transform="translate(264.24767205982744 303.20682294861274) rotate(0 -49.84204340697363 -17.899158867753158)"><path d="M-74.69 -34.91 C-83.88 -35.5, -92.95 -35.3, -99.68 -34.25 M-74.69 -34.91 C-82.87 -35.36, -90.88 -34.6, -99.68 -34.25" stroke="#2f9e44" stroke-width="4" fill="none"></path></g><g transform="translate(264.24767205982744 303.20682294861274) rotate(0 -49.84204340697363 -17.899158867753158)"><path d="M-80.12 -18.69 C-87.46 -24.69, -94.72 -29.89, -99.68 -34.25 M-80.12 -18.69 C-86.34 -24.53, -92.54 -29.17, -99.68 -34.25" stroke="#2f9e44" stroke-width="4" fill="none"></path></g></g><mask></mask><g transform="translate(33.88672579679269 234.2799223820927) rotate(0 61.09754943847656 24.954196963933015)"><text x="0" y="34.9758024646485" font-family="Virgil, Segoe UI Emoji" font-size="39.926715142292814px" fill="#1e1e1e" text-anchor="start" style="white-space: pre;" direction="ltr" dominant-baseline="alphabetic">static</text></g><g stroke-linecap="round"><g transform="translate(245.18564656888884 173.78078339340954) rotate(0 -41.065798533237626 -11.796941912262731)"><path d="M0.98 0.59 C-12.81 -3.2, -68.52 -18.42, -82.47 -22.67 M0.03 -0.14 C-13.88 -4.25, -69.21 -20.2, -83.11 -24.19" stroke="#2f9e44" stroke-width="4" fill="none"></path></g><g transform="translate(245.18564656888884 173.78078339340954) rotate(0 -41.065798533237626 -11.796941912262731)"><path d="M-58.17 -25.9 C-65.14 -24.17, -72.19 -24.07, -83.11 -24.19 M-58.17 -25.9 C-63.7 -25.61, -68.03 -24.9, -83.11 -24.19" stroke="#2f9e44" stroke-width="4" fill="none"></path></g><g transform="translate(245.18564656888884 173.78078339340954) rotate(0 -41.065798533237626 -11.796941912262731)"><path d="M-62.9 -9.47 C-68.37 -13.02, -73.91 -18.17, -83.11 -24.19 M-62.9 -9.47 C-67.45 -12.63, -70.78 -15.43, -83.11 -24.19" stroke="#2f9e44" stroke-width="4" fill="none"></path></g></g><mask></mask><g transform="translate(28.433977535218673 119.43157056015703) rotate(0 77.0458477822184 14.769018976977414)"><text x="0" y="20.70025699813155" font-family="Virgil, Segoe UI Emoji" font-size="23.630430363163867px" fill="#1e1e1e" text-anchor="start" style="white-space: pre;" direction="ltr" dominant-baseline="alphabetic">encapsulation</text></g><g transform="translate(226.9628226782629 10) rotate(0 158.72491455078114 41.14039167915614)"><text x="0" y="57.66237297750524" font-family="Virgil, Segoe UI Emoji" font-size="65.82462668664982px" fill="#e03131" text-anchor="start" style="white-space: pre;" direction="ltr" dominant-baseline="alphabetic">CRUD DB</text></g><g transform="translate(240.4858163733611 240.7286260071382) rotate(0 118.73499298095692 13.24160651916307)"><text x="0" y="18.55943569725897" font-family="Virgil, Segoe UI Emoji" font-size="21.18657043066092px" fill="#1e1e1e" text-anchor="start" style="white-space: pre;" direction="ltr" dominant-baseline="alphabetic">+ Animal(String nombre)</text></g><g stroke-linecap="round"><g transform="translate(226.75166903367017 232.33577085822242) rotate(0 -49.862047185947745 -12.111730666604544)"><path d="M1.2 -0.54 C-15.49 -4.98, -83.27 -21.78, -100.47 -26.02 M0.37 1.8 C-16.36 -2.56, -83.67 -20.35, -100.92 -24.81" stroke="#2f9e44" stroke-width="4" fill="none"></path></g><g transform="translate(226.75166903367017 232.33577085822242) rotate(0 -49.862047185947745 -12.111730666604544)"><path d="M-76.03 -27.14 C-83.6 -24.67, -90.44 -26.68, -100.92 -24.81 M-76.03 -27.14 C-82.33 -27.35, -89.39 -26.89, -100.92 -24.81" stroke="#2f9e44" stroke-width="4" fill="none"></path></g><g transform="translate(226.75166903367017 232.33577085822242) rotate(0 -49.862047185947745 -12.111730666604544)"><path d="M-80.36 -10.59 C-86.85 -12.61, -92.53 -19.07, -100.92 -24.81 M-80.36 -10.59 C-85.42 -14.97, -91.38 -18.69, -100.92 -24.81" stroke="#2f9e44" stroke-width="4" fill="none"></path></g></g><mask></mask><g transform="translate(10 177.9865580249699) rotate(0 57.16093444824219 14.76901897697742)"><text x="0" y="20.70025699813155" font-family="Virgil, Segoe UI Emoji" font-size="23.630430363163867px" fill="#1e1e1e" text-anchor="start" style="white-space: pre;" direction="ltr" dominant-baseline="alphabetic">Construct</text></g><g transform="translate(492.4230663018509 232.05981129379774) rotate(0 11.337615966796875 22.006371319616875)"><text x="0" y="30.84413004157502" font-family="Virgil, Segoe UI Emoji" font-size="35.21019411138701px" fill="#e03131" text-anchor="start" style="white-space: pre;" direction="ltr" dominant-baseline="alphabetic">C</text></g><g transform="translate(467.3095730079433 367.35791724565314) rotate(0 12.569969177246094 22.006371319616875)"><text x="0" y="30.84413004157502" font-family="Virgil, Segoe UI Emoji" font-size="35.21019411138701px" fill="#e03131" text-anchor="start" style="white-space: pre;" direction="ltr" dominant-baseline="alphabetic">U</text></g><g transform="translate(342.098016675121 305.3001292418543) rotate(0 11.936187744140625 22.006371319616875)"><text x="0" y="30.84413004157502" font-family="Virgil, Segoe UI Emoji" font-size="35.21019411138701px" fill="#e03131" text-anchor="start" style="white-space: pre;" direction="ltr" dominant-baseline="alphabetic">R</text></g><g transform="translate(241.42651190886545 412.7148956154697) rotate(0 109.8199005126952 12.5)"><text x="0" y="17.52" font-family="Virgil, Segoe UI Emoji" font-size="20px" fill="#1e1e1e" text-anchor="start" style="white-space: pre;" direction="ltr" dominant-baseline="alphabetic">+ DeleteNombre(int id)</text></g><g transform="translate(468.02515485817844 404.7525202536034) rotate(0 13.731895446777344 22.006371319616875)"><text x="0" y="30.84413004157502" font-family="Virgil, Segoe UI Emoji" font-size="35.21019411138701px" fill="#e03131" text-anchor="start" style="white-space: pre;" direction="ltr" dominant-baseline="alphabetic">D</text></g><g transform="translate(271.99754669656136 463.08762950648105) rotate(0 124.79097514768273 14.764311505840425)"><text x="0" y="20.693659006585957" font-family="Virgil, Segoe UI Emoji" font-size="23.6228984093447px" fill="#e03131" text-anchor="start" style="white-space: pre;" direction="ltr" dominant-baseline="alphabetic">CRUD IN DATABASE</text></g><g transform="translate(240.8843360990063 343.54182511030115) rotate(0 82.94992828369129 12.5)"><text x="0" y="17.52" font-family="Virgil, Segoe UI Emoji" font-size="20px" fill="#1e1e1e" text-anchor="start" style="white-space: pre;" direction="ltr" dominant-baseline="alphabetic">+ getShow(int id)</text></g><g transform="translate(511.63993606581266 335.97383176319653) rotate(0 11.936187744140625 22.006371319616875)"><text x="0" y="30.84413004157502" font-family="Virgil, Segoe UI Emoji" font-size="35.21019411138701px" fill="#e03131" text-anchor="start" style="white-space: pre;" direction="ltr" dominant-baseline="alphabetic">R</text></g><g stroke-linecap="round" transform="translate(600.1855619273977 392.1932178166521) rotate(0 109.30992171241951 44.98929253758746)"><path d="M22.49 0 C89.11 -1.89, 153.6 -2.76, 196.13 0 M22.49 0 C80.7 -0.69, 139.2 0.68, 196.13 0 M196.13 0 C211.25 0.42, 217.11 9.48, 218.62 22.49 M196.13 0 C209.63 0.7, 217.03 5.59, 218.62 22.49 M218.62 22.49 C219.66 36, 217.33 51.41, 218.62 67.48 M218.62 22.49 C218.1 34.68, 218.91 47.52, 218.62 67.48 M218.62 67.48 C219.14 82.04, 212.43 88.15, 196.13 89.98 M218.62 67.48 C217.68 80.93, 210.93 92.15, 196.13 89.98 M196.13 89.98 C156.44 91.23, 116.23 92.8, 22.49 89.98 M196.13 89.98 C144.28 92.05, 92.49 92.07, 22.49 89.98 M22.49 89.98 C8.89 88.09, -1.23 84.34, 0 67.48 M22.49 89.98 C7.43 90.43, 0.3 84.29, 0 67.48 M0 67.48 C1.15 57.24, -0.44 47.76, 0 22.49 M0 67.48 C0.49 55.9, -0.56 44.12, 0 22.49 M0 22.49 C1.37 7.76, 6.02 1.43, 22.49 0 M0 22.49 C-2.07 7.26, 6.78 -1.91, 22.49 0" stroke="#1971c2" stroke-width="4" fill="none"></path></g><g stroke-linecap="round"><g transform="translate(649.0411217924341 392.8961755125519) rotate(0 0.13112908217590302 44.644475120172046)"><path d="M-0.77 0.08 C-0.7 15.23, 1.08 75.17, 1.01 90.21 M1.03 -0.92 C0.97 13.94, 0.58 73.52, 0.59 88.39" stroke="#1971c2" stroke-width="4" fill="none"></path></g></g><mask></mask><g stroke-linecap="round"><g transform="translate(729.5297779729619 392.8961755125519) rotate(0 -0.2256098448440298 44.37768518607004)"><path d="M-0.12 -0.38 C-0.43 14.87, -1.14 75.52, -1 90.37 M-1.65 -1.62 C-1.66 13.41, 0.85 73.6, 1.19 88.83" stroke="#1971c2" stroke-width="4" fill="none"></path></g></g><mask></mask><g stroke-linecap="round"><g transform="translate(600.5370407753474 422.42039874034367) rotate(0 108.52850600615852 -0.4854668375454594)"><path d="M-0.39 -1.12 C36 -1.11, 181.26 -0.18, 217.45 0.04 M1.6 0.91 C37.91 0.55, 180.18 -1.41, 216.44 -1.88" stroke="#1971c2" stroke-width="4" fill="none"></path></g></g><mask></mask><g transform="translate(613.8887306406643 393.1492731364953) rotate(0 9.912480982936813 15.726760787559044)"><text x="0" y="22.042627919842754" font-family="Virgil, Segoe UI Emoji" font-size="25.162817260094467px" fill="#1e1e1e" text-anchor="start" style="white-space: pre;" direction="ltr" dominant-baseline="alphabetic">id</text></g><g transform="translate(658.8780231782514 392.0948365926456) rotate(0 31.33500332847666 15.726760787559044)"><text x="0" y="22.042627919842754" font-family="Virgil, Segoe UI Emoji" font-size="25.162817260094467px" fill="#1e1e1e" text-anchor="start" style="white-space: pre;" direction="ltr" dominant-baseline="alphabetic">Name</text></g><g transform="translate(736.5548485751799 391.0404000487959) rotate(0 29.29715760651129 15.726760787559044)"><text x="0" y="22.042627919842754" font-family="Virgil, Segoe UI Emoji" font-size="25.162817260094467px" fill="#1e1e1e" text-anchor="start" style="white-space: pre;" direction="ltr" dominant-baseline="alphabetic">email</text></g><g stroke-linecap="round"><g transform="translate(600.5370407753474 451.5931431201855) rotate(0 108.18179417374063 -0.33801138773560524)"><path d="M-0.54 0.5 C35.51 0.27, 180.71 -0.92, 216.91 -1.18 M1.37 -0.28 C37.26 -0.43, 180.41 -0.26, 216.16 -0.26" stroke="#1971c2" stroke-width="4" fill="none"></path></g></g><mask></mask><g transform="translate(620.2153499037624 429.3515944753352) rotate(0 1.885231214178475 8.697183828561009)"><text x="0" y="12.189972854111112" font-family="Virgil, Segoe UI Emoji" font-size="13.915494125697613px" fill="#1e1e1e" text-anchor="start" style="white-space: pre;" direction="ltr" dominant-baseline="alphabetic">1</text></g><g transform="translate(617.7549979681137 459.0031792043274) rotate(0 5.617405598691221 9.86367904578546)"><text x="0" y="13.824932550572896" font-family="Virgil, Segoe UI Emoji" font-size="15.781886473256732px" fill="#1e1e1e" text-anchor="start" style="white-space: pre;" direction="ltr" dominant-baseline="alphabetic">2</text></g><g transform="translate(673.6401347921476 430.95496759866) rotate(0 14.499190631401461 6.3138424511240885)"><text x="0" y="8.849481579495501" font-family="Virgil, Segoe UI Emoji" font-size="10.102147921798517px" fill="#1e1e1e" text-anchor="start" style="white-space: pre;" direction="ltr" dominant-baseline="alphabetic">pepito</text></g><g transform="translate(672.9371770962473 461.5336273703014) rotate(0 12.049285888671875 6.31384245112406)"><text x="0" y="8.849481579495501" font-family="Virgil, Segoe UI Emoji" font-size="10.102147921798517px" fill="#1e1e1e" text-anchor="start" style="white-space: pre;" direction="ltr" dominant-baseline="alphabetic">kata</text></g><g transform="translate(734.7974543354305 432.7123618384095) rotate(0 39.991049027519466 6.31384245112406)"><text x="0" y="8.849481579495501" font-family="Virgil, Segoe UI Emoji" font-size="10.102147921798517px" fill="#1e1e1e" text-anchor="start" style="white-space: pre;" direction="ltr" dominant-baseline="alphabetic">pepito@gmail.com</text></g><g transform="translate(734.0944966395302 463.2910216100509) rotate(0 37.55680847167969 6.31384245112406)"><text x="0" y="8.849481579495501" font-family="Virgil, Segoe UI Emoji" font-size="10.102147921798517px" fill="#1e1e1e" text-anchor="start" style="white-space: pre;" direction="ltr" dominant-baseline="alphabetic">kata@gmail.com</text></g><g transform="translate(253.68647363452646 165.3906230657472) rotate(0 47.045501708984375 17.10526161239801)"><text x="0" y="23.97473467593705" font-family="Virgil, Segoe UI Emoji" font-size="27.368418579836817px" fill="#1e1e1e" text-anchor="start" style="white-space: pre;" direction="ltr" dominant-baseline="alphabetic">+ name</text></g><g transform="translate(254.2441773167327 188.25647403620235) rotate(0 47.250701904296875 17.10526161239801)"><text x="0" y="23.97473467593705" font-family="Virgil, Segoe UI Emoji" font-size="27.368418579836817px" fill="#1e1e1e" text-anchor="start" style="white-space: pre;" direction="ltr" dominant-baseline="alphabetic">+ email</text></g></svg>