<svg version="1.1" xmlns="http://www.w3.org/2000/svg" viewBox="0 0 882.1022303647537 1142.171485389123" width="2646.306691094261" height="3426.514456167369">
  <!-- svg-source:excalidraw -->
  
  <defs>
    <style class="style-fonts">
      @font-face {
        font-family: "Virgil";
        src: url("https://excalidraw.com/Virgil.woff2");
      }
      @font-face {
        font-family: "Cascadia";
        src: url("https://excalidraw.com/Cascadia.woff2");
      }
      @font-face {
        font-family: "Assistant";
        src: url("https://excalidraw.com/Assistant-Regular.woff2");
      }
    </style>
    
  </defs>
  <rect x="0" y="0" width="882.1022303647537" height="1142.171485389123" fill="#ffffff"></rect><g stroke-linecap="round" transform="translate(233.94364056350196 105.27940076153105) rotate(0 157.61460410211703 154.8571466102776)"><path d="M32 0 C114.63 2.47, 196.56 1.49, 283.23 0 M32 0 C105.36 -0.05, 179.43 -0.5, 283.23 0 M283.23 0 C302.71 1.41, 315.85 10.52, 315.23 32 M283.23 0 C305.99 -1.65, 314.7 12.09, 315.23 32 M315.23 32 C314.76 86.73, 315.54 140.9, 315.23 277.71 M315.23 32 C317.04 98.16, 316.87 162.65, 315.23 277.71 M315.23 277.71 C316.91 300.79, 305.49 311.56, 283.23 309.71 M315.23 277.71 C313.63 297.79, 305.6 307.78, 283.23 309.71 M283.23 309.71 C186.02 308.79, 92.59 309.94, 32 309.71 M283.23 309.71 C232.32 311.62, 179.33 311.34, 32 309.71 M32 309.71 C11.87 308.6, -1.86 300.85, 0 277.71 M32 309.71 C9.73 307.93, 1.43 301.09, 0 277.71 M0 277.71 C-0.47 186.86, -2.2 98.63, 0 32 M0 277.71 C1.54 193.54, 1.33 108.53, 0 32 M0 32 C-1.15 9.3, 11.02 1.4, 32 0 M0 32 C-1.86 9.9, 11.48 -1.33, 32 0" stroke="#f08c00" stroke-width="4" fill="none"></path></g><g stroke-linecap="round"><g transform="translate(234.8592889437832 153.82157657139044) rotate(0 155.79058559689565 0.30414201073602953)"><path d="M1.1 -0.99 C53.09 -0.97, 259.86 -0.31, 311.36 -0.08 M0.22 1.1 C52.14 1.34, 258.55 1.89, 310.61 1.41" stroke="#f08c00" stroke-width="4" fill="none"></path></g></g><mask></mask><g transform="translate(278.89966119253177 108.02176736669405) rotate(0 107.7041244506836 24.954196963933008)"><text x="0" y="34.9758024646485" font-family="Virgil, Segoe UI Emoji" font-size="39.926715142292814px" fill="#1e1e1e" text-anchor="start" style="white-space: pre;" direction="ltr" dominant-baseline="alphabetic">EMPLOYED</text></g><g transform="translate(240.8592889437832 163.91318264352446) rotate(0 68.64241790771484 24.954196963933015)"><text x="0" y="34.9758024646485" font-family="Virgil, Segoe UI Emoji" font-size="39.926715142292814px" fill="#1e1e1e" text-anchor="start" style="white-space: pre;" direction="ltr" dominant-baseline="alphabetic">+ name</text></g><g stroke-linecap="round"><g transform="translate(234.8592889437832 217.82157657139044) rotate(0 156.17234899334608 0.3558146572897982)"><path d="M-0.37 0.85 C51.89 0.71, 260.77 -0.38, 312.72 -0.49 M1.63 0.25 C53.84 0.29, 259.92 1.47, 311.92 1.14" stroke="#f08c00" stroke-width="4" fill="none"></path></g></g><mask></mask><g transform="translate(240.4858163733611 275.70859481586405) rotate(0 140.45074462890625 12.670582088137166)"><text x="0" y="17.75908785473306" font-family="Virgil, Segoe UI Emoji" font-size="20.272931341019476px" fill="#1e1e1e" text-anchor="start" style="white-space: pre;" direction="ltr" dominant-baseline="alphabetic">+ makeContract(id Contact)</text></g><g stroke-linecap="round"><g transform="translate(266.6545196127986 302.2317074516875) rotate(0 123.13079237118359 0.654619514530367)"><path d="M-1.11 0.85 C40.07 0.8, 205.9 0.19, 247.37 -0.09 M0.5 0.25 C41.54 0.38, 205.48 1.44, 246.62 1.4" stroke="#2f9e44" stroke-width="4" fill="none"></path></g></g><mask></mask><g transform="translate(240.8843360990063 310.9151460858257) rotate(0 59.81995391845703 12.5)"><text x="0" y="17.52" font-family="Virgil, Segoe UI Emoji" font-size="20px" fill="#1e1e1e" text-anchor="start" style="white-space: pre;" direction="ltr" dominant-baseline="alphabetic">+ getName()</text></g><g transform="translate(240.8843360990063 345.7805331795131) rotate(0 116.2799072265625 12.5)"><text x="0" y="17.52" font-family="Virgil, Segoe UI Emoji" font-size="20px" fill="#1e1e1e" text-anchor="start" style="white-space: pre;" direction="ltr" dominant-baseline="alphabetic">+ setName(String name)</text></g><g stroke-linecap="round"><g transform="translate(497.8448244004444 126.03229866097799) rotate(0 62.20074796009658 -16.868108283016085)"><path d="M0.85 0.68 C21.19 -4.55, 101.84 -27.05, 122.46 -32.56 M-0.16 -0.02 C20.49 -5.5, 103.82 -28.68, 124.57 -34.41" stroke="#2f9e44" stroke-width="4" fill="none"></path></g><g transform="translate(497.8448244004444 126.03229866097799) rotate(0 62.20074796009658 -16.868108283016085)"><path d="M104.21 -19.9 C112.28 -26.81, 118.81 -28.12, 124.57 -34.41 M104.21 -19.9 C111.74 -24.2, 119.21 -30.36, 124.57 -34.41" stroke="#2f9e44" stroke-width="4" fill="none"></path></g><g transform="translate(497.8448244004444 126.03229866097799) rotate(0 62.20074796009658 -16.868108283016085)"><path d="M99.64 -36.38 C109.07 -37.82, 117.13 -33.63, 124.57 -34.41 M99.64 -36.38 C108.89 -34.83, 117.98 -35.14, 124.57 -34.41" stroke="#2f9e44" stroke-width="4" fill="none"></path></g></g><mask></mask><g transform="translate(646.51440077491 57.406480706883514) rotate(0 112.79391479492188 24.954196963933008)"><text x="0" y="34.9758024646485" font-family="Virgil, Segoe UI Emoji" font-size="39.926715142292814px" fill="#1e1e1e" text-anchor="start" style="white-space: pre;" direction="ltr" dominant-baseline="alphabetic">Class Name</text></g><g stroke-linecap="round"><g transform="translate(495.13394535114776 191.09339584410338) rotate(0 62.14165865553787 -16.979080634447932)"><path d="M0.97 0.67 C21.87 -4.87, 103.75 -27.26, 124.27 -32.7 M0.02 -0.03 C20.92 -5.98, 103.07 -29.01, 123.66 -34.63" stroke="#2f9e44" stroke-width="4" fill="none"></path></g><g transform="translate(495.13394535114776 191.09339584410338) rotate(0 62.14165865553787 -16.979080634447932)"><path d="M103.3 -20.11 C108.5 -22.15, 112.16 -25.45, 123.66 -34.63 M103.3 -20.11 C111.46 -26.22, 118.87 -32.19, 123.66 -34.63" stroke="#2f9e44" stroke-width="4" fill="none"></path></g><g transform="translate(495.13394535114776 191.09339584410338) rotate(0 62.14165865553787 -16.979080634447932)"><path d="M98.74 -36.59 C104.93 -35.31, 109.52 -35.25, 123.66 -34.63 M98.74 -36.59 C108.78 -36.23, 117.98 -35.73, 123.66 -34.63" stroke="#2f9e44" stroke-width="4" fill="none"></path></g></g><mask></mask><g transform="translate(643.8035217256133 122.46757789000891) rotate(0 80.99765014648438 24.954196963933)"><text x="0" y="34.9758024646485" font-family="Virgil, Segoe UI Emoji" font-size="39.926715142292814px" fill="#1e1e1e" text-anchor="start" style="white-space: pre;" direction="ltr" dominant-baseline="alphabetic">Atribute</text></g><g stroke-linecap="round"><g transform="translate(504.8931099286169 323.38429344979164) rotate(0 61.776882115139415 -16.03021919032578)"><path d="M0.45 1.11 C21.06 -4.48, 103.75 -27.39, 124.33 -33.17 M-0.78 0.65 C19.68 -4.78, 103.08 -26.15, 123.76 -31.68" stroke="#2f9e44" stroke-width="4" fill="none"></path></g><g transform="translate(504.8931099286169 323.38429344979164) rotate(0 61.776882115139415 -16.03021919032578)"><path d="M103.19 -17.47 C112.28 -21.38, 117.56 -27.1, 123.76 -31.68 M103.19 -17.47 C107.55 -20.81, 114.75 -25.35, 123.76 -31.68" stroke="#2f9e44" stroke-width="4" fill="none"></path></g><g transform="translate(504.8931099286169 323.38429344979164) rotate(0 61.776882115139415 -16.03021919032578)"><path d="M98.87 -34.02 C109.54 -32.09, 116.35 -31.94, 123.76 -31.68 M98.87 -34.02 C104.29 -33.08, 112.59 -33.37, 123.76 -31.68" stroke="#2f9e44" stroke-width="4" fill="none"></path></g></g><mask></mask><g transform="translate(648.1409282044883 257.4693545449941) rotate(0 69.76017761230469 24.954196963933015)"><text x="0" y="34.9758024646485" font-family="Virgil, Segoe UI Emoji" font-size="39.926715142292814px" fill="#1e1e1e" text-anchor="start" style="white-space: pre;" direction="ltr" dominant-baseline="alphabetic">Method</text></g><g stroke-linecap="round"><g transform="translate(265.44698579405167 302.369253809892) rotate(0 -50.217205388860975 -10.89804570636926)"><path d="M0.31 -0.52 C-16.41 -4.44, -82.81 -19.94, -99.59 -23.62 M-0.99 1.82 C-17.96 -1.96, -84.56 -18.69, -100.74 -22.52" stroke="#2f9e44" stroke-width="4" fill="none"></path></g><g transform="translate(265.44698579405167 302.369253809892) rotate(0 -50.217205388860975 -10.89804570636926)"><path d="M-75.89 -25.24 C-85.7 -24.86, -95.18 -25.15, -100.74 -22.52 M-75.89 -25.24 C-84.73 -24.37, -91.28 -24.26, -100.74 -22.52" stroke="#2f9e44" stroke-width="4" fill="none"></path></g><g transform="translate(265.44698579405167 302.369253809892) rotate(0 -50.217205388860975 -10.89804570636926)"><path d="M-79.95 -8.63 C-88.29 -14.23, -96.3 -20.5, -100.74 -22.52 M-79.95 -8.63 C-87.67 -12.99, -92.92 -18.15, -100.74 -22.52" stroke="#2f9e44" stroke-width="4" fill="none"></path></g></g><mask></mask><g transform="translate(33.88672579679269 247.3849452985275) rotate(0 61.09754943847656 24.954196963933015)"><text x="0" y="34.9758024646485" font-family="Virgil, Segoe UI Emoji" font-size="39.926715142292814px" fill="#1e1e1e" text-anchor="start" style="white-space: pre;" direction="ltr" dominant-baseline="alphabetic">static</text></g><g stroke-linecap="round"><g transform="translate(245.18564656888884 186.88580630984433) rotate(0 -40.916690736189594 -12.243157156966653)"><path d="M-1.16 0.2 C-14.75 -3.77, -68.07 -20.72, -81.92 -24.69 M0.44 -0.74 C-13.18 -4.51, -68.53 -20.04, -82.27 -23.61" stroke="#2f9e44" stroke-width="4" fill="none"></path></g><g transform="translate(245.18564656888884 186.88580630984433) rotate(0 -40.916690736189594 -12.243157156966653)"><path d="M-57.36 -25.7 C-63.7 -23.48, -72.15 -26.82, -82.27 -23.61 M-57.36 -25.7 C-65.13 -24.29, -72.81 -24.32, -82.27 -23.61" stroke="#2f9e44" stroke-width="4" fill="none"></path></g><g transform="translate(245.18564656888884 186.88580630984433) rotate(0 -40.916690736189594 -12.243157156966653)"><path d="M-61.84 -9.2 C-66.86 -11.35, -74.12 -19.09, -82.27 -23.61 M-61.84 -9.2 C-68.23 -13.03, -74.49 -18.32, -82.27 -23.61" stroke="#2f9e44" stroke-width="4" fill="none"></path></g></g><mask></mask><g transform="translate(28.433977535218673 132.5365934765918) rotate(0 77.04584778221852 14.769018976977414)"><text x="0" y="20.70025699813155" font-family="Virgil, Segoe UI Emoji" font-size="23.630430363163867px" fill="#1e1e1e" text-anchor="start" style="white-space: pre;" direction="ltr" dominant-baseline="alphabetic">encapsulation</text></g><g transform="translate(296.1528287109959 10) rotate(0 92.6745529174807 41.14039167915614)"><text x="0" y="57.66237297750524" font-family="Virgil, Segoe UI Emoji" font-size="65.82462668664982px" fill="#e03131" text-anchor="start" style="white-space: pre;" direction="ltr" dominant-baseline="alphabetic">CRUD</text></g><g transform="translate(240.4858163733611 238.21794582179876) rotate(0 123.73346710205078 13.24160651916307)"><text x="0" y="18.55943569725897" font-family="Virgil, Segoe UI Emoji" font-size="21.18657043066092px" fill="#1e1e1e" text-anchor="start" style="white-space: pre;" direction="ltr" dominant-baseline="alphabetic">+ Employed(String name)</text></g><g stroke-linecap="round"><g transform="translate(226.75166903367017 245.4407937746572) rotate(0 -50.68260795657852 -13.053211255666525)"><path d="M0.21 1.06 C-16.68 -3.02, -84.02 -20.61, -100.9 -25.16 M-1.14 0.57 C-18.17 -3.84, -84.81 -22.83, -101.57 -27.17" stroke="#2f9e44" stroke-width="4" fill="none"></path></g><g transform="translate(226.75166903367017 245.4407937746572) rotate(0 -50.68260795657852 -13.053211255666525)"><path d="M-76.66 -29.22 C-83.21 -27.61, -92.89 -27.26, -101.57 -27.17 M-76.66 -29.22 C-81.54 -28.42, -87.03 -27.22, -101.57 -27.17" stroke="#2f9e44" stroke-width="4" fill="none"></path></g><g transform="translate(226.75166903367017 245.4407937746572) rotate(0 -50.68260795657852 -13.053211255666525)"><path d="M-81.17 -12.73 C-86.12 -16.62, -94.3 -21.76, -101.57 -27.17 M-81.17 -12.73 C-85.13 -15.7, -89.6 -18.24, -101.57 -27.17" stroke="#2f9e44" stroke-width="4" fill="none"></path></g></g><mask></mask><g transform="translate(10 191.0915809414047) rotate(0 57.16093444824219 14.76901897697742)"><text x="0" y="20.70025699813155" font-family="Virgil, Segoe UI Emoji" font-size="23.630430363163867px" fill="#1e1e1e" text-anchor="start" style="white-space: pre;" direction="ltr" dominant-baseline="alphabetic">Construct</text></g><g transform="translate(492.4230663018511 229.5491311084583) rotate(0 11.337615966796875 22.006371319616875)"><text x="0" y="30.84413004157502" font-family="Virgil, Segoe UI Emoji" font-size="35.21019411138701px" fill="#e03131" text-anchor="start" style="white-space: pre;" direction="ltr" dominant-baseline="alphabetic">C</text></g><g transform="translate(512.4835712666477 334.7312382211777) rotate(0 12.569969177246094 22.006371319616875)"><text x="0" y="30.84413004157502" font-family="Virgil, Segoe UI Emoji" font-size="35.21019411138701px" fill="#e03131" text-anchor="start" style="white-space: pre;" direction="ltr" dominant-baseline="alphabetic">U</text></g><g transform="translate(386.1566075694127 301.1163380098962) rotate(0 11.936187744140625 22.006371319616875)"><text x="0" y="30.84413004157502" font-family="Virgil, Segoe UI Emoji" font-size="35.21019411138701px" fill="#e03131" text-anchor="start" style="white-space: pre;" direction="ltr" dominant-baseline="alphabetic">R</text></g><g transform="translate(241.42651190886545 380.64592027320043) rotate(0 131.56988525390625 12.5)"><text x="0" y="17.52" font-family="Virgil, Segoe UI Emoji" font-size="20px" fill="#1e1e1e" text-anchor="start" style="white-space: pre;" direction="ltr" dominant-baseline="alphabetic">+ DeleteName(string name)</text></g><g transform="translate(506.453389387068 374.25204427986023) rotate(0 13.731895446777344 22.006371319616875)"><text x="0" y="30.84413004157502" font-family="Virgil, Segoe UI Emoji" font-size="35.21019411138701px" fill="#e03131" text-anchor="start" style="white-space: pre;" direction="ltr" dominant-baseline="alphabetic">D</text></g><g transform="translate(267.87222074408965 431.0186541642118) rotate(0 115.96235656738304 14.764311505840425)"><text x="0" y="20.693659006585957" font-family="Virgil, Segoe UI Emoji" font-size="23.6228984093447px" fill="#e03131" text-anchor="start" style="white-space: pre;" direction="ltr" dominant-baseline="alphabetic">CRUD IN VAR JAVA</text></g><g stroke-linecap="round" transform="translate(85.50744932532461 560.9135142347625) rotate(0 303.8033062251575 257.88428740298997)"><path d="M32 0 C224.07 0.36, 416.46 0.68, 575.61 0 M32 0 C230.87 -0.96, 429.8 -0.73, 575.61 0 M575.61 0 C595.78 -0.84, 609.48 12.31, 607.61 32 M575.61 0 C597.72 -2.27, 609.23 11.96, 607.61 32 M607.61 32 C609.07 124.55, 608.84 216.42, 607.61 483.77 M607.61 32 C609.03 209.08, 608.75 386.23, 607.61 483.77 M607.61 483.77 C605.68 505.44, 598.84 514.31, 575.61 515.77 M607.61 483.77 C605.32 505.54, 597.7 514.48, 575.61 515.77 M575.61 515.77 C403.26 516.94, 230.03 517.22, 32 515.77 M575.61 515.77 C375.14 516.47, 174.25 516.17, 32 515.77 M32 515.77 C10.91 514.83, -1.48 504.27, 0 483.77 M32 515.77 C10.04 516.02, 1.78 506.59, 0 483.77 M0 483.77 C-2.71 350.39, -2.92 217.49, 0 32 M0 483.77 C-1.78 387.69, -1.86 291.56, 0 32 M0 32 C-0.94 11.5, 11.56 -0.63, 32 0 M0 32 C-1.14 11.06, 10.97 -1.39, 32 0" stroke="#f08c00" stroke-width="4" fill="none"></path></g><g stroke-linecap="round"><g transform="translate(86.42309770560541 609.4556900446219) rotate(0 303.0323196676618 -0.04920050536100007)"><path d="M-0.01 0.75 C101.28 0.86, 506.28 0.81, 607.54 0.79 M-1.47 0.1 C99.72 -0.14, 505.42 -0.67, 606.84 -0.92" stroke="#f08c00" stroke-width="4" fill="none"></path></g></g><mask></mask><g transform="translate(329.0435967370431 563.4689703351255) rotate(0 53.51274108886719 24.954196963932986)"><text x="0" y="34.9758024646485" font-family="Virgil, Segoe UI Emoji" font-size="39.926715142292814px" fill="#1e1e1e" text-anchor="start" style="white-space: pre;" direction="ltr" dominant-baseline="alphabetic">TASK</text></g><g transform="translate(93.3145129824361 619.5472961167559) rotate(0 68.47981262207031 74.83741818368344)"><text x="0" y="26.223031331562673" font-family="Virgil, Segoe UI Emoji" font-size="29.934967273473372px" fill="#1e1e1e" text-anchor="start" style="white-space: pre;" direction="ltr" dominant-baseline="alphabetic">+ title</text><text x="0" y="63.641740423404386" font-family="Virgil, Segoe UI Emoji" font-size="29.934967273473372px" fill="#1e1e1e" text-anchor="start" style="white-space: pre;" direction="ltr" dominant-baseline="alphabetic">+ action</text><text x="0" y="101.06044951524609" font-family="Virgil, Segoe UI Emoji" font-size="29.934967273473372px" fill="#1e1e1e" text-anchor="start" style="white-space: pre;" direction="ltr" dominant-baseline="alphabetic">+ status</text><text x="0" y="138.4791586070878" font-family="Virgil, Segoe UI Emoji" font-size="29.934967273473372px" fill="#1e1e1e" text-anchor="start" style="white-space: pre;" direction="ltr" dominant-baseline="alphabetic"></text></g><g stroke-linecap="round"><g transform="translate(86.42309770560541 740.5310518144472) rotate(0 302.7013583189289 -0.3214967262566688)"><path d="M-0.04 0.52 C101.03 0.47, 505.89 0.64, 606.92 0.33 M-1.52 -0.25 C99.36 -0.65, 504.93 -1.16, 606.02 -1.17" stroke="#f08c00" stroke-width="4" fill="none"></path></g></g><mask></mask><g transform="translate(105.15638097046758 753.4814248116367) rotate(0 265.9888610839846 13.2416065191631)"><text x="0" y="18.55943569725897" font-family="Virgil, Segoe UI Emoji" font-size="21.18657043066092px" fill="#1e1e1e" text-anchor="start" style="white-space: pre;" direction="ltr" dominant-baseline="alphabetic">+ Task(String title, String action, boolean status)</text></g><g transform="translate(341.66408665656263 812.0332913952655) rotate(0 12.569969177246094 22.006371319616903)"><text x="0" y="30.84413004157502" font-family="Virgil, Segoe UI Emoji" font-size="35.21019411138701px" fill="#e03131" text-anchor="start" style="white-space: pre;" direction="ltr" dominant-baseline="alphabetic">U</text></g><g transform="translate(242.2882395544416 777.7179681415697) rotate(0 11.936187744140625 22.006371319616903)"><text x="0" y="30.84413004157502" font-family="Virgil, Segoe UI Emoji" font-size="35.21019411138701px" fill="#e03131" text-anchor="start" style="white-space: pre;" direction="ltr" dominant-baseline="alphabetic">R</text></g><g transform="translate(105.15638097046758 790.175700680859) rotate(0 58.88994598388672 12.5)"><text x="0" y="17.52" font-family="Virgil, Segoe UI Emoji" font-size="20px" fill="#1e1e1e" text-anchor="start" style="white-space: pre;" direction="ltr" dominant-baseline="alphabetic">+ getTitle()</text></g><g transform="translate(105.15638097046758 825.3867635117551) rotate(0 113.79988861083984 12.5)"><text x="0" y="17.52" font-family="Virgil, Segoe UI Emoji" font-size="20px" fill="#1e1e1e" text-anchor="start" style="white-space: pre;" direction="ltr" dominant-baseline="alphabetic">+ setTitle(String title)</text></g><g transform="translate(105.15638097046758 860.5978263426513) rotate(0 64.53994750976562 12.5)"><text x="0" y="17.52" font-family="Virgil, Segoe UI Emoji" font-size="20px" fill="#1e1e1e" text-anchor="start" style="white-space: pre;" direction="ltr" dominant-baseline="alphabetic">+ getAction()</text></g><g transform="translate(106.04779624729827 894.917473896717) rotate(0 127.59989166259766 12.5)"><text x="0" y="17.52" font-family="Virgil, Segoe UI Emoji" font-size="20px" fill="#1e1e1e" text-anchor="start" style="white-space: pre;" direction="ltr" dominant-baseline="alphabetic">+ setAction(String action)</text></g><g transform="translate(105.15638097046758 931.0199520044436) rotate(0 70.06993865966797 12.5)"><text x="0" y="17.52" font-family="Virgil, Segoe UI Emoji" font-size="20px" fill="#1e1e1e" text-anchor="start" style="white-space: pre;" direction="ltr" dominant-baseline="alphabetic">+ getStatus()</text></g><g transform="translate(105.15638097046758 966.2310148353397) rotate(0 145.59986877441406 12.5)"><text x="0" y="17.52" font-family="Virgil, Segoe UI Emoji" font-size="20px" fill="#1e1e1e" text-anchor="start" style="white-space: pre;" direction="ltr" dominant-baseline="alphabetic">+ setStatus(boolean status)</text></g><g transform="translate(246.01995992657157 853.285305677202) rotate(0 11.936187744140625 22.006371319616903)"><text x="0" y="30.84413004157502" font-family="Virgil, Segoe UI Emoji" font-size="35.21019411138701px" fill="#e03131" text-anchor="start" style="white-space: pre;" direction="ltr" dominant-baseline="alphabetic">R</text></g><g transform="translate(257.2151210429615 923.2550626546396) rotate(0 11.936187744140625 22.006371319616903)"><text x="0" y="30.84413004157502" font-family="Virgil, Segoe UI Emoji" font-size="35.21019411138701px" fill="#e03131" text-anchor="start" style="white-space: pre;" direction="ltr" dominant-baseline="alphabetic">R</text></g><g transform="translate(371.36444178057127 886.8781863077674) rotate(0 12.569969177246094 22.006371319616903)"><text x="0" y="30.84413004157502" font-family="Virgil, Segoe UI Emoji" font-size="35.21019411138701px" fill="#e03131" text-anchor="start" style="white-space: pre;" direction="ltr" dominant-baseline="alphabetic">U</text></g><g transform="translate(404.62883951946105 956.9710244004278) rotate(0 12.569969177246094 22.006371319616903)"><text x="0" y="30.84413004157502" font-family="Virgil, Segoe UI Emoji" font-size="35.21019411138701px" fill="#e03131" text-anchor="start" style="white-space: pre;" direction="ltr" dominant-baseline="alphabetic">U</text></g><g transform="translate(646.7727773299152 744.0827933585347) rotate(0 11.337615966796875 22.006371319616903)"><text x="0" y="30.84413004157502" font-family="Virgil, Segoe UI Emoji" font-size="35.21019411138701px" fill="#e03131" text-anchor="start" style="white-space: pre;" direction="ltr" dominant-baseline="alphabetic">C</text></g><g transform="translate(390.3985360637339 463.1050531585735) rotate(0 -4.585809130516509 20.820627661540527)" stroke="none"><path d="M-3.16 0.66 C-5.85 5.8, -17.24 23.04, -21.53 30.22 C-25.82 37.4, -35.92 41.25, -28.92 43.74 C-21.92 46.23, 14.04 48.82, 20.46 45.15 C26.89 41.48, 13.36 29.49, 9.62 21.72 C5.89 13.95, 0.36 2.44, -1.96 -1.47" stroke="none" stroke-width="0" fill="#ffec99" fill-rule="evenodd"></path><path fill="transparent" d="M -0.90,1.61 Q -0.90,1.61 -1.75,2.63 -2.61,3.66 -3.46,5.02 -4.31,6.38 -4.90,7.48 -5.48,8.58 -6.13,9.79 -6.77,11.00 -7.70,12.40 -8.62,13.79 -9.58,15.28 -10.55,16.76 -11.60,18.40 -12.65,20.03 -13.27,20.99 -13.89,21.96 -14.91,23.47 -15.94,24.99 -16.82,26.29 -17.70,27.59 -18.42,28.66 -19.14,29.74 -19.77,30.65 -20.39,31.56 -20.93,32.56 -21.47,33.56 -22.09,34.57 -22.71,35.58 -23.45,36.92 -24.19,38.25 -24.72,39.23 -25.25,40.21 -25.88,41.44 -26.52,42.66 -26.63,42.87 -26.74,43.08 -26.90,43.48 -27.06,43.88 -27.31,44.23 -27.56,44.58 -27.88,44.86 -28.21,45.14 -28.60,45.34 -28.98,45.53 -29.40,45.63 -29.82,45.73 -30.25,45.72 -30.68,45.71 -31.10,45.60 -31.52,45.49 -31.89,45.29 -32.27,45.08 -32.59,44.79 -32.91,44.50 -33.15,44.14 -33.39,43.79 -33.54,43.38 -33.68,42.97 -33.73,42.55 -33.77,42.12 -33.71,41.69 -33.66,41.26 -31.62,39.95 -29.59,38.63 -28.19,38.57 -26.79,38.51 -25.40,38.49 -24.00,38.46 -22.10,38.50 -20.21,38.53 -18.20,38.58 -16.20,38.62 -14.80,38.61 -13.40,38.61 -11.77,38.59 -10.13,38.57 -8.74,38.57 -7.36,38.57 -5.54,38.60 -3.72,38.62 -2.36,38.68 -1.00,38.75 0.21,38.88 1.44,39.00 2.60,39.07 3.76,39.13 5.03,39.14 6.30,39.15 7.88,39.25 9.45,39.35 10.53,39.48 11.60,39.60 13.11,39.66 14.63,39.72 15.77,39.70 16.91,39.68 18.12,39.63 19.32,39.59 20.15,39.56 20.98,39.53 21.41,39.59 21.83,39.64 22.24,39.79 22.64,39.94 23.00,40.19 23.35,40.43 23.64,40.76 23.92,41.08 24.12,41.46 24.32,41.84 24.43,42.26 24.53,42.68 24.53,43.11 24.53,43.54 24.43,43.96 24.32,44.38 24.12,44.76 23.92,45.14 23.64,45.47 23.35,45.79 23.00,46.03 22.64,46.28 22.24,46.43 21.83,46.59 21.41,46.64 20.98,46.69 19.32,45.57 17.66,44.45 16.91,43.61 16.16,42.77 15.42,41.72 14.67,40.66 13.96,39.62 13.24,38.58 12.64,37.66 12.04,36.74 11.43,35.85 10.83,34.96 9.78,33.48 8.74,32.00 7.87,30.62 7.00,29.24 6.39,28.20 5.79,27.15 4.89,25.65 4.00,24.15 3.40,23.05 2.81,21.95 2.32,20.97 1.82,19.98 1.13,18.61 0.43,17.24 -0.06,16.16 -0.56,15.08 -1.05,14.06 -1.54,13.05 -2.20,11.58 -2.86,10.11 -3.31,9.07 -3.77,8.03 -4.40,6.73 -5.03,5.43 -5.47,4.24 -5.91,3.06 -6.66,1.07 -7.40,-0.92 -7.39,-1.50 -7.38,-2.09 -7.18,-2.64 -6.98,-3.19 -6.62,-3.65 -6.25,-4.11 -5.76,-4.43 -5.27,-4.75 -4.70,-4.89 -4.14,-5.04 -3.55,-5.00 -2.97,-4.95 -2.43,-4.73 -1.89,-4.50 -1.45,-4.11 -1.01,-3.72 -0.72,-3.22 -0.43,-2.71 -0.31,-2.13 -0.20,-1.56 -0.27,-0.98 -0.35,-0.40 -0.60,0.12 -0.86,0.65 -1.27,1.06 -1.68,1.48 -2.20,1.75 -2.73,2.01 -3.31,2.09 -3.89,2.18 -4.46,2.07 -5.04,1.96 -5.55,1.68 -6.06,1.40 -6.46,0.96 -6.85,0.53 -7.09,-0.00 -7.32,-0.53 -7.37,-1.12 -7.43,-1.70 -7.29,-2.27 -7.15,-2.84 -6.84,-3.34 -6.53,-3.83 -6.07,-4.20 -5.62,-4.57 -5.07,-4.78 -4.52,-4.98 -3.94,-5.00 -3.35,-5.02 -2.79,-4.86 -2.23,-4.69 -1.75,-4.35 -1.27,-4.01 -0.93,-3.54 -0.58,-3.07 -0.41,-2.51 -0.23,-1.95 -0.23,-1.95 -0.23,-1.95 0.49,-0.22 1.21,1.50 1.75,2.76 2.30,4.03 2.82,5.12 3.34,6.22 4.00,7.69 4.66,9.16 5.27,10.47 5.88,11.79 6.41,12.90 6.94,14.01 7.47,15.12 7.99,16.24 8.57,17.39 9.14,18.54 9.67,19.53 10.21,20.51 10.85,21.55 11.49,22.60 12.09,23.63 12.69,24.66 13.43,25.89 14.17,27.12 15.16,28.53 16.15,29.93 17.11,31.29 18.06,32.65 18.67,33.58 19.28,34.50 20.15,35.71 21.01,36.91 21.80,38.11 22.59,39.31 23.34,40.31 24.09,41.32 22.53,40.43 20.98,39.53 21.41,39.59 21.83,39.64 22.24,39.79 22.64,39.94 23.00,40.19 23.35,40.43 23.64,40.76 23.92,41.08 24.12,41.46 24.32,41.84 24.43,42.26 24.53,42.68 24.53,43.11 24.53,43.54 24.43,43.96 24.32,44.38 24.12,44.76 23.92,45.14 23.64,45.47 23.35,45.79 23.00,46.03 22.64,46.28 22.24,46.43 21.83,46.59 21.41,46.64 20.98,46.69 19.99,46.66 19.00,46.63 17.81,46.58 16.62,46.54 15.54,46.50 14.46,46.45 12.75,46.40 11.04,46.34 9.85,46.28 8.65,46.22 7.45,46.14 6.25,46.07 4.89,46.05 3.52,46.03 2.13,45.94 0.74,45.85 -0.35,45.71 -1.45,45.57 -2.58,45.49 -3.72,45.41 -5.54,45.44 -7.36,45.47 -8.74,45.47 -10.13,45.46 -11.77,45.44 -13.40,45.42 -14.80,45.42 -16.20,45.42 -18.19,45.46 -20.19,45.51 -22.04,45.56 -23.89,45.61 -25.74,45.68 -27.59,45.74 -28.90,45.75 -30.21,45.76 -28.48,44.42 -26.74,43.08 -26.90,43.48 -27.06,43.88 -27.31,44.23 -27.56,44.58 -27.88,44.86 -28.21,45.14 -28.60,45.34 -28.98,45.53 -29.40,45.63 -29.82,45.73 -30.25,45.72 -30.68,45.71 -31.10,45.60 -31.51,45.49 -31.89,45.29 -32.27,45.08 -32.59,44.79 -32.91,44.50 -33.15,44.14 -33.39,43.79 -33.53,43.38 -33.68,42.98 -33.73,42.55 -33.77,42.12 -33.71,41.69 -33.66,41.26 -33.35,40.64 -33.05,40.01 -32.46,38.85 -31.87,37.69 -31.24,36.72 -30.60,35.75 -29.84,34.45 -29.08,33.15 -28.16,31.72 -27.25,30.30 -26.55,29.13 -25.86,27.96 -25.13,26.99 -24.39,26.02 -23.63,24.98 -22.86,23.94 -21.93,22.65 -21.00,21.37 -20.06,20.04 -19.12,18.72 -18.50,17.70 -17.89,16.67 -16.79,14.96 -15.69,13.24 -14.67,11.73 -13.66,10.22 -12.82,9.08 -11.99,7.94 -11.29,6.85 -10.59,5.75 -9.78,4.52 -8.98,3.30 -7.84,1.79 -6.71,0.28 -5.87,-0.74 -5.02,-1.77 -4.79,-1.99 -4.56,-2.22 -4.28,-2.38 -4.00,-2.53 -3.69,-2.62 -3.38,-2.71 -3.06,-2.72 -2.74,-2.74 -2.43,-2.67 -2.11,-2.60 -1.82,-2.47 -1.53,-2.33 -1.28,-2.12 -1.03,-1.92 -0.84,-1.66 -0.65,-1.40 -0.52,-1.11 -0.40,-0.81 -0.35,-0.49 -0.30,-0.17 -0.33,0.14 -0.35,0.46 -0.46,0.76 -0.56,1.06 -0.73,1.34 -0.90,1.61 -0.90,1.61 L -0.90,1.61 Z"></path></g><g stroke-linecap="round"><g transform="translate(358.03943676598965 506.0469308393557) rotate(0 13.869661237537002 -21.751792523496817)"><path d="M-0.3 -0.88 C3.95 -7.94, 21.18 -35.9, 25.82 -42.93 M1.75 1.27 C6.33 -6.1, 23.8 -37.03, 28.03 -44.78" stroke="#f08c00" stroke-width="4" fill="none"></path></g></g><mask></mask><g stroke-linecap="round"><g transform="translate(410.00352302743295 505.9350706453936) rotate(0 -12.001283555656528 -22.119335080735823)"><path d="M-0.94 0.53 C-4.93 -6.47, -20.09 -35.67, -24.22 -42.85 M0.77 -0.24 C-3.29 -7.53, -20.78 -37.38, -24.77 -44.76" stroke="#f08c00" stroke-width="4" fill="none"></path></g></g><mask></mask><g stroke-linecap="round"><g transform="translate(357.7231740673333 506.0469308393557) rotate(0 26.775615164817737 -0.5108871380631399)"><path d="M0.75 0.4 C9.5 0.37, 43.04 0.38, 51.53 0.34 M-0.31 -0.44 C8.91 -0.86, 45.37 -1.18, 53.86 -1.42" stroke="#f08c00" stroke-width="4" fill="none"></path></g></g><mask></mask><g stroke-linecap="round"><g transform="translate(383.9680164628994 506.48508903849654) rotate(0 -0.8558580732292285 29.256645072650514)"><path d="M-1.16 1.04 C-1.16 10.49, -0.42 48.09, -0.57 57.47" stroke="#f08c00" stroke-width="4.5" fill="none" stroke-dasharray="8 12"></path></g></g><mask></mask><g transform="translate(290.7678350540623 1080.9659663517068) rotate(0 104.95073368351086 25.602759518708126)"><text x="0" y="35.88482774142131" font-family="Virgil, Segoe UI Emoji" font-size="40.964415229933px" fill="#e03131" text-anchor="start" style="white-space: pre;" direction="ltr" dominant-baseline="alphabetic">inheritance</text></g><g transform="translate(105.61207659187903 1000.1554374811246) rotate(0 147.62448120117188 13.2416065191631)"><text x="0" y="18.55943569725897" font-family="Virgil, Segoe UI Emoji" font-size="21.18657043066092px" fill="#1e1e1e" text-anchor="start" style="white-space: pre;" direction="ltr" dominant-baseline="alphabetic">+ calendarTask(String title)</text></g><g stroke-linecap="round"><g transform="translate(131.78077983131652 1027.820598979) rotate(0 123.40674508327152 -0.5586326033156297)"><path d="M0.93 -0.03 C41.97 -0.05, 205.79 -1.19, 246.86 -1.03 M-0.05 -1.09 C40.77 -0.92, 204.71 -0.07, 245.84 -0.03" stroke="#2f9e44" stroke-width="4" fill="none"></path></g></g><mask></mask><g transform="translate(105.61207659187903 1035.952404964765) rotate(0 128.74252319335938 13.2416065191631)"><text x="0" y="18.55943569725897" font-family="Virgil, Segoe UI Emoji" font-size="21.18657043066092px" fill="#1e1e1e" text-anchor="start" style="white-space: pre;" direction="ltr" dominant-baseline="alphabetic">+ emailTask(String title)</text></g><g stroke-linecap="round"><g transform="translate(131.78077983131652 1063.6175664626403) rotate(0 123.25995675697936 -0.7133516595727656)"><path d="M-1.14 -0.22 C40.11 -0.13, 206.39 0.32, 247.66 0.36 M0.46 -1.38 C41.59 -1.66, 206.24 -2.03, 247.06 -1.57" stroke="#2f9e44" stroke-width="4" fill="none"></path></g></g><mask></mask></svg>