<svg version="1.1" xmlns="http://www.w3.org/2000/svg" viewBox="0 0 1545.8512672293562 726.1944087061316" width="4637.553801688068" height="2178.583226118395">
  <!-- svg-source:excalidraw -->
  
  <defs>
    <style class="style-fonts">
      @font-face {
        font-family: "Virgil";
        src: url("https://excalidraw.com/Virgil.woff2");
      }
      @font-face {
        font-family: "Cascadia";
        src: url("https://excalidraw.com/Cascadia.woff2");
      }
      @font-face {
        font-family: "Assistant";
        src: url("https://excalidraw.com/Assistant-Regular.woff2");
      }
    </style>
    
  </defs>
  <rect x="0" y="0" width="1545.8512672293562" height="726.1944087061316" fill="#ffffff"></rect><g transform="translate(131.66371957466686 10) rotate(0 605.7785000384646 44.016480071886406)"><text x="0" y="61.693498468755976" font-family="Virgil, Segoe UI Emoji" font-size="70.42636811501824px" fill="#1e1e1e" text-anchor="start" style="white-space: pre;" direction="ltr" dominant-baseline="alphabetic">Filtrado modular de Requerimientos</text></g><g transform="translate(10 160.19443922370976) rotate(0 150.6231689453125 45.49999999999994)"><text x="0" y="63.772799999999954" font-family="Virgil, Segoe UI Emoji" font-size="72.79999999999994px" fill="#1e1e1e" text-anchor="start" style="white-space: pre;" direction="ltr" dominant-baseline="alphabetic">Tecnicos</text></g><g transform="translate(481 147.19443922370976) rotate(0 195.50437927246094 45.49999999999994)"><text x="0" y="63.772799999999954" font-family="Virgil, Segoe UI Emoji" font-size="72.79999999999994px" fill="#1e1e1e" text-anchor="start" style="white-space: pre;" direction="ltr" dominant-baseline="alphabetic">Funcionales</text></g><g transform="translate(1021.2280982840437 149.02878157087446) rotate(0 257.31158447265625 45.49999999999994)"><text x="0" y="63.772799999999954" font-family="Virgil, Segoe UI Emoji" font-size="72.79999999999994px" fill="#1e1e1e" text-anchor="start" style="white-space: pre;" direction="ltr" dominant-baseline="alphabetic">No Funcionales</text></g><g stroke-linecap="round" transform="translate(47.72114797707991 290.30525358016337) rotate(0 50.5 50.5)"><path d="M12.89 17.83 C12.89 17.83, 12.89 17.83, 12.89 17.83 M12.89 17.83 C12.89 17.83, 12.89 17.83, 12.89 17.83 M1.22 43.46 C15.02 29.9, 28.68 10.3, 35.99 3.46 M1.22 43.46 C9.17 33.57, 16.68 24.1, 35.99 3.46 M2.66 53.99 C15.81 35.76, 30.2 19.47, 47.27 2.67 M2.66 53.99 C13.03 42.29, 22.93 29.63, 47.27 2.67 M4.11 64.52 C16.66 49.33, 29.57 35.62, 58.56 1.88 M4.11 64.52 C15.91 50.73, 29.6 35.79, 58.56 1.88 M7.52 72.79 C29 49.11, 50.19 21.48, 66.57 4.86 M7.52 72.79 C24.13 53.69, 41.07 33.31, 66.57 4.86 M12.25 79.55 C24.61 66.42, 37.03 51.54, 74.57 7.85 M12.25 79.55 C29.47 59.1, 47.41 40.32, 74.57 7.85 M16.97 86.3 C29.68 71.16, 45.81 51.77, 81.92 11.59 M16.97 86.3 C29.84 71.16, 42.97 55.06, 81.92 11.59 M23.01 91.55 C45.1 67.73, 63.12 46.16, 87.96 16.84 M23.01 91.55 C45.74 65.74, 68.73 37.76, 87.96 16.84 M30.36 95.29 C47.85 76.55, 64.23 57, 92.68 23.59 M30.36 95.29 C43.3 80.52, 57.32 64.87, 92.68 23.59 M37.71 99.03 C55.08 78.4, 74.45 58.27, 97.41 30.35 M37.71 99.03 C53.74 81.05, 69.22 63.56, 97.41 30.35 M47.03 100.51 C65.95 76.61, 89.33 52.18, 99.51 40.13 M47.03 100.51 C61.22 82.85, 77.65 67.08, 99.51 40.13 M58.97 98.96 C67.17 88, 76.2 81.02, 99.64 52.17 M58.97 98.96 C71.36 86.05, 82.49 72.48, 99.64 52.17 M74.19 93.64 C80.82 83.18, 92.5 74.14, 95.19 69.49 M74.19 93.64 C80.76 85.64, 86.5 79.15, 95.19 69.49 M18.1 88.92 C18.1 88.92, 18.1 88.92, 18.1 88.92 M18.1 88.92 C18.1 88.92, 18.1 88.92, 18.1 88.92 M42.97 99.94 C32.32 90.86, 18.78 81.97, 3.73 65.83 M42.97 99.94 C34.25 92.08, 25.79 84.75, 3.73 65.83 M53.5 98.5 C33.94 80.05, 13.05 63.66, 2.18 53.89 M53.5 98.5 C39.14 85.63, 23.61 70.82, 2.18 53.89 M64.79 97.71 C49.52 84.68, 35.46 72.34, 0.64 41.94 M64.79 97.71 C44 79.63, 23.77 61.75, 0.64 41.94 M73.06 94.3 C55.21 77.39, 38.75 63.68, 3.62 33.94 M73.06 94.3 C52.08 74.74, 31.05 56.47, 3.62 33.94 M79.81 89.57 C58.07 70.22, 34.66 50.84, 8.12 27.25 M79.81 89.57 C59.28 71.05, 38.26 52.89, 8.12 27.25 M86.57 84.85 C63.23 66.01, 38.64 42.02, 11.86 19.9 M86.57 84.85 C58.13 59.72, 27.8 34.1, 11.86 19.9 M90.31 77.5 C60.67 54.78, 33.46 31.01, 17.86 14.51 M90.31 77.5 C73.33 62.05, 54.02 47.42, 17.86 14.51 M94.05 70.15 C76.61 57.23, 61.18 44.09, 24.62 9.79 M94.05 70.15 C76.45 54.74, 57.69 37.56, 24.62 9.79 M97.79 62.8 C80.43 46.84, 61.08 31.09, 31.37 5.06 M97.79 62.8 C77.2 46.39, 58.33 27.4, 31.37 5.06 M99.26 53.48 C77.51 33.45, 53.75 12.37, 40.4 2.31 M99.26 53.48 C81.1 38.37, 63.77 22.33, 40.4 2.31 M99.23 42.85 C85.38 31.56, 74.7 21.08, 51.68 1.52 M99.23 42.85 C81.06 28.58, 64.59 12.3, 51.68 1.52 M99.95 32.87 C89.96 21.03, 74.22 13.72, 66.74 4.01 M99.95 32.87 C92.45 27.21, 85.7 21.53, 66.74 4.01" stroke="#b2f2bb" stroke-width="1" fill="none"></path><path d="M60.41 1.4 C68.39 2.06, 76.99 6.15, 83.45 11.44 C89.91 16.74, 96.55 25.19, 99.18 33.17 C101.81 41.14, 101.14 50.89, 99.24 59.3 C97.33 67.7, 93.06 77.18, 87.76 83.6 C82.46 90.02, 75.3 95.01, 67.44 97.81 C59.59 100.61, 48.93 101.93, 40.66 100.4 C32.38 98.88, 24.01 94.42, 17.81 88.67 C11.61 82.93, 6.34 74.09, 3.45 65.95 C0.57 57.81, -1.12 47.87, 0.48 39.82 C2.09 31.76, 7.41 23.65, 13.07 17.63 C18.73 11.61, 26.33 6.44, 34.45 3.69 C42.57 0.94, 56.93 1.4, 61.79 1.12 C66.65 0.85, 63.7 1.08, 63.61 2.02 M41.51 0.11 C49.76 -2.01, 62.17 0.04, 70.17 3.23 C78.17 6.41, 84.69 12.64, 89.53 19.21 C94.37 25.78, 97.89 34.37, 99.21 42.64 C100.54 50.91, 100.58 61.02, 97.47 68.82 C94.37 76.61, 86.96 84.17, 80.59 89.41 C74.21 94.64, 67.33 99.01, 59.21 100.21 C51.1 101.4, 39.78 99.43, 31.89 96.57 C24 93.72, 17.21 89.47, 11.9 83.07 C6.58 76.66, 1.56 66.83, 0 58.16 C-1.57 49.49, -0.85 38.94, 2.51 31.04 C5.86 23.15, 13.25 15.72, 20.14 10.78 C27.02 5.84, 39.91 2.97, 43.8 1.4 C47.69 -0.17, 43.72 0.8, 43.49 1.36" stroke="#1e1e1e" stroke-width="2" fill="none"></path></g><g transform="translate(59.72114797707991 335.2526739843619) rotate(0 33.77995300292969 9.026289797900745)"><text x="0" y="12.651247780737698" font-family="Virgil, Segoe UI Emoji" font-size="14.442063676641208px" fill="#1e1e1e" text-anchor="start" style="white-space: pre;" direction="ltr" dominant-baseline="alphabetic">Seguridad</text></g><g stroke-linecap="round" transform="translate(159.7211479770799 285.30525358016337) rotate(0 50.5 50.5)"><path d="M14.18 14.97 C14.18 14.97, 14.18 14.97, 14.18 14.97 M14.18 14.97 C14.18 14.97, 14.18 14.97, 14.18 14.97 M1.85 41.36 C14.04 27.5, 22.99 15.72, 33.34 5.13 M1.85 41.36 C10.5 31.28, 19.74 20.21, 33.34 5.13 M2.64 52.64 C11.97 40.71, 21.16 30.44, 45.94 2.83 M2.64 52.64 C16.36 37.25, 28.22 22.72, 45.94 2.83 M3.42 63.93 C22.37 42.08, 41.8 19.44, 57.22 2.04 M3.42 63.93 C17.12 48.63, 29.71 34.35, 57.22 2.04 M7.49 71.44 C25.05 50.37, 39.07 33.69, 67.2 2.76 M7.49 71.44 C28.06 47.42, 48.92 22.87, 67.2 2.76 M10.91 79.71 C25.11 58.5, 43.35 39.6, 73.89 7.26 M10.91 79.71 C35.84 50.47, 60.74 22.78, 73.89 7.26 M14.98 87.22 C35.92 65.9, 56.23 39.01, 80.58 11.75 M14.98 87.22 C28.19 72.83, 41.49 57.22, 80.58 11.75 M22.33 90.96 C43.56 69.69, 61.39 45.74, 86.62 17 M22.33 90.96 C38.09 72.08, 54.19 53.33, 86.62 17 M29.02 95.45 C49.47 72.35, 69.21 47.2, 90.69 24.51 M29.02 95.45 C51.83 68.09, 75.89 40.62, 90.69 24.51 M36.37 99.19 C52.53 81.68, 64.14 63.89, 95.42 31.27 M36.37 99.19 C48.27 83.1, 62.13 68.27, 95.42 31.27 M46.34 99.91 C58.03 85.24, 70.38 74.02, 99.49 38.78 M46.34 99.91 C60.63 83.63, 73.75 67.72, 99.49 38.78 M56.97 99.88 C66.1 88.11, 77.17 78.61, 99.62 50.82 M56.97 99.88 C67.03 87.35, 77 76.78, 99.62 50.82 M71.54 95.31 C78.62 84.45, 90.48 74.94, 100.41 62.11 M71.54 95.31 C80.93 84.81, 92.13 73.21, 100.41 62.11 M14.66 86.78 C14.66 86.78, 14.66 86.78, 14.66 86.78 M14.66 86.78 C14.66 86.78, 14.66 86.78, 14.66 86.78 M41.04 99.11 C27.71 88.66, 13.03 72.79, 4.82 67.62 M41.04 99.11 C28.21 87.75, 16.73 78.07, 4.82 67.62 M53.08 98.98 C41.35 86.27, 25.78 78.16, 2.52 55.03 M53.08 98.98 C35.12 82.78, 19.25 68.99, 2.52 55.03 M64.37 98.19 C43.33 80.02, 22.05 64.08, 1.73 43.74 M64.37 98.19 C41.8 77.42, 17.25 56.42, 1.73 43.74 M71.88 94.12 C57.18 78.08, 38.67 63.59, 2.45 33.77 M71.88 94.12 C56.53 79.74, 41.14 65.43, 2.45 33.77 M79.39 90.05 C55.38 68.45, 28.41 44.45, 6.94 27.07 M79.39 90.05 C53.68 66.36, 26.05 43.59, 6.94 27.07 M86.15 85.33 C57.68 59.79, 26.3 33.93, 11.44 20.38 M86.15 85.33 C65.76 68.18, 46.37 52.19, 11.44 20.38 M90.65 78.63 C63.42 56.25, 39.85 35.75, 15.93 13.68 M90.65 78.63 C62.47 55.53, 36.12 30.39, 15.93 13.68 M94.39 71.28 C79.61 59.5, 62.43 43.54, 23.44 9.61 M94.39 71.28 C77.35 55.16, 58.53 39.63, 23.44 9.61 M98.88 64.59 C83.39 50.57, 64.39 32.95, 30.95 5.55 M98.88 64.59 C77.82 45.43, 56.08 27.97, 30.95 5.55 M99.6 54.62 C86.34 44.72, 71.43 31.9, 39.22 2.13 M99.6 54.62 C77.01 35.33, 56.37 16.41, 39.22 2.13 M99.56 43.99 C80.5 27.84, 62.49 9.89, 50.51 1.34 M99.56 43.99 C81.53 29.39, 65.09 12.93, 50.51 1.34 M95 29.42 C83.95 20.34, 73.45 14.22, 62.55 1.21 M95 29.42 C84.67 20.93, 74.95 12.54, 62.55 1.21" stroke="#b2f2bb" stroke-width="1" fill="none"></path><path d="M38.42 2.41 C45.9 -0.43, 56.33 -0.89, 64.23 1.33 C72.14 3.55, 80.04 9.57, 85.86 15.73 C91.68 21.89, 96.81 30.41, 99.13 38.28 C101.46 46.15, 102.07 54.9, 99.81 62.97 C97.55 71.05, 91.69 80.69, 85.56 86.71 C79.43 92.73, 70.96 96.89, 63.01 99.11 C55.06 101.33, 45.98 102.13, 37.88 100.04 C29.77 97.94, 20.28 92.76, 14.36 86.52 C8.45 80.29, 4.62 70.98, 2.39 62.64 C0.16 54.31, -1.03 44.52, 0.98 36.52 C3 28.52, 7.07 20.65, 14.47 14.64 C21.87 8.64, 39 2.73, 45.38 0.5 C51.77 -1.74, 52.51 0.58, 52.78 1.21 M72.03 4.73 C79.65 7.6, 87.41 14.59, 92.32 21.53 C97.23 28.47, 100.99 38.06, 101.49 46.37 C101.99 54.69, 99.32 63.54, 95.34 71.43 C91.36 79.32, 84.58 88.87, 77.61 93.71 C70.63 98.55, 61.7 100.05, 53.5 100.49 C45.3 100.92, 35.82 100.02, 28.4 96.32 C20.99 92.62, 13.52 85.14, 9.02 78.28 C4.52 71.43, 1.83 63.24, 1.41 55.19 C0.98 47.13, 3 37.75, 6.48 29.97 C9.97 22.19, 15.5 13.61, 22.3 8.51 C29.11 3.41, 38.95 -0.04, 47.31 -0.62 C55.67 -1.21, 68.41 3.81, 72.47 4.99 C76.54 6.18, 71.9 5.8, 71.69 6.49" stroke="#1e1e1e" stroke-width="2" fill="none"></path></g><g transform="translate(171.7211479770799 327.30525358016337) rotate(0 36.22316528320317 9)"><text x="0" y="12.614400000000012" font-family="Virgil, Segoe UI Emoji" font-size="14.400000000000015px" fill="#1e1e1e" text-anchor="start" style="white-space: pre;" direction="ltr" dominant-baseline="alphabetic">Desarrollo</text></g><g stroke-linecap="round" transform="translate(241.7586965594228 381.35881410902596) rotate(0 72 72)"><path d="M23.97 19.52 C23.97 19.52, 23.97 19.52, 23.97 19.52 M23.97 19.52 C23.97 19.52, 23.97 19.52, 23.97 19.52 M3.77 54.95 C11.71 45.34, 22.87 31.67, 47.07 5.14 M3.77 54.95 C12.15 44.92, 20.85 33.92, 47.07 5.14 M2.59 68.5 C22.37 47.26, 38.1 28.33, 60.32 2.09 M2.59 68.5 C22.78 45.66, 43.25 20.58, 60.32 2.09 M2.72 80.54 C21.92 59.84, 39.97 38.38, 71.61 1.3 M2.72 80.54 C17.06 64.16, 32.48 46.9, 71.61 1.3 M4.83 90.32 C28.07 63.19, 53.11 36.55, 82.9 0.51 M4.83 90.32 C25.68 66.82, 46.03 43.72, 82.9 0.51 M6.93 100.1 C38.19 62.16, 73.85 23.58, 90.9 3.49 M6.93 100.1 C30.21 72.02, 55.45 46.1, 90.9 3.49 M10.34 108.36 C27.87 85.93, 46.56 67.85, 98.91 6.48 M10.34 108.36 C36.32 79.48, 61.26 50.03, 98.91 6.48 M15.72 114.37 C49.64 72.57, 89.02 31.67, 106.91 9.46 M15.72 114.37 C44.54 80.16, 72.49 48.12, 106.91 9.46 M21.76 119.62 C54.9 82.82, 82.55 50.49, 114.26 13.2 M21.76 119.62 C52.59 85.11, 84.38 49.79, 114.26 13.2 M27.14 125.62 C49.08 102.88, 69.15 77.03, 119.65 19.21 M27.14 125.62 C63.36 84.76, 98.74 44.34, 119.65 19.21 M33.18 130.87 C60.57 97.4, 90.76 63.06, 125.03 25.21 M33.18 130.87 C64.86 94.68, 98.78 57.25, 125.03 25.21 M40.53 134.61 C63.73 109.51, 83.28 85.58, 130.41 31.21 M40.53 134.61 C66.05 104.8, 92.26 75.43, 130.41 31.21 M48.53 137.59 C76.5 106.19, 103.56 75.98, 135.79 37.21 M48.53 137.59 C78.86 101.5, 110.26 65.3, 135.79 37.21 M55.88 141.33 C72.03 123.67, 89.69 104.44, 138.55 46.24 M55.88 141.33 C87.06 105.11, 120.25 68.46, 138.55 46.24 M65.2 142.8 C94.46 111.83, 121.18 79.57, 141.3 55.26 M65.2 142.8 C80.14 126.03, 95.02 107.34, 141.3 55.26 M76.49 142.02 C96.38 118.62, 114.56 97.68, 144.06 64.28 M76.49 142.02 C103.16 113.84, 127.68 83.32, 144.06 64.28 M87.77 141.23 C109.71 114.94, 132.25 90.62, 142.88 77.83 M87.77 141.23 C108.39 117.64, 130.81 92.91, 142.88 77.83 M103 135.91 C110.4 126.13, 121.67 114.29, 140.39 92.89 M103 135.91 C114.91 122.19, 127.14 110.2, 140.39 92.89 M32.25 130.57 C32.25 130.57, 32.25 130.57, 32.25 130.57 M32.25 130.57 C32.25 130.57, 32.25 130.57, 32.25 130.57 M56.37 140.93 C41.89 129.09, 30.58 118.05, 6.56 97.63 M56.37 140.93 C37.35 125.94, 20.04 108.92, 6.56 97.63 M69.92 142.11 C47.83 119.76, 19.68 101.68, 2.75 83.72 M69.92 142.11 C55.31 130.54, 41.7 118.89, 2.75 83.72 M81.2 141.32 C53.04 115.73, 24.14 91.04, 1.96 72.44 M81.2 141.32 C51.9 115.33, 21.25 89.74, 1.96 72.44 M92.49 140.53 C72.39 121.51, 48.32 101.14, 2.68 62.46 M92.49 140.53 C60.86 113.27, 27.65 85.09, 2.68 62.46 M100 136.46 C70.13 108.52, 39.35 82.03, 4.15 53.14 M100 136.46 C77.14 116.81, 55.11 95.85, 4.15 53.14 M107.51 132.39 C81.34 107.98, 53.19 84.2, 4.87 43.17 M107.51 132.39 C79.33 107.66, 49.09 81.94, 4.87 43.17 M115.03 128.32 C75.09 92.9, 31.78 57.98, 10.12 37.13 M115.03 128.32 C85.14 101.74, 54.08 76.18, 10.12 37.13 M121.78 123.6 C94.64 101.19, 69.32 80.76, 15.37 31.09 M121.78 123.6 C84.7 89.26, 45.23 56.84, 15.37 31.09 M127.03 117.56 C97.28 90.9, 67.25 66.38, 19.86 24.4 M127.03 117.56 C100.85 94.09, 75.41 70.76, 19.86 24.4 M131.53 110.87 C102.33 86.37, 71.22 57.67, 25.11 18.36 M131.53 110.87 C98.58 81.53, 66.26 54.11, 25.11 18.36 M136.02 104.17 C107.45 78.11, 75.74 51.77, 32.63 14.29 M136.02 104.17 C109.68 82.78, 83.15 59.94, 32.63 14.29 M139.76 96.82 C108.92 73.17, 78.58 45.13, 39.38 9.57 M139.76 96.82 C106.22 67.59, 73.26 39.45, 39.38 9.57 M141.23 87.51 C119.03 68.17, 97.84 49.2, 46.9 5.5 M141.23 87.51 C119.33 66.61, 95.13 46.76, 46.9 5.5 M142.71 78.19 C117.16 54.91, 87.36 33.1, 55.16 2.09 M142.71 78.19 C113.92 52.62, 84.47 26.67, 55.16 2.09 M144.18 68.87 C116.94 48.08, 93.11 24.01, 66.45 1.3 M144.18 68.87 C115.77 44.61, 88.97 20.33, 66.45 1.3 M142.64 56.93 C124.28 40.23, 103.42 25.61, 77.74 0.51 M142.64 56.93 C119.81 37.73, 96.97 17.81, 77.74 0.51 M138.08 42.36 C124.86 31.61, 116.4 22.33, 94.3 4.31 M138.08 42.36 C123.43 29.16, 110.23 17.77, 94.3 4.31" stroke="#b2f2bb" stroke-width="1" fill="none"></path><path d="M82.7 0.4 C92.72 0.91, 104.56 6.21, 113.37 12.26 C122.18 18.31, 130.37 27.68, 135.55 36.69 C140.73 45.71, 143.9 55.86, 144.44 66.35 C144.99 76.83, 142.68 89.85, 138.83 99.61 C134.99 109.37, 129.12 118.01, 121.38 124.91 C113.64 131.8, 102.45 137.97, 92.38 140.99 C82.31 144.01, 71.04 144.81, 60.97 143.03 C50.9 141.25, 40.7 136.26, 31.97 130.32 C23.24 124.39, 13.72 116.35, 8.58 107.41 C3.45 98.47, 1.87 87.16, 1.15 76.68 C0.43 66.2, 0.4 54.11, 4.26 44.52 C8.11 34.94, 16.4 26.17, 24.28 19.16 C32.16 12.16, 39.91 5.22, 51.56 2.49 C63.2 -0.24, 85.31 1.5, 94.13 2.78 C102.95 4.05, 104.66 8.93, 104.46 10.15 M44.41 6.49 C53.18 2.1, 65.97 0.27, 76.58 0.71 C87.19 1.15, 99.03 4.2, 108.06 9.11 C117.09 14.02, 124.7 21.72, 130.77 30.18 C136.83 38.63, 142.71 49.49, 144.45 59.83 C146.18 70.16, 144.34 82.05, 141.17 92.2 C137.99 102.35, 132.67 112.88, 125.4 120.73 C118.13 128.58, 107.29 135.55, 97.52 139.3 C87.75 143.05, 76.89 143.79, 66.78 143.22 C56.67 142.65, 45.95 140.78, 36.86 135.88 C27.76 130.99, 18.11 122.43, 12.21 113.84 C6.32 105.25, 3 94.59, 1.49 84.35 C-0.02 74.12, 0.29 62.72, 3.16 52.43 C6.02 42.14, 11.68 30.25, 18.68 22.6 C25.68 14.94, 40.53 9.1, 45.16 6.52 C49.78 3.93, 45.84 6.07, 46.44 7.09" stroke="#1e1e1e" stroke-width="2" fill="none"></path></g><g transform="translate(277.7586965594228 437.35881410902596) rotate(0 32.20996856689453 12.5)"><text x="0" y="17.52" font-family="Virgil, Segoe UI Emoji" font-size="20px" fill="#1e1e1e" text-anchor="start" style="white-space: pre;" direction="ltr" dominant-baseline="alphabetic">Diseño</text></g><g stroke-linecap="round" transform="translate(81.72114797707991 397.30525358016337) rotate(0 72 72)"><path d="M9.89 36.43 C9.89 36.43, 9.89 36.43, 9.89 36.43 M9.89 36.43 C9.89 36.43, 9.89 36.43, 9.89 36.43 M2.81 56.77 C17.08 43.53, 26.41 28.93, 37.58 16.77 M2.81 56.77 C14.76 41.57, 28.6 28.01, 37.58 16.77 M2.94 68.81 C19.42 52.05, 34.98 35.46, 61.99 0.89 M2.94 68.81 C23.3 44.85, 43.89 20.48, 61.99 0.89 M4.39 79.34 C17.78 61.82, 34.93 45.43, 71.31 2.36 M4.39 79.34 C21.42 60.1, 39.62 39.83, 71.31 2.36 M5.83 89.87 C28.84 64.07, 52.55 37.2, 81.28 3.08 M5.83 89.87 C31.82 61.13, 56.73 30.57, 81.28 3.08 M7.28 100.4 C25.64 81.88, 42.46 63.44, 91.26 3.8 M7.28 100.4 C39.75 62.82, 72.61 24.71, 91.26 3.8 M12.01 107.16 C36.11 78.21, 62.37 47.11, 97.95 8.3 M12.01 107.16 C39.28 76.06, 64.72 46.17, 97.95 8.3 M16.73 113.92 C51.77 73.76, 88.92 33.92, 105.3 12.03 M16.73 113.92 C34.58 91.76, 53.25 69.53, 105.3 12.03 M21.46 120.68 C45.58 91.06, 71.65 62.94, 111.99 16.53 M21.46 120.68 C56.94 80.35, 91.3 40.03, 111.99 16.53 M25.53 128.19 C48.33 101.13, 72.46 73.98, 119.34 20.27 M25.53 128.19 C48.19 102.58, 71.75 74.82, 119.34 20.27 M32.88 131.93 C62.26 99.21, 94.03 64.03, 126.69 24.01 M32.88 131.93 C54.4 107.08, 75.41 82.14, 126.69 24.01 M40.23 135.67 C71.06 101.13, 96.71 70.55, 131.42 30.76 M40.23 135.67 C61.89 112.18, 82.66 89.5, 131.42 30.76 M47.58 139.41 C72.19 112.05, 96.44 81.54, 136.14 37.52 M47.58 139.41 C67.6 116.31, 88.08 91.93, 136.14 37.52 M54.27 143.9 C75.26 121.19, 94.46 102.67, 139.56 45.79 M54.27 143.9 C84.73 107.75, 117.19 71.57, 139.56 45.79 M64.24 144.62 C81.94 125.64, 102.58 101.7, 141 56.32 M64.24 144.62 C90.06 113.96, 116.16 82.63, 141 56.32 M74.22 145.34 C97.44 119.49, 116.03 95.09, 142.45 66.85 M74.22 145.34 C94.34 123.02, 114.24 98.23, 142.45 66.85 M84.85 145.31 C101.43 128.16, 115.17 111.6, 143.89 77.38 M84.85 145.31 C99.76 127.91, 114.07 110.99, 143.89 77.38 M100.07 139.99 C108.64 129.28, 121.42 116.69, 139.43 94.71 M100.07 139.99 C112.75 125.86, 125.34 110.04, 139.43 94.71 M23.23 125.71 C23.23 125.71, 23.23 125.71, 23.23 125.71 M23.23 125.71 C23.23 125.71, 23.23 125.71, 23.23 125.71 M51.87 140.01 C34.01 127.13, 18.39 113.44, 5.83 99.99 M51.87 140.01 C38.61 127.1, 24.02 113.98, 5.83 99.99 M65.42 141.19 C53.11 127.1, 38.84 114.41, 2.03 86.08 M65.42 141.19 C42.57 121.25, 20.87 102.47, 2.03 86.08 M78.22 141.71 C50.17 116.25, 20.73 93.75, 0.48 74.13 M78.22 141.71 C47.85 115.02, 15.92 87.6, 0.48 74.13 M87.99 139.61 C61.99 116.13, 33.6 94.41, 0.45 63.5 M87.99 139.61 C54.53 111.11, 20.73 81.63, 0.45 63.5 M97.02 136.85 C73.88 114.84, 50.66 92.64, 3.43 55.5 M97.02 136.85 C60.21 103.96, 22.3 72.64, 3.43 55.5 M106.04 134.09 C74.4 107.4, 42.27 79.94, 6.42 47.49 M106.04 134.09 C71.85 104.47, 37.88 75.3, 6.42 47.49 M114.3 130.68 C82.47 102.84, 51.7 74.69, 9.4 39.49 M114.3 130.68 C81 101.17, 46.39 72.27, 9.4 39.49 M119.55 124.64 C88.14 98.03, 59.39 70.22, 13.14 32.14 M119.55 124.64 C92.04 100.83, 66.63 79.23, 13.14 32.14 M124.8 118.6 C92.61 90.93, 63.94 62.31, 18.39 26.1 M124.8 118.6 C93.44 90.85, 63.47 63.92, 18.39 26.1 M130.05 112.57 C97.36 82.73, 68.29 55.25, 24.39 20.72 M130.05 112.57 C95.51 81.81, 59.82 51.74, 24.39 20.72 M135.3 106.53 C98.32 75.66, 61.9 41.66, 29.64 14.68 M135.3 106.53 C104.06 79.16, 71.51 51.76, 29.64 14.68 M137.53 97.87 C109.79 73.37, 81.94 48.42, 36.4 9.95 M137.53 97.87 C110.55 74.2, 83.12 51.19, 36.4 9.95 M139.76 89.2 C106.06 62.59, 73.66 32.99, 44.66 6.54 M139.76 89.2 C115.3 65.26, 88.98 43.53, 44.66 6.54 M141.99 80.54 C120.9 63.14, 103.55 47.41, 53.69 3.78 M141.99 80.54 C118.38 60.98, 96.92 41.85, 53.69 3.78 M142.71 70.57 C117.71 47.77, 95.62 26.64, 61.95 0.37 M142.71 70.57 C125.66 55.2, 107.7 39.2, 61.95 0.37 M141.16 58.63 C120.37 37.76, 96.04 18.56, 75.5 1.55 M141.16 58.63 C118.08 37.56, 92.97 16.82, 75.5 1.55 M140.37 47.34 C128.95 36.29, 120.04 27.06, 89.05 2.73 M140.37 47.34 C125.94 35.47, 111.6 23.14, 89.05 2.73 M124.49 22.93 C122.44 21.9, 120.82 19.64, 118.45 17.68 M124.49 22.93 C122.89 21.75, 121.37 20.21, 118.45 17.68" stroke="#b2f2bb" stroke-width="1" fill="none"></path><path d="M92.94 3.92 C102.61 5.86, 113.07 12.61, 120.83 19.48 C128.6 26.35, 135.85 35.56, 139.52 45.14 C143.19 54.72, 143.58 66.58, 142.85 76.96 C142.12 87.34, 140.06 98.29, 135.12 107.43 C130.18 116.57, 122.03 125.98, 113.19 131.8 C104.35 137.62, 92.6 140.93, 82.06 142.34 C71.51 143.76, 59.77 143.12, 49.92 140.31 C40.07 137.5, 30.61 132.67, 22.95 125.47 C15.3 118.26, 7.92 106.94, 3.99 97.07 C0.06 87.2, -1.67 76.42, -0.64 66.26 C0.4 56.1, 4.73 45.24, 10.17 36.11 C15.61 26.97, 23.48 17.34, 31.99 11.44 C40.5 5.53, 50.01 1.59, 61.22 0.67 C72.43 -0.25, 92.28 4.46, 99.23 5.9 C106.17 7.34, 103.54 8.22, 102.87 9.31 M81.38 1.68 C91.56 2.28, 103.46 7.35, 112.04 12.73 C120.63 18.12, 127.74 25.16, 132.89 33.97 C138.04 42.78, 142 54.88, 142.95 65.6 C143.89 76.32, 142.15 88.67, 138.54 98.3 C134.93 107.92, 128.79 116.44, 121.3 123.35 C113.81 130.26, 103.41 136.45, 93.58 139.77 C83.75 143.1, 72.32 144.44, 62.35 143.3 C52.37 142.15, 42.39 138.8, 33.71 132.88 C25.03 126.97, 15.79 116.77, 10.25 107.78 C4.71 98.8, 1.43 89.08, 0.47 78.97 C-0.5 68.87, 1 57.08, 4.45 47.17 C7.89 37.26, 13.53 27, 21.13 19.53 C28.73 12.05, 39.96 5.61, 50.03 2.32 C60.09 -0.97, 76.3 -0.43, 81.52 -0.23 C86.75 -0.03, 81.72 2.11, 81.35 3.52" stroke="#1e1e1e" stroke-width="2" fill="none"></path></g><g transform="translate(109.72114797707991 443.30525358016337) rotate(0 41.299949645996094 25)"><text x="0" y="17.52" font-family="Virgil, Segoe UI Emoji" font-size="20px" fill="#1e1e1e" text-anchor="start" style="white-space: pre;" direction="ltr" dominant-baseline="alphabetic">Roles y </text><text x="0" y="42.519999999999996" font-family="Virgil, Segoe UI Emoji" font-size="20px" fill="#1e1e1e" text-anchor="start" style="white-space: pre;" direction="ltr" dominant-baseline="alphabetic">Permisos</text></g><g stroke-linecap="round" transform="translate(450 261.52778272956914) rotate(0 72 72)"><path d="M27.32 15.8 C27.32 15.8, 27.32 15.8, 27.32 15.8 M27.32 15.8 C27.32 15.8, 27.32 15.8, 27.32 15.8 M12.37 45.2 C20.69 35.69, 31.56 23.04, 45.17 7.47 M12.37 45.2 C19.81 36.93, 27.11 28.18, 45.17 7.47 M9.22 61.02 C25.6 43.49, 37.74 26.3, 57.77 5.17 M9.22 61.02 C23.33 45.17, 36.19 28.96, 57.77 5.17 M6.07 76.83 C18.06 61.71, 32.17 47.1, 69.05 4.38 M6.07 76.83 C22.49 58.93, 37.7 39.4, 69.05 4.38 M8.17 86.61 C33.16 57.97, 58.5 31.41, 80.34 3.59 M8.17 86.61 C28.42 63.84, 47.52 41.99, 80.34 3.59 M9.62 97.14 C26.97 76.06, 42.67 57.94, 90.97 3.55 M9.62 97.14 C40.79 60.22, 72.66 24.23, 90.97 3.55 M11.07 107.67 C31.29 82.95, 53.67 58.12, 98.32 7.29 M11.07 107.67 C35.85 80.35, 59.86 52.35, 98.32 7.29 M16.45 113.67 C43.91 83.04, 73.55 49.52, 105.67 11.03 M16.45 113.67 C36.13 88.86, 56.82 65.93, 105.67 11.03 M21.17 120.43 C46.01 92.32, 73.83 61.32, 113.02 14.77 M21.17 120.43 C44.7 93.69, 68.8 64.67, 113.02 14.77 M26.55 126.43 C47.62 104.61, 66.22 81.15, 119.71 19.27 M26.55 126.43 C51.07 99.5, 74.05 69.46, 119.71 19.27 M31.94 132.44 C61.1 99.91, 87.73 67.93, 125.1 25.27 M31.94 132.44 C65.25 94.21, 97.79 57.89, 125.1 25.27 M39.29 136.18 C71.41 98.5, 104 63.37, 130.48 31.27 M39.29 136.18 C57.32 114.26, 76.86 93.62, 130.48 31.27 M47.29 139.16 C75.09 105.95, 102.85 73.19, 135.86 37.27 M47.29 139.16 C66.55 116.73, 85.56 95.65, 135.86 37.27 M55.95 141.39 C81.07 115.43, 100.26 90.27, 141.24 43.28 M55.95 141.39 C74.07 120.89, 92.84 99.14, 141.24 43.28 M66.58 141.36 C86.33 122.23, 100.29 100.53, 143.34 53.05 M66.58 141.36 C87.08 118.66, 106.3 95.76, 143.34 53.05 M77.21 141.32 C101.75 113.93, 127.64 84.08, 145.44 62.83 M77.21 141.32 C98.1 116.5, 119.62 92.45, 145.44 62.83 M87.84 141.29 C102.62 123.9, 118.45 103.74, 146.23 74.12 M87.84 141.29 C102.55 124.43, 115.63 107.63, 146.23 74.12 M94.54 145.78 C112.45 123.26, 130.87 103.92, 143.09 89.93 M94.54 145.78 C111.63 126.77, 127.87 106.05, 143.09 89.93 M27.2 128.75 C27.2 128.75, 27.2 128.75, 27.2 128.75 M27.2 128.75 C27.2 128.75, 27.2 128.75, 27.2 128.75 M52.07 139.77 C36.36 128.05, 21.68 112.75, 6.04 99.75 M52.07 139.77 C34.51 125.28, 18.41 109.22, 6.04 99.75 M66.38 141.61 C51.57 128.7, 37.71 117.27, 3.74 87.16 M66.38 141.61 C42.05 121.13, 17.05 99.04, 3.74 87.16 M78.42 141.48 C55.68 122.02, 36.71 105.13, 1.44 74.56 M78.42 141.48 C53.17 119.06, 30.17 97.81, 1.44 74.56 M89.71 140.69 C65.74 118.69, 44.18 99.36, 2.91 65.24 M89.71 140.69 C54.66 111.63, 21.6 81.38, 2.91 65.24 M97.97 137.27 C69.56 113.49, 42.92 87.24, 4.39 55.92 M97.97 137.27 C78.3 122.13, 59.84 103.98, 4.39 55.92 M106.24 133.86 C86.09 117.06, 63.1 95.17, 6.62 47.26 M106.24 133.86 C85.34 115.99, 62.75 96.81, 6.62 47.26 M114.51 130.45 C82.3 105.39, 50.75 78.73, 8.85 38.6 M114.51 130.45 C80.42 100.25, 46.33 70.11, 8.85 38.6 M120.51 125.06 C95.69 101.08, 71.33 79.34, 14.1 32.56 M120.51 125.06 C93.66 100.83, 67.3 77.68, 14.1 32.56 M125 118.37 C94.19 90.36, 61.95 61.12, 18.59 25.87 M125 118.37 C96.11 92.03, 67.5 68.7, 18.59 25.87 M130.25 112.33 C106.98 92.07, 83.56 74.54, 23.84 19.83 M130.25 112.33 C92.41 80.79, 56.42 49.89, 23.84 19.83 M134.75 105.64 C101.21 74.14, 64.24 47.27, 29.84 14.45 M134.75 105.64 C101.2 76.24, 65.33 44.93, 29.84 14.45 M138.49 98.29 C115 77.85, 93.5 61.7, 37.35 10.38 M138.49 98.29 C107.68 72.49, 76.77 45.19, 37.35 10.38 M139.96 88.97 C108.33 62.93, 78.89 33.68, 45.62 6.96 M139.96 88.97 C110.12 63.53, 81.76 37.89, 45.62 6.96 M142.19 80.31 C106.56 50.7, 71.41 19.17, 53.13 2.89 M142.19 80.31 C110.7 52.59, 79.55 26.08, 53.13 2.89 M143.66 70.99 C111.94 42.99, 82.63 19.3, 64.42 2.11 M143.66 70.99 C119.33 48.89, 94.19 27.08, 64.42 2.11 M141.37 58.39 C118.64 39.46, 96.09 17.35, 75.71 1.32 M141.37 58.39 C119.71 38.94, 98.63 20.68, 75.71 1.32 M139.07 45.8 C124.71 29.98, 107.56 16.32, 86.99 0.53 M139.07 45.8 C119.96 31.15, 103.21 14.31, 86.99 0.53" stroke="#a5d8ff" stroke-width="1" fill="none"></path><path d="M87.82 0.97 C97.46 2.22, 108.1 9.24, 116.36 15.73 C124.61 22.22, 132.79 30.57, 137.34 39.9 C141.88 49.24, 143.71 61.16, 143.62 71.73 C143.53 82.3, 141.16 93.78, 136.8 103.31 C132.43 112.84, 125.45 122.59, 117.42 128.91 C109.39 135.22, 98.98 139.13, 88.64 141.21 C78.3 143.28, 65.63 143.46, 55.38 141.38 C45.13 139.3, 35.26 135, 27.14 128.7 C19.03 122.41, 11.07 113.03, 6.67 103.61 C2.27 94.19, 0.64 82.75, 0.77 72.2 C0.89 61.66, 2.97 49.8, 7.44 40.35 C11.91 30.9, 19.63 21.81, 27.58 15.51 C35.52 9.22, 43.55 4.39, 55.13 2.59 C66.7 0.78, 88.75 3.44, 97.01 4.7 C105.27 5.97, 105.01 9.1, 104.7 10.16 M99.46 5.5 C108.97 8.23, 116.98 15.03, 123.8 22.53 C130.62 30.03, 137.33 40.33, 140.39 50.48 C143.46 60.63, 143.73 72.99, 142.2 83.45 C140.68 93.9, 136.9 104.88, 131.23 113.21 C125.56 121.53, 117.28 128.33, 108.18 133.38 C99.07 138.43, 86.87 142.78, 76.59 143.52 C66.32 144.26, 55.97 141.66, 46.53 137.82 C37.09 133.98, 27.19 127.89, 19.94 120.46 C12.69 113.03, 6.22 103.18, 3.03 93.24 C-0.16 83.31, -0.71 70.95, 0.8 60.84 C2.3 50.74, 6.03 41.22, 12.04 32.6 C18.04 23.99, 27.73 14.73, 36.82 9.18 C45.91 3.62, 56.28 0.18, 66.56 -0.73 C76.85 -1.64, 93.51 2.41, 98.54 3.72 C103.57 5.03, 97.11 5.94, 96.77 7.16" stroke="#1e1e1e" stroke-width="2" fill="none"></path></g><g transform="translate(485 320.52778272956914) rotate(0 36.94996643066406 12.5)"><text x="0" y="17.52" font-family="Virgil, Segoe UI Emoji" font-size="20px" fill="#1e1e1e" text-anchor="start" style="white-space: pre;" direction="ltr" dominant-baseline="alphabetic">Usuario</text></g><g transform="translate(616.0057752863484 152.76157731738647) rotate(0 56.9201890691204 8.932861906323183)"><text x="0" y="12.52029924790255" font-family="Virgil, Segoe UI Emoji" font-size="14.292579050117068px" fill="#e03131" text-anchor="start" style="white-space: pre;" direction="ltr" dominant-baseline="alphabetic">Idea de Negocio</text></g><g stroke-linecap="round" transform="translate(432 429.52778272956914) rotate(0 106.5 100.5)"><path d="M18.68 45.39 C18.68 45.39, 18.68 45.39, 18.68 45.39 M18.68 45.39 C18.68 45.39, 18.68 45.39, 18.68 45.39 M7 71.01 C24.83 51.64, 39.77 34.7, 55.55 15.16 M7 71.01 C22.56 52.12, 39.23 32.82, 55.55 15.16 M2.54 88.34 C31.1 57.47, 55.43 26.21, 72.74 7.58 M2.54 88.34 C21.74 68.84, 39.5 47.37, 72.74 7.58 M2.02 101.13 C29.25 68.81, 58.68 36.87, 87.96 2.26 M2.02 101.13 C28.66 72.16, 54.88 42.25, 87.96 2.26 M1.5 113.93 C36.62 73.3, 66.39 37.11, 98.59 2.23 M1.5 113.93 C22.64 89.92, 43.01 65.36, 98.59 2.23 M4.25 122.95 C36.34 84.39, 66.5 51.1, 109.22 2.2 M4.25 122.95 C39.3 80.28, 74.48 39.32, 109.22 2.2 M7.01 131.97 C51.93 83.56, 95.4 32.44, 120.51 1.41 M7.01 131.97 C51.67 80.24, 96.49 30.52, 120.51 1.41 M10.43 140.24 C36.62 108.37, 62.09 79.42, 129.17 3.64 M10.43 140.24 C52.63 91.61, 95.79 41.95, 129.17 3.64 M13.84 148.51 C44.4 113.71, 80.63 75.2, 137.83 5.87 M13.84 148.51 C50.29 107.4, 86.46 67.38, 137.83 5.87 M18.56 155.26 C55.33 115.18, 94.71 69.31, 146.5 8.1 M18.56 155.26 C69.08 97.4, 119.83 40.04, 146.5 8.1 M23.95 161.27 C51.06 127.63, 84.12 92.14, 154.5 11.08 M23.95 161.27 C54.78 124.87, 85.99 90.9, 154.5 11.08 M29.33 167.27 C64.34 127.22, 101.88 85.68, 161.85 14.82 M29.33 167.27 C59.29 132.02, 88.4 98.86, 161.85 14.82 M34.71 173.27 C69.24 133.94, 104.43 95.37, 167.89 20.07 M34.71 173.27 C60.21 142.39, 88.64 111.98, 167.89 20.07 M40.75 178.52 C90.52 123.05, 140.5 62.74, 173.93 25.32 M40.75 178.52 C89.32 120.94, 138.56 64.25, 173.93 25.32 M48.1 182.26 C100.6 120.67, 151.06 61.02, 179.96 30.56 M48.1 182.26 C77.51 147.14, 106.79 114.11, 179.96 30.56 M55.45 186 C103.43 130.08, 151.42 71.74, 186 35.81 M55.45 186 C98.38 136.49, 138.68 89.36, 186 35.81 M62.14 190.49 C89.36 158.14, 119.18 124.35, 191.38 41.82 M62.14 190.49 C109.45 133.11, 159.95 76.34, 191.38 41.82 M69.49 194.23 C103.92 154.56, 137.26 114.81, 195.45 49.33 M69.49 194.23 C105 151.67, 140.68 109.05, 195.45 49.33 M77.5 197.22 C101.87 168.95, 131.76 139.24, 200.18 56.09 M77.5 197.22 C126.11 140.85, 173.67 85.11, 200.18 56.09 M87.47 197.94 C118.3 162.39, 152.73 125.8, 204.9 62.84 M87.47 197.94 C117.29 164.4, 146.51 129.78, 204.9 62.84 M97.44 198.66 C135.82 156.38, 172.28 112.46, 208.32 71.11 M97.44 198.66 C121.39 172.31, 146.38 143.86, 208.32 71.11 M106.76 200.13 C144.16 154.42, 181.93 112, 210.42 80.89 M106.76 200.13 C140.7 161.63, 175.21 120.78, 210.42 80.89 M118.05 199.34 C143.53 168.06, 170.37 140.42, 211.86 91.42 M118.05 199.34 C144.4 169.77, 169.85 138.69, 211.86 91.42 M131.3 196.29 C158.99 160.16, 190.8 126.38, 213.97 101.2 M131.3 196.29 C160.51 160.31, 192.24 125.29, 213.97 101.2 M144.56 193.24 C157.23 178.04, 173.1 159.41, 211.47 116.26 M144.56 193.24 C161.06 175.98, 177.36 156.54, 211.47 116.26 M163.72 183.39 C177.19 171.26, 186.61 155.7, 207.02 133.58 M163.72 183.39 C172.22 173.76, 182.41 162.84, 207.02 133.58 M38.88 177.81 C38.88 177.81, 38.88 177.81, 38.88 177.81 M38.88 177.81 C38.88 177.81, 38.88 177.81, 38.88 177.81 M69.79 194.08 C50.28 175.85, 33.44 162.76, 12.43 144.22 M69.79 194.08 C55.5 182.89, 41.25 169.73, 12.43 144.22 M84.85 196.57 C58.28 171.7, 29.6 148.39, 6.36 128.34 M84.85 196.57 C60.28 174.7, 36.61 154.05, 6.36 128.34 M98.4 197.75 C58.49 162.19, 19.34 131.59, 1.04 113.12 M98.4 197.75 C74.73 177.74, 53.42 159, 1.04 113.12 M113.46 200.24 C88.63 176.81, 62.45 152.37, 1.76 103.15 M113.46 200.24 C74.92 165.8, 36.93 132.29, 1.76 103.15 M123.24 198.14 C92.97 167.73, 61.54 140.74, 2.48 93.17 M123.24 198.14 C81.74 160.61, 41.97 125.43, 2.48 93.17 M132.26 195.38 C98.61 165.3, 61.73 134.51, 2.45 82.54 M132.26 195.38 C101.86 168.61, 72.08 142.63, 2.45 82.54 M142.03 193.28 C97.8 153.26, 52.41 114.49, 5.43 74.54 M142.03 193.28 C95.77 154.83, 50.88 114.89, 5.43 74.54 M151.81 191.18 C122.47 162.51, 91.67 138.08, 9.17 67.19 M151.81 191.18 C94.3 142.46, 37.52 94.3, 9.17 67.19 M158.57 186.46 C120.91 152.16, 83.07 121, 12.16 59.18 M158.57 186.46 C103.26 141.25, 48.8 93.97, 12.16 59.18 M165.33 181.73 C111.03 135.63, 57 84.79, 15.89 51.83 M165.33 181.73 C106.94 132.89, 50.77 83.74, 15.89 51.83 M172.08 177.01 C121.72 133.6, 73.11 88.62, 19.63 44.48 M172.08 177.01 C136.45 146.76, 101.8 116.08, 19.63 44.48 M178.84 172.28 C123.51 121.48, 65.45 72.28, 25.64 39.1 M178.84 172.28 C143.16 140.47, 108 110.73, 25.64 39.1 M184.85 166.9 C139.94 126.42, 93.6 84.8, 30.89 33.06 M184.85 166.9 C140.96 129.3, 95.74 91.25, 30.89 33.06 M190.09 160.86 C154.42 129.45, 118.2 99.64, 36.89 27.68 M190.09 160.86 C143.91 120.58, 98.75 78.79, 36.89 27.68 M194.59 154.17 C139.37 105.06, 81.83 58.54, 42.89 22.3 M194.59 154.17 C147.95 114.85, 101.12 74.16, 42.89 22.3 M199.08 147.47 C153.65 106.77, 110.71 69.71, 48.89 16.92 M199.08 147.47 C162.48 114.41, 124.32 83, 48.89 16.92 M204.33 141.44 C149.49 98, 96.06 50.39, 57.16 13.5 M204.33 141.44 C162.61 105.31, 122 69.59, 57.16 13.5 M207.31 133.43 C174.45 103.84, 144.03 77.14, 65.43 10.09 M207.31 133.43 C176.44 105.88, 146.36 79.47, 65.43 10.09 M208.79 124.11 C156.55 77.4, 106.99 34.11, 72.94 6.02 M208.79 124.11 C156.35 78.37, 103.45 33.28, 72.94 6.02 M211.02 115.45 C172.75 82.39, 137.76 51.07, 81.21 2.61 M211.02 115.45 C175.33 84.39, 139.89 53.77, 81.21 2.61 M213.25 106.79 C169.77 69.56, 128.53 33.18, 92.5 1.82 M213.25 106.79 C187 85.94, 161.7 63.38, 92.5 1.82 M213.21 96.16 C185.53 75.24, 160.02 50.52, 104.54 1.69 M213.21 96.16 C171.07 61.08, 131.06 25.87, 104.54 1.69 M210.92 83.56 C188.61 64.74, 164.55 43.14, 115.82 0.9 M210.92 83.56 C178.86 56.47, 147.17 28.88, 115.82 0.9 M207.86 70.31 C191.94 57.73, 175.21 41.31, 132.39 4.7 M207.86 70.31 C178.59 45.28, 149.6 19.59, 132.39 4.7 M195.75 49.18 C179.78 36.88, 165.4 24.96, 149.72 9.16 M195.75 49.18 C178.35 35.06, 162.09 20.31, 149.72 9.16" stroke="#a5d8ff" stroke-width="1" fill="none"></path><path d="M81.87 2.37 C93.3 -1.97, 106.77 -0.17, 119.25 1.31 C131.72 2.78, 145.41 5.39, 156.72 11.22 C168.04 17.06, 178.8 27.03, 187.15 36.32 C195.5 45.62, 202.35 55.83, 206.81 66.98 C211.26 78.13, 214.22 90.99, 213.89 103.22 C213.55 115.46, 210.08 129.12, 204.81 140.38 C199.53 151.65, 191.22 162.27, 182.23 170.82 C173.24 179.36, 162.4 186.72, 150.86 191.64 C139.32 196.56, 125.83 199.58, 112.98 200.34 C100.14 201.11, 86.18 200.01, 73.81 196.23 C61.43 192.46, 48.6 185.2, 38.72 177.67 C28.83 170.14, 20.85 161.4, 14.51 151.04 C8.17 140.67, 2.61 127.41, 0.69 115.48 C-1.24 103.54, -0.08 91.17, 2.95 79.45 C5.98 67.73, 11.72 55.24, 18.88 45.15 C26.05 35.06, 34.64 26.01, 45.94 18.91 C57.24 11.82, 79.11 5.14, 86.68 2.58 C94.25 0.03, 91 2.08, 91.38 3.59 M70.82 5 C82.09 -0.25, 98.39 0.18, 111.57 0.78 C124.75 1.37, 138.32 4.04, 149.89 8.57 C161.46 13.11, 171.97 19.65, 180.98 28 C189.99 36.34, 198.78 47.58, 203.94 58.66 C209.11 69.74, 211.57 82.06, 211.98 94.47 C212.38 106.88, 210.16 121.43, 206.39 133.1 C202.61 144.78, 197.17 155.61, 189.33 164.54 C181.49 173.46, 170.64 180.79, 159.33 186.64 C148.03 192.5, 134.3 197.85, 121.52 199.68 C108.74 201.52, 95.22 200.36, 82.65 197.64 C70.08 194.91, 56.77 190.22, 46.1 183.34 C35.43 176.46, 25.92 166.14, 18.65 156.35 C11.39 146.56, 5.23 136.35, 2.51 124.59 C-0.21 112.83, 0.32 98.09, 2.33 85.77 C4.34 73.46, 8.62 60.92, 14.57 50.72 C20.52 40.51, 28.35 32, 38.02 24.54 C47.7 17.08, 67.05 9.07, 72.62 5.95 C78.19 2.84, 71.09 4.42, 71.46 5.82" stroke="#1e1e1e" stroke-width="2" fill="none"></path></g><g transform="translate(456 488.52778272956914) rotate(0 81.73756408691406 41)"><text x="81.73756408691406" y="28.732799999999983" font-family="Virgil, Segoe UI Emoji" font-size="32.79999999999998px" fill="#1e1e1e" text-anchor="middle" style="white-space: pre;" direction="ltr" dominant-baseline="alphabetic">Inventario</text><text x="81.73756408691406" y="69.73279999999997" font-family="Virgil, Segoe UI Emoji" font-size="32.79999999999998px" fill="#1e1e1e" text-anchor="middle" style="white-space: pre;" direction="ltr" dominant-baseline="alphabetic">Alimentos</text></g><g stroke-linecap="round" transform="translate(609 237.52778272956914) rotate(0 72 72)"><path d="M28.42 15.43 C28.42 15.43, 28.42 15.43, 28.42 15.43 M28.42 15.43 C28.42 15.43, 28.42 15.43, 28.42 15.43 M4.94 54.64 C20.96 38.06, 34.22 21.99, 46.92 6.34 M4.94 54.64 C19.91 37.4, 33.12 21.21, 46.92 6.34 M1.13 71.21 C18.25 52.39, 33.67 29.89, 61.49 1.78 M1.13 71.21 C20.69 46.98, 41.02 24.91, 61.49 1.78 M2.58 81.74 C17.73 66.83, 29.33 51.66, 71.46 2.5 M2.58 81.74 C17.29 66.47, 32.12 50.07, 71.46 2.5 M4.68 91.52 C36.65 53.96, 67.65 19.63, 82.09 2.46 M4.68 91.52 C19.42 74.79, 35.04 55.97, 82.09 2.46 M6.12 102.05 C34.74 72.77, 61.7 40.57, 92.07 3.18 M6.12 102.05 C23.42 81.24, 42.66 59.16, 92.07 3.18 M10.85 108.81 C31.73 81.04, 54.11 59.19, 99.42 6.92 M10.85 108.81 C44.85 69.24, 80.43 27.5, 99.42 6.92 M16.23 114.81 C49.8 78.06, 79.08 43.66, 106.77 10.66 M16.23 114.81 C41.38 87.96, 64.71 58.66, 106.77 10.66 M20.96 121.57 C46.26 91.17, 72.11 64.22, 114.12 14.4 M20.96 121.57 C49.88 89.44, 77.02 57.76, 114.12 14.4 M26.34 127.57 C47.98 101.69, 70.1 76.71, 120.15 19.65 M26.34 127.57 C49.31 101.36, 72.52 74.54, 120.15 19.65 M33.69 131.31 C57.98 105.79, 77.23 76.58, 125.54 25.65 M33.69 131.31 C66.53 93.2, 99.76 55.72, 125.54 25.65 M41.04 135.05 C70.95 99.08, 104.24 61.93, 130.26 32.41 M41.04 135.05 C64.01 107.37, 86.36 82.52, 130.26 32.41 M49.04 138.03 C74.33 108.18, 98.79 79.37, 135.64 38.41 M49.04 138.03 C78.15 102.65, 108.82 68.07, 135.64 38.41 M56.39 141.77 C82.99 112.17, 109.91 81.62, 139.06 46.68 M56.39 141.77 C88.76 103.85, 120.46 68.35, 139.06 46.68 M67.02 141.74 C88.21 118.92, 109.33 94.98, 141.16 56.46 M67.02 141.74 C92.99 111.17, 120.17 79.81, 141.16 56.46 M77 142.46 C104.42 112.14, 130.29 84.63, 142.6 66.99 M77 142.46 C99.19 116.84, 120.86 92.15, 142.6 66.99 M88.28 141.67 C99.33 129.28, 114.23 115.95, 142.74 79.03 M88.28 141.67 C107.41 120.38, 127.53 97.75, 142.74 79.03 M104.82 134.84 C116.15 121.56, 126.73 111.72, 138.93 95.6 M104.82 134.84 C111.17 125.32, 120.59 117.96, 138.93 95.6 M26.29 128.27 C26.29 128.27, 26.29 128.27, 26.29 128.27 M26.29 128.27 C26.29 128.27, 26.29 128.27, 26.29 128.27 M51.17 139.29 C39.91 129.82, 33.89 123.06, 5.88 99.93 M51.17 139.29 C35.02 124.22, 18.4 110.88, 5.88 99.93 M64.72 140.47 C43.04 119.29, 16.53 100.13, 3.58 87.33 M64.72 140.47 C44.24 124.2, 24.98 106.77, 3.58 87.33 M77.51 141 C52.75 121.12, 28.11 96.01, 1.29 74.73 M77.51 141 C56.41 122.89, 34.16 103.43, 1.29 74.73 M89.55 140.86 C65.81 122.8, 43.41 98.42, 2.01 64.76 M89.55 140.86 C62.77 117.74, 36.47 95.63, 2.01 64.76 M97.06 136.79 C60.63 104.43, 25.59 76.67, 4.24 56.1 M97.06 136.79 C64.9 109.55, 33.08 80.38, 4.24 56.1 M105.33 133.38 C79.54 114.46, 55.78 89.94, 7.22 48.09 M105.33 133.38 C79.52 109.98, 52.23 87.25, 7.22 48.09 M113.6 129.97 C79.65 102.03, 49.29 73.03, 9.45 39.43 M113.6 129.97 C73.04 95.04, 33.86 60.53, 9.45 39.43 M119.6 124.58 C82.23 90.89, 40.92 56.39, 14.7 33.39 M119.6 124.58 C84.48 91.78, 47.05 60.78, 14.7 33.39 M124.85 118.55 C85.77 86.83, 50 51.54, 19.19 26.7 M124.85 118.55 C89.13 89.81, 53.25 57.62, 19.19 26.7 M130.1 112.51 C99.74 84.81, 69.34 56.42, 24.44 20.66 M130.1 112.51 C89.15 78.11, 48.87 43.18, 24.44 20.66 M135.35 106.47 C106.9 81.46, 81.9 57.92, 29.69 14.62 M135.35 106.47 C100.59 76.35, 66.52 46.99, 29.69 14.62 M137.58 97.81 C108.82 72.08, 77.45 43.12, 37.2 10.55 M137.58 97.81 C102.12 65.44, 64.92 35.01, 37.2 10.55 M139.81 89.15 C113.53 66.94, 88.55 45.22, 45.47 7.14 M139.81 89.15 C103.52 58.2, 69.05 27.51, 45.47 7.14 M141.28 79.83 C117.48 61.51, 95.67 39.92, 52.98 3.07 M141.28 79.83 C117.61 59.96, 94.48 40.55, 52.98 3.07 M142.76 70.51 C118.66 51.16, 93.89 27.62, 62.76 0.97 M142.76 70.51 C117.56 48.41, 92.78 25.53, 62.76 0.97 M141.21 58.57 C126.76 45.93, 109.25 30.74, 75.55 1.49 M141.21 58.57 C118.35 37.62, 93.65 17.87, 75.55 1.49 M138.91 45.97 C126.94 36.62, 113.68 24.73, 88.35 2.02 M138.91 45.97 C126.68 35.82, 113.51 25.25, 88.35 2.02 M121.52 20.25 C120.38 19.23, 118.33 17.96, 116.24 15.66 M121.52 20.25 C119.76 19.2, 118.52 17.84, 116.24 15.66" stroke="#a5d8ff" stroke-width="1" fill="none"></path><path d="M58.04 1.28 C67.63 -1.88, 79.65 -0.39, 89.62 2.18 C99.59 4.75, 109.73 9.99, 117.86 16.7 C125.99 23.42, 134.18 33.15, 138.39 42.47 C142.6 51.78, 143.5 62.22, 143.14 72.58 C142.78 82.94, 140.88 95.09, 136.23 104.62 C131.58 114.15, 123.61 123.53, 115.24 129.76 C106.87 135.99, 96.06 140.12, 85.99 141.98 C75.92 143.84, 64.74 143.19, 54.81 140.92 C44.88 138.66, 34.59 134.84, 26.42 128.38 C18.25 121.93, 10.19 111.99, 5.79 102.21 C1.39 92.42, -0.46 79.97, 0.03 69.66 C0.52 59.36, 3.94 49.48, 8.72 40.39 C13.5 31.29, 20.26 21.51, 28.72 15.09 C37.17 8.67, 54.06 4.19, 59.46 1.88 C64.87 -0.42, 60.96 0.09, 61.16 1.25 M97.92 5.38 C107.47 7.65, 116.35 14.54, 123.62 21.74 C130.88 28.95, 138.06 38.55, 141.51 48.59 C144.96 58.64, 146.02 71.4, 144.33 82.01 C142.63 92.62, 137.33 103.81, 131.33 112.26 C125.33 120.71, 117.2 127.67, 108.34 132.7 C99.48 137.74, 88.62 141.26, 78.18 142.49 C67.74 143.72, 55.48 143.46, 45.69 140.07 C35.89 136.68, 26.31 129.81, 19.41 122.15 C12.52 114.5, 7.45 104.16, 4.3 94.14 C1.15 84.12, -0.72 72.23, 0.51 62.01 C1.75 51.8, 5.83 41.66, 11.73 32.85 C17.63 24.04, 26.92 14.42, 35.92 9.17 C44.91 3.92, 55.32 2.16, 65.7 1.35 C76.07 0.55, 92.99 3.49, 98.16 4.35 C103.34 5.22, 97.31 5.48, 96.76 6.56" stroke="#1e1e1e" stroke-width="2" fill="none"></path></g><g transform="translate(632 298.52778272956914) rotate(0 50.26995849609375 12.5)"><text x="0" y="17.52" font-family="Virgil, Segoe UI Emoji" font-size="20px" fill="#1e1e1e" text-anchor="start" style="white-space: pre;" direction="ltr" dominant-baseline="alphabetic">Calendario</text></g><g stroke-linecap="round" transform="translate(684 370.52778272956914) rotate(0 106.5 100.5)"><path d="M17.98 44.78 C17.98 44.78, 17.98 44.78, 17.98 44.78 M17.98 44.78 C17.98 44.78, 17.98 44.78, 17.98 44.78 M6.3 70.41 C22.48 50.06, 38.57 34.51, 54.2 15.31 M6.3 70.41 C21.48 54.65, 33.46 37.86, 54.2 15.31 M3.16 86.22 C27.25 53.92, 56.04 25.26, 71.39 7.73 M3.16 86.22 C29.05 55.59, 56.14 23.65, 71.39 7.73 M2.63 99.02 C28.68 69.4, 51.79 42.28, 86.61 2.41 M2.63 99.02 C19.55 78.18, 36.59 58.12, 86.61 2.41 M2.11 111.81 C35.51 72.88, 69.59 32.1, 97.24 2.38 M2.11 111.81 C27.32 82.86, 51.8 55.1, 97.24 2.38 M4.21 121.59 C40.26 81.72, 72.13 40.37, 108.53 1.59 M4.21 121.59 C35.07 84.76, 67.25 48.56, 108.53 1.59 M6.97 130.61 C32.98 100.89, 61.69 68.38, 119.81 0.8 M6.97 130.61 C36.92 97.18, 67 63.25, 119.81 0.8 M9.73 139.63 C34.73 113.56, 57.95 85.65, 128.47 3.03 M9.73 139.63 C53.8 88.32, 98.76 35.58, 128.47 3.03 M12.49 148.65 C58.57 95.46, 107.44 40.33, 137.14 5.26 M12.49 148.65 C60.6 96.04, 106.07 41.4, 137.14 5.26 M17.21 155.41 C52.38 116.94, 86.43 78.48, 145.14 8.24 M17.21 155.41 C47.08 121.98, 75.61 89.55, 145.14 8.24 M23.25 160.66 C61.32 115.5, 101.89 72.77, 153.8 10.47 M23.25 160.66 C60.14 118.48, 95.86 77.84, 153.8 10.47 M28.63 166.66 C74.18 115.69, 119.76 63.88, 161.15 14.21 M28.63 166.66 C62.63 127.88, 96.79 88.15, 161.15 14.21 M34.01 172.67 C67.67 134.65, 104.13 93.27, 167.19 19.46 M34.01 172.67 C79.59 118.4, 127.17 64.54, 167.19 19.46 M39.39 178.67 C76.15 138.72, 111.19 96.26, 173.89 23.95 M39.39 178.67 C76.08 137.56, 111.98 96.4, 173.89 23.95 M46.74 182.41 C82.72 142.41, 120.37 97.63, 179.92 29.2 M46.74 182.41 C84.2 139.1, 123.28 95.35, 179.92 29.2 M54.09 186.15 C106.14 126.13, 157.07 67.73, 185.96 34.45 M54.09 186.15 C90.59 142.25, 128.26 99.87, 185.96 34.45 M61.44 189.89 C100.2 143.92, 141.99 97.15, 190.69 41.21 M61.44 189.89 C97 150.36, 130.26 111.67, 190.69 41.21 M68.79 193.63 C97.5 158.97, 128.7 122.49, 195.41 47.97 M68.79 193.63 C108.56 147.69, 147.11 103.36, 195.41 47.97 M76.8 196.61 C108.35 160.1, 139.63 124.18, 199.48 55.48 M76.8 196.61 C120.38 145.42, 166.58 92.93, 199.48 55.48 M86.12 198.09 C113.02 166.59, 139.08 134.83, 204.21 62.24 M86.12 198.09 C128.72 149.21, 172.06 99.12, 204.21 62.24 M95.43 199.56 C135.06 153.3, 179.78 105.23, 208.28 69.75 M95.43 199.56 C140.16 147.46, 185.14 95.69, 208.28 69.75 M105.41 200.28 C148.02 151.75, 191.82 106.6, 209.72 80.28 M105.41 200.28 C133.49 168.83, 161.3 136.96, 209.72 80.28 M116.04 200.25 C140.81 169.78, 162 142.1, 211.82 90.06 M116.04 200.25 C140.3 172.16, 165.59 143.58, 211.82 90.06 M129.29 197.19 C150.1 171.37, 170.08 146.76, 213.27 100.59 M129.29 197.19 C150 173.03, 171.99 149.54, 213.27 100.59 M142.55 194.14 C158.74 172.98, 178.2 157.13, 211.43 114.9 M142.55 194.14 C165.14 168.39, 188.33 141.71, 211.43 114.9 M159.74 186.56 C173.4 167.68, 188.94 152.57, 206.32 132.97 M159.74 186.56 C174.86 169.5, 189.55 152.92, 206.32 132.97 M38.56 178.18 C38.56 178.18, 38.56 178.18, 38.56 178.18 M38.56 178.18 C38.56 178.18, 38.56 178.18, 38.56 178.18 M66.45 191.82 C55.88 179.63, 41.11 170.55, 11.36 143.93 M66.45 191.82 C52.35 178.55, 37.52 165.29, 11.36 143.93 M83.78 196.28 C65.96 182.48, 47.66 165.58, 6.8 129.36 M83.78 196.28 C66.47 181.88, 48.75 167.14, 6.8 129.36 M98.08 198.12 C72.96 176.55, 48.62 154.23, 1.48 114.14 M98.08 198.12 C60.65 165.24, 22.52 131.86, 1.48 114.14 M113.14 200.61 C70.9 162.83, 29.08 126.87, 2.2 104.17 M113.14 200.61 C75.05 166.5, 34.72 131.44, 2.2 104.17 M122.92 198.51 C79.01 162.56, 39.94 123.99, 2.16 93.54 M122.92 198.51 C97.41 174.93, 69.67 151.11, 2.16 93.54 M132.69 196.41 C85.63 157.27, 40.98 114.44, 2.88 83.56 M132.69 196.41 C101.36 170.23, 70.16 143.09, 2.88 83.56 M142.47 194.31 C108.61 163.96, 75.42 135.98, 4.36 74.25 M142.47 194.31 C109.22 164.38, 74.99 134.57, 4.36 74.25 M151.49 191.55 C101.02 147.5, 52.54 104.69, 8.1 66.9 M151.49 191.55 C106.38 151.61, 64.52 113.51, 8.1 66.9 M158.25 186.82 C99.35 135.67, 43.42 87.62, 11.84 59.55 M158.25 186.82 C101.42 135.76, 45.57 86.56, 11.84 59.55 M165.01 182.1 C116.52 139.23, 68.58 94.39, 14.82 51.54 M165.01 182.1 C114.33 136.84, 61.03 91.96, 14.82 51.54 M172.52 178.03 C114.27 128.13, 57.56 80.08, 18.56 44.19 M172.52 178.03 C134.22 144.92, 97.13 113.09, 18.56 44.19 M179.28 173.3 C132.46 132.78, 86.82 94.94, 24.56 38.81 M179.28 173.3 C133.53 133.27, 87.95 93.79, 24.56 38.81 M185.28 167.92 C146.36 137.28, 111.7 103.7, 30.57 33.43 M185.28 167.92 C151.83 138.22, 117.35 106.84, 30.57 33.43 M189.78 161.23 C153.92 129.23, 117.61 98.89, 35.82 27.39 M189.78 161.23 C157.85 133.33, 124.75 105.86, 35.82 27.39 M194.27 154.53 C136.33 105.91, 81.02 53.95, 41.82 22.01 M194.27 154.53 C161.5 127.27, 128.46 98.03, 41.82 22.01 M198.76 147.84 C146.38 100.35, 93.17 54.45, 48.58 17.28 M198.76 147.84 C148.53 102.65, 98.84 58.47, 48.58 17.28 M203.26 141.15 C169.49 110.52, 133.65 79.65, 56.84 13.87 M203.26 141.15 C153.67 98.29, 103.77 55.01, 56.84 13.87 M206.24 133.14 C174.06 105.02, 138.02 74.54, 65.11 10.46 M206.24 133.14 C175.16 106.01, 143.51 78.61, 65.11 10.46 M208.47 124.48 C180.39 97.16, 150.88 73.97, 73.38 7.04 M208.47 124.48 C159.85 81.55, 110.33 39.4, 73.38 7.04 M211.46 116.47 C173.91 83.64, 138.31 54.71, 80.89 2.97 M211.46 116.47 C184.03 92.66, 157.25 67.8, 80.89 2.97 M213.69 107.81 C169.18 67.09, 124.2 29.9, 92.18 2.18 M213.69 107.81 C177.95 75.77, 142.82 45.97, 92.18 2.18 M212.14 95.87 C179.37 65.1, 146.6 36.75, 103.46 1.39 M212.14 95.87 C175.73 63.33, 139.19 31.08, 103.46 1.39 M209.84 83.27 C184 60.57, 153.87 36.45, 114.75 0.61 M209.84 83.27 C191.51 65.9, 171.99 48.48, 114.75 0.61 M208.3 71.33 C184.35 47.76, 159.5 27.97, 129.05 2.44 M208.3 71.33 C189.33 55.22, 172.38 39.52, 129.05 2.44 M198.45 52.17 C184.62 43.14, 173.71 29.9, 147.89 8.21 M198.45 52.17 C179.26 34.87, 158.48 17.01, 147.89 8.21" stroke="#a5d8ff" stroke-width="1" fill="none"></path><path d="M82 2.96 C93.65 -1.19, 108.62 -1.11, 121.31 0.34 C133.99 1.8, 147.13 5.88, 158.11 11.7 C169.09 17.52, 179.04 26.03, 187.21 35.27 C195.38 44.5, 202.71 55.4, 207.13 67.09 C211.55 78.79, 214.32 93.07, 213.73 105.44 C213.14 117.81, 208.68 130.38, 203.59 141.3 C198.51 152.22, 192.17 162.41, 183.24 170.97 C174.3 179.54, 161.75 187.67, 149.97 192.69 C138.19 197.7, 125.27 200.61, 112.58 201.08 C99.88 201.56, 86.12 199.35, 73.8 195.55 C61.49 191.75, 48.83 185.85, 38.69 178.29 C28.56 170.74, 19.18 160.85, 12.98 150.21 C6.79 139.58, 3.2 126.52, 1.51 114.49 C-0.19 102.46, 0.06 89.66, 2.81 78.03 C5.56 66.41, 10.83 54.62, 18 44.76 C25.16 34.9, 33.2 26.31, 45.79 18.88 C58.38 11.44, 83.67 2.87, 93.53 0.16 C103.39 -2.54, 104.7 0.87, 104.96 2.65 M96.84 -0.18 C109.12 -2.98, 123.58 -0.15, 135.71 3.11 C147.83 6.37, 159.69 12.06, 169.59 19.4 C179.48 26.74, 188.31 36.96, 195.06 47.15 C201.8 57.33, 207.35 68.79, 210.05 80.53 C212.74 92.28, 213.37 105.45, 211.22 117.61 C209.08 129.76, 203.82 143.15, 197.16 153.48 C190.5 163.81, 181.55 172.17, 171.25 179.58 C160.95 186.99, 147.53 194.16, 135.37 197.92 C123.21 201.67, 110.86 203.21, 98.3 202.13 C85.74 201.05, 71.58 196.91, 60 191.42 C48.41 185.94, 37.36 178.02, 28.8 169.21 C20.23 160.39, 13.2 150.02, 8.62 138.53 C4.04 127.04, 1.72 112.33, 1.31 100.26 C0.91 88.19, 2.11 77.39, 6.18 66.11 C10.25 54.84, 17.3 41.62, 25.72 32.59 C34.14 23.55, 44.92 17.32, 56.71 11.88 C68.49 6.44, 89.98 1.33, 96.42 -0.06 C102.86 -1.45, 95.31 1.74, 95.34 3.56" stroke="#1e1e1e" stroke-width="2" fill="none"></path></g><g transform="translate(715.8068008422852 407.52778272956914) rotate(0 72.9307632446289 61.5)"><text x="72.9307632446289" y="28.732799999999983" font-family="Virgil, Segoe UI Emoji" font-size="32.79999999999998px" fill="#1e1e1e" text-anchor="middle" style="white-space: pre;" direction="ltr" dominant-baseline="alphabetic">Registro</text><text x="72.9307632446289" y="69.73279999999997" font-family="Virgil, Segoe UI Emoji" font-size="32.79999999999998px" fill="#1e1e1e" text-anchor="middle" style="white-space: pre;" direction="ltr" dominant-baseline="alphabetic">Diario </text><text x="72.9307632446289" y="110.73279999999994" font-family="Virgil, Segoe UI Emoji" font-size="32.79999999999998px" fill="#1e1e1e" text-anchor="middle" style="white-space: pre;" direction="ltr" dominant-baseline="alphabetic">Alimentos</text></g><g stroke-linecap="round" transform="translate(787 236.884507875768) rotate(0 73.16216216216219 63.321637426900566)"><path d="M5.75 60.65 C5.75 60.65, 5.75 60.65, 5.75 60.65 M5.75 60.65 C5.75 60.65, 5.75 60.65, 5.75 60.65 M7.85 70.42 C23.36 53.97, 38.59 36.42, 50.49 21.37 M7.85 70.42 C19.46 57.13, 30.77 44.42, 50.49 21.37 M13.89 75.67 C34.22 51.75, 57.77 23.1, 74.9 5.48 M13.89 75.67 C27.58 58.4, 43.12 42.86, 74.9 5.48 M19.92 80.92 C43.26 52.78, 70.87 23, 82.9 8.47 M19.92 80.92 C42.49 56.23, 63.97 31.77, 82.9 8.47 M25.96 86.17 C43.72 64.03, 63.7 41.13, 88.94 13.72 M25.96 86.17 C50.43 58.28, 73.33 30.56, 88.94 13.72 M32 91.42 C46.28 72.4, 63.24 54.64, 95.64 18.21 M32 91.42 C55.15 63.9, 77.8 37.16, 95.64 18.21 M38.04 96.66 C63.59 69.15, 85.51 39.79, 101.02 24.21 M38.04 96.66 C62.36 66.81, 87.32 38.65, 101.02 24.21 M44.73 101.16 C63.31 78.29, 86.29 52.52, 107.06 29.46 M44.73 101.16 C57.72 85.04, 71.16 69.17, 107.06 29.46 M50.77 106.41 C74.93 80.16, 100.54 50.61, 113.09 34.71 M50.77 106.41 C74.73 78.07, 99.92 50.37, 113.09 34.71 M56.8 111.66 C80.55 82.25, 106.46 55.13, 119.13 39.96 M56.8 111.66 C70.86 97.35, 83.02 81.88, 119.13 39.96 M62.84 116.9 C78.62 101.93, 92.9 84.08, 125.17 45.21 M62.84 116.9 C78.39 99.7, 92.93 83.4, 125.17 45.21 M69.54 121.4 C83.99 103.53, 101.19 88.42, 131.21 50.45 M69.54 121.4 C87.29 100.09, 105.46 79.4, 131.21 50.45 M81.48 119.85 C97.34 99.53, 112.79 83.17, 137.24 55.7 M81.48 119.85 C101.3 98, 119.35 75.29, 137.24 55.7 M120.32 87.37 C125.2 82.77, 130.13 75.65, 141.31 63.22 M120.32 87.37 C126.18 80.18, 132.52 74.95, 141.31 63.22 M18.16 79.71 C18.16 79.71, 18.16 79.71, 18.16 79.71 M18.16 79.71 C18.16 79.71, 18.16 79.71, 18.16 79.71 M76.24 119.59 C50.03 95.72, 24.8 73.35, 6.81 59.24 M76.24 119.59 C50.44 97.66, 23.28 74.63, 6.81 59.24 M84.51 116.18 C54.62 90.86, 29.97 65.1, 12.06 53.2 M84.51 116.18 C63.18 97.63, 39.42 77.47, 12.06 53.2 M90.51 110.8 C73.4 98.49, 57.11 84.28, 17.3 47.16 M90.51 110.8 C69.72 91.87, 47.27 72.93, 17.3 47.16 M96.51 105.42 C83.37 93.04, 65.68 77.61, 24.06 42.43 M96.51 105.42 C76.18 86.56, 54.52 68.03, 24.06 42.43 M103.27 100.69 C76.27 79.89, 54.27 58.27, 30.07 37.05 M103.27 100.69 C81.49 79.41, 57.12 60.16, 30.07 37.05 M109.28 95.31 C91.79 80.12, 71.58 63.57, 36.07 31.67 M109.28 95.31 C83.77 73.4, 58.8 53.27, 36.07 31.67 M115.28 89.93 C94.89 71.18, 72.2 53.24, 42.07 26.29 M115.28 89.93 C91.18 69.61, 66.75 49.33, 42.07 26.29 M121.28 84.55 C100.88 64.46, 78.38 47.68, 48.08 20.91 M121.28 84.55 C96.07 62.19, 69.32 40.32, 48.08 20.91 M127.29 79.16 C102.29 55.48, 76.33 34.63, 54.08 15.53 M127.29 79.16 C102.91 57.18, 77.68 36.45, 54.08 15.53 M133.29 73.78 C109.64 50.34, 86.39 32.63, 60.08 10.15 M133.29 73.78 C114.67 57.3, 94.71 42.87, 60.08 10.15 M139.29 68.4 C111.52 44.72, 83.59 19.75, 66.84 5.42 M139.29 68.4 C120.84 53.91, 103.75 37.97, 66.84 5.42 M136.24 55.15 C114.49 33.97, 89.99 17.24, 78.13 4.63 M136.24 55.15 C114.79 36.49, 92.65 16.47, 78.13 4.63" stroke="#a5d8ff" stroke-width="1" fill="none"></path><path d="M92.5 16 C99.65 24.67, 110.36 33.03, 127.82 48 M92.5 16 C105.14 27.44, 116.72 38.29, 127.82 48 M127.82 48 C147.91 64.71, 144.73 64.1, 127.82 80 M127.82 48 C146.08 65.22, 147.12 62.3, 127.82 80 M127.82 80 C117.1 86.98, 108.24 95.58, 92.5 110.64 M127.82 80 C118.59 88.81, 109.23 97.54, 92.5 110.64 M92.5 110.64 C75.94 127.56, 73.6 125.39, 55.5 110.64 M92.5 110.64 C74.44 127.55, 73.04 125.39, 55.5 110.64 M55.5 110.64 C42.07 99.01, 28.03 86.34, 18.5 80 M55.5 110.64 C44.7 99.56, 32.98 90.12, 18.5 80 M18.5 80 C1.35 63.46, -0.78 64.5, 18.5 48 M18.5 80 C-0.86 62.72, 1.55 64.3, 18.5 48 M18.5 48 C29.54 40.38, 40.07 31.73, 55.5 16 M18.5 48 C28.18 38.29, 38.57 28.78, 55.5 16 M55.5 16 C74.21 1.24, 74.67 1.6, 92.5 16 M55.5 16 C73.04 0.59, 76.01 -1.94, 92.5 16" stroke="#e03131" stroke-width="2" fill="none"></path></g><g transform="translate(810.1038406827879 289.9377716658738) rotate(0 50.417673819095626 10.696222538327788)"><text x="0" y="14.99182550972025" font-family="Virgil, Segoe UI Emoji" font-size="17.113956061324487px" fill="#1e1e1e" text-anchor="start" style="white-space: pre;" direction="ltr" dominant-baseline="alphabetic">Contractual</text></g><g stroke-linecap="round" transform="translate(636 561.884507875768) rotate(0 58.66216216216219 52.821637426900566)"><path d="M9.79 44.29 C9.79 44.29, 9.79 44.29, 9.79 44.29 M9.79 44.29 C9.79 44.29, 9.79 44.29, 9.79 44.29 M7.3 59.35 C19.58 48.92, 29.53 33.82, 53.22 6.52 M7.3 59.35 C20.64 44.53, 35.46 27.97, 53.22 6.52 M13.34 64.59 C23.1 50.51, 36.06 39.59, 64.51 5.73 M13.34 64.59 C23.66 52.43, 35.08 37.49, 64.51 5.73 M19.38 69.84 C38.13 50.02, 55.63 30.59, 70.55 10.98 M19.38 69.84 C39.02 46.35, 57.38 24.28, 70.55 10.98 M25.41 75.09 C46.08 54.15, 65.34 31.72, 76.59 16.22 M25.41 75.09 C37.52 61.21, 50.88 44.91, 76.59 16.22 M30.79 81.09 C48.14 60.54, 67.22 41.38, 82.62 21.47 M30.79 81.09 C46.75 63.09, 62.43 44.87, 82.62 21.47 M36.83 86.34 C55.22 65.11, 74.07 40.79, 88.66 26.72 M36.83 86.34 C48.4 73.46, 60.15 59.25, 88.66 26.72 M42.87 91.59 C55.01 75.72, 66.85 64.51, 94.7 31.97 M42.87 91.59 C54 78.64, 65.42 67.47, 94.7 31.97 M48.91 96.84 C61.32 82.71, 72.57 67.21, 100.08 37.97 M48.91 96.84 C65.37 78.61, 80.45 60.14, 100.08 37.97 M56.26 100.58 C70.49 86.23, 82.98 68.71, 106.12 43.22 M56.26 100.58 C75.35 78.82, 94.64 57.7, 106.12 43.22 M74.1 92.24 C83.04 80.97, 94.38 68.72, 111.5 49.22 M74.1 92.24 C83.44 80.96, 93.58 70.92, 111.5 49.22 M49.48 97.03 C49.48 97.03, 49.48 97.03, 49.48 97.03 M49.48 97.03 C49.48 97.03, 49.48 97.03, 49.48 97.03 M64.54 99.52 C45.24 78.74, 23.16 62.52, 6.43 49 M64.54 99.52 C49.28 84.99, 34.92 71.72, 6.43 49 M71.3 94.8 C47.58 75.24, 24.89 53.07, 11.68 42.97 M71.3 94.8 C50.73 74.39, 28.73 56.47, 11.68 42.97 M77.3 89.41 C57.39 70.32, 33 49.38, 17.68 37.58 M77.3 89.41 C61.9 75.48, 44.26 60.85, 17.68 37.58 M83.3 84.03 C59.26 64.14, 37.91 43.11, 23.68 32.2 M83.3 84.03 C69.74 73.15, 56.12 59.91, 23.68 32.2 M89.31 78.65 C67.1 59.08, 41.99 36.13, 29.68 26.82 M89.31 78.65 C70.98 61.95, 53.71 46.65, 29.68 26.82 M95.31 73.27 C80.85 62.5, 66.96 49.67, 35.69 21.44 M95.31 73.27 C75.89 56.38, 55.17 40.26, 35.69 21.44 M101.31 67.89 C84.52 53.18, 67.74 40.24, 41.69 16.06 M101.31 67.89 C87.85 55.74, 73.74 42.51, 41.69 16.06 M107.32 62.51 C90.62 48.14, 75.62 35.54, 47.69 10.68 M107.32 62.51 C91.5 48.84, 76.56 36.36, 47.69 10.68 M111.81 55.81 C100.93 46.56, 87.36 33.9, 54.45 5.95 M111.81 55.81 C99.16 44.34, 86.02 32.11, 54.45 5.95" stroke="#a5d8ff" stroke-width="1" fill="none"></path><path d="M73.75 13.25 C83.75 22.59, 94.94 30.52, 102.57 39.75 M73.75 13.25 C81.88 21.17, 91.74 29.93, 102.57 39.75 M102.57 39.75 C117.29 52.82, 115.99 54.22, 102.57 66.25 M102.57 39.75 C117.13 54.84, 116.91 53.58, 102.57 66.25 M102.57 66.25 C95.06 70.77, 89.95 80.51, 73.75 92.39 M102.57 66.25 C91.51 75.13, 82.19 85.6, 73.75 92.39 M73.75 92.39 C57.83 107.54, 59.61 107.33, 44.25 92.39 M73.75 92.39 C59.37 105.8, 60.36 106.32, 44.25 92.39 M44.25 92.39 C38.97 85.39, 31.45 79.84, 14.75 66.25 M44.25 92.39 C38.84 87.21, 31.27 81.04, 14.75 66.25 M14.75 66.25 C-1.32 54.03, 0.73 54.48, 14.75 39.75 M14.75 66.25 C-1.13 51.14, 1.06 52.7, 14.75 39.75 M14.75 39.75 C26.72 30.61, 34.57 21.16, 44.25 13.25 M14.75 39.75 C21.85 33.42, 28.11 27.12, 44.25 13.25 M44.25 13.25 C57.38 -1.91, 57.99 0.7, 73.75 13.25 M44.25 13.25 C60.57 1.45, 56.88 1.53, 73.75 13.25" stroke="#e03131" stroke-width="2" fill="none"></path></g><g transform="translate(657 593.5277827295691) rotate(0 37.67316436767578 19)"><text x="37.67316436767578" y="13.315199999999983" font-family="Virgil, Segoe UI Emoji" font-size="15.19999999999998px" fill="#1e1e1e" text-anchor="middle" style="white-space: pre;" direction="ltr" dominant-baseline="alphabetic">Calidad</text><text x="37.67316436767578" y="32.31519999999996" font-family="Virgil, Segoe UI Emoji" font-size="15.19999999999998px" fill="#1e1e1e" text-anchor="middle" style="white-space: pre;" direction="ltr" dominant-baseline="alphabetic">Alimenticia</text></g><g stroke-linecap="round" transform="translate(420 133.19440870613164) rotate(0 264.5 291.5)"><path d="M32 0 C164.95 -1.01, 297.43 -2.49, 497 0 M32 0 C152.49 -0.66, 272.98 -0.55, 497 0 M497 0 C519.98 1.63, 530.39 9.41, 529 32 M497 0 C517.27 -1.21, 529.23 10.64, 529 32 M529 32 C527.81 169.82, 527.83 307.06, 529 551 M529 32 C530.36 187.12, 530.37 342.56, 529 551 M529 551 C528.8 573.15, 518.53 582.26, 497 583 M529 551 C530.96 570.17, 516.04 582.01, 497 583 M497 583 C394.38 581.81, 292.91 583.15, 32 583 M497 583 C381 581.3, 264.56 581.1, 32 583 M32 583 C12.39 583.2, 0.06 572.78, 0 551 M32 583 C11.71 583.3, -1.16 570.66, 0 551 M0 551 C-0.62 414.62, -0.33 276.85, 0 32 M0 551 C-1.47 408.02, -2.19 264.57, 0 32 M0 32 C0.17 10.41, 8.97 0.36, 32 0 M0 32 C0.21 12.88, 8.9 1.84, 32 0" stroke="#e03131" stroke-width="2" fill="none"></path></g><g stroke-linecap="round" transform="translate(1074.3854042734406 235.1453736800437) rotate(0 109.99242982559224 109.99242982559224)"><path d="M39.83 25.35 C39.83 25.35, 39.83 25.35, 39.83 25.35 M39.83 25.35 C39.83 25.35, 39.83 25.35, 39.83 25.35 M8.47 73.62 C29.3 50.27, 51.57 27.47, 60.96 13.24 M8.47 73.62 C30.55 49.33, 50.87 25.65, 60.96 13.24 M1.39 93.96 C25.75 66.28, 46.76 42.19, 78.81 4.9 M1.39 93.96 C20.78 71.84, 40.06 49.93, 78.81 4.9 M2.18 105.25 C22.28 81.81, 44.68 58.47, 90.75 3.36 M2.18 105.25 C24.04 81.01, 47.49 54.39, 90.75 3.36 M2.31 117.29 C26.21 86.74, 52.79 60.22, 102.03 2.57 M2.31 117.29 C28.54 87.21, 56.37 57.62, 102.03 2.57 M2.45 129.33 C45.52 78.16, 87.3 29.23, 113.98 1.03 M2.45 129.33 C25.61 100.85, 50.34 73.72, 113.98 1.03 M4.55 139.1 C35.19 103.91, 67.74 65.01, 123.29 2.5 M4.55 139.1 C41.24 95.55, 78.67 53.32, 123.29 2.5 M8.62 146.62 C33.55 118.6, 58.4 87.48, 132.61 3.98 M8.62 146.62 C47.44 101.46, 87.09 56.93, 132.61 3.98 M12.03 154.88 C48.14 111.19, 83.33 70.62, 141.27 6.21 M12.03 154.88 C49.64 112.94, 87.6 69.57, 141.27 6.21 M16.1 162.4 C63.72 109.94, 108.82 58.57, 149.94 8.44 M16.1 162.4 C59.25 111.96, 101.19 63.13, 149.94 8.44 M19.51 170.66 C52.22 133.88, 84.09 97.68, 157.94 11.42 M19.51 170.66 C57.43 127.83, 94.49 83.69, 157.94 11.42 M24.9 176.67 C56.7 144.16, 84.36 108.9, 164.64 15.91 M24.9 176.67 C61.01 133.39, 98.97 88.88, 164.64 15.91 M30.28 182.67 C84.61 117.46, 137.33 56.16, 171.33 20.41 M30.28 182.67 C66.38 138.46, 104.54 96.11, 171.33 20.41 M35.66 188.67 C81.31 140.1, 122.19 89.62, 177.37 25.66 M35.66 188.67 C83.2 131.94, 130.77 76.7, 177.37 25.66 M41.04 194.68 C72.99 156.21, 105.91 118.97, 184.06 30.15 M41.04 194.68 C79.39 151.49, 116.52 108.82, 184.06 30.15 M46.42 200.68 C90.17 151.83, 133.86 102.45, 190.1 35.4 M46.42 200.68 C100.53 138.35, 153.26 78.82, 190.1 35.4 M53.77 204.42 C108.77 140.47, 164.05 80.54, 194.82 42.16 M53.77 204.42 C105.22 147.59, 154.34 90.78, 194.82 42.16 M61.12 208.16 C104.84 157.32, 147.92 105.04, 200.21 48.16 M61.12 208.16 C108.09 154.15, 154.19 99.67, 200.21 48.16 M69.13 211.14 C105.8 167.99, 145.81 123.16, 204.93 54.92 M69.13 211.14 C102.21 174.01, 135.13 136.94, 204.93 54.92 M76.48 214.88 C112.91 171.05, 147.51 128.18, 209.66 61.68 M76.48 214.88 C113.42 173.51, 150.01 130.48, 209.66 61.68 M84.48 217.87 C120.88 174.08, 157.89 131.2, 213.07 69.94 M84.48 217.87 C126.85 170.73, 167.15 123.66, 213.07 69.94 M94.46 218.59 C136.83 168.53, 183.5 119.52, 215.17 79.72 M94.46 218.59 C141.16 165.52, 187.73 111.15, 215.17 79.72 M105.09 218.55 C149.76 168.71, 194.45 117.17, 217.27 89.5 M105.09 218.55 C150.24 166.95, 194.26 115.92, 217.27 89.5 M115.06 219.27 C151.49 178.26, 186.49 140.72, 219.37 99.27 M115.06 219.27 C144.73 184.76, 173.31 148.65, 219.37 99.27 M126.35 218.48 C152.25 188.39, 177.67 159.62, 220.16 110.56 M126.35 218.48 C160.74 178.25, 196.09 139.39, 220.16 110.56 M140.91 213.92 C157.91 194.42, 176.49 173.33, 217.67 125.62 M140.91 213.92 C170.34 179.59, 198.85 147.29, 217.67 125.62 M155.48 209.36 C171.37 190.87, 189.99 167.89, 214.53 141.43 M155.48 209.36 C176.03 186.6, 196.26 162.92, 214.53 141.43 M181.2 191.96 C185.3 188.26, 192.68 180.13, 202.85 167.06 M181.2 191.96 C188.43 183.94, 194.4 175.24, 202.85 167.06 M46.64 200.89 C46.64 200.89, 46.64 200.89, 46.64 200.89 M46.64 200.89 C46.64 200.89, 46.64 200.89, 46.64 200.89 M73.02 213.22 C56.66 199.51, 38.27 184.48, 17.93 165.33 M73.02 213.22 C62.14 202.61, 49.79 194.43, 17.93 165.33 M90.35 217.68 C67.97 201.85, 48.97 181.76, 9.59 147.48 M90.35 217.68 C71.97 201.17, 53.68 185.01, 9.59 147.48 M103.14 218.21 C65.05 185.21, 28.76 151.6, 2.77 130.95 M103.14 218.21 C66.26 186.32, 30.16 155.02, 2.77 130.95 M115.94 218.73 C71.96 181.63, 27.94 142.08, 1.98 119.66 M115.94 218.73 C79.48 188.32, 44.43 157.49, 1.98 119.66 M127.23 217.94 C81.13 179.53, 35.91 135.81, 1.94 109.03 M127.23 217.94 C84.95 184.12, 44.36 147.94, 1.94 109.03 M136.25 215.18 C93.32 178.34, 50.99 140.02, 1.91 98.4 M136.25 215.18 C84.14 171.71, 34.96 126.44, 1.91 98.4 M145.27 212.42 C111.03 181.47, 72.4 148.82, 3.38 89.09 M145.27 212.42 C92.65 165.28, 39.19 119.24, 3.38 89.09 M154.29 209.67 C108.62 170.74, 63.81 132.54, 6.37 81.08 M154.29 209.67 C118.22 181.13, 82.56 148.43, 6.37 81.08 M162.56 206.25 C116.21 166.1, 71.98 128.29, 8.6 72.42 M162.56 206.25 C123.22 173.18, 84.01 137.47, 8.6 72.42 M169.32 201.53 C125.49 162.76, 81.74 126.8, 11.58 64.41 M169.32 201.53 C112.89 151.63, 54.85 103.45, 11.58 64.41 M175.32 196.15 C142.4 166.07, 109.3 137, 14.57 56.41 M175.32 196.15 C127.04 153.71, 79.25 112.79, 14.57 56.41 M182.08 191.42 C137.09 150.73, 89.27 109.64, 19.06 49.71 M182.08 191.42 C132.03 147.02, 80.61 103.88, 19.06 49.71 M188.08 186.04 C130.42 135.4, 74.02 86.61, 24.31 43.67 M188.08 186.04 C139.03 143.38, 90.63 101.28, 24.31 43.67 M194.08 180.66 C144.14 137.99, 94.4 94.66, 29.56 37.64 M194.08 180.66 C147.5 140.34, 100.27 99.28, 29.56 37.64 M198.58 173.96 C144.33 127.2, 90.12 80.53, 34.81 31.6 M198.58 173.96 C162.65 141.34, 127.05 111.08, 34.81 31.6 M202.32 166.61 C145.65 116.88, 86 66.3, 40.06 25.56 M202.32 166.61 C169.89 136.3, 135.51 108.42, 40.06 25.56 M206.06 159.26 C169.95 129.25, 134.04 99.9, 46.81 20.84 M206.06 159.26 C156.89 116.18, 106.29 72.79, 46.81 20.84 M210.55 152.57 C179.69 125.5, 146.42 95.28, 54.33 16.77 M210.55 152.57 C178.07 124.23, 143.09 94.83, 54.33 16.77 M213.53 144.57 C161.83 102.14, 112.41 55.49, 61.84 12.7 M213.53 144.57 C154.66 93.32, 94.77 40.24, 61.84 12.7 M215.76 135.9 C172.17 97.88, 129.29 61.08, 68.6 7.97 M215.76 135.9 C159.12 85.17, 102.97 36.37, 68.6 7.97 M217.24 126.59 C184.08 96.1, 148.73 67.56, 76.86 4.56 M217.24 126.59 C167.06 82.27, 117.16 37.62, 76.86 4.56 M218.71 117.27 C189.4 95, 161.83 69.74, 87.39 3.11 M218.71 117.27 C165.33 70.6, 113.59 24.34, 87.39 3.11 M220.94 108.61 C179.49 72.4, 134.07 33.54, 98.68 2.32 M220.94 108.61 C188.39 79.65, 156.37 50.92, 98.68 2.32 M218.65 96.01 C177.73 62.6, 137.75 23.73, 109.21 0.88 M218.65 96.01 C189.75 69.73, 159.45 43.98, 109.21 0.88 M216.35 83.41 C183.02 54.43, 149.06 25.26, 122.76 2.06 M216.35 83.41 C192.85 64.38, 169.25 43.66, 122.76 2.06 M213.29 70.15 C184.32 44.67, 158.31 21.8, 138.58 5.2 M213.29 70.15 C196.01 53.41, 176.89 38.9, 138.58 5.2 M199.67 47.72 C182.5 33.13, 169.02 21.61, 154.39 8.35 M199.67 47.72 C189.44 37.84, 178.14 27.47, 154.39 8.35" stroke="#ffc9c9" stroke-width="1" fill="none"></path><path d="M75.44 4.89 C87.03 -0.43, 103.18 -0.18, 116.34 0.47 C129.51 1.12, 142.29 3.27, 154.42 8.81 C166.55 14.35, 179.57 24.22, 189.14 33.7 C198.71 43.17, 206.55 53.55, 211.83 65.65 C217.12 77.76, 220.58 92.92, 220.86 106.33 C221.14 119.73, 217.87 133.69, 213.52 146.07 C209.17 158.46, 203.24 170.51, 194.75 180.65 C186.26 190.79, 174.33 200.45, 162.58 206.9 C150.83 213.35, 137.47 217.56, 124.24 219.37 C111.01 221.18, 96.08 220.81, 83.18 217.76 C70.28 214.71, 57.46 208.93, 46.86 201.08 C36.25 193.22, 26.99 181.86, 19.55 170.61 C12.12 159.36, 5.23 146.42, 2.23 133.57 C-0.77 120.73, -0.43 106.51, 1.54 93.54 C3.51 80.57, 7.69 67.12, 14.07 55.75 C20.45 44.39, 28.28 34.26, 39.83 25.35 C51.38 16.44, 74.47 6.04, 83.38 2.28 C92.28 -1.48, 92.71 1.05, 93.26 2.8 M151.21 8.31 C163.84 11.34, 176.63 20.1, 186.23 29.32 C195.82 38.53, 203.29 51.57, 208.78 63.61 C214.27 75.64, 217.91 88.59, 219.19 101.51 C220.48 114.42, 220.18 128.4, 216.47 141.1 C212.76 153.79, 205.33 167.22, 196.93 177.68 C188.53 188.14, 177.61 197.32, 166.07 203.87 C154.53 210.42, 140.99 214.49, 127.69 216.99 C114.4 219.49, 99.1 221.38, 86.29 218.88 C73.48 216.37, 61.56 209.18, 50.83 201.94 C40.1 194.7, 29.62 185.93, 21.93 175.43 C14.24 164.94, 7.99 152.16, 4.66 138.97 C1.34 125.78, 0.62 109.72, 1.97 96.32 C3.32 82.91, 6.79 70, 12.78 58.53 C18.77 47.06, 27.92 35.91, 37.93 27.5 C47.93 19.09, 60.66 12.53, 72.81 8.07 C84.96 3.61, 97.71 0.73, 110.8 0.73 C123.89 0.72, 144.67 6.34, 151.34 8.04 C158.01 9.75, 151.24 9.17, 150.82 10.94" stroke="#1e1e1e" stroke-width="2" fill="none"></path></g><g stroke-linecap="round" transform="translate(1330.9336684590362 245.16211157248244) rotate(0 58.815396503962575 58.81539650396252)"><path d="M15.26 19.89 C15.26 19.89, 15.26 19.89, 15.26 19.89 M15.26 19.89 C15.26 19.89, 15.26 19.89, 15.26 19.89 M3.59 45.52 C16.26 31.43, 27.96 15.67, 39.01 4.76 M3.59 45.52 C14.69 32.77, 25.9 19.91, 39.01 4.76 M3.06 58.31 C21.61 37.33, 38.07 16.16, 50.96 3.22 M3.06 58.31 C21.7 36.63, 40.56 15.06, 50.96 3.22 M1.23 72.62 C25.38 47.47, 46.5 19.41, 62.9 1.68 M1.23 72.62 C25.31 44.86, 51.15 17.47, 62.9 1.68 M5.3 80.13 C26.68 54.89, 48.94 30.52, 71.56 3.91 M5.3 80.13 C17.82 64.84, 32.35 47.86, 71.56 3.91 M9.37 87.64 C31.22 61.57, 53.47 34.01, 79.57 6.89 M9.37 87.64 C36.95 56.76, 63.6 25.13, 79.57 6.89 M13.44 95.16 C32.79 74.8, 49.86 54.57, 86.92 10.63 M13.44 95.16 C36.43 67.35, 61.93 40.19, 86.92 10.63 M18.82 101.16 C43.81 73.5, 66.98 46.08, 95.58 12.86 M18.82 101.16 C35.9 82.87, 52.33 62.61, 95.58 12.86 M25.51 105.65 C46.89 80.42, 69.05 52.65, 100.96 18.86 M25.51 105.65 C53.03 73.47, 82.56 40.48, 100.96 18.86 M31.55 110.9 C46.94 93.61, 63.85 74.95, 105.68 25.62 M31.55 110.9 C60 77.22, 89.67 46.03, 105.68 25.62 M38.24 115.4 C61.73 86.69, 89.78 55.16, 111.07 31.62 M38.24 115.4 C55.46 95.16, 74.05 75.94, 111.07 31.62 M47.56 116.87 C70.99 90.74, 95.42 65.48, 117.1 36.87 M47.56 116.87 C69.71 92.99, 90.76 69.73, 117.1 36.87 M57.54 117.59 C79.3 91.86, 103.71 67.83, 118.55 47.4 M57.54 117.59 C71.92 101.79, 87.03 83.65, 118.55 47.4 M67.51 118.31 C82.87 97.73, 100.62 79.05, 117.37 60.95 M67.51 118.31 C84.54 97.76, 102.09 78.61, 117.37 60.95 M83.39 112.24 C90.28 107.22, 95.45 97.5, 112.91 78.28 M83.39 112.24 C93.58 100.61, 104.72 88.03, 112.91 78.28 M14.13 96.54 C14.13 96.54, 14.13 96.54, 14.13 96.54 M14.13 96.54 C14.13 96.54, 14.13 96.54, 14.13 96.54 M47.3 114.78 C38.26 104.51, 27.51 98.5, 3.53 76.73 M47.3 114.78 C33.74 103.24, 20.71 91.48, 3.53 76.73 M60.85 115.96 C41.81 99, 24.78 83.48, 1.23 64.13 M60.85 115.96 C42.92 99.41, 23.56 84.55, 1.23 64.13 M71.38 114.52 C51.85 96.58, 27.98 76.5, 1.95 54.16 M71.38 114.52 C52.18 97.98, 31.7 80.78, 1.95 54.16 M79.65 111.1 C52.46 85.77, 24.17 61.94, 1.91 43.53 M79.65 111.1 C63.9 96.19, 46.63 81.8, 1.91 43.53 M88.67 108.34 C56.22 79.21, 23.89 51.06, 5.65 36.18 M88.67 108.34 C63.47 87.56, 38.84 66.1, 5.65 36.18 M95.43 103.62 C66.37 79.77, 39.35 55.3, 10.15 29.48 M95.43 103.62 C78.01 89.12, 59.39 72.5, 10.15 29.48 M100.68 97.58 C84.09 83.96, 65.54 67.12, 13.88 22.13 M100.68 97.58 C70.75 70.57, 39.78 43.01, 13.88 22.13 M105.92 91.54 C76.99 64.32, 44.79 38.3, 19.89 16.75 M105.92 91.54 C75.97 65.55, 47.48 40.88, 19.89 16.75 M111.17 85.51 C92.72 70.02, 71.37 53.44, 25.89 11.37 M111.17 85.51 C78.7 57.88, 45.61 28.05, 25.89 11.37 M113.4 76.84 C83.88 52.12, 55.91 24.24, 32.65 6.65 M113.4 76.84 C91.91 57.72, 70.45 39.71, 32.65 6.65 M115.63 68.18 C96.2 50.13, 76.62 32.76, 40.92 3.23 M115.63 68.18 C96.62 51.48, 80.42 36.07, 40.92 3.23 M117.11 58.86 C90.44 37.01, 64.44 12.18, 51.45 1.79 M117.11 58.86 C102.33 45.52, 85.88 31.72, 51.45 1.79 M114.81 46.27 C97.4 31.4, 82.97 21.48, 61.98 0.34 M114.81 46.27 C102.02 36.45, 90.86 24.92, 61.98 0.34 M112.51 33.67 C102.26 26.28, 91.13 16.35, 79.3 4.8 M112.51 33.67 C101.01 24.58, 90.86 14.62, 79.3 4.8" stroke="#ffc9c9" stroke-width="1" fill="none"></path><path d="M66.7 -0.38 C75.62 -0.07, 85.88 5.93, 93.44 11.46 C100.99 16.99, 108.04 24.64, 112.02 32.82 C116.01 40.99, 117.65 51.46, 117.34 60.51 C117.04 69.55, 114.49 79.28, 110.18 87.1 C105.86 94.92, 98.84 102.43, 91.44 107.42 C84.05 112.4, 74.94 115.86, 65.79 117.03 C56.63 118.2, 45.12 117.84, 36.51 114.42 C27.89 111, 20.06 103.66, 14.11 96.53 C8.16 89.41, 2.95 80.48, 0.8 71.66 C-1.36 62.84, -1.28 52.31, 1.17 43.63 C3.63 34.95, 9.43 26.27, 15.53 19.58 C21.64 12.89, 28.85 6.68, 37.81 3.51 C46.77 0.34, 63.58 0.68, 69.29 0.55 C74.99 0.43, 72.21 1.57, 72.05 2.74 M77.59 4.67 C86.05 7.05, 95.77 13.95, 101.94 20.49 C108.1 27.03, 112.37 35.33, 114.56 43.93 C116.76 52.53, 117.2 63.03, 115.11 72.08 C113.02 81.13, 107.85 91.37, 102.03 98.24 C96.22 105.11, 88.41 110.35, 80.22 113.32 C72.03 116.29, 62.09 116.98, 52.9 116.05 C43.71 115.12, 32.79 112.69, 25.06 107.76 C17.34 102.83, 10.68 94.71, 6.55 86.47 C2.42 78.23, 0.4 67.17, 0.3 58.31 C0.19 49.45, 1.98 41.04, 5.91 33.31 C9.84 25.58, 16.28 17.23, 23.89 11.91 C31.5 6.58, 42.27 2.92, 51.56 1.38 C60.85 -0.16, 75.33 2.21, 79.62 2.67 C83.91 3.14, 77.98 3.34, 77.32 4.18" stroke="#1e1e1e" stroke-width="2" fill="none"></path></g><g transform="translate(1114.1048928215712 331.38874977743706) rotate(0 66.56062637333571 19.09590795583199)"><text x="0" y="26.764824590894115" font-family="Virgil, Segoe UI Emoji" font-size="30.553452729331177px" fill="#1e1e1e" text-anchor="start" style="white-space: pre;" direction="ltr" dominant-baseline="alphabetic">Reportes</text></g><g transform="translate(1358.4317759154344 290.9922906664792) rotate(0 27.982043732175725 13.749053728199044)"><text x="0" y="19.270673705443784" font-family="Virgil, Segoe UI Emoji" font-size="21.998485965118473px" fill="#1e1e1e" text-anchor="start" style="white-space: pre;" direction="ltr" dominant-baseline="alphabetic">Admin</text></g><g stroke-linecap="round" transform="translate(1110.4465662411715 499.2911076604572) rotate(0 71.80061391392826 71.80061391392826)"><path d="M22.29 19.37 C22.29 19.37, 22.29 19.37, 22.29 19.37 M22.29 19.37 C22.29 19.37, 22.29 19.37, 22.29 19.37 M3.39 53.3 C14.75 37.76, 27.31 25.87, 42.76 8.02 M3.39 53.3 C15 40.15, 24.88 28.44, 42.76 8.02 M0.9 68.36 C17.61 52.2, 32.39 30.84, 57.32 3.46 M0.9 68.36 C23.31 41.91, 46.41 16.37, 57.32 3.46 M1.04 80.4 C22.67 56.87, 42.67 32.9, 69.27 1.91 M1.04 80.4 C25.51 52.79, 50.58 24.14, 69.27 1.91 M4.45 88.67 C18.3 68.99, 35.03 53.21, 81.21 0.37 M4.45 88.67 C33.09 54.79, 62.99 21.07, 81.21 0.37 M7.21 97.69 C34.36 66.36, 59.29 34.81, 89.21 3.35 M7.21 97.69 C27.53 74.24, 48.62 50.25, 89.21 3.35 M9.96 106.71 C29.91 81.28, 52.1 60.33, 97.22 6.34 M9.96 106.71 C39.57 71.86, 70.66 38.3, 97.22 6.34 M15.35 112.72 C42.47 83.16, 66.03 52.77, 104.57 10.08 M15.35 112.72 C45.32 76.33, 75.18 41.97, 104.57 10.08 M20.73 118.72 C53.76 78.75, 88.42 41.54, 111.92 13.81 M20.73 118.72 C40.13 94.93, 59.93 73.66, 111.92 13.81 M25.45 125.48 C43.9 100.94, 66.8 80.5, 117.96 19.06 M25.45 125.48 C59.29 88.28, 90.55 50.28, 117.96 19.06 M30.83 131.48 C49.46 108.77, 73.59 82.71, 123.34 25.07 M30.83 131.48 C62.8 94.15, 94.27 57.17, 123.34 25.07 M38.84 134.46 C66.52 101.43, 92.07 74.18, 128.72 31.07 M38.84 134.46 C66.16 103.72, 92.46 72.02, 128.72 31.07 M46.85 137.45 C71.86 109.02, 94.22 82.9, 134.1 37.07 M46.85 137.45 C71.46 111.07, 94.4 86.26, 134.1 37.07 M54.2 141.19 C74.65 116.13, 94.08 92.49, 137.52 45.34 M54.2 141.19 C79.05 112.24, 103.86 83.49, 137.52 45.34 M62.86 143.42 C83.21 122.36, 103.18 97.49, 140.27 54.36 M62.86 143.42 C88.71 114.07, 113.03 86.67, 140.27 54.36 M74.14 142.63 C97.02 115.51, 121.71 86.03, 143.69 62.63 M74.14 142.63 C101.17 112.03, 128.38 82.8, 143.69 62.63 M85.43 141.84 C105.55 119.68, 122.83 94.94, 142.51 76.18 M85.43 141.84 C99.37 124.86, 114.31 106.4, 142.51 76.18 M99.34 138.03 C116.11 120.13, 133.78 101.46, 140.02 91.24 M99.34 138.03 C110.06 126.54, 119.63 114.6, 140.02 91.24 M30.35 131.23 C30.35 131.23, 30.35 131.23, 30.35 131.23 M30.35 131.23 C30.35 131.23, 30.35 131.23, 30.35 131.23 M52.96 140.28 C39.02 128.77, 25.34 117.92, 12.21 104.85 M52.96 140.28 C37.84 126.2, 22.53 113.88, 12.21 104.85 M64.25 139.49 C53.28 129.7, 36.93 116.12, 6.89 89.63 M64.25 139.49 C51.03 127.4, 38.5 116.11, 6.89 89.63 M75.53 138.7 C50.41 118.19, 27.4 94.92, 0.82 73.75 M75.53 138.7 C54.46 120.15, 32.72 100.72, 0.82 73.75 M86.82 137.91 C54.83 111.79, 25.09 85.12, 2.29 64.43 M86.82 137.91 C65.07 119.07, 42.1 100.28, 2.29 64.43 M97.35 136.47 C68.58 112.53, 41.34 86.76, 3.77 55.11 M97.35 136.47 C61.69 105.79, 24.88 74.01, 3.77 55.11 M104.86 132.4 C75.49 108.21, 51.06 87.33, 5.24 45.8 M104.86 132.4 C67.76 102.05, 33.88 69.72, 5.24 45.8 M111.62 127.67 C74.1 95.51, 34.58 59.57, 8.98 38.45 M111.62 127.67 C87 106.29, 61.39 84.81, 8.98 38.45 M119.89 124.26 C97.09 106.11, 79.19 87.2, 14.23 32.41 M119.89 124.26 C89.88 97.1, 60.16 72.09, 14.23 32.41 M125.14 118.22 C99.97 99.05, 73.64 77.06, 18.72 25.71 M125.14 118.22 C84.96 83.41, 44.67 47, 18.72 25.71 M129.63 111.53 C91.15 78.92, 52.69 44.72, 23.22 19.02 M129.63 111.53 C102.08 87.81, 74.9 63.63, 23.22 19.02 M134.12 104.83 C113.71 83.98, 89.09 65.22, 29.97 14.3 M134.12 104.83 C111.2 83.46, 86.61 63.31, 29.97 14.3 M138.62 98.14 C117.57 79.04, 98.02 59.73, 37.49 10.23 M138.62 98.14 C105.84 68.85, 73.22 39.97, 37.49 10.23 M140.09 88.82 C120.39 72.84, 100.01 53.43, 45 6.16 M140.09 88.82 C119.26 70.64, 96.81 51.18, 45 6.16 M141.57 79.5 C107.99 52.95, 77.02 24.66, 52.51 2.09 M141.57 79.5 C105.89 48.13, 70.33 16.47, 52.51 2.09 M143.8 70.84 C115.93 46.72, 88.46 20.04, 63.04 0.64 M143.8 70.84 C119.95 50.03, 96.94 29.17, 63.04 0.64 M146.78 62.83 C127.38 43.39, 103.47 24.67, 74.33 -0.15 M146.78 62.83 C130.37 48.86, 114.53 34.58, 74.33 -0.15 M141.46 47.61 C121.25 31.18, 99.32 13.02, 84.11 -2.25 M141.46 47.61 C122.3 30.84, 101.27 13.69, 84.11 -2.25" stroke="#ffc9c9" stroke-width="1" fill="none"></path><path d="M82.04 -0.03 C91.84 0.62, 103.16 6.95, 111.77 13.05 C120.39 19.16, 128.3 27.71, 133.72 36.61 C139.14 45.51, 143.48 56.22, 144.27 66.45 C145.06 76.69, 142.61 88.19, 138.47 98.03 C134.33 107.87, 126.97 118.35, 119.44 125.51 C111.91 132.66, 102.96 137.99, 93.28 140.98 C83.61 143.97, 71.87 145.05, 61.4 143.44 C50.93 141.83, 38.99 137.48, 30.46 131.32 C21.94 125.17, 15.41 115.76, 10.26 106.52 C5.11 97.29, 0.55 86.28, -0.43 75.9 C-1.42 65.52, 0.53 53.72, 4.36 44.26 C8.18 34.79, 14.73 25.93, 22.52 19.11 C30.31 12.29, 40.35 6.35, 51.1 3.36 C61.84 0.37, 80.14 1.01, 86.98 1.16 C93.83 1.31, 92.17 2.95, 92.17 4.28 M74.11 -0.34 C84.27 -0.86, 95.87 4.22, 105.1 8.74 C114.34 13.25, 123.54 18.82, 129.5 26.76 C135.46 34.71, 138.98 45.84, 140.85 56.42 C142.73 67.01, 143.02 80.26, 140.76 90.27 C138.5 100.29, 133.94 108.76, 127.3 116.5 C120.66 124.25, 110.5 132.03, 100.91 136.75 C91.32 141.47, 79.97 145.11, 69.75 144.83 C59.52 144.56, 48.62 139.86, 39.57 135.12 C30.53 130.37, 21.98 124.54, 15.47 116.35 C8.96 108.15, 2.97 96.21, 0.5 85.96 C-1.97 75.72, -1.79 64.72, 0.67 54.89 C3.13 45.06, 8.24 35.23, 15.27 26.98 C22.31 18.73, 33.3 10.05, 42.86 5.39 C52.43 0.73, 67.74 -0.45, 72.69 -0.99 C77.63 -1.53, 72.75 1, 72.52 2.17" stroke="#1e1e1e" stroke-width="2" fill="none"></path></g><g transform="translate(1118.0849294235043 555.8149952097198) rotate(0 62.83860267323371 13.749053728199101)"><text x="0" y="19.270673705443784" font-family="Virgil, Segoe UI Emoji" font-size="21.998485965118473px" fill="#1e1e1e" text-anchor="start" style="white-space: pre;" direction="ltr" dominant-baseline="alphabetic">Documentos</text></g><g stroke-linecap="round" transform="translate(1305.0148268207906 409.81689535791713) rotate(0 71.80061391392826 71.80061391392826)"><path d="M22.14 20.57 C22.14 20.57, 22.14 20.57, 22.14 20.57 M22.14 20.57 C22.14 20.57, 22.14 20.57, 22.14 20.57 M4.56 52.99 C16.67 38.12, 28.04 28.08, 45.24 6.2 M4.56 52.99 C19.07 36.69, 32.38 20.94, 45.24 6.2 M2.73 67.29 C16.97 53.8, 29.8 36.63, 57.83 3.9 M2.73 67.29 C22.89 44.69, 44.01 21.03, 57.83 3.9 M0.89 81.6 C17.8 62.14, 38.94 39.55, 69.78 2.36 M0.89 81.6 C26.08 52.95, 51.53 23.05, 69.78 2.36 M3.65 90.62 C32.74 55.78, 62.69 24.38, 81.06 1.57 M3.65 90.62 C32.84 58.18, 62.01 25.09, 81.06 1.57 M6.41 99.64 C36.32 66.9, 65.4 35, 89.72 3.8 M6.41 99.64 C27.27 75.3, 46.16 54.07, 89.72 3.8 M9.82 107.91 C28.95 81.3, 50.16 58.92, 97.73 6.78 M9.82 107.91 C30.12 84.73, 51.23 60.65, 97.73 6.78 M14.54 114.67 C50.92 75.26, 83.61 36.79, 106.39 9.01 M14.54 114.67 C49.79 73.44, 85.89 33.8, 106.39 9.01 M20.58 119.92 C40.74 95.33, 60.43 74.98, 113.09 13.5 M20.58 119.92 C42.41 94.75, 64.87 68.59, 113.09 13.5 M25.96 125.92 C47.72 103.77, 67.71 78.93, 119.12 18.75 M25.96 125.92 C47.03 101.81, 70.57 77.85, 119.12 18.75 M32 131.17 C55.27 105.7, 76.96 76.18, 124.51 24.76 M32 131.17 C51.58 107.82, 72.04 85.73, 124.51 24.76 M39.35 134.91 C57.55 112.58, 79.92 88.83, 129.89 30.76 M39.35 134.91 C59.95 111.71, 80.94 87.81, 129.89 30.76 M47.36 137.89 C81.3 97.61, 117.07 57.72, 134.61 37.52 M47.36 137.89 C70.7 110.77, 95.25 84.17, 134.61 37.52 M55.36 140.88 C86 108.9, 115.23 72.37, 137.37 46.54 M55.36 140.88 C72.62 119.62, 91.86 99.85, 137.37 46.54 M64.02 143.11 C88.02 115.81, 108.91 89.89, 140.13 55.56 M64.02 143.11 C81.69 123.32, 98.4 104.34, 140.13 55.56 M75.31 142.32 C92.87 121.59, 109.48 102.56, 142.88 64.58 M75.31 142.32 C91.17 123.11, 107.67 105.05, 142.88 64.58 M86.6 141.53 C105.55 122.8, 123.31 101.37, 141.05 78.89 M86.6 141.53 C108.32 117.23, 129.81 92.47, 141.05 78.89 M101.16 136.97 C115.35 121.51, 128.61 104.28, 139.87 92.44 M101.16 136.97 C114.71 121.9, 126.69 106.54, 139.87 92.44 M33.19 132.54 C33.19 132.54, 33.19 132.54, 33.19 132.54 M33.19 132.54 C33.19 132.54, 33.19 132.54, 33.19 132.54 M54.29 140.28 C42.05 128.14, 27.33 118.97, 6.74 98.95 M54.29 140.28 C39.61 127.31, 25.33 115.15, 6.74 98.95 M68.59 142.11 C46.46 123.21, 29.01 108.14, 1.42 83.72 M68.59 142.11 C41.08 118.52, 15.28 95.51, 1.42 83.72 M79.88 141.32 C61.94 126.82, 44.07 113.81, 1.39 73.09 M79.88 141.32 C52.28 118.56, 26.35 94.2, 1.39 73.09 M90.41 139.88 C59.93 114.35, 31.76 92.22, 2.86 63.77 M90.41 139.88 C67.83 120.02, 45.97 102.52, 2.86 63.77 M99.43 137.12 C63.24 105.94, 25.55 71.65, 4.34 54.46 M99.43 137.12 C64.81 107.03, 29.45 76.28, 4.34 54.46 M106.94 133.05 C84.86 111.28, 58.73 92.82, 5.81 45.14 M106.94 133.05 C80.36 108.5, 51.56 84.26, 5.81 45.14 M113.7 128.33 C86.33 104.72, 60.06 81.57, 10.31 38.45 M113.7 128.33 C72.7 93.24, 34.53 59.12, 10.31 38.45 M120.46 123.6 C98.56 104.6, 75.83 81.5, 14.8 31.75 M120.46 123.6 C85.69 94.73, 49.98 64.82, 14.8 31.75 M125.71 117.56 C81.65 78.38, 41.26 45.4, 19.29 25.06 M125.71 117.56 C97.71 92.12, 68.89 67.93, 19.29 25.06 M130.2 110.87 C99.54 80.8, 67.3 52.87, 24.54 19.02 M130.2 110.87 C104.62 89.2, 80.4 66.05, 24.54 19.02 M133.94 103.52 C104.11 78.66, 72.23 51.97, 31.3 14.29 M133.94 103.52 C100.48 74.41, 67.49 46.5, 31.3 14.29 M138.43 96.82 C111.42 69.36, 80.79 43.69, 38.81 10.22 M138.43 96.82 C102.5 64.57, 67.44 34.22, 38.81 10.22 M140.66 88.16 C107.36 61.54, 73.55 29.52, 45.57 5.5 M140.66 88.16 C112.76 63.49, 82.32 37.77, 45.57 5.5 M141.38 78.19 C121.37 62.81, 105.83 47.15, 54.59 2.74 M141.38 78.19 C108.03 47.98, 74.92 18.96, 54.59 2.74 M142.86 68.87 C123.32 52.15, 106.98 36.84, 65.88 1.95 M142.86 68.87 C127.03 54.24, 109.85 39.22, 65.88 1.95 M140.56 56.27 C123.09 41.89, 108.57 28.85, 76.41 0.51 M140.56 56.27 C116.78 36.03, 93.29 15.96, 76.41 0.51 M136 41.71 C121.6 26.21, 105.18 12.44, 92.98 4.31 M136 41.71 C121.59 29.65, 108.97 19.2, 92.98 4.31" stroke="#ffc9c9" stroke-width="1" fill="none"></path><path d="M80.11 0.78 C90.17 0.76, 101.96 5.12, 110.76 10.67 C119.57 16.21, 127.61 25.09, 132.94 34.07 C138.27 43.04, 141.65 54.28, 142.73 64.54 C143.82 74.8, 143.06 85.72, 139.44 95.62 C135.81 105.52, 128.42 116.48, 120.99 123.95 C113.56 131.42, 104.62 137.22, 94.87 140.44 C85.12 143.67, 72.77 144.61, 62.49 143.29 C52.21 141.97, 41.93 138.06, 33.19 132.54 C24.46 127.02, 15.63 119, 10.06 110.17 C4.49 101.34, 0.64 90.16, -0.22 79.56 C-1.08 68.97, 1.12 56.47, 4.87 46.6 C8.63 36.73, 15 27.49, 22.32 20.36 C29.65 13.23, 38.64 7.02, 48.82 3.84 C58.99 0.65, 77.09 1.45, 83.37 1.25 C89.64 1.04, 86.45 1.41, 86.45 2.59 M65.42 0.92 C74.92 -1.02, 87.01 2.53, 96.77 5.89 C106.54 9.24, 116.88 13.62, 124 21.03 C131.12 28.45, 136.13 40.15, 139.49 50.38 C142.85 60.62, 145.24 72.36, 144.16 82.46 C143.07 92.56, 139.17 102.27, 132.97 110.97 C126.77 119.67, 116.01 129.48, 106.98 134.65 C97.94 139.83, 88.68 141.49, 78.76 142.03 C68.84 142.56, 57.5 141.34, 47.43 137.85 C37.37 134.37, 25.47 128.69, 18.36 121.14 C11.26 113.58, 7.91 102.51, 4.82 92.51 C1.74 82.52, -1.26 71.03, -0.14 61.17 C0.99 51.31, 5.57 41.93, 11.58 33.36 C17.58 24.78, 26.83 15.16, 35.89 9.73 C44.95 4.31, 61.19 2.31, 65.92 0.79 C70.64 -0.73, 64.06 -0.24, 64.25 0.63" stroke="#1e1e1e" stroke-width="2" fill="none"></path></g><g transform="translate(1312.6531900031234 455.6470744519139) rotate(0 63.76009587775809 22.151253228765086)"><text x="0" y="31.047196525437137" font-family="Virgil, Segoe UI Emoji" font-size="35.442005166024124px" fill="#1e1e1e" text-anchor="start" style="white-space: pre;" direction="ltr" dominant-baseline="alphabetic">Calidad</text></g></svg>