<svg version="1.1" xmlns="http://www.w3.org/2000/svg" viewBox="0 0 930 570" width="930" height="570">
  <!-- svg-source:excalidraw -->
  
  <defs>
    <style class="style-fonts">
      @font-face {
        font-family: "Virgil";
        src: url("https://excalidraw.com/Virgil.woff2");
      }
      @font-face {
        font-family: "Cascadia";
        src: url("https://excalidraw.com/Cascadia.woff2");
      }
      @font-face {
        font-family: "Assistant";
        src: url("https://excalidraw.com/Assistant-Regular.woff2");
      }
    </style>
    
  </defs>
  <rect x="0" y="0" width="930" height="570" fill="#ffffff"></rect><g stroke-linecap="round" transform="translate(10 10) rotate(0 193 127)"><path d="M32 0 C98.5 3.92, 164.66 2.34, 354 0 C371.91 -1.64, 385.56 12.89, 386 32 C385.69 107.42, 389.84 178.6, 386 222 C386.65 241.64, 378.79 254.68, 354 254 C283.61 252.57, 214.1 249.78, 32 254 C9.55 257.55, -3.24 242.97, 0 222 C-4.24 159.52, -2.08 94.09, 0 32 C-1.29 8.33, 13.66 3.3, 32 0" stroke="none" stroke-width="0" fill="#a5d8ff"></path><path d="M32 0 C128.2 1.17, 224.97 -0.62, 354 0 M32 0 C117.78 -0.75, 204.32 -1.47, 354 0 M354 0 C377.01 1.25, 387.56 9.58, 386 32 M354 0 C376.27 1.79, 386.82 8.57, 386 32 M386 32 C386.87 89.35, 387.73 143.27, 386 222 M386 32 C384.86 70.88, 385.26 110.6, 386 222 M386 222 C386.11 242.64, 375.13 255.63, 354 254 M386 222 C384.29 244.7, 377.31 254.6, 354 254 M354 254 C236.43 253.67, 120.24 253.13, 32 254 M354 254 C276.95 255.72, 199.55 256.01, 32 254 M32 254 C8.99 254.24, 0.67 243.4, 0 222 M32 254 C12.57 256.25, -0.8 241.88, 0 222 M0 222 C-0.54 154.82, -0.72 89.47, 0 32 M0 222 C0.61 175.76, 1.25 129.44, 0 32 M0 32 C-1.4 10.47, 12.18 0.41, 32 0 M0 32 C0.15 8.47, 9.87 -1.61, 32 0" stroke="#1e1e1e" stroke-width="2" fill="none"></path></g><g stroke-linecap="round" transform="translate(534 16) rotate(0 193 127)"><path d="M32 0 C107.32 1.57, 182.9 -0.47, 354 0 C374.62 -2.89, 383.75 7.26, 386 32 C392.04 92.7, 386.44 152.47, 386 222 C386.77 241.51, 376.53 251.75, 354 254 C225.55 251.67, 100.51 256.22, 32 254 C11.55 252.51, 1.36 241.42, 0 222 C-3.58 156.79, -2.35 92.26, 0 32 C-2.09 12.86, 13.05 2.85, 32 0" stroke="none" stroke-width="0" fill="#ffec99"></path><path d="M32 0 C151.69 -0.63, 273.06 -1.45, 354 0 M32 0 C126.09 -0.06, 219.36 -0.57, 354 0 M354 0 C374.42 -0.24, 387.23 12.48, 386 32 M354 0 C377.38 0.91, 383.86 11.41, 386 32 M386 32 C384.05 95.1, 385.37 152.66, 386 222 M386 32 C385.24 73.79, 384.13 116.17, 386 222 M386 222 C387.97 241.53, 375.13 254.84, 354 254 M386 222 C387.68 243.18, 374.22 255.58, 354 254 M354 254 C252.69 254.36, 154.46 252.48, 32 254 M354 254 C249.74 252.07, 146.42 252.71, 32 254 M32 254 C11 255.14, 0.53 245.01, 0 222 M32 254 C9.29 252.71, 0.22 242.9, 0 222 M0 222 C-0.4 182.14, 0.71 141.39, 0 32 M0 222 C-2.59 156.76, -2.07 91.94, 0 32 M0 32 C1.47 8.73, 11.41 0.34, 32 0 M0 32 C0.66 10.55, 9.84 1.3, 32 0" stroke="#1e1e1e" stroke-width="2" fill="none"></path></g><g stroke-linecap="round" transform="translate(10 306) rotate(0 193 127)"><path d="M32 0 C132.93 -3.29, 228.84 -1.68, 354 0 C375.21 0.86, 389.48 8.63, 386 32 C386.88 98.19, 385.89 158.74, 386 222 C383.92 246.34, 377.21 251.56, 354 254 C229.28 250.4, 100.16 254.34, 32 254 C12.17 257.22, 2.35 241.94, 0 222 C-0.13 157.34, 1.32 100.01, 0 32 C-2.45 11.03, 8.89 -3.59, 32 0" stroke="none" stroke-width="0" fill="#b2f2bb"></path><path d="M32 0 C120.8 0.33, 209.17 0.25, 354 0 M32 0 C115.52 2.01, 198.68 2.67, 354 0 M354 0 C375.58 0.47, 385.35 10.84, 386 32 M354 0 C373.64 1.84, 388.01 9.68, 386 32 M386 32 C383.24 85.33, 386.58 141.32, 386 222 M386 32 C386.75 77.67, 387.76 123.69, 386 222 M386 222 C386.34 242.52, 375.77 254.33, 354 254 M386 222 C386.26 242.73, 375.72 253.01, 354 254 M354 254 C271.52 253.6, 191.4 253.02, 32 254 M354 254 C287.98 255.78, 223.02 255.29, 32 254 M32 254 C11.27 252.44, -1.57 244.6, 0 222 M32 254 C8.81 255.36, 0.07 242.76, 0 222 M0 222 C2.25 150.51, 0.13 74.47, 0 32 M0 222 C1.13 181.17, 0.8 138.72, 0 32 M0 32 C1.01 8.7, 12.02 -0.68, 32 0 M0 32 C0.55 9.66, 12.14 -1.98, 32 0" stroke="#1e1e1e" stroke-width="2" fill="none"></path></g><g stroke-linecap="round" transform="translate(519 290) rotate(0 193 127)"><path d="M32 0 C117.23 2.15, 203.52 1.72, 354 0 C374.56 2.03, 385.92 8.05, 386 32 C384.09 85.24, 386.5 132.32, 386 222 C389.01 245.58, 378.14 252.04, 354 254 C241.97 255.37, 136.66 257.17, 32 254 C9.29 255.74, 0.17 240.64, 0 222 C3.92 180.55, 5.33 142.1, 0 32 C0.19 9.41, 10.31 2.94, 32 0" stroke="none" stroke-width="0" fill="#ffc9c9"></path><path d="M32 0 C138.8 1.61, 244.4 0.37, 354 0 M32 0 C118.07 -0.66, 203.23 0.04, 354 0 M354 0 C373.93 0.34, 385.44 12.39, 386 32 M354 0 C374.18 1.04, 388.15 9.21, 386 32 M386 32 C385.64 74.93, 386.42 121.1, 386 222 M386 32 C385.18 78.26, 385.67 124.95, 386 222 M386 222 C384.45 242.07, 374.69 253.5, 354 254 M386 222 C388.18 243.44, 377.37 251.73, 354 254 M354 254 C231.14 252.77, 107.36 254.21, 32 254 M354 254 C231.49 253.32, 110.07 253.55, 32 254 M32 254 C10.55 253.29, 1.96 243.03, 0 222 M32 254 C10.89 255.06, 1.98 245.49, 0 222 M0 222 C1.04 169.95, -2.22 115.43, 0 32 M0 222 C-0.29 156.92, 1.2 91.87, 0 32 M0 32 C1.43 8.72, 11.39 -1.07, 32 0 M0 32 C-0.27 8.56, 9.99 -1.46, 32 0" stroke="#1e1e1e" stroke-width="2" fill="none"></path></g><g stroke-linecap="round" transform="translate(294 131) rotate(0 173.5 153)"><path d="M231.08 8.76 C247.05 11.18, 263.13 20.81, 277.03 29.78 C290.92 38.76, 304.36 50.22, 314.46 62.6 C324.56 74.99, 332.08 90.01, 337.65 104.1 C343.21 118.18, 347.19 132.1, 347.85 147.13 C348.5 162.16, 346.25 179.71, 341.57 194.3 C336.89 208.89, 329.05 222.12, 319.76 234.67 C310.47 247.21, 298.69 259.79, 285.84 269.55 C272.98 279.31, 258.23 287.39, 242.62 293.24 C227 299.1, 209.18 302.88, 192.15 304.7 C175.13 306.51, 157.29 306.82, 140.47 304.11 C123.66 301.4, 106.24 295.83, 91.27 288.44 C76.29 281.06, 62.38 270.42, 50.6 259.79 C38.82 249.16, 28.66 237.94, 20.59 224.68 C12.53 211.42, 5.46 195.13, 2.21 180.24 C-1.03 165.35, -0.95 150.28, 1.12 135.36 C3.18 120.44, 7.84 104.63, 14.6 90.7 C21.36 76.78, 30.4 63.07, 41.7 51.8 C52.99 40.52, 67.68 30.87, 82.37 23.06 C97.06 15.25, 113.24 8.77, 129.83 4.92 C146.43 1.08, 162.43 -1.49, 181.94 0 C201.44 1.48, 234.02 9.98, 246.86 13.83 C259.7 17.69, 260.24 20.63, 259 23.15 M172.44 -0.53 C188.7 -2.84, 207.27 3.38, 223.93 7.84 C240.59 12.3, 258.12 18.07, 272.41 26.26 C286.71 34.44, 299.4 45.13, 309.68 56.93 C319.96 68.73, 328.13 82.84, 334.09 97.04 C340.05 111.24, 344.24 126.96, 345.45 142.13 C346.67 157.29, 344.96 173.65, 341.38 188.03 C337.8 202.4, 332.06 215.45, 323.97 228.37 C315.89 241.3, 305.41 255.25, 292.89 265.59 C280.36 275.92, 264.58 283.87, 248.82 290.38 C233.06 296.88, 215.11 302.39, 198.33 304.63 C181.56 306.86, 164.9 306.12, 148.16 303.77 C131.43 301.41, 113.39 296.81, 97.9 290.51 C82.42 284.22, 67.78 276.36, 55.23 266 C42.68 255.63, 31.22 241.41, 22.61 228.32 C14 215.23, 7.08 201.74, 3.58 187.47 C0.07 173.2, 0.27 157.72, 1.58 142.7 C2.89 127.68, 5.64 111.61, 11.46 97.32 C17.28 83.04, 25.55 68.79, 36.5 56.99 C47.44 45.18, 63.01 34.64, 77.15 26.49 C91.29 18.34, 105.47 12.26, 121.33 8.07 C137.2 3.88, 163.71 2.02, 172.36 1.35 C181.01 0.68, 172.85 1.53, 173.24 4.05" stroke="none" stroke-width="0" fill="#1e1e1e"></path><path d="M190.16 0.59 C206.49 -0.41, 224.6 5.6, 240.26 11.45 C255.92 17.3, 270.96 25.92, 284.11 35.68 C297.25 45.44, 309.71 57.33, 319.12 70.03 C328.54 82.73, 336.11 97.39, 340.61 111.89 C345.11 126.38, 346.44 141.95, 346.12 156.99 C345.8 172.02, 343.87 187.8, 338.69 202.12 C333.5 216.44, 325.05 230.84, 315.01 242.92 C304.97 255, 292.13 265.47, 278.46 274.6 C264.78 283.73, 249.06 292.34, 232.97 297.69 C216.87 303.04, 198.76 306.04, 181.87 306.71 C164.98 307.39, 148.19 305.71, 131.63 301.74 C115.07 297.77, 97.06 290.9, 82.5 282.88 C67.93 274.87, 55.52 264.93, 44.25 253.66 C32.98 242.4, 22.19 228.93, 14.87 215.28 C7.56 201.63, 2.25 186.63, 0.37 171.77 C-1.52 156.92, 0.6 140.87, 3.59 126.14 C6.57 111.41, 10.51 96.65, 18.26 83.39 C26 70.14, 37.96 57.51, 50.06 46.6 C62.16 35.69, 75.86 25.24, 90.86 17.95 C105.86 10.66, 121.12 5.38, 140.05 2.87 C158.97 0.36, 191.73 2.11, 204.39 2.89 C217.04 3.66, 216.58 4.96, 215.97 7.52 M250.64 16.49 C266.74 20.78, 281.67 32.96, 294.13 43.11 C306.59 53.26, 317.41 64.29, 325.39 77.4 C333.36 90.5, 338.41 106.88, 341.96 121.75 C345.52 136.63, 348.12 152.09, 346.72 166.65 C345.32 181.21, 340.08 195.44, 333.56 209.11 C327.03 222.78, 318.07 237.03, 307.57 248.66 C297.08 260.29, 284.67 270.6, 270.57 278.88 C256.47 287.15, 239.21 293.98, 222.96 298.31 C206.7 302.64, 190.07 304.98, 173.05 304.85 C156.02 304.73, 137.48 301.74, 120.82 297.58 C104.16 293.42, 87.19 288.46, 73.1 279.88 C59.02 271.3, 46.71 258, 36.3 246.09 C25.88 234.19, 16.51 222.38, 10.6 208.45 C4.69 194.52, 1.8 177.76, 0.85 162.5 C-0.11 147.24, 0.92 131.7, 4.88 116.91 C8.84 102.12, 15.81 86.53, 24.61 73.77 C33.4 61.02, 45.15 50.08, 57.63 40.37 C70.11 30.66, 84.01 22.01, 99.51 15.5 C115 8.99, 133.77 3.6, 150.62 1.32 C167.47 -0.96, 183.99 -0.77, 200.62 1.81 C217.26 4.39, 242.25 14.21, 250.45 16.78 C258.66 19.35, 251.21 15.21, 249.85 17.22" stroke="#1971c2" stroke-width="2" fill="none"></path></g><g transform="translate(20 25) rotate(0 175.4583282470703 18.999999999999986)"><text x="0" y="26.630399999999984" font-family="Virgil, Segoe UI Emoji" font-size="30.399999999999984px" fill="#1e1e1e" text-anchor="start" style="white-space: pre;" direction="ltr" dominant-baseline="alphabetic">Vista Lógica (Usuarios)</text></g><g transform="translate(30 131) rotate(0 131.85000610351562 51.49999999999994)"><text x="0" y="18.045599999999975" font-family="Virgil, Segoe UI Emoji" font-size="20.599999999999973px" fill="#1e1e1e" text-anchor="start" style="white-space: pre;" direction="ltr" dominant-baseline="alphabetic">- Diagrama de clases</text><text x="0" y="43.795599999999936" font-family="Virgil, Segoe UI Emoji" font-size="20.599999999999973px" fill="#1e1e1e" text-anchor="start" style="white-space: pre;" direction="ltr" dominant-baseline="alphabetic">- Diagrama de secuencias</text><text x="0" y="69.54559999999991" font-family="Virgil, Segoe UI Emoji" font-size="20.599999999999973px" fill="#1e1e1e" text-anchor="start" style="white-space: pre;" direction="ltr" dominant-baseline="alphabetic">- Comunicación de mockups</text><text x="0" y="95.29559999999987" font-family="Virgil, Segoe UI Emoji" font-size="20.599999999999973px" fill="#1e1e1e" text-anchor="start" style="white-space: pre;" direction="ltr" dominant-baseline="alphabetic">- Diagrama ER</text></g><g transform="translate(575 497.6802542206565) rotate(0 152.85000610351562 18.15987288967176)"><text x="0" y="25.452877842163936" font-family="Virgil, Segoe UI Emoji" font-size="29.055796623474812px" fill="#1e1e1e" text-anchor="start" style="white-space: pre;" direction="ltr" dominant-baseline="alphabetic">Vista Física (Devops)</text></g><g transform="translate(585.0500183105469 338.56930380741596) rotate(0 154.8249969482422 62.71534809629202)"><text x="309.6499938964844" y="21.975457972940717" font-family="Virgil, Segoe UI Emoji" font-size="25.0861392385168px" fill="#1e1e1e" text-anchor="end" style="white-space: pre;" direction="ltr" dominant-baseline="alphabetic">Arquitecutra Lógica</text><text x="309.6499938964844" y="53.33313202108672" font-family="Virgil, Segoe UI Emoji" font-size="25.0861392385168px" fill="#1e1e1e" text-anchor="end" style="white-space: pre;" direction="ltr" dominant-baseline="alphabetic">Arquitectura Despliegue</text><text x="309.6499938964844" y="84.69080606923272" font-family="Virgil, Segoe UI Emoji" font-size="25.0861392385168px" fill="#1e1e1e" text-anchor="end" style="white-space: pre;" direction="ltr" dominant-baseline="alphabetic">Arquitecutra Tecnológica</text><text x="309.6499938964844" y="116.04848011737872" font-family="Virgil, Segoe UI Emoji" font-size="25.0861392385168px" fill="#1e1e1e" text-anchor="end" style="white-space: pre;" direction="ltr" dominant-baseline="alphabetic"></text></g><g transform="translate(30 505) rotate(0 160.75833129882812 19)"><text x="0" y="26.630399999999984" font-family="Virgil, Segoe UI Emoji" font-size="30.399999999999984px" fill="#1e1e1e" text-anchor="start" style="white-space: pre;" direction="ltr" dominant-baseline="alphabetic">Vista Procesos (APP)</text></g><g transform="translate(27 330) rotate(0 129.98333740234375 12.875)"><text x="0" y="18.045599999999975" font-family="Virgil, Segoe UI Emoji" font-size="20.599999999999973px" fill="#1e1e1e" text-anchor="start" style="white-space: pre;" direction="ltr" dominant-baseline="alphabetic">- Diagramas de Actividad</text></g><g transform="translate(29 474) rotate(0 142.19166564941406 12.875)"><text x="0" y="18.045599999999975" font-family="Virgil, Segoe UI Emoji" font-size="20.599999999999973px" fill="#e03131" text-anchor="start" style="white-space: pre;" direction="ltr" dominant-baseline="alphabetic">Rendimientos y Escalabilidad</text></g><g transform="translate(555 30.68025422065648) rotate(0 169.4250030517578 18.15987288967176)"><text x="0" y="25.452877842163936" font-family="Virgil, Segoe UI Emoji" font-size="29.055796623474812px" fill="#1e1e1e" text-anchor="start" style="white-space: pre;" direction="ltr" dominant-baseline="alphabetic">Vista Despliegue (Devs)</text></g><g transform="translate(627.9833374023438 180.56930380741596) rotate(0 138.35833740234375 15.678837024073005)"><text x="276.7166748046875" y="21.975457972940717" font-family="Virgil, Segoe UI Emoji" font-size="25.0861392385168px" fill="#1e1e1e" text-anchor="end" style="white-space: pre;" direction="ltr" dominant-baseline="alphabetic">Diagrama de packetes</text></g><g transform="translate(315 219.68025422065648) rotate(0 165.65959317470447 20.15987288967176)"><text x="0" y="28.256077842163947" font-family="Virgil, Segoe UI Emoji" font-size="32.25579662347483px" fill="#ffffff" text-anchor="start" style="white-space: pre;" direction="ltr" dominant-baseline="alphabetic">Vista de Escenarios </text></g><g transform="translate(344.5500183105469 305.56930380741596) rotate(0 127.07499694824219 31.35767404814601)"><text x="127.07499694824219" y="21.975457972940717" font-family="Virgil, Segoe UI Emoji" font-size="25.0861392385168px" fill="#ffffff" text-anchor="middle" style="white-space: pre;" direction="ltr" dominant-baseline="alphabetic">Diagrama de Casos </text><text x="127.07499694824219" y="53.33313202108672" font-family="Virgil, Segoe UI Emoji" font-size="25.0861392385168px" fill="#ffffff" text-anchor="middle" style="white-space: pre;" direction="ltr" dominant-baseline="alphabetic">de uso</text></g></svg>