<svg version="1.1" xmlns="http://www.w3.org/2000/svg" viewBox="0 0 912.340117150545 620.314753043428" width="912.340117150545" height="620.314753043428">
  <!-- svg-source:excalidraw -->
  
  <defs>
    <style class="style-fonts">
      @font-face {
        font-family: "Virgil";
        src: url("https://excalidraw.com/Virgil.woff2");
      }
      @font-face {
        font-family: "Cascadia";
        src: url("https://excalidraw.com/Cascadia.woff2");
      }
      @font-face {
        font-family: "Assistant";
        src: url("https://excalidraw.com/Assistant-Regular.woff2");
      }
    </style>
    
  </defs>
  <rect x="0" y="0" width="912.340117150545" height="620.314753043428" fill="#ffffff"></rect><g stroke-linecap="round" transform="translate(12.390590061619832 10) rotate(0 442.5 299)"><path d="M32 0 C334.79 0.79, 638.23 0.34, 853 0 M32 0 C278.03 -2.75, 523.39 -2.66, 853 0 M853 0 C875.47 1.28, 883.66 9.43, 885 32 M853 0 C873.6 0.06, 886.64 10.57, 885 32 M885 32 C882.9 232.9, 882.2 433.48, 885 566 M885 32 C887.1 143.85, 887.13 256.06, 885 566 M885 566 C885.14 586.75, 874.3 596.2, 853 598 M885 566 C885.4 589.27, 873.99 599.8, 853 598 M853 598 C641.59 600.14, 432.05 599.89, 32 598 M853 598 C575.95 595.05, 298.43 595.04, 32 598 M32 598 C8.74 598.2, -0.34 587.79, 0 566 M32 598 C8.55 599.2, 0.36 586.76, 0 566 M0 566 C-2.25 359.24, -2.43 153.84, 0 32 M0 566 C-1.6 427.05, -0.96 288.4, 0 32 M0 32 C0.09 12.63, 11.96 -0.62, 32 0 M0 32 C1.69 10.42, 12.65 1.72, 32 0" stroke="#1e1e1e" stroke-width="2" fill="none"></path></g><g stroke-linecap="round"><g transform="translate(438.39059006161983 11) rotate(0 0 299.5)"><path d="M0.9 0.12 C0.75 99.65, -1.06 498.48, -1.04 598.2 M-0.09 -0.86 C0.13 99.32, 0.98 499.27, 1.13 599.31" stroke="#1e1e1e" stroke-width="2" fill="none"></path></g></g><mask></mask><g stroke-linecap="round"><g transform="translate(10.390590061619832 280) rotate(0 445.5 0)"><path d="M0.7 -0.31 C149.17 -0.48, 743.59 -0.77, 891.95 -0.58 M-0.39 -1.51 C147.9 -1.57, 743.1 0.57, 891.5 0.66" stroke="#1e1e1e" stroke-width="2" fill="none"></path></g></g><mask></mask><g stroke-linecap="round" transform="translate(258.39059006161983 145) rotate(0 180.5 131)"><path d="M32 0 C141.62 2.28, 245.66 2.68, 329 0 C346.96 -0.35, 359.84 13.11, 361 32 C365.03 104.06, 362.44 176.48, 361 230 C361.96 247.95, 351.33 264.63, 329 262 C252.05 263.04, 172.46 262.64, 32 262 C7.86 261.81, 1.27 249.59, 0 230 C-0.99 173.89, 0.24 116.38, 0 32 C3.58 9.75, 7.42 -0.13, 32 0" stroke="none" stroke-width="0" fill="#ffec99"></path><path d="M32 0 C133.71 0.28, 235.72 -0.52, 329 0 M32 0 C96.62 -0.36, 162.83 -0.77, 329 0 M329 0 C350.28 -1.44, 361.88 11.22, 361 32 M329 0 C352.04 -1.95, 360.4 9.46, 361 32 M361 32 C358.31 110.73, 361.61 186.14, 361 230 M361 32 C360.81 90.19, 361.39 145.89, 361 230 M361 230 C359.41 250.47, 351.53 263.56, 329 262 M361 230 C363.06 251.17, 352.3 261.43, 329 262 M329 262 C212.16 261.32, 96.89 261.44, 32 262 M329 262 C263.61 259.37, 199.75 260.53, 32 262 M32 262 C11.33 260.34, -0.9 253.04, 0 230 M32 262 C12.57 263.81, -0.31 252.17, 0 230 M0 230 C0.15 167.56, 1.21 105, 0 32 M0 230 C-2.53 178.95, -1.23 128.47, 0 32 M0 32 C0.89 10.38, 8.9 1.94, 32 0 M0 32 C-1.27 10.86, 10.89 -0.7, 32 0" stroke="#f08c00" stroke-width="2" fill="none"></path></g><g transform="translate(29.390590061619832 528) rotate(0 123.75027343750014 32)"><text x="0" y="44.85120000000002" font-family="Virgil, Segoe UI Emoji" font-size="51.200000000000024px" fill="#e03131" text-anchor="start" style="white-space: pre;" direction="ltr" dominant-baseline="alphabetic">Procesos </text></g><g transform="translate(742.3905900616198 543) rotate(0 72.1663818359375 32)"><text x="0" y="44.85120000000002" font-family="Virgil, Segoe UI Emoji" font-size="51.200000000000024px" fill="#f08c00" text-anchor="start" style="white-space: pre;" direction="ltr" dominant-baseline="alphabetic">Física</text></g><g transform="translate(621.3905900616198 22) rotate(0 128.20477294921875 32.000000000000014)"><text x="0" y="44.85120000000002" font-family="Virgil, Segoe UI Emoji" font-size="51.200000000000024px" fill="#f08c00" text-anchor="start" style="white-space: pre;" direction="ltr" dominant-baseline="alphabetic">Despliegue</text></g><g transform="translate(38.39059006161983 14) rotate(0 77.87518310546875 32.000000000000014)"><text x="0" y="44.85120000000002" font-family="Virgil, Segoe UI Emoji" font-size="51.200000000000024px" fill="#f08c00" text-anchor="start" style="white-space: pre;" direction="ltr" dominant-baseline="alphabetic">Lógica</text></g><g transform="translate(316.39059006161983 211) rotate(0 131.73756408691406 32)"><text x="0" y="44.85120000000002" font-family="Virgil, Segoe UI Emoji" font-size="51.200000000000024px" fill="#f08c00" text-anchor="start" style="white-space: pre;" direction="ltr" dominant-baseline="alphabetic">Escenarios</text></g><g transform="translate(29.390590061619832 484.79536530714074) rotate(0 100.69355773925781 17.58901288571758)"><text x="0" y="24.652760460621746" font-family="Virgil, Segoe UI Emoji" font-size="28.142420617148108px" fill="#e03131" text-anchor="start" style="white-space: pre;" direction="ltr" dominant-baseline="alphabetic">Diag Actividad</text></g><g transform="translate(364.39059006161983 304.82197422856484) rotate(0 74.03630828857422 17.58901288571758)"><text x="0" y="24.652760460621746" font-family="Virgil, Segoe UI Emoji" font-size="28.142420617148108px" fill="#e03131" text-anchor="start" style="white-space: pre;" direction="ltr" dominant-baseline="alphabetic">Casos Uso</text></g><g transform="translate(274.39059006161983 342.82197422856484) rotate(0 168.0238800048828 17.58901288571758)"><text x="0" y="24.652760460621746" font-family="Virgil, Segoe UI Emoji" font-size="28.142420617148108px" fill="#e03131" text-anchor="start" style="white-space: pre;" direction="ltr" dominant-baseline="alphabetic">Diagrama de Casos Uso</text></g><g transform="translate(35.39059006161983 208.82197422856484) rotate(0 82.64714813232422 17.58901288571758)"><text x="0" y="24.652760460621746" font-family="Virgil, Segoe UI Emoji" font-size="28.142420617148108px" fill="#e03131" text-anchor="start" style="white-space: pre;" direction="ltr" dominant-baseline="alphabetic">Diag Clases</text></g><g transform="translate(667.3905900616198 292.82197422856484) rotate(0 107.9872055053711 17.58901288571758)"><text x="0" y="24.652760460621746" font-family="Virgil, Segoe UI Emoji" font-size="28.142420617148108px" fill="#1971c2" text-anchor="start" style="white-space: pre;" direction="ltr" dominant-baseline="alphabetic">Diag Despliegue</text></g><g transform="translate(676.3905900616198 229.82197422856484) rotate(0 102.86572265625 17.58901288571758)"><text x="0" y="24.652760460621746" font-family="Virgil, Segoe UI Emoji" font-size="28.142420617148108px" fill="#1971c2" text-anchor="start" style="white-space: pre;" direction="ltr" dominant-baseline="alphabetic">Diag Paquetes</text></g><g transform="translate(37.39059006161983 167.82197422856484) rotate(0 102.62653350830078 17.58901288571758)"><text x="0" y="24.652760460621746" font-family="Virgil, Segoe UI Emoji" font-size="28.142420617148108px" fill="#1971c2" text-anchor="start" style="white-space: pre;" direction="ltr" dominant-baseline="alphabetic">Diag Secuencia</text></g><g transform="translate(28.390590061619832 121.82197422856484) rotate(0 121.88834381103516 17.58901288571758)"><text x="0" y="24.652760460621746" font-family="Virgil, Segoe UI Emoji" font-size="28.142420617148108px" fill="#1971c2" text-anchor="start" style="white-space: pre;" direction="ltr" dominant-baseline="alphabetic">Diag Comunicacion</text></g></svg>