<svg version="1.1" xmlns="http://www.w3.org/2000/svg" viewBox="0 0 1201.5870639212765 1165.085763436851" width="3604.7611917638296" height="3495.257290310553">
  <!-- svg-source:excalidraw -->
  
  <defs>
    <style class="style-fonts">
      @font-face {
        font-family: "Virgil";
        src: url("https://excalidraw.com/Virgil.woff2");
      }
      @font-face {
        font-family: "Cascadia";
        src: url("https://excalidraw.com/Cascadia.woff2");
      }
      @font-face {
        font-family: "Assistant";
        src: url("https://excalidraw.com/Assistant-Regular.woff2");
      }
    </style>
    
  </defs>
  <rect x="0" y="0" width="1201.5870639212765" height="1165.085763436851" fill="#ffffff"></rect><g transform="translate(65.14917132924973 185.6380977764909) rotate(0 67.47053703331972 22.82496560583047)"><text x="0" y="31.99147179313195" font-family="Virgil, Segoe UI Emoji" font-size="36.519944969328705px" fill="#1e1e1e" text-anchor="start" style="white-space: pre;" direction="ltr" dominant-baseline="alphabetic">Usuario</text></g><g transform="translate(519.670474463951 162.66093479250208) rotate(0 89.18750961992248 44.736932587427646)"><text x="89.18750961992248" y="31.351642357269277" font-family="Virgil, Segoe UI Emoji" font-size="35.7895460699421px" fill="#1e1e1e" text-anchor="middle" style="white-space: pre;" direction="ltr" dominant-baseline="alphabetic">Inventario</text><text x="89.18750961992248" y="76.0885749446969" font-family="Virgil, Segoe UI Emoji" font-size="35.7895460699421px" fill="#1e1e1e" text-anchor="middle" style="white-space: pre;" direction="ltr" dominant-baseline="alphabetic">Alimentos</text></g><g transform="translate(766.1801030069198 166.31292928943503) rotate(0 91.79280589438906 45.64993121166083)"><text x="91.79280589438909" y="31.99147179313195" font-family="Virgil, Segoe UI Emoji" font-size="36.519944969328705px" fill="#1e1e1e" text-anchor="middle" style="white-space: pre;" direction="ltr" dominant-baseline="alphabetic">Calendario</text><text x="91.79280589438909" y="77.64140300479283" font-family="Virgil, Segoe UI Emoji" font-size="36.519944969328705px" fill="#1e1e1e" text-anchor="middle" style="white-space: pre;" direction="ltr" dominant-baseline="alphabetic">minuta</text></g><g transform="translate(264.22047247969965 194.45152668602532) rotate(0 92.06253366774683 19.531272923971187)"><text x="0" y="27.375032130238093" font-family="Virgil, Segoe UI Emoji" font-size="31.250036678353982px" fill="#1e1e1e" text-anchor="start" style="white-space: pre;" direction="ltr" dominant-baseline="alphabetic">Contractual</text></g><g stroke-linecap="round"><g transform="translate(229.33691195778772 127.97125450659746) rotate(0 -0.41736086383014026 513.5834715191484)"><path d="M-0.89 0.72 C-1.16 172.04, -0.43 856.29, -0.48 1027.11 M0.84 0.05 C0.27 171.13, -1.72 854.46, -1.67 1025.58" stroke="#e03131" stroke-width="2" fill="none"></path></g></g><mask></mask><g stroke-linecap="round"><g transform="translate(486.8025239915553 127.97125450659746) rotate(0 -0.48383760753682736 513.2308725637827)"><path d="M0.2 1.15 C0.28 171.93, -0.1 854.06, -0.08 1024.82 M-1.16 0.72 C-1.18 171.58, -1.22 854.72, -1.07 1025.75" stroke="#e03131" stroke-width="2" fill="none"></path></g></g><mask></mask><g stroke-linecap="round"><g transform="translate(742.4421387768562 127.97125450659746) rotate(0 -0.16785902254719076 512.5920634671509)"><path d="M-0.04 -1.04 C0.3 169.79, 1.2 853.87, 1.19 1025.14 M-1.52 1.02 C-1.15 171.97, 0.77 855.64, 0.86 1026.23" stroke="#e03131" stroke-width="2" fill="none"></path></g></g><mask></mask><g stroke-linecap="round" transform="translate(111.25 249.44965115274135) rotate(0 19.5 19.5)"><path d="M8.93 3.79 C8.93 3.79, 8.93 3.79, 8.93 3.79 M8.93 3.79 C8.93 3.79, 8.93 3.79, 8.93 3.79 M1.85 24.13 C6.08 17.77, 10.84 12.46, 22.19 0.74 M1.85 24.13 C7.78 17.97, 13.16 11.19, 22.19 0.74 M5.92 31.65 C14.91 23.36, 21.41 13.92, 29.54 4.48 M5.92 31.65 C13.27 23.39, 21.2 14.15, 29.54 4.48 M11.3 37.65 C20.05 28.99, 27.17 19.98, 35.58 9.73 M11.3 37.65 C19.05 28.61, 26.24 20.49, 35.58 9.73 M20.62 39.12 C24.31 33.18, 29.69 27.98, 38.99 17.99 M20.62 39.12 C26.28 33.68, 31.24 27.16, 38.99 17.99" stroke="#ffec99" stroke-width="1" fill="none"></path><path d="M21.99 0.38 C25.9 0.64, 30.41 3.38, 33.22 6.36 C36.03 9.34, 38.44 14.21, 38.83 18.26 C39.22 22.32, 37.93 27.26, 35.56 30.7 C33.2 34.14, 28.75 37.84, 24.63 38.92 C20.51 40.01, 14.58 39.19, 10.83 37.19 C7.09 35.19, 3.82 30.8, 2.14 26.92 C0.46 23.04, -0.4 17.77, 0.74 13.92 C1.87 10.06, 5.32 5.99, 8.95 3.77 C12.58 1.55, 20.2 1.13, 22.51 0.57 C24.83 0.01, 22.94 0.09, 22.82 0.42 M21 -0.15 C24.9 -0.13, 30.09 1.88, 32.97 4.82 C35.85 7.75, 37.8 13.13, 38.28 17.47 C38.77 21.8, 37.97 27.31, 35.86 30.82 C33.75 34.34, 29.65 37.4, 25.62 38.57 C21.58 39.74, 15.56 39.61, 11.64 37.83 C7.72 36.04, 3.85 31.77, 2.09 27.84 C0.34 23.91, 0.21 18.22, 1.1 14.26 C1.99 10.3, 4.12 6.51, 7.45 4.08 C10.77 1.64, 18.77 0.28, 21.04 -0.34 C23.31 -0.96, 21.23 -0.04, 21.07 0.35" stroke="#f08c00" stroke-width="2" fill="none"></path></g><g stroke-linecap="round" transform="translate(855.4642857142858 1067.3782225813127) rotate(0 19.5 19.5)"><path d="M10.4 2.41 C10.4 2.41, 10.4 2.41, 10.4 2.41 M10.4 2.41 C10.4 2.41, 10.4 2.41, 10.4 2.41 M2 24.26 C10.2 15.51, 16.88 7.39, 23 0.11 M2 24.26 C6.89 18.75, 11.58 13.2, 23 0.11 M6.07 31.78 C13.48 24.18, 18.67 15.94, 29.69 4.61 M6.07 31.78 C11.05 25.65, 16.11 19.8, 29.69 4.61 M12.11 37.03 C18.15 29.29, 25.64 22.62, 35.73 9.86 M12.11 37.03 C20.2 28.05, 27.06 19.66, 35.73 9.86 M21.43 38.5 C27.69 32.2, 32.95 24.16, 38.48 18.88 M21.43 38.5 C26.96 32.86, 31.95 26.17, 38.48 18.88" stroke="#ffec99" stroke-width="1" fill="none"></path><path d="M23.12 0.38 C27.03 0.82, 31.92 3.88, 34.58 7.21 C37.24 10.54, 39.15 16.11, 39.09 20.36 C39.02 24.61, 36.89 29.66, 34.18 32.71 C31.46 35.76, 26.86 38.14, 22.8 38.66 C18.74 39.18, 13.46 38.04, 9.83 35.84 C6.2 33.64, 2.38 29.31, 1.01 25.47 C-0.36 21.63, 0.08 16.58, 1.61 12.78 C3.14 8.98, 6.53 4.65, 10.19 2.66 C13.85 0.66, 21.19 1.14, 23.58 0.83 C25.97 0.51, 24.65 0.51, 24.54 0.77 M15.67 0.31 C19.62 -0.85, 24.99 0.73, 28.62 2.73 C32.26 4.73, 35.92 8.62, 37.49 12.31 C39.06 16.01, 39.28 21.02, 38.04 24.89 C36.79 28.77, 33.48 33.15, 30.02 35.54 C26.55 37.93, 21.28 39.74, 17.26 39.25 C13.23 38.75, 8.77 35.59, 5.89 32.57 C3.01 29.55, 0.4 25.12, -0.02 21.12 C-0.45 17.11, 0.77 11.95, 3.32 8.53 C5.87 5.11, 13.27 1.92, 15.28 0.6 C17.3 -0.73, 15.35 0.37, 15.41 0.59" stroke="#f08c00" stroke-width="2" fill="none"></path></g><g stroke-linecap="round" transform="translate(113.25 1055.9496511527411) rotate(0 19.5 19.5)"><path d="M4.08 7.52 C4.08 7.52, 4.08 7.52, 4.08 7.52 M4.08 7.52 C4.08 7.52, 4.08 7.52, 4.08 7.52 M1.59 22.58 C6.8 17.59, 11.83 11.48, 19.96 1.45 M1.59 22.58 C8.61 14.03, 16.17 6.7, 19.96 1.45 M5 30.85 C14.79 19.64, 24.75 9.08, 29.28 2.92 M5 30.85 C14.37 20.26, 23.72 9.04, 29.28 2.92 M11.04 36.1 C17.98 29.04, 24.57 19.59, 34.66 8.93 M11.04 36.1 C20 25.75, 29.33 15.34, 34.66 8.93 M19.7 38.33 C27.21 30.23, 33.93 23.61, 38.07 17.2 M19.7 38.33 C25.32 32.29, 30.32 26.53, 38.07 17.2" stroke="#ffec99" stroke-width="1" fill="none"></path><path d="M14.45 0.63 C18.3 -0.58, 24.61 -0.28, 28.34 1.54 C32.08 3.37, 35.17 7.73, 36.85 11.56 C38.52 15.39, 39.48 20.52, 38.42 24.54 C37.36 28.57, 33.96 33.28, 30.49 35.7 C27.03 38.12, 21.75 39.45, 17.63 39.04 C13.51 38.64, 8.64 36.27, 5.77 33.26 C2.89 30.24, 0.71 25.18, 0.37 20.95 C0.04 16.72, 1.27 11.25, 3.77 7.88 C6.27 4.51, 13.35 1.86, 15.38 0.74 C17.41 -0.38, 15.97 0.87, 15.96 1.15 M15.76 0.97 C19.81 0.05, 25.86 1.4, 29.62 3.24 C33.37 5.09, 36.98 8.11, 38.29 12.04 C39.61 15.97, 38.89 22.83, 37.48 26.84 C36.07 30.85, 33.27 34.22, 29.83 36.09 C26.38 37.97, 20.93 38.66, 16.8 38.09 C12.67 37.51, 7.87 35.65, 5.05 32.65 C2.23 29.66, -0.11 24.34, -0.12 20.12 C-0.13 15.89, 2.26 10.62, 5 7.31 C7.73 4.01, 14.36 1.33, 16.29 0.3 C18.21 -0.72, 16.46 0.81, 16.54 1.16" stroke="#f08c00" stroke-width="2" fill="none"></path></g><g stroke-linecap="round" transform="translate(276.25 330.61630001748745) rotate(0 83.125 60)"><path d="M6.07 58.27 C6.07 58.27, 6.07 58.27, 6.07 58.27 M6.07 58.27 C6.07 58.27, 6.07 58.27, 6.07 58.27 M9.48 66.54 C15.75 56.77, 22.36 48.45, 36.38 35.6 M9.48 66.54 C17.92 56.82, 24.7 47.91, 36.38 35.6 M15.52 71.79 C27.95 55.97, 42.34 37.68, 65.38 14.43 M15.52 71.79 C34.28 49.2, 54.68 27.06, 65.38 14.43 M21.56 77.04 C45.56 53.16, 66.79 24.77, 84.54 4.59 M21.56 77.04 C35.73 60.44, 52.21 42.18, 84.54 4.59 M28.25 81.53 C45.99 60.64, 62.12 44.08, 92.54 7.57 M28.25 81.53 C49.83 53.76, 74.02 26.98, 92.54 7.57 M34.94 86.03 C57.31 59.32, 84.66 31.39, 99.24 12.06 M34.94 86.03 C56.11 62.14, 76.73 35.74, 99.24 12.06 M41.64 90.52 C64.08 64.77, 83.62 41.89, 105.93 16.56 M41.64 90.52 C64.78 65.36, 87.24 37.71, 105.93 16.56 M48.33 95.01 C63.38 76.67, 76.52 60.9, 112.62 21.05 M48.33 95.01 C70.22 69.46, 94.13 42.27, 112.62 21.05 M55.02 99.51 C76.72 76.28, 97 51.85, 119.32 25.55 M55.02 99.51 C71.13 82.25, 84.13 64.49, 119.32 25.55 M61.72 104 C73.82 86.73, 87.44 72.03, 125.36 30.79 M61.72 104 C81.61 81.95, 100.79 58.87, 125.36 30.79 M68.41 108.49 C92.22 77.46, 118.26 50.33, 132.05 35.29 M68.41 108.49 C90.97 82.35, 113.94 56.83, 132.05 35.29 M75.11 112.99 C96.37 86.79, 119.11 63.8, 138.09 40.54 M75.11 112.99 C97.54 86.09, 118.86 61.51, 138.09 40.54 M83.11 115.97 C102.83 94.41, 120.43 72.78, 144.78 45.03 M83.11 115.97 C107.98 87.66, 131.66 58.97, 144.78 45.03 M99.65 109.15 C110.91 96.6, 122.53 80.26, 150.82 50.28 M99.65 109.15 C113.41 91.99, 128.91 73.88, 150.82 50.28 M127.33 89.49 C138.96 79.68, 146.21 65.75, 156.86 55.53 M127.33 89.49 C136.32 79.59, 146.88 68.75, 156.86 55.53" stroke="#ffec99" stroke-width="1" fill="none"></path><path d="M105 15.25 C111.95 21.4, 119.24 29, 145.25 45.75 M105 15.25 C117.47 24.67, 129.45 35.07, 145.25 45.75 M145.25 45.75 C164.75 60.4, 165.31 59.91, 145.25 76.25 M145.25 45.75 C166.08 58.85, 165.77 61.06, 145.25 76.25 M145.25 76.25 C132.12 85.96, 120.77 93.67, 105 104.75 M145.25 76.25 C135.37 83.62, 124.42 91.1, 105 104.75 M105 104.75 C84.65 120.89, 82.88 120.93, 63 104.75 M105 104.75 C82.17 121.08, 85.71 118.31, 63 104.75 M63 104.75 C51.57 95.91, 37.55 88.01, 21 76.25 M63 104.75 C50.58 96.69, 36.8 86.9, 21 76.25 M21 76.25 C-1.22 60.53, -1.58 62.07, 21 45.75 M21 76.25 C-0.24 62.73, 1.76 58.99, 21 45.75 M21 45.75 C30.28 39.39, 42.6 31.72, 63 15.25 M21 45.75 C36.25 35.97, 50.69 23.54, 63 15.25 M63 15.25 C82.61 0.61, 84.36 0.3, 105 15.25 M63 15.25 C85.41 1.09, 85.33 0.96, 105 15.25" stroke="#f08c00" stroke-width="2" fill="none"></path></g><g transform="translate(324.8805160522461 380.61630001748745) rotate(0 34.431983947753906 10)"><text x="34.431983947753906" y="14.016" font-family="Virgil, Segoe UI Emoji" font-size="16px" fill="#f08c00" text-anchor="middle" style="white-space: pre;" direction="ltr" dominant-baseline="alphabetic">contrato</text></g><g stroke-linecap="round" transform="translate(526.25 421.86630001748745) rotate(0 83.125 59.999999999999886)"><path d="M6.07 58.27 C6.07 58.27, 6.07 58.27, 6.07 58.27 M6.07 58.27 C6.07 58.27, 6.07 58.27, 6.07 58.27 M9.48 66.54 C15.48 58.32, 21.22 51.74, 36.38 35.6 M9.48 66.54 C17.16 59.09, 23.24 50.29, 36.38 35.6 M15.52 71.79 C25.34 58.8, 35.19 45.83, 65.38 14.43 M15.52 71.79 C31.49 51.3, 48.81 32.07, 65.38 14.43 M21.56 77.04 C41.71 54.91, 65.1 29.09, 84.54 4.59 M21.56 77.04 C36.11 59.55, 50.68 41.79, 84.54 4.59 M28.25 81.53 C54.61 52.33, 77.35 24.05, 92.54 7.57 M28.25 81.53 C43.31 64.24, 58.35 47.54, 92.54 7.57 M34.94 86.03 C53.63 61.94, 74.96 37.3, 99.24 12.06 M34.94 86.03 C52.97 64.36, 72.61 43.03, 99.24 12.06 M41.64 90.52 C52.46 77.56, 65.57 62.62, 105.93 16.56 M41.64 90.52 C60.34 70.31, 77.43 48.57, 105.93 16.56 M48.33 95.01 C64.65 75.4, 82.33 55.63, 112.62 21.05 M48.33 95.01 C73.97 65.83, 98.96 36.04, 112.62 21.05 M55.02 99.51 C78.38 74.22, 97.75 51.25, 119.32 25.55 M55.02 99.51 C70.57 80.47, 87.58 62.22, 119.32 25.55 M61.72 104 C74.7 88.03, 91.94 71.12, 125.36 30.79 M61.72 104 C86.78 75.72, 111.51 48.06, 125.36 30.79 M68.41 108.49 C87.52 84.85, 108.09 65.49, 132.05 35.29 M68.41 108.49 C92.51 81.35, 116.62 54.27, 132.05 35.29 M75.11 112.99 C97.78 84.62, 121.7 58.42, 138.09 40.54 M75.11 112.99 C89.37 96.19, 104.42 79.63, 138.09 40.54 M83.11 115.97 C101.67 93.38, 121.03 72.37, 144.78 45.03 M83.11 115.97 C106.17 88.52, 131.34 59.89, 144.78 45.03 M99.65 109.15 C114.17 93.29, 125.52 80.41, 150.82 50.28 M99.65 109.15 C120.26 84.79, 140.19 62.79, 150.82 50.28 M127.33 89.49 C138.38 77.37, 146.66 65.74, 156.86 55.53 M127.33 89.49 C135.91 79.59, 144.7 67.66, 156.86 55.53" stroke="#ffec99" stroke-width="1" fill="none"></path><path d="M105 15.25 C114.92 23.63, 121.64 28.57, 145.25 45.75 M105 15.25 C114.53 23.45, 124.44 29.33, 145.25 45.75 M145.25 45.75 C166.77 61.98, 167.54 61.67, 145.25 76.25 M145.25 45.75 C166.37 59.66, 167.69 59.77, 145.25 76.25 M145.25 76.25 C130.84 87.03, 115.44 96.58, 105 104.75 M145.25 76.25 C135.19 83.38, 123.03 91.65, 105 104.75 M105 104.75 C84.48 120.2, 82.98 121.98, 63 104.75 M105 104.75 C82.04 121.67, 83.86 121.27, 63 104.75 M63 104.75 C51.45 96.08, 40.13 87.71, 21 76.25 M63 104.75 C47.17 94.45, 34.25 84.54, 21 76.25 M21 76.25 C-1.3 60.75, -1.24 59.05, 21 45.75 M21 76.25 C-0.45 61.13, 0.87 61.64, 21 45.75 M21 45.75 C32.9 37.23, 42.25 30.21, 63 15.25 M21 45.75 C31.22 38.44, 40.49 31.16, 63 15.25 M63 15.25 C84.77 0.24, 83.75 -1.4, 105 15.25 M63 15.25 C82.13 -2.29, 82.91 -1.9, 105 15.25" stroke="#f08c00" stroke-width="2" fill="none"></path></g><g transform="translate(577.9925155639648 461.86630001748745) rotate(0 31.319984436035156 20)"><text x="31.319984436035156" y="14.016" font-family="Virgil, Segoe UI Emoji" font-size="16px" fill="#f08c00" text-anchor="middle" style="white-space: pre;" direction="ltr" dominant-baseline="alphabetic">existe </text><text x="31.319984436035156" y="34.016" font-family="Virgil, Segoe UI Emoji" font-size="16px" fill="#f08c00" text-anchor="middle" style="white-space: pre;" direction="ltr" dominant-baseline="alphabetic">alimento</text></g><g stroke-linecap="round" transform="translate(53.75 376.86630001748745) rotate(0 83.125 60)"><path d="M6.07 58.27 C6.07 58.27, 6.07 58.27, 6.07 58.27 M6.07 58.27 C6.07 58.27, 6.07 58.27, 6.07 58.27 M9.48 66.54 C16.46 58.96, 25.14 51.54, 36.38 35.6 M9.48 66.54 C19.04 53.64, 28.84 42.68, 36.38 35.6 M15.52 71.79 C30.06 56.94, 43.63 39.72, 65.38 14.43 M15.52 71.79 C36.55 48.32, 54.6 26.39, 65.38 14.43 M21.56 77.04 C37.21 56.56, 54.31 39.19, 84.54 4.59 M21.56 77.04 C45.08 51.32, 65.75 26.33, 84.54 4.59 M28.25 81.53 C49.98 57.61, 71.31 30.8, 92.54 7.57 M28.25 81.53 C51.13 55.94, 72.67 30.83, 92.54 7.57 M34.94 86.03 C51.02 69.75, 68.04 49.72, 99.24 12.06 M34.94 86.03 C60.12 57.08, 85.02 28.06, 99.24 12.06 M41.64 90.52 C55.53 76.21, 69.73 58.46, 105.93 16.56 M41.64 90.52 C54.01 74.67, 69.17 59.61, 105.93 16.56 M48.33 95.01 C64.97 71.32, 87.15 52.18, 112.62 21.05 M48.33 95.01 C73.02 66.32, 96.89 38.67, 112.62 21.05 M55.02 99.51 C74.17 75.57, 94.16 53.74, 119.32 25.55 M55.02 99.51 C68.45 85.26, 80.34 69.5, 119.32 25.55 M61.72 104 C83.42 77.46, 106.45 49.55, 125.36 30.79 M61.72 104 C84.68 77.26, 107.49 50.47, 125.36 30.79 M68.41 108.49 C86.62 86.78, 106.11 62.42, 132.05 35.29 M68.41 108.49 C92.21 81.28, 114.09 55.29, 132.05 35.29 M75.11 112.99 C96.11 86.12, 120.45 60.17, 138.09 40.54 M75.11 112.99 C95.11 89.2, 117.68 63.66, 138.09 40.54 M83.11 115.97 C98.1 100.23, 109.29 84.83, 144.78 45.03 M83.11 115.97 C105.47 89.03, 129.02 63.61, 144.78 45.03 M99.65 109.15 C110.75 95.06, 121.4 82.81, 150.82 50.28 M99.65 109.15 C110.83 94.94, 123.56 80.23, 150.82 50.28 M127.33 89.49 C137.87 78.94, 146.2 65.93, 156.86 55.53 M127.33 89.49 C138.56 76.16, 149.1 64.57, 156.86 55.53" stroke="#ffec99" stroke-width="1" fill="none"></path><path d="M105 15.25 C115.81 23.96, 121.74 28.7, 145.25 45.75 M105 15.25 C119.04 26.26, 132.78 36.14, 145.25 45.75 M145.25 45.75 C166.35 60.16, 168.24 61.98, 145.25 76.25 M145.25 45.75 C164.81 60.55, 164.68 59.17, 145.25 76.25 M145.25 76.25 C129.54 84.4, 119.21 96.87, 105 104.75 M145.25 76.25 C130.85 86.57, 116.91 96.21, 105 104.75 M105 104.75 C84.58 118.5, 84.43 121.73, 63 104.75 M105 104.75 C82.82 119.7, 84.28 118.77, 63 104.75 M63 104.75 C53.01 96.5, 42.77 94.06, 21 76.25 M63 104.75 C47.01 94.36, 30.55 81.39, 21 76.25 M21 76.25 C0.82 62.58, 0.93 61.29, 21 45.75 M21 76.25 C-1.55 62.8, -1.26 60.71, 21 45.75 M21 45.75 C32.33 36.35, 48.28 25.51, 63 15.25 M21 45.75 C30.38 39.91, 38.16 33.43, 63 15.25 M63 15.25 C85.71 0.9, 84.23 1.56, 105 15.25 M63 15.25 C82.57 0.09, 84.26 -0.49, 105 15.25" stroke="#f08c00" stroke-width="2" fill="none"></path></g><g transform="translate(106.50052642822266 426.86630001748745) rotate(0 30.311973571777344 10)"><text x="30.311973571777344" y="14.016" font-family="Virgil, Segoe UI Emoji" font-size="16px" fill="#f08c00" text-anchor="middle" style="white-space: pre;" direction="ltr" dominant-baseline="alphabetic">registro</text></g><g stroke-linecap="round" transform="translate(268.75 599.3663000174872) rotate(0 83.125 60)"><path d="M6.07 58.27 C6.07 58.27, 6.07 58.27, 6.07 58.27 M6.07 58.27 C6.07 58.27, 6.07 58.27, 6.07 58.27 M9.48 66.54 C16.14 59.72, 20.14 53.94, 36.38 35.6 M9.48 66.54 C18.06 56.68, 28.08 45.29, 36.38 35.6 M15.52 71.79 C25.39 58.63, 35.36 47.16, 65.38 14.43 M15.52 71.79 C26.1 60.43, 35.3 49.19, 65.38 14.43 M21.56 77.04 C40.77 54.85, 58.07 31.4, 84.54 4.59 M21.56 77.04 C40.9 53.99, 61.69 31.4, 84.54 4.59 M28.25 81.53 C45.26 59.84, 64.09 39.6, 92.54 7.57 M28.25 81.53 C41.39 66.15, 55.22 50.88, 92.54 7.57 M34.94 86.03 C47.9 69.59, 62.72 52.59, 99.24 12.06 M34.94 86.03 C50.45 67.39, 66.31 49.15, 99.24 12.06 M41.64 90.52 C59.7 72.58, 74.48 51.96, 105.93 16.56 M41.64 90.52 C54.83 74.41, 67.95 58.5, 105.93 16.56 M48.33 95.01 C68.32 68.06, 91.01 43.36, 112.62 21.05 M48.33 95.01 C69.91 71.4, 92.79 45.63, 112.62 21.05 M55.02 99.51 C69.25 81.71, 83.86 62.9, 119.32 25.55 M55.02 99.51 C80.51 70.61, 104.52 41.93, 119.32 25.55 M61.72 104 C76.68 86.59, 91.86 70.34, 125.36 30.79 M61.72 104 C80.86 80.39, 101.4 56.72, 125.36 30.79 M68.41 108.49 C85.62 86.94, 105.44 66.67, 132.05 35.29 M68.41 108.49 C79.89 94.84, 92.87 79.98, 132.05 35.29 M75.11 112.99 C93.69 93.87, 109.73 71.27, 138.09 40.54 M75.11 112.99 C91.62 94.04, 108.55 74.84, 138.09 40.54 M83.11 115.97 C107.63 88.08, 131.02 59.09, 144.78 45.03 M83.11 115.97 C104.8 91.99, 124.16 69.38, 144.78 45.03 M99.65 109.15 C111.22 93.62, 125.01 80.37, 150.82 50.28 M99.65 109.15 C110.55 96.29, 123.48 82.88, 150.82 50.28 M127.33 89.49 C139.83 76.41, 151.44 64.63, 156.86 55.53 M127.33 89.49 C136.18 78.47, 145.78 69.58, 156.86 55.53" stroke="#ffec99" stroke-width="1" fill="none"></path><path d="M105 15.25 C115.29 22.52, 120.82 28.49, 145.25 45.75 M105 15.25 C117.64 25.5, 128.2 33.85, 145.25 45.75 M145.25 45.75 C164.53 61.33, 165.41 59.84, 145.25 76.25 M145.25 45.75 C165.4 59.14, 164.13 62.28, 145.25 76.25 M145.25 76.25 C133.45 85.1, 120.89 94.43, 105 104.75 M145.25 76.25 C132.66 84.61, 120.28 93.66, 105 104.75 M105 104.75 C84.23 120.17, 82.27 119.92, 63 104.75 M105 104.75 C84.17 121.44, 84.49 117.85, 63 104.75 M63 104.75 C45.82 95.34, 29.44 82.8, 21 76.25 M63 104.75 C48.42 94.15, 33.03 83.34, 21 76.25 M21 76.25 C0.03 61.51, 0.8 62.4, 21 45.75 M21 76.25 C0.97 59.32, -1.29 59.32, 21 45.75 M21 45.75 C34.62 34.14, 48.28 22.94, 63 15.25 M21 45.75 C34.26 35.44, 49.46 25.6, 63 15.25 M63 15.25 C84.67 0.11, 82.84 1.25, 105 15.25 M63 15.25 C82.77 1.17, 85.09 -0.48, 105 15.25" stroke="#f08c00" stroke-width="2" fill="none"></path></g><g transform="translate(317.3805160522461 639.3663000174872) rotate(0 34.431983947753906 20)"><text x="34.431983947753906" y="14.016" font-family="Virgil, Segoe UI Emoji" font-size="16px" fill="#f08c00" text-anchor="middle" style="white-space: pre;" direction="ltr" dominant-baseline="alphabetic">contrato</text><text x="34.431983947753906" y="34.016" font-family="Virgil, Segoe UI Emoji" font-size="16px" fill="#f08c00" text-anchor="middle" style="white-space: pre;" direction="ltr" dominant-baseline="alphabetic">alimento</text></g><g stroke-linecap="round" transform="translate(287.5 741.4496587821357) rotate(0 66.24999999999989 33.75)"><path d="M4.49 3.9 C4.49 3.9, 4.49 3.9, 4.49 3.9 M4.49 3.9 C4.49 3.9, 4.49 3.9, 4.49 3.9 M3.97 16.7 C7.4 8.88, 13.51 3.65, 17.75 0.85 M3.97 16.7 C6.27 13.6, 9.36 9.49, 17.75 0.85 M4.1 28.74 C8.87 21.49, 14.24 18.69, 28.38 0.82 M4.1 28.74 C12.73 19.12, 19.72 9.73, 28.38 0.82 M4.24 40.78 C14.59 27.07, 27.29 12.38, 39.01 0.78 M4.24 40.78 C17.84 26.72, 30.98 10.52, 39.01 0.78 M1.74 55.84 C16.84 35.85, 33.61 15.69, 49.64 0.75 M1.74 55.84 C18.62 36.62, 35.29 16.61, 49.64 0.75 M5.81 63.35 C17.46 49.77, 30.34 34.62, 60.27 0.71 M5.81 63.35 C26.59 40.73, 46.27 16.12, 60.27 0.71 M11.2 69.36 C26.46 50.26, 41.03 34.17, 70.9 0.68 M11.2 69.36 C25.8 53.61, 39.93 36.43, 70.9 0.68 M20.51 70.83 C41.61 47.92, 64.72 22.76, 81.53 0.64 M20.51 70.83 C44.27 44.11, 69.3 16.17, 81.53 0.64 M31.14 70.8 C47.45 52.41, 61.04 37.31, 92.16 0.61 M31.14 70.8 C44.47 56.54, 57.9 41.46, 92.16 0.61 M41.77 70.76 C62.32 49.92, 80.37 26.44, 102.79 0.58 M41.77 70.76 C53.47 56.34, 66.27 40.05, 102.79 0.58 M52.4 70.73 C72.81 44.99, 94.21 19.93, 113.42 0.54 M52.4 70.73 C72.38 48.32, 93.24 24.93, 113.42 0.54 M63.03 70.69 C78.21 53.29, 93.16 36.96, 120.77 4.28 M63.03 70.69 C82.46 48.68, 102.2 25.07, 120.77 4.28 M73.66 70.66 C90.19 53, 107.1 31.26, 130.08 5.75 M73.66 70.66 C92.26 49.51, 109.57 29.06, 130.08 5.75 M84.29 70.63 C102.03 50.98, 117.34 33.02, 133.5 14.02 M84.29 70.63 C96.92 55.66, 107.49 43.7, 133.5 14.02 M94.92 70.59 C106.43 55.92, 120.22 43.86, 133.63 26.06 M94.92 70.59 C107.61 56.94, 120.02 41.76, 133.63 26.06 M105.55 70.56 C112.33 62.27, 123.48 52.65, 133.76 38.1 M105.55 70.56 C113.97 60.02, 122.91 49.8, 133.76 38.1 M117.5 69.01 C123.2 63.37, 128.89 58.62, 133.24 50.9 M117.5 69.01 C123.3 62.93, 128.78 57.51, 133.24 50.9" stroke="#b2f2bb" stroke-width="1" fill="none"></path><path d="M16.88 0 C40.4 -0.23, 61.25 -1.15, 115.62 0 M16.88 0 C56.72 0.09, 95.71 -1.01, 115.62 0 M115.62 0 C127.29 -1.85, 132.18 5.08, 132.5 16.88 M115.62 0 C128.53 -1.1, 133.3 4.06, 132.5 16.88 M132.5 16.88 C130.9 25.98, 131.1 32.79, 132.5 50.63 M132.5 16.88 C131.38 24.46, 131.68 33.93, 132.5 50.63 M132.5 50.63 C132.01 63.81, 125.83 67.81, 115.62 67.5 M132.5 50.63 C133.99 60.4, 125.23 68.28, 115.62 67.5 M115.62 67.5 C82.14 70.39, 51.07 70.19, 16.88 67.5 M115.62 67.5 C78.53 67.32, 41.47 67.36, 16.88 67.5 M16.88 67.5 C6.85 67.25, -1.67 60.04, 0 50.63 M16.88 67.5 C5.16 65.73, -0.93 60.53, 0 50.63 M0 50.63 C-0.04 37.53, 0.35 27.07, 0 16.88 M0 50.63 C0.15 40.84, -0.68 31.85, 0 16.88 M0 16.88 C1.83 3.67, 6.84 0.67, 16.88 0 M0 16.88 C-0.89 6.49, 7.13 0.02, 16.88 0" stroke="#2f9e44" stroke-width="2" fill="none"></path></g><g transform="translate(308.5420379638671 755.1996587821357) rotate(0 45.20796203613281 20)"><text x="45.20796203613281" y="14.016" font-family="Virgil, Segoe UI Emoji" font-size="16px" fill="#2f9e44" text-anchor="middle" style="white-space: pre;" direction="ltr" dominant-baseline="alphabetic">Compramos </text><text x="45.20796203613281" y="34.016" font-family="Virgil, Segoe UI Emoji" font-size="16px" fill="#2f9e44" text-anchor="middle" style="white-space: pre;" direction="ltr" dominant-baseline="alphabetic">alimento</text></g><g stroke-linecap="round" transform="translate(551.25 587.6996587821357) rotate(0 66.24999999999989 33.75)"><path d="M4.49 3.9 C4.49 3.9, 4.49 3.9, 4.49 3.9 M4.49 3.9 C4.49 3.9, 4.49 3.9, 4.49 3.9 M0.69 20.47 C7.33 14.37, 10.47 7.35, 18.4 0.1 M0.69 20.47 C6.01 13.18, 12.9 6.93, 18.4 0.1 M0.17 33.27 C5.52 27.11, 14.81 16.78, 29.03 0.06 M0.17 33.27 C8.5 22.58, 16.67 13.48, 29.03 0.06 M0.3 45.31 C13.39 31.73, 25.52 16.57, 39.66 0.03 M0.3 45.31 C12.75 31.18, 25.7 16.61, 39.66 0.03 M1.09 56.6 C13.37 40.23, 28.92 27.46, 50.29 -0.01 M1.09 56.6 C15.23 39.34, 30.13 24.63, 50.29 -0.01 M5.16 64.11 C16.58 49.24, 30.68 35.9, 60.92 -0.04 M5.16 64.11 C21.04 44.5, 38.35 27.28, 60.92 -0.04 M13.16 67.09 C34.81 41.74, 52.69 19.98, 71.55 -0.08 M13.16 67.09 C36.82 39.39, 59.75 13.04, 71.55 -0.08 M23.14 67.81 C37.87 50.24, 51.34 34.19, 82.18 -0.11 M23.14 67.81 C43.51 43.62, 64.81 20.01, 82.18 -0.11 M33.77 67.78 C47.24 51.94, 56.36 39.73, 92.81 -0.14 M33.77 67.78 C46.04 54.42, 58.77 39.69, 92.81 -0.14 M44.4 67.74 C66.25 41.52, 91.85 13.91, 103.44 -0.18 M44.4 67.74 C59.82 51.19, 74.16 35.91, 103.44 -0.18 M54.37 68.46 C79.63 41.21, 100.68 11.36, 114.07 -0.21 M54.37 68.46 C72.34 45.72, 92.26 24.89, 114.07 -0.21 M65 68.43 C87.66 45.35, 108.63 20.73, 122.73 2.02 M65 68.43 C78.31 53.89, 92.21 37.98, 122.73 2.02 M75.63 68.4 C95.31 44.77, 113.9 22.06, 129.43 6.51 M75.63 68.4 C92.34 49.64, 108.46 29.58, 129.43 6.51 M86.26 68.36 C97.72 51.61, 112.02 36.91, 132.84 14.78 M86.26 68.36 C99.77 52.59, 113.27 36.52, 132.84 14.78 M96.89 68.33 C112.61 53.18, 123.51 34.7, 132.98 26.82 M96.89 68.33 C109.87 52.56, 124.1 38.22, 132.98 26.82 M107.52 68.29 C114.33 59.21, 125.51 49.59, 133.11 38.86 M107.52 68.29 C115.34 59.51, 122.18 51.39, 133.11 38.86 M119.46 66.75 C124.39 62.62, 130.56 52.92, 133.24 50.9 M119.46 66.75 C123.27 60.74, 127.42 56.26, 133.24 50.9" stroke="#b2f2bb" stroke-width="1" fill="none"></path><path d="M16.88 0 C41.84 0.74, 70.28 -0.31, 115.62 0 M16.88 0 C49.3 0.4, 80.83 0.2, 115.62 0 M115.62 0 C125.41 -1.62, 130.83 7.53, 132.5 16.88 M115.62 0 C128.57 0.62, 132.42 5.54, 132.5 16.88 M132.5 16.88 C133.69 26.82, 130.88 35.44, 132.5 50.63 M132.5 16.88 C131.84 24.92, 133.02 33.84, 132.5 50.63 M132.5 50.63 C133.74 60.27, 125.65 67.97, 115.62 67.5 M132.5 50.63 C130.96 63.36, 125.45 68.37, 115.62 67.5 M115.62 67.5 C78.6 66.99, 38.1 66.58, 16.88 67.5 M115.62 67.5 C92.36 67.15, 68.98 67.45, 16.88 67.5 M16.88 67.5 C4.15 65.59, 1.36 62.17, 0 50.63 M16.88 67.5 C4.47 66.87, 0.15 60.57, 0 50.63 M0 50.63 C-0.73 37.99, 0.47 28.38, 0 16.88 M0 50.63 C-0.04 41.93, -0.46 35.01, 0 16.88 M0 16.88 C-1.14 4.41, 4.49 1.04, 16.88 0 M0 16.88 C1.44 7.27, 3.73 -0.26, 16.88 0" stroke="#2f9e44" stroke-width="2" fill="none"></path></g><g transform="translate(558.8200225830078 601.4496587821357) rotate(0 58.67997741699219 20)"><text x="58.67997741699219" y="14.016" font-family="Virgil, Segoe UI Emoji" font-size="16px" fill="#2f9e44" text-anchor="middle" style="white-space: pre;" direction="ltr" dominant-baseline="alphabetic">no se ejecuta </text><text x="58.67997741699219" y="34.016" font-family="Virgil, Segoe UI Emoji" font-size="16px" fill="#2f9e44" text-anchor="middle" style="white-space: pre;" direction="ltr" dominant-baseline="alphabetic">respuesta</text></g><g stroke-linecap="round" transform="translate(543.75 710.1996587821357) rotate(0 66.24999999999989 33.75)"><path d="M4.49 3.9 C4.49 3.9, 4.49 3.9, 4.49 3.9 M4.49 3.9 C4.49 3.9, 4.49 3.9, 4.49 3.9 M0.69 20.47 C4.5 17.31, 9.42 11.81, 18.4 0.1 M0.69 20.47 C7.11 12.48, 13.03 5.03, 18.4 0.1 M0.17 33.27 C8.9 23.52, 17.03 11.13, 29.03 0.06 M0.17 33.27 C7.41 23.11, 16.1 13.98, 29.03 0.06 M0.3 45.31 C11.48 31.68, 22.59 17.81, 39.66 0.03 M0.3 45.31 C16.44 28.09, 30.14 9.37, 39.66 0.03 M1.09 56.6 C18.56 34.88, 38.35 16.16, 50.29 -0.01 M1.09 56.6 C15.75 38.66, 32.98 20.47, 50.29 -0.01 M5.16 64.11 C22.2 45, 37.26 27.18, 60.92 -0.04 M5.16 64.11 C25.85 40.57, 47.25 14.64, 60.92 -0.04 M13.16 67.09 C30.63 43.54, 49 23.02, 71.55 -0.08 M13.16 67.09 C29.49 49.62, 45.6 30.53, 71.55 -0.08 M23.14 67.81 C35.91 51.75, 46.64 37.93, 82.18 -0.11 M23.14 67.81 C40.26 47.14, 59.12 26.86, 82.18 -0.11 M33.77 67.78 C53.48 44.37, 77.27 17.56, 92.81 -0.14 M33.77 67.78 C48.86 49.96, 63.67 33.48, 92.81 -0.14 M44.4 67.74 C64.9 45.97, 80.58 24.11, 103.44 -0.18 M44.4 67.74 C66.71 41.71, 90.01 15.93, 103.44 -0.18 M54.37 68.46 C70.1 48.52, 85.13 33.73, 114.07 -0.21 M54.37 68.46 C75.31 46.11, 93.32 23.83, 114.07 -0.21 M65 68.43 C78.78 54.04, 88.91 39.99, 122.73 2.02 M65 68.43 C81.66 50.09, 96.92 31.78, 122.73 2.02 M75.63 68.4 C88.9 50.32, 104.77 32.97, 129.43 6.51 M75.63 68.4 C92.6 49.24, 108.2 30.61, 129.43 6.51 M86.26 68.36 C102.5 47.84, 119.85 30.97, 132.84 14.78 M86.26 68.36 C101.5 53.24, 114.45 36.52, 132.84 14.78 M96.89 68.33 C109.83 54.02, 124.23 36.43, 132.98 26.82 M96.89 68.33 C109.99 53.44, 120.62 39.52, 132.98 26.82 M107.52 68.29 C117.66 58.69, 123.77 47.57, 133.11 38.86 M107.52 68.29 C117.2 56.71, 127.26 44.67, 133.11 38.86 M119.46 66.75 C126.06 62.27, 130.47 54.59, 133.24 50.9 M119.46 66.75 C124.51 61.58, 128.18 57.03, 133.24 50.9" stroke="#b2f2bb" stroke-width="1" fill="none"></path><path d="M16.88 0 C45.07 2.21, 70.71 0.27, 115.62 0 M16.88 0 C54.38 1.56, 89.74 -0.02, 115.62 0 M115.62 0 C125.08 -1.35, 131.36 6.01, 132.5 16.88 M115.62 0 C126.57 -0.06, 131.94 3.87, 132.5 16.88 M132.5 16.88 C134 25.22, 133.61 31.02, 132.5 50.63 M132.5 16.88 C132.58 30.18, 132.02 42.3, 132.5 50.63 M132.5 50.63 C133.25 60.52, 127.24 66.67, 115.62 67.5 M132.5 50.63 C131.36 62.52, 126.87 67.66, 115.62 67.5 M115.62 67.5 C89.82 66.67, 60.54 66.18, 16.88 67.5 M115.62 67.5 C91.94 67.92, 70.08 68.08, 16.88 67.5 M16.88 67.5 C3.64 66.47, -0.28 60.06, 0 50.63 M16.88 67.5 C5.59 66.97, -0.18 63.48, 0 50.63 M0 50.63 C-0.96 39, -1.65 28.57, 0 16.88 M0 50.63 C-0.57 38.2, 0.77 26.86, 0 16.88 M0 16.88 C1.33 6.84, 7.62 -0.4, 16.88 0 M0 16.88 C2.07 7.07, 6.47 -1.79, 16.88 0" stroke="#2f9e44" stroke-width="2" fill="none"></path></g><g transform="translate(550.816032409668 733.9496587821357) rotate(0 59.18396759033203 10)"><text x="59.18396759033203" y="14.016" font-family="Virgil, Segoe UI Emoji" font-size="16px" fill="#2f9e44" text-anchor="middle" style="white-space: pre;" direction="ltr" dominant-baseline="alphabetic">existe alimento</text></g><g stroke-linecap="round"><g transform="translate(527.5 483.53297939981167) rotate(0 -85.52870859893505 52.163661517947844)"><path d="M0.87 -0.53 C-27.83 16.86, -142.7 87.46, -171.5 104.85 M-0.13 1.81 C-28.97 18.83, -143.22 86.08, -171.93 103.31" stroke="#1971c2" stroke-width="2" fill="none"></path></g><g transform="translate(527.5 483.53297939981167) rotate(0 -85.52870859893505 52.163661517947844)"><path d="M-156.09 83.97 C-162.58 92.71, -165.56 98.95, -171.93 103.31 M-156.09 83.97 C-160.45 89.12, -164.94 95.17, -171.93 103.31" stroke="#1971c2" stroke-width="2" fill="none"></path></g><g transform="translate(527.5 483.53297939981167) rotate(0 -85.52870859893505 52.163661517947844)"><path d="M-147.36 98.67 C-157.06 102.18, -163.19 103.13, -171.93 103.31 M-147.36 98.67 C-154.48 99.35, -161.65 100.89, -171.93 103.31" stroke="#1971c2" stroke-width="2" fill="none"></path></g></g><mask></mask><g stroke-linecap="round"><g transform="translate(683.0364220480294 489.9304422740179) rotate(0 -17.651043721551105 46.41618303271355)"><path d="M-0.09 0.55 C-5.89 16.04, -28.75 77.69, -34.31 93.05 M-1.6 -0.21 C-7.59 14.93, -29.87 75.56, -35.21 91.29" stroke="#1971c2" stroke-width="2" fill="none"></path></g><g transform="translate(683.0364220480294 489.9304422740179) rotate(0 -17.651043721551105 46.41618303271355)"><path d="M-35.39 66.29 C-34.41 74.92, -34.1 84.92, -35.21 91.29 M-35.39 66.29 C-35.01 75.11, -34.76 82.29, -35.21 91.29" stroke="#1971c2" stroke-width="2" fill="none"></path></g><g transform="translate(683.0364220480294 489.9304422740179) rotate(0 -17.651043721551105 46.41618303271355)"><path d="M-19.28 72.02 C-23.78 78.7, -28.96 86.74, -35.21 91.29 M-19.28 72.02 C-24.18 79.09, -29.2 84.4, -35.21 91.29" stroke="#1971c2" stroke-width="2" fill="none"></path></g></g><mask></mask><g stroke-linecap="round"><g transform="translate(221.25 439.78297939981167) rotate(0 25.169645029264473 -24.694335948410412)"><path d="M-0.15 1.04 C8.46 -7.23, 43.37 -40.3, 52.02 -48.46 M-1.68 0.54 C6.69 -7.61, 41.49 -42.04, 50.82 -50.43" stroke="#1971c2" stroke-width="2" fill="none"></path></g><g transform="translate(221.25 439.78297939981167) rotate(0 25.169645029264473 -24.694335948410412)"><path d="M39.67 -28.05 C44.88 -36.26, 47.33 -44.08, 50.82 -50.43 M39.67 -28.05 C44.51 -35.5, 47.77 -44.21, 50.82 -50.43" stroke="#1971c2" stroke-width="2" fill="none"></path></g><g transform="translate(221.25 439.78297939981167) rotate(0 25.169645029264473 -24.694335948410412)"><path d="M27.89 -40.45 C37.13 -44.53, 43.48 -48.25, 50.82 -50.43 M27.89 -40.45 C37.15 -43.29, 44.79 -47.4, 50.82 -50.43" stroke="#1971c2" stroke-width="2" fill="none"></path></g></g><mask></mask><g stroke-linecap="round"><g transform="translate(133.75 294.78297939981167) rotate(0 -0.019424965232587965 42.978728119330526)"><path d="M-1.12 0.93 C-0.75 14.89, 0.59 70.16, 1.08 83.94 M0.49 0.38 C0.78 14.54, -0.1 71.49, 0.05 85.58" stroke="#1971c2" stroke-width="2" fill="none"></path></g><g transform="translate(133.75 294.78297939981167) rotate(0 -0.019424965232587965 42.978728119330526)"><path d="M-8.41 62.05 C-5.07 66.71, -4.56 72.78, 0.05 85.58 M-8.41 62.05 C-5.64 69.08, -3.92 76.5, 0.05 85.58" stroke="#1971c2" stroke-width="2" fill="none"></path></g><g transform="translate(133.75 294.78297939981167) rotate(0 -0.019424965232587965 42.978728119330526)"><path d="M8.69 62.12 C8.5 66.61, 5.48 72.66, 0.05 85.58 M8.69 62.12 C6.47 68.97, 3.21 76.37, 0.05 85.58" stroke="#1971c2" stroke-width="2" fill="none"></path></g></g><mask></mask><g stroke-linecap="round"><g transform="translate(442.5 399.78297939981167) rotate(0 82.81402670068206 7.982154196747615)"><path d="M0.63 -0.71 C28.13 2, 138.9 12.65, 166.13 15.52 M-0.5 1.54 C26.84 4.45, 137.97 13.93, 165.77 16.67" stroke="#1971c2" stroke-width="2" fill="none"></path></g><g transform="translate(442.5 399.78297939981167) rotate(0 82.81402670068206 7.982154196747615)"><path d="M141.6 23.05 C149.97 22.3, 159.42 16.22, 165.77 16.67 M141.6 23.05 C148.68 20.46, 157.99 18.25, 165.77 16.67" stroke="#1971c2" stroke-width="2" fill="none"></path></g><g transform="translate(442.5 399.78297939981167) rotate(0 82.81402670068206 7.982154196747615)"><path d="M143.16 6.02 C150.81 11.97, 159.65 12.59, 165.77 16.67 M143.16 6.02 C149.8 8.92, 158.62 12.19, 165.77 16.67" stroke="#1971c2" stroke-width="2" fill="none"></path></g></g><mask></mask><g stroke-linecap="round"><g transform="translate(352.5 714.7829793998114) rotate(0 0.3461912273487542 13.169235351713041)"><path d="M0.22 0.16 C0.45 4.59, 0.91 22.31, 1.02 26.58 M-0.33 -0.24 C-0.16 4.04, 0.08 21.39, 0.48 25.78" stroke="#1971c2" stroke-width="2" fill="none"></path></g><g transform="translate(352.5 714.7829793998114) rotate(0 0.3461912273487542 13.169235351713041)"><path d="M-4.59 13.66 C-3.23 16.2, -1.85 18.9, 0.48 25.78 M-4.59 13.66 C-3.41 16.57, -2.66 18.56, 0.48 25.78" stroke="#1971c2" stroke-width="2" fill="none"></path></g><g transform="translate(352.5 714.7829793998114) rotate(0 0.3461912273487542 13.169235351713041)"><path d="M4.38 13.24 C3.66 15.89, 2.96 18.69, 0.48 25.78 M4.38 13.24 C3.65 16.24, 2.49 18.32, 0.48 25.78" stroke="#1971c2" stroke-width="2" fill="none"></path></g></g><mask></mask><g stroke-linecap="round"><g transform="translate(433.33332061767555 794.5940346388586) rotate(0 50.46041996289762 -7.589609761811289)"><path d="M0.06 1.02 C17.23 -1.76, 85.46 -13.5, 102.29 -16.2 M-1.37 0.51 C15.72 -2.19, 83.93 -12.71, 101.38 -15.08" stroke="#1971c2" stroke-width="2" fill="none"></path></g><g transform="translate(433.33332061767555 794.5940346388586) rotate(0 50.46041996289762 -7.589609761811289)"><path d="M79.38 -3.21 C86.22 -5.91, 88.39 -10.8, 101.38 -15.08 M79.38 -3.21 C87.01 -6.47, 93.97 -11.07, 101.38 -15.08" stroke="#1971c2" stroke-width="2" fill="none"></path></g><g transform="translate(433.33332061767555 794.5940346388586) rotate(0 50.46041996289762 -7.589609761811289)"><path d="M76.9 -20.14 C84.4 -18.83, 87.15 -19.73, 101.38 -15.08 M76.9 -20.14 C85.22 -17.98, 92.97 -17.18, 101.38 -15.08" stroke="#1971c2" stroke-width="2" fill="none"></path></g></g><mask></mask><g stroke-linecap="round" transform="translate(787.5 316.03297939981167) rotate(0 71.25 40.625)"><path d="M4.75 5.45 C4.75 5.45, 4.75 5.45, 4.75 5.45 M4.75 5.45 C4.75 5.45, 4.75 5.45, 4.75 5.45 M0.95 22.02 C5.47 14.8, 12.74 6.67, 19.32 0.89 M0.95 22.02 C6.01 14.96, 12.03 8.59, 19.32 0.89 M1.08 34.06 C11.21 21.3, 23.4 9.58, 29.95 0.86 M1.08 34.06 C10.6 24.06, 19.63 14.36, 29.95 0.86 M0.56 46.86 C16.41 29.16, 29.8 11.23, 40.58 0.82 M0.56 46.86 C14.05 32.46, 26.15 18.11, 40.58 0.82 M0.69 58.9 C22.29 36.21, 38.68 13.92, 51.21 0.79 M0.69 58.9 C12.02 45.64, 25.44 30.16, 51.21 0.79 M2.14 69.43 C18.18 50.36, 35.13 31.1, 61.84 0.75 M2.14 69.43 C15.99 52.93, 30.92 34.5, 61.84 0.75 M6.21 76.95 C25.53 53.56, 45.28 31.8, 72.47 0.72 M6.21 76.95 C20.5 60.47, 32.57 45.27, 72.47 0.72 M14.21 79.93 C36.18 54.89, 58.9 28.69, 83.1 0.69 M14.21 79.93 C33.2 58.71, 52.93 35.84, 83.1 0.69 M23.53 81.4 C39.86 61.18, 60 36.94, 93.73 0.65 M23.53 81.4 C42.5 59.12, 61.88 38.51, 93.73 0.65 M34.16 81.37 C55.88 53.2, 82.56 28.48, 104.36 0.62 M34.16 81.37 C60.39 52.71, 85.76 21.54, 104.36 0.62 M44.79 81.34 C71.33 53.64, 96.72 22.7, 114.99 0.58 M44.79 81.34 C63.8 59.02, 84.84 34.63, 114.99 0.58 M55.42 81.3 C80.18 49.34, 109.61 17.19, 124.96 1.3 M55.42 81.3 C83.67 51.42, 109.43 19.41, 124.96 1.3 M66.05 81.27 C88.16 52.49, 114.02 27.64, 133.62 3.53 M66.05 81.27 C83.97 60.8, 99.66 41.46, 133.62 3.53 M76.68 81.23 C93.48 60.42, 116.09 38.98, 140.32 8.03 M76.68 81.23 C90.54 65.6, 104 48.6, 140.32 8.03 M86.65 81.95 C104.67 59.95, 124.42 39.21, 142.42 17.8 M86.65 81.95 C103.32 62.36, 121.98 42.22, 142.42 17.8 M97.28 81.92 C114.78 61.43, 130.58 41.16, 142.55 29.84 M97.28 81.92 C106.89 71.98, 115.2 60.41, 142.55 29.84 M107.91 81.88 C118.99 71.76, 124.98 59.09, 142.69 41.88 M107.91 81.88 C119.3 68.34, 131.78 54.05, 142.69 41.88 M118.54 81.85 C121.97 74.9, 130.13 69.87, 142.82 53.92 M118.54 81.85 C125.56 72.61, 133.92 63.28, 142.82 53.92 M131.14 79.55 C134.73 77.58, 138.35 73.28, 141.64 67.47 M131.14 79.55 C135.04 75.71, 139.54 69.98, 141.64 67.47" stroke="#a5d8ff" stroke-width="1" fill="none"></path><path d="M20.31 0 C59.45 -0.4, 97.55 1.31, 122.19 0 M20.31 0 C56.04 1.22, 90.44 -0.31, 122.19 0 M122.19 0 C134.49 -0.96, 144.38 6.18, 142.5 20.31 M122.19 0 C137.52 -1.86, 143.51 8.4, 142.5 20.31 M142.5 20.31 C144.49 29.59, 140.87 38.84, 142.5 60.94 M142.5 20.31 C143.11 32.41, 141.87 46.77, 142.5 60.94 M142.5 60.94 C143.74 74.09, 134.39 82.04, 122.19 81.25 M142.5 60.94 C144.31 76.48, 137.15 81.9, 122.19 81.25 M122.19 81.25 C92.71 79.71, 61.24 80.68, 20.31 81.25 M122.19 81.25 C100.89 81.45, 79.96 82.81, 20.31 81.25 M20.31 81.25 C5.17 82.57, 1.3 76.41, 0 60.94 M20.31 81.25 C8.9 80.31, 0.65 75.34, 0 60.94 M0 60.94 C-1.48 47.17, -0.04 35.64, 0 20.31 M0 60.94 C0.31 47.92, 0.84 36.22, 0 20.31 M0 20.31 C-0.4 4.79, 7.15 1.74, 20.31 0 M0 20.31 C-1.65 7.15, 7.99 -0.14, 20.31 0" stroke="#1971c2" stroke-width="2" fill="none"></path></g><g transform="translate(796.5900344848633 326.65797939981167) rotate(0 62.15996551513672 30)"><text x="62.15996551513672" y="14.016" font-family="Virgil, Segoe UI Emoji" font-size="16px" fill="#1971c2" text-anchor="middle" style="white-space: pre;" direction="ltr" dominant-baseline="alphabetic">Preparación </text><text x="62.15996551513672" y="34.016" font-family="Virgil, Segoe UI Emoji" font-size="16px" fill="#1971c2" text-anchor="middle" style="white-space: pre;" direction="ltr" dominant-baseline="alphabetic">completa de la </text><text x="62.15996551513672" y="54.016" font-family="Virgil, Segoe UI Emoji" font-size="16px" fill="#1971c2" text-anchor="middle" style="white-space: pre;" direction="ltr" dominant-baseline="alphabetic">comida</text></g><g stroke-linecap="round"><g transform="translate(681.25 753.5329793998114) rotate(0 49.05000209584841 -198.5943570252275)"><path d="M-1.15 -0.58 C15.24 -67.16, 82.56 -332.44, 99.25 -398.92 M0.44 1.73 C16.64 -64.7, 82.24 -330.77, 98.57 -397.47" stroke="#1971c2" stroke-width="2" fill="none"></path></g><g transform="translate(681.25 753.5329793998114) rotate(0 49.05000209584841 -198.5943570252275)"><path d="M101.27 -372.61 C99.18 -381.11, 98.86 -390.8, 98.57 -397.47 M101.27 -372.61 C100.15 -379.51, 100 -384.69, 98.57 -397.47" stroke="#1971c2" stroke-width="2" fill="none"></path></g><g transform="translate(681.25 753.5329793998114) rotate(0 49.05000209584841 -198.5943570252275)"><path d="M84.66 -376.69 C88.81 -383.5, 94.71 -391.67, 98.57 -397.47 M84.66 -376.69 C87.61 -382.6, 91.52 -386.78, 98.57 -397.47" stroke="#1971c2" stroke-width="2" fill="none"></path></g></g><mask></mask><g stroke-linecap="round"><g transform="translate(866.25 405.1996206351632) rotate(0 -354.07244247172497 331.6519148863201)"><path d="M-0.31 -0.41 C-25.59 65.15, -32.19 282.83, -150.45 393.51 C-268.71 504.2, -616.79 618.62, -709.87 663.69 M1.72 -1.67 C-23.85 63.56, -33.42 280.82, -151.64 391.92 C-269.85 503.03, -614.71 619.44, -707.56 664.97" stroke="#1971c2" stroke-width="2" fill="none"></path></g><g transform="translate(866.25 405.1996206351632) rotate(0 -354.07244247172497 331.6519148863201)"><path d="M-689.19 648.01 C-697.2 654, -702.17 659.67, -707.56 664.97 M-689.19 648.01 C-695.52 653.59, -700.88 657.39, -707.56 664.97" stroke="#1971c2" stroke-width="2" fill="none"></path></g><g transform="translate(866.25 405.1996206351632) rotate(0 -354.07244247172497 331.6519148863201)"><path d="M-682.59 663.79 C-693.26 663.45, -700.87 662.81, -707.56 664.97 M-682.59 663.79 C-690.84 664.72, -698.15 663.87, -707.56 664.97" stroke="#1971c2" stroke-width="2" fill="none"></path></g></g><mask></mask><g stroke-linecap="round" transform="translate(10 126.86630001748745) rotate(0 493.7500000000001 513.7499999999999)"><path d="M32 0 C230.79 0.86, 428.2 0.58, 955.5 0 M32 0 C285.06 0.09, 537.98 0.18, 955.5 0 M955.5 0 C978.48 -1.17, 988.67 11.81, 987.5 32 M955.5 0 C976.23 -1.45, 987.9 9.96, 987.5 32 M987.5 32 C985.97 393.77, 986.3 754.56, 987.5 995.5 M987.5 32 C990.39 268.52, 990.93 505.82, 987.5 995.5 M987.5 995.5 C988.06 1016.45, 975.54 1026.89, 955.5 1027.5 M987.5 995.5 C985.38 1015.72, 977.76 1028.64, 955.5 1027.5 M955.5 1027.5 C591.1 1027.54, 225.52 1027.84, 32 1027.5 M955.5 1027.5 C693.64 1025.67, 431.83 1025.19, 32 1027.5 M32 1027.5 C12.36 1027.18, 0.83 1016.17, 0 995.5 M32 1027.5 C11.79 1028.85, -0.77 1015.91, 0 995.5 M0 995.5 C-2.04 621.3, -2.29 247.95, 0 32 M0 995.5 C-1.09 731.91, -1.04 468.93, 0 32 M0 32 C-0.56 11.46, 11.83 1.83, 32 0 M0 32 C1.4 9.19, 12.01 2.14, 32 0" stroke="#1e1e1e" stroke-width="2" fill="none"></path></g><g stroke-linecap="round"><g transform="translate(1007.2133586415969 478.67900505916396) rotate(0 13.715892235199249 72.50625272869195)"><path d="M0.63 0.62 C4.84 24.72, 21.47 121.03, 25.62 145.11 M-0.5 -0.09 C4.06 23.61, 23.19 119.51, 27.93 143.39" stroke="#1e1e1e" stroke-width="2" fill="none"></path></g><g transform="translate(1007.2133586415969 478.67900505916396) rotate(0 13.715892235199249 72.50625272869195)"><path d="M14.96 122.01 C20.42 127.79, 24.98 134.72, 27.93 143.39 M14.96 122.01 C20.46 130.8, 23.5 137.65, 27.93 143.39" stroke="#1e1e1e" stroke-width="2" fill="none"></path></g><g transform="translate(1007.2133586415969 478.67900505916396) rotate(0 13.715892235199249 72.50625272869195)"><path d="M31.73 118.68 C31.62 125.65, 30.59 133.69, 27.93 143.39 M31.73 118.68 C31.14 128.51, 28.08 136.57, 27.93 143.39" stroke="#1e1e1e" stroke-width="2" fill="none"></path></g></g><mask></mask><g transform="translate(820.6252747901117 634.6503601582115) rotate(89.99999999999994 301.58678913116466 69.375)"><text x="301.5867891311646" y="97.23599999999999" font-family="Virgil, Segoe UI Emoji" font-size="111px" fill="#e03131" text-anchor="middle" style="white-space: pre;" direction="ltr" dominant-baseline="alphabetic">FRONTERA</text></g><g transform="translate(74.95593160121871 10) rotate(0 431.4876188155023 48.97271183763144)"><text x="0" y="68.64015291162414" font-family="Virgil, Segoe UI Emoji" font-size="78.35633894021021px" fill="#1e1e1e" text-anchor="start" style="white-space: pre;" direction="ltr" dominant-baseline="alphabetic">Diagrama de Procesos</text></g></svg>