<svg version="1.1" xmlns="http://www.w3.org/2000/svg" viewBox="0 0 371.10124041319693 287.8450866301672" width="371.10124041319693" height="287.8450866301672">
  <!-- svg-source:excalidraw -->
  
  <defs>
    <style class="style-fonts">
      @font-face {
        font-family: "Virgil";
        src: url("https://excalidraw.com/Virgil.woff2");
      }
      @font-face {
        font-family: "Cascadia";
        src: url("https://excalidraw.com/Cascadia.woff2");
      }
      @font-face {
        font-family: "Assistant";
        src: url("https://excalidraw.com/Assistant-Regular.woff2");
      }
    </style>
    
  </defs>
  <rect x="0" y="0" width="371.10124041319693" height="287.8450866301672" fill="#ffffff"></rect><g stroke-linecap="round" transform="translate(10.161587803466205 112.53983369069314) rotate(0 43.77372603219578 82.65262646973702)"><path d="M21.89 0 C34.24 -3.71, 47.15 0.95, 65.66 0 C81.08 3.37, 88.36 9.72, 87.55 21.89 C86.67 49.23, 89 77.13, 87.55 143.42 C89.95 155.53, 77.75 164.51, 65.66 165.31 C47.82 164.27, 31.22 165.48, 21.89 165.31 C9.97 167.77, -3.36 160.39, 0 143.42 C-1.22 113.17, -1.62 85.23, 0 21.89 C2.1 10.47, 7.24 2.76, 21.89 0" stroke="none" stroke-width="0" fill="#ffc9c9"></path><path d="M21.89 0 C40.59 -1.64, 55.57 -0.29, 65.66 0 M21.89 0 C36.97 0.13, 50.8 0.7, 65.66 0 M65.66 0 C80.27 0.88, 88.48 9.12, 87.55 21.89 M65.66 0 C80.24 2.2, 88.51 5.88, 87.55 21.89 M87.55 21.89 C89.51 62.51, 89.58 103.41, 87.55 143.42 M87.55 21.89 C89.16 50.03, 88.17 78.5, 87.55 143.42 M87.55 143.42 C86.78 158.71, 80.61 164.8, 65.66 165.31 M87.55 143.42 C89.46 159.14, 78.32 166.3, 65.66 165.31 M65.66 165.31 C49.33 164.35, 33.16 165.09, 21.89 165.31 M65.66 165.31 C55.27 165.69, 44.72 165.2, 21.89 165.31 M21.89 165.31 C7.19 165.83, -0.04 159.14, 0 143.42 M21.89 165.31 C7.78 164.94, -2.04 157.67, 0 143.42 M0 143.42 C-0.31 99.65, 1.57 53.2, 0 21.89 M0 143.42 C-1.16 100.86, 0.41 55.92, 0 21.89 M0 21.89 C-0.85 7.24, 7.91 -0.77, 21.89 0 M0 21.89 C1.86 5.74, 6.3 -0.81, 21.89 0" stroke="#1e1e1e" stroke-width="2" fill="none"></path></g><g stroke-linecap="round" transform="translate(98.5481528269413 112.53983369069314) rotate(0 43.77372603219578 82.65262646973702)"><path d="M21.89 0 C32.58 -0.66, 45.54 0.99, 65.66 0 C81.35 2.1, 85.13 6.59, 87.55 21.89 C87.36 46.94, 87.03 80.09, 87.55 143.42 C89.02 156.43, 78.86 163.21, 65.66 165.31 C50.48 164.37, 41.65 167.2, 21.89 165.31 C8.35 163.82, 0.22 160.17, 0 143.42 C0.37 109.25, 1.2 68.87, 0 21.89 C1.55 6.84, 4.56 0.07, 21.89 0" stroke="none" stroke-width="0" fill="#b2f2bb"></path><path d="M21.89 0 C38.86 -1.91, 55.62 -0.82, 65.66 0 M21.89 0 C35.96 0.05, 50.04 -0.52, 65.66 0 M65.66 0 C79.32 1.3, 86.14 8.28, 87.55 21.89 M65.66 0 C79.67 1.61, 89.2 5.97, 87.55 21.89 M87.55 21.89 C88.18 61.05, 84.89 95.64, 87.55 143.42 M87.55 21.89 C87.67 47.48, 88.31 74.61, 87.55 143.42 M87.55 143.42 C88.33 156.81, 79.24 167.1, 65.66 165.31 M87.55 143.42 C85.96 159.51, 78.38 165.55, 65.66 165.31 M65.66 165.31 C54.48 167.2, 39 163.62, 21.89 165.31 M65.66 165.31 C51.02 165.81, 36.82 166.21, 21.89 165.31 M21.89 165.31 C6.75 165.07, 1.74 158.13, 0 143.42 M21.89 165.31 C5.2 167.56, 0.87 158.6, 0 143.42 M0 143.42 C1.74 111.57, 1.1 79.86, 0 21.89 M0 143.42 C-0.39 111.65, 0.01 80.72, 0 21.89 M0 21.89 C-0.89 8.45, 5.41 -1.69, 21.89 0 M0 21.89 C1.63 5.41, 7.93 -1.58, 21.89 0" stroke="#1e1e1e" stroke-width="2" fill="none"></path></g><g stroke-linecap="round" transform="translate(186.23545705118022 109.32323401420595) rotate(0 43.77372603219578 82.65262646973702)"><path d="M21.89 0 C36.71 0.95, 57.78 -0.12, 65.66 0 C77.08 -1.79, 87.17 8.3, 87.55 21.89 C84.64 60.82, 84.06 95.79, 87.55 143.42 C85.05 156.8, 76.77 167.46, 65.66 165.31 C46.93 163.17, 32.13 164.97, 21.89 165.31 C4.09 167, 3.5 161.32, 0 143.42 C0.33 108.7, 1.08 67.66, 0 21.89 C-2.38 8.49, 7.72 1.72, 21.89 0" stroke="none" stroke-width="0" fill="#a5d8ff"></path><path d="M21.89 0 C31.92 -1.64, 42.76 -1.64, 65.66 0 M21.89 0 C36.07 -1.04, 49.89 0.55, 65.66 0 M65.66 0 C81.99 -1.1, 88.22 8.92, 87.55 21.89 M65.66 0 C82.2 0.53, 87.96 9.27, 87.55 21.89 M87.55 21.89 C87.57 66.07, 85.81 113.34, 87.55 143.42 M87.55 21.89 C87.55 67.73, 87.23 113.2, 87.55 143.42 M87.55 143.42 C88.35 156.68, 78.74 167.14, 65.66 165.31 M87.55 143.42 C88.83 158.44, 80.63 166.31, 65.66 165.31 M65.66 165.31 C55.82 166.95, 47.87 167.14, 21.89 165.31 M65.66 165.31 C53.94 165.19, 42.55 166.25, 21.89 165.31 M21.89 165.31 C9.23 166.91, 0.76 156.69, 0 143.42 M21.89 165.31 C8.55 166.24, 0.46 159.32, 0 143.42 M0 143.42 C1.08 109.23, 1.68 70.64, 0 21.89 M0 143.42 C-1.81 106.87, -1.25 71.08, 0 21.89 M0 21.89 C1.51 8.04, 6.08 -0.32, 21.89 0 M0 21.89 C-1.07 7.92, 6.61 1.44, 21.89 0" stroke="#1e1e1e" stroke-width="2" fill="none"></path></g><g stroke-linecap="round" transform="translate(273.5032047958772 109.88264265359501) rotate(0 43.77372603219578 82.65262646973702)"><path d="M21.89 0 C30.05 1.61, 44.78 -1.31, 65.66 0 C82.33 0.88, 84.43 8.29, 87.55 21.89 C84.17 47.02, 87.74 70.66, 87.55 143.42 C90.66 154.88, 81.19 162.2, 65.66 165.31 C47.91 167.59, 37.32 162.71, 21.89 165.31 C8.5 168.22, 3.05 158.84, 0 143.42 C-2.66 102.61, -1.37 64.23, 0 21.89 C-2.65 8.95, 10.12 0.21, 21.89 0" stroke="none" stroke-width="0" fill="#ffec99"></path><path d="M21.89 0 C33.3 1.99, 40.06 -1.9, 65.66 0 M21.89 0 C35.7 0.8, 50.07 0.7, 65.66 0 M65.66 0 C80.7 0.79, 85.87 6.2, 87.55 21.89 M65.66 0 C78.36 -1.27, 88.83 5.74, 87.55 21.89 M87.55 21.89 C90.23 47.86, 89 75.55, 87.55 143.42 M87.55 21.89 C87.42 68.06, 87.08 113.67, 87.55 143.42 M87.55 143.42 C86.2 158.62, 80.93 164.52, 65.66 165.31 M87.55 143.42 C87.41 158.01, 81.25 163.51, 65.66 165.31 M65.66 165.31 C57.7 163.52, 45.86 166.87, 21.89 165.31 M65.66 165.31 C56.39 164.19, 45.93 164.59, 21.89 165.31 M21.89 165.31 C5.56 166.31, 1.5 158.99, 0 143.42 M21.89 165.31 C7.99 167.19, -1.76 160.09, 0 143.42 M0 143.42 C0.63 115.75, 1.55 85.68, 0 21.89 M0 143.42 C-0.27 96.49, 0.66 50.84, 0 21.89 M0 21.89 C0.54 8.5, 5.56 -0.17, 21.89 0 M0 21.89 C-1.17 6.26, 5.15 -1.26, 21.89 0" stroke="#1e1e1e" stroke-width="2" fill="none"></path></g><g stroke-linecap="round"><g transform="translate(10.161587803466205 132.11913606931105) rotate(0 175.23475628863025 0)"><path d="M0.85 0.33 C59.29 0.38, 292.83 -0.29, 350.94 -0.27 M-0.16 -0.54 C58.14 -0.26, 291.56 1.31, 350.24 1.12" stroke="#1e1e1e" stroke-width="2" fill="none"></path></g></g><mask></mask><g stroke-linecap="round" transform="translate(124.7329973653226 137.4071376563302) rotate(0 15.65633250406239 16.699590688193666)"><path d="M14.16 -0.1 C17.33 -0.74, 21.52 0.75, 24.31 2.81 C27.11 4.87, 29.95 8.79, 30.92 12.24 C31.9 15.7, 31.57 20.36, 30.15 23.54 C28.74 26.72, 25.58 29.76, 22.45 31.32 C19.32 32.89, 14.61 33.8, 11.39 32.93 C8.16 32.06, 5 29.06, 3.12 26.1 C1.24 23.15, -0.08 18.78, 0.1 15.22 C0.28 11.66, 1.67 7.33, 4.19 4.75 C6.71 2.18, 13.19 0.51, 15.21 -0.22 C17.24 -0.96, 16.26 -0.03, 16.34 0.36 M17.62 -0.55 C20.97 -0.39, 24.98 2.49, 27.35 5.17 C29.72 7.85, 31.55 12.03, 31.84 15.52 C32.13 19.01, 31.12 23.11, 29.11 26.11 C27.09 29.1, 23.06 32.56, 19.74 33.48 C16.42 34.4, 12.27 33.2, 9.2 31.62 C6.13 30.03, 2.8 27.1, 1.33 23.98 C-0.13 20.87, -0.43 16.5, 0.42 12.91 C1.26 9.31, 3.54 4.51, 6.41 2.41 C9.28 0.31, 16 0.74, 17.66 0.3 C19.32 -0.13, 16.46 -0.36, 16.37 -0.21" stroke="none" stroke-width="0" fill="#b2f2bb"></path><path d="M17.45 -0.41 C20.7 -0.32, 24.53 1.92, 26.83 4.6 C29.14 7.28, 31.08 12.07, 31.29 15.67 C31.5 19.27, 30.11 23.26, 28.09 26.2 C26.07 29.14, 22.26 32.31, 19.15 33.31 C16.05 34.3, 12.46 33.83, 9.47 32.17 C6.49 30.5, 2.73 26.61, 1.26 23.34 C-0.22 20.07, -0.33 15.97, 0.65 12.53 C1.64 9.09, 4.25 4.86, 7.17 2.71 C10.08 0.57, 16.24 0.1, 18.14 -0.32 C20.04 -0.75, 18.69 -0.26, 18.58 0.17 M15.3 0.17 C18.52 -0.15, 23.17 0.75, 25.72 2.98 C28.27 5.22, 29.99 9.97, 30.62 13.56 C31.25 17.15, 31.1 21.39, 29.48 24.52 C27.86 27.65, 23.94 31.02, 20.9 32.36 C17.85 33.69, 14.34 33.64, 11.21 32.52 C8.09 31.41, 3.95 28.62, 2.13 25.68 C0.32 22.73, -0.15 18.46, 0.31 14.87 C0.77 11.28, 2.54 6.51, 4.9 4.12 C7.26 1.72, 12.81 1.21, 14.48 0.52 C16.14 -0.17, 14.82 -0.15, 14.88 -0.03" stroke="#1e1e1e" stroke-width="2" fill="none"></path></g><g transform="translate(134.68529778107438 148.9411916687196) rotate(0 5.633333206176758 5.357142857142861)"><text x="5.633333206176758" y="7.508571428571427" font-family="Virgil, Segoe UI Emoji" font-size="8.571428571428571px" fill="#1e1e1e" text-anchor="middle" style="white-space: pre;" direction="ltr" dominant-baseline="alphabetic">50</text></g><g stroke-linecap="round" transform="translate(123.21684804532345 178.6467511155955) rotate(0 15.65633250406239 16.699590688193638)"><path d="M18.22 0.53 C21.34 0.68, 25.15 2.73, 27.38 5.27 C29.61 7.8, 31.43 12.17, 31.58 15.74 C31.73 19.3, 30.39 23.74, 28.31 26.67 C26.23 29.6, 22.36 32.44, 19.11 33.3 C15.86 34.17, 11.75 33.59, 8.8 31.86 C5.84 30.13, 2.74 26.37, 1.4 22.9 C0.07 19.44, -0.15 14.51, 0.79 11.07 C1.73 7.63, 3.98 4.05, 7.02 2.28 C10.07 0.51, 17.05 0.64, 19.06 0.44 C21.06 0.25, 19.16 0.88, 19.06 1.11 M18.66 0.88 C21.98 1.64, 26.46 4.57, 28.61 7.23 C30.76 9.89, 31.73 13.33, 31.57 16.85 C31.41 20.36, 29.9 25.7, 27.65 28.31 C25.4 30.92, 21.46 32.01, 18.09 32.52 C14.72 33.04, 10.43 33.33, 7.42 31.4 C4.41 29.47, 1.11 24.5, 0.01 20.94 C-1.08 17.38, -0.52 13.2, 0.84 10.03 C2.2 6.86, 5.02 3.5, 8.18 1.92 C11.35 0.35, 17.91 0.67, 19.83 0.59 C21.75 0.51, 19.83 1.25, 19.71 1.46" stroke="none" stroke-width="0" fill="#b2f2bb"></path><path d="M15.09 -0.21 C18.27 -0.59, 22.36 1.13, 24.94 3.43 C27.51 5.74, 29.75 10.1, 30.55 13.62 C31.34 17.14, 31.14 21.39, 29.71 24.55 C28.27 27.72, 25.04 31.22, 21.93 32.58 C18.83 33.95, 14.32 33.92, 11.09 32.73 C7.86 31.54, 4.43 28.44, 2.56 25.45 C0.7 22.45, -0.49 18.19, -0.11 14.74 C0.26 11.28, 2.26 7.14, 4.81 4.72 C7.37 2.3, 13.42 0.92, 15.22 0.2 C17.01 -0.53, 15.5 0.19, 15.57 0.38 M14 0.16 C17.06 -0.61, 21.23 0.01, 23.99 1.98 C26.75 3.95, 29.61 8.48, 30.56 11.99 C31.51 15.49, 30.92 19.67, 29.7 23.01 C28.48 26.34, 26.04 30.26, 23.23 32 C20.41 33.75, 16.19 34.28, 12.81 33.49 C9.43 32.7, 5.04 30.23, 2.96 27.27 C0.88 24.31, 0.11 19.38, 0.33 15.71 C0.56 12.05, 2.05 7.97, 4.3 5.28 C6.56 2.6, 12.31 0.33, 13.88 -0.4 C15.45 -1.14, 13.85 0.49, 13.74 0.89" stroke="#1e1e1e" stroke-width="2" fill="none"></path></g><g transform="translate(133.16914846107522 190.18080512798488) rotate(0 5.633333206176758 5.357142857142861)"><text x="5.633333206176758" y="7.508571428571427" font-family="Virgil, Segoe UI Emoji" font-size="8.571428571428571px" fill="#1e1e1e" text-anchor="middle" style="white-space: pre;" direction="ltr" dominant-baseline="alphabetic">50</text></g><g transform="translate(19.472071282606976 140.1429410432671) rotate(0 19.129366213740127 5.789759856876202)"><text x="0" y="8.114927415397702" font-family="Virgil, Segoe UI Emoji" font-size="9.263615771001943px" fill="#1e1e1e" text-anchor="start" style="white-space: pre;" direction="ltr" dominant-baseline="alphabetic">Taller A</text></g><g transform="translate(19.472071282606976 157.95862829414958) rotate(0 35.84166717529297 5.789759856876202)"><text x="0" y="8.114927415397702" font-family="Virgil, Segoe UI Emoji" font-size="9.263615771001943px" fill="#1e1e1e" text-anchor="start" style="white-space: pre;" direction="ltr" dominant-baseline="alphabetic">Requerimiento B</text></g><g transform="translate(19.472071282606976 176.56612386729344) rotate(0 19.129366213740127 5.7897598568762305)"><text x="0" y="8.114927415397702" font-family="Virgil, Segoe UI Emoji" font-size="9.263615771001943px" fill="#1e1e1e" text-anchor="start" style="white-space: pre;" direction="ltr" dominant-baseline="alphabetic">Taller A</text></g><g transform="translate(19.472071282606976 194.38181111817593) rotate(0 35.84166717529297 5.789759856876202)"><text x="0" y="8.114927415397702" font-family="Virgil, Segoe UI Emoji" font-size="9.263615771001943px" fill="#1e1e1e" text-anchor="start" style="white-space: pre;" direction="ltr" dominant-baseline="alphabetic">Requerimiento B</text></g><g transform="translate(19.472071282606976 208.23845675775115) rotate(0 19.129366213740127 5.7897598568762305)"><text x="0" y="8.114927415397702" font-family="Virgil, Segoe UI Emoji" font-size="9.263615771001943px" fill="#1e1e1e" text-anchor="start" style="white-space: pre;" direction="ltr" dominant-baseline="alphabetic">Taller A</text></g><g transform="translate(19.472071282606976 226.05414400863364) rotate(0 35.84166717529297 5.789759856876202)"><text x="0" y="8.114927415397702" font-family="Virgil, Segoe UI Emoji" font-size="9.263615771001943px" fill="#1e1e1e" text-anchor="start" style="white-space: pre;" direction="ltr" dominant-baseline="alphabetic">Requerimiento B</text></g><g transform="translate(46.27903683693148 113.56539937753169) rotate(0 5.765586951183764 9.425326060866468)"><text x="0" y="13.21053700691047" font-family="Virgil, Segoe UI Emoji" font-size="15.08052169738638px" fill="#1e1e1e" text-anchor="start" style="white-space: pre;" direction="ltr" dominant-baseline="alphabetic">M</text></g><g stroke-linecap="round"><g transform="translate(53.814730126486324 103.0377686804) rotate(0 60.04584553619446 -14.346442325121387)"><path d="M-1.09 1.01 C18.85 -3.83, 99.87 -23.73, 120 -28.58 M0.54 0.5 C20.28 -4.18, 99.31 -21.88, 119 -26.98" stroke="#1e1e1e" stroke-width="2" fill="none"></path></g><g transform="translate(53.814730126486324 103.0377686804) rotate(0 60.04584553619446 -14.346442325121387)"><path d="M98.14 -13.2 C106.62 -17.69, 111.97 -22.75, 119 -26.98 M98.14 -13.2 C105.73 -17.84, 112.25 -22.43, 119 -26.98" stroke="#1e1e1e" stroke-width="2" fill="none"></path></g><g transform="translate(53.814730126486324 103.0377686804) rotate(0 60.04584553619446 -14.346442325121387)"><path d="M94.16 -29.83 C104.02 -28.83, 110.68 -28.42, 119 -26.98 M94.16 -29.83 C103.19 -28.61, 111.1 -27.34, 119 -26.98" stroke="#1e1e1e" stroke-width="2" fill="none"></path></g></g><mask></mask><g transform="translate(117.0847141169669 10) rotate(0 58.82526679927855 37.83786631236622)"><text x="0" y="53.03355342341246" font-family="Virgil, Segoe UI Emoji" font-size="60.54058609978591px" fill="#1e1e1e" text-anchor="start" style="white-space: pre;" direction="ltr" dominant-baseline="alphabetic">MPV</text></g><g transform="translate(137.70686748875028 114.05960386754148) rotate(0 4.108333110809326 9.425326060866496)"><text x="0" y="13.21053700691047" font-family="Virgil, Segoe UI Emoji" font-size="15.08052169738638px" fill="#1e1e1e" text-anchor="start" style="white-space: pre;" direction="ltr" dominant-baseline="alphabetic">s</text></g><g transform="translate(226.1694712005101 112.08278590750214) rotate(0 4.875 9.425326060866496)"><text x="0" y="13.21053700691047" font-family="Virgil, Segoe UI Emoji" font-size="15.08052169738638px" fill="#1e1e1e" text-anchor="start" style="white-space: pre;" direction="ltr" dominant-baseline="alphabetic">C</text></g><g transform="translate(315.1262794022796 113.56539937753163) rotate(0 5.641666889190674 9.425326060866496)"><text x="0" y="13.21053700691047" font-family="Virgil, Segoe UI Emoji" font-size="15.08052169738638px" fill="#1e1e1e" text-anchor="start" style="white-space: pre;" direction="ltr" dominant-baseline="alphabetic">W</text></g></svg>