<svg version="1.1" xmlns="http://www.w3.org/2000/svg" viewBox="0 0 227.20510985249462 192.24718479694184" width="227.20510985249462" height="192.24718479694184">
  <!-- svg-source:excalidraw -->
  
  <defs>
    <style class="style-fonts">
      @font-face {
        font-family: "Virgil";
        src: url("https://excalidraw.com/Virgil.woff2");
      }
      @font-face {
        font-family: "Cascadia";
        src: url("https://excalidraw.com/Cascadia.woff2");
      }
      @font-face {
        font-family: "Assistant";
        src: url("https://excalidraw.com/Assistant-Regular.woff2");
      }
    </style>
    
  </defs>
  <rect x="0" y="0" width="227.20510985249462" height="192.24718479694184" fill="#ffffff"></rect><g stroke-linecap="round" transform="translate(10.000000000000114 25.01888497801656) rotate(0 30.074865780477637 27.229946044486496)"><path d="M17.96 1.6 C23.31 -1.05, 31.58 -1.08, 37.84 0.7 C44.11 2.49, 51.76 7.44, 55.57 12.32 C59.39 17.2, 61.44 24.14, 60.73 30 C60.02 35.87, 56.28 43.4, 51.31 47.51 C46.35 51.62, 37.34 54.44, 30.95 54.68 C24.55 54.92, 18.05 52.58, 12.95 48.93 C7.84 45.28, 1.88 38.5, 0.32 32.76 C-1.24 27.01, 0.17 19.63, 3.6 14.46 C7.02 9.29, 17.66 3.83, 20.87 1.73 C24.08 -0.36, 22.63 1.59, 22.87 1.88 M28.45 -1.38 C34.19 -1.88, 41.49 1.81, 46.55 5.5 C51.62 9.18, 56.99 15.01, 58.83 20.73 C60.67 26.44, 60.5 34.63, 57.58 39.79 C54.66 44.94, 47.05 49.61, 41.3 51.66 C35.55 53.7, 28.92 53.41, 23.07 52.05 C17.21 50.68, 9.94 48.18, 6.18 43.47 C2.41 38.77, -0.07 29.7, 0.47 23.81 C1.02 17.91, 4.71 11.93, 9.46 8.1 C14.21 4.27, 26.2 2.16, 28.97 0.83 C31.73 -0.5, 26.12 -0.29, 26.06 0.12" stroke="none" stroke-width="0" fill="#ffec99"></path><path d="M23.19 0.94 C29.15 -0.51, 38.3 0.5, 43.98 3.04 C49.65 5.57, 54.85 10.67, 57.23 16.12 C59.62 21.57, 60.16 30.07, 58.28 35.71 C56.4 41.36, 51.17 46.99, 45.94 50.01 C40.71 53.02, 33.04 54.52, 26.9 53.78 C20.76 53.04, 13.66 49.79, 9.11 45.58 C4.55 41.36, 0.02 34.38, -0.44 28.47 C-0.89 22.57, 1.86 14.82, 6.39 10.14 C10.92 5.45, 22.6 2.15, 26.73 0.39 C30.86 -1.38, 31.14 -0.86, 31.17 -0.45 M35.98 0.65 C42.06 1.1, 48.87 4.43, 52.82 8.92 C56.78 13.42, 59.79 21.68, 59.69 27.61 C59.59 33.54, 56.39 39.89, 52.23 44.5 C48.08 49.12, 40.89 54.45, 34.75 55.29 C28.61 56.13, 20.84 52.61, 15.39 49.53 C9.93 46.45, 4.48 42.38, 2.01 36.82 C-0.45 31.27, -1.6 21.82, 0.6 16.22 C2.8 10.62, 9.33 5.61, 15.21 3.22 C21.1 0.84, 32.49 2.12, 35.91 1.91 C39.33 1.71, 35.75 1.95, 35.75 1.99" stroke="#1e1e1e" stroke-width="2" fill="none"></path></g><g transform="translate(23.833723862357147 39.994351523102836) rotate(0 16.475000381469727 12.500000000000014)"><text x="16.475000381469727" y="17.52" font-family="Virgil, Segoe UI Emoji" font-size="20px" fill="#1e1e1e" text-anchor="middle" style="white-space: pre;" direction="ltr" dominant-baseline="alphabetic">100</text></g><g stroke-linecap="round" transform="translate(44.27718590836753 84.60961306134857) rotate(0 15.656332504062334 16.699590688193666)"><path d="M18.22 0.26 C21.41 0.6, 25.18 3.09, 27.29 5.77 C29.4 8.46, 30.85 12.84, 30.86 16.38 C30.88 19.92, 29.49 24.18, 27.39 27.01 C25.28 29.85, 21.49 32.65, 18.23 33.39 C14.98 34.12, 10.78 33.23, 7.85 31.41 C4.92 29.6, 1.85 25.87, 0.64 22.5 C-0.56 19.13, -0.57 14.55, 0.63 11.19 C1.84 7.82, 4.83 4.07, 7.86 2.31 C10.89 0.55, 16.93 0.78, 18.79 0.61 C20.66 0.44, 19.08 1.1, 19.05 1.28 M17.18 0.02 C20.4 -0.04, 24.45 2.18, 26.88 4.78 C29.3 7.37, 31.56 12.16, 31.75 15.6 C31.95 19.05, 29.87 22.67, 28.04 25.46 C26.21 28.25, 23.81 31.15, 20.76 32.34 C17.71 33.53, 12.98 34.02, 9.76 32.62 C6.54 31.22, 2.98 27.3, 1.43 23.94 C-0.12 20.58, -0.43 15.86, 0.45 12.44 C1.32 9.03, 4 5.46, 6.68 3.45 C9.36 1.45, 14.97 1, 16.52 0.4 C18.06 -0.19, 16.05 -0.38, 15.95 -0.11" stroke="none" stroke-width="0" fill="#b2f2bb"></path><path d="M17.41 -0.44 C20.52 -0.45, 23.98 2.14, 26.27 4.8 C28.56 7.46, 30.75 11.93, 31.14 15.53 C31.54 19.14, 30.49 23.55, 28.63 26.45 C26.77 29.35, 23.18 32.08, 19.98 32.92 C16.79 33.76, 12.56 33.07, 9.46 31.48 C6.36 29.89, 2.84 26.56, 1.36 23.36 C-0.12 20.17, -0.34 15.73, 0.6 12.33 C1.54 8.94, 4.14 4.97, 7.02 2.99 C9.89 1, 15.87 0.83, 17.84 0.44 C19.82 0.05, 18.87 0.47, 18.85 0.63 M18.71 0.37 C21.79 0.8, 25.29 3.79, 27.44 6.56 C29.58 9.33, 31.54 13.51, 31.58 17.01 C31.62 20.5, 29.86 24.84, 27.67 27.51 C25.48 30.18, 21.8 32.37, 18.44 33.01 C15.09 33.64, 10.52 33.03, 7.55 31.32 C4.58 29.61, 1.62 26.13, 0.63 22.75 C-0.37 19.37, 0.32 14.36, 1.58 11.03 C2.84 7.69, 5.41 4.53, 8.21 2.73 C11 0.93, 16.49 0.67, 18.33 0.23 C20.17 -0.21, 19.17 -0.28, 19.24 0.1" stroke="#1e1e1e" stroke-width="2" fill="none"></path></g><g transform="translate(54.22948632411931 96.14366707373796) rotate(0 5.633333206176758 5.357142857142861)"><text x="5.633333206176758" y="7.508571428571427" font-family="Virgil, Segoe UI Emoji" font-size="8.571428571428571px" fill="#1e1e1e" text-anchor="middle" style="white-space: pre;" direction="ltr" dominant-baseline="alphabetic">50</text></g><g stroke-linecap="round" transform="translate(81.52941050491972 57.53225338934379) rotate(0 30.07486578047758 27.229946044486496)"><path d="M19.56 1.81 C25.42 -0.6, 35.08 -0.91, 41.11 0.95 C47.15 2.82, 52.68 7.78, 55.78 13.01 C58.87 18.23, 60.84 26.38, 59.69 32.28 C58.54 38.18, 53.8 44.75, 48.89 48.41 C43.97 52.06, 36.5 54.43, 30.2 54.22 C23.9 54.02, 16.21 50.79, 11.09 47.17 C5.97 43.55, 0.71 38.08, -0.5 32.52 C-1.71 26.97, -0.38 19.22, 3.81 13.86 C8 8.5, 20.67 2.58, 24.62 0.37 C28.58 -1.84, 27.45 0.2, 27.54 0.6 M24.22 0.78 C29.84 -0.67, 36.67 0.01, 42.3 2.7 C47.92 5.39, 55.37 11.34, 57.97 16.93 C60.58 22.51, 59.62 30.55, 57.93 36.21 C56.24 41.86, 53.26 48.05, 47.84 50.84 C42.43 53.63, 32.14 53.77, 25.44 52.94 C18.74 52.11, 12.05 50.12, 7.64 45.86 C3.23 41.59, -0.65 33.01, -1.03 27.34 C-1.41 21.68, 1.33 16.42, 5.36 11.88 C9.39 7.35, 20.22 2.02, 23.15 0.14 C26.08 -1.75, 22.84 -0.16, 22.96 0.58" stroke="none" stroke-width="0" fill="#ffec99"></path><path d="M31.6 -0.23 C37.62 -0.43, 44.56 3.75, 49.28 7.72 C54 11.69, 58.79 17.92, 59.91 23.61 C61.04 29.3, 59.45 36.84, 56.01 41.87 C52.58 46.91, 45.32 52.22, 39.29 53.84 C33.26 55.46, 25.93 53.84, 19.86 51.6 C13.78 49.37, 6.15 45.28, 2.83 40.43 C-0.49 35.58, -1.64 28.23, -0.06 22.5 C1.51 16.78, 6.27 9.88, 12.29 6.08 C18.3 2.27, 31.59 0.44, 36.03 -0.31 C40.47 -1.05, 39.18 0.98, 38.94 1.6 M39.87 2.27 C45.51 3.98, 51.72 9.35, 54.96 14.11 C58.19 18.87, 60.14 25.36, 59.28 30.81 C58.43 36.27, 54.67 42.76, 49.84 46.83 C45.01 50.9, 36.67 54.95, 30.31 55.23 C23.94 55.5, 16.42 52.35, 11.65 48.48 C6.88 44.61, 3.02 37.76, 1.69 32.03 C0.37 26.31, 0.66 19.05, 3.7 14.13 C6.73 9.21, 13.84 4.78, 19.9 2.52 C25.97 0.26, 36.61 0.58, 40.07 0.58 C43.53 0.58, 40.7 1.84, 40.67 2.53" stroke="#1e1e1e" stroke-width="2" fill="none"></path></g><g transform="translate(95.36313436727664 72.5077199344301) rotate(0 16.475000381469727 12.5)"><text x="16.475000381469727" y="17.52" font-family="Virgil, Segoe UI Emoji" font-size="20px" fill="#1e1e1e" text-anchor="middle" style="white-space: pre;" direction="ltr" dominant-baseline="alphabetic">100</text></g><g stroke-linecap="round" transform="translate(76.08929114938405 10) rotate(0 17.967345629702663 20.598239648700172)"><path d="M15.81 0.03 C19.47 -0.63, 25.05 1.41, 28.24 3.86 C31.44 6.31, 33.89 10.5, 34.97 14.72 C36.04 18.94, 36.24 25.12, 34.68 29.19 C33.12 33.25, 29.17 37.18, 25.61 39.11 C22.04 41.04, 16.95 41.76, 13.28 40.76 C9.6 39.76, 5.78 36.7, 3.56 33.12 C1.34 29.54, -0.33 23.66, -0.04 19.26 C0.25 14.85, 2.41 9.84, 5.29 6.68 C8.17 3.52, 15.07 1.39, 17.26 0.32 C19.45 -0.75, 18.39 0, 18.43 0.26 M14.59 0.06 C18.13 -0.9, 23.61 1.08, 27.03 3.26 C30.45 5.45, 33.84 9.11, 35.1 13.16 C36.37 17.21, 35.96 23.42, 34.62 27.59 C33.29 31.76, 30.31 35.97, 27.1 38.17 C23.89 40.37, 19.06 41.59, 15.35 40.79 C11.64 39.99, 7.45 36.7, 4.84 33.38 C2.22 30.06, -0.34 25.17, -0.36 20.85 C-0.39 16.52, 2.22 10.96, 4.69 7.43 C7.17 3.91, 12.68 0.94, 14.49 -0.3 C16.29 -1.54, 15.31 -0.46, 15.54 -0.01" stroke="none" stroke-width="0" fill="#a5d8ff"></path><path d="M16.12 -0.26 C19.71 -0.95, 25.05 0.76, 28.22 3.25 C31.4 5.74, 34.17 10.37, 35.17 14.71 C36.17 19.05, 35.76 25.29, 34.21 29.27 C32.66 33.25, 29.29 36.64, 25.88 38.59 C22.47 40.53, 17.48 41.95, 13.75 40.97 C10.02 39.98, 5.77 36.28, 3.52 32.67 C1.27 29.06, -0.01 23.71, 0.26 19.3 C0.52 14.88, 2.52 9.32, 5.13 6.15 C7.73 2.99, 13.91 1.33, 15.89 0.31 C17.87 -0.71, 16.84 -0.31, 17 0.04 M13.86 0.36 C17.46 -0.69, 23.22 0.63, 26.77 2.79 C30.31 4.95, 33.63 9.26, 35.12 13.3 C36.61 17.34, 36.84 22.87, 35.7 27.05 C34.57 31.23, 31.6 36.09, 28.32 38.4 C25.04 40.71, 19.89 41.61, 16 40.89 C12.12 40.17, 7.55 37.36, 5 34.09 C2.46 30.81, 0.91 25.63, 0.74 21.22 C0.58 16.8, 1.71 11.01, 4.01 7.62 C6.31 4.22, 12.92 1.81, 14.54 0.82 C16.16 -0.17, 13.66 1.42, 13.75 1.65" stroke="#1e1e1e" stroke-width="2" fill="none"></path></g><g transform="translate(89.11847173359206 26.068798998312957) rotate(0 4.733333110809326 4.464285714285708)"><text x="4.733333110809326" y="6.257142857142856" font-family="Virgil, Segoe UI Emoji" font-size="7.1428571428571415px" fill="#1e1e1e" text-anchor="middle" style="white-space: pre;" direction="ltr" dominant-baseline="alphabetic">60</text></g><g stroke-linecap="round" transform="translate(17.20070723382264 127.78574730270236) rotate(181.30195267257852 30.074865780477694 27.229946044486496)"><path d="M30.92 0.8 C37.2 0.55, 45.44 2.64, 50.22 6.2 C54.99 9.76, 58.75 16.16, 59.58 22.19 C60.41 28.21, 58.68 37.24, 55.21 42.36 C51.74 47.47, 44.88 51.21, 38.77 52.91 C32.66 54.6, 24.33 54.54, 18.58 52.53 C12.82 50.52, 7.3 45.91, 4.24 40.83 C1.19 35.76, -0.82 27.82, 0.27 22.08 C1.37 16.35, 4.63 10.03, 10.82 6.42 C17.01 2.81, 32.07 0.8, 37.42 0.41 C42.77 0.01, 42.98 3.57, 42.92 4.07 M24.33 0.87 C30.27 -0.52, 38.57 1.49, 44.16 4.2 C49.75 6.92, 55.57 11.55, 57.88 17.17 C60.18 22.78, 59.95 32.15, 57.97 37.87 C55.98 43.59, 51.77 49.05, 45.98 51.5 C40.19 53.96, 29.94 53.63, 23.23 52.6 C16.51 51.56, 9.33 49.7, 5.68 45.3 C2.02 40.89, 1.24 32.17, 1.3 26.19 C1.36 20.2, 1.89 13.94, 6.02 9.39 C10.15 4.84, 22.69 0.46, 26.06 -1.12 C29.43 -2.7, 26.33 -0.59, 26.26 -0.1" stroke="none" stroke-width="0" fill="#ffec99"></path><path d="M43.19 2.13 C49 4.42, 56.4 10.86, 58.84 16.54 C61.28 22.22, 59.78 30.49, 57.83 36.2 C55.88 41.91, 52.53 47.69, 47.14 50.79 C41.74 53.88, 31.88 55.48, 25.46 54.76 C19.04 54.04, 12.98 50.78, 8.6 46.48 C4.23 42.18, -0.51 35.07, -0.8 28.98 C-1.09 22.89, 2.96 14.81, 6.85 9.95 C10.74 5.1, 15.8 0.58, 22.52 -0.13 C29.24 -0.84, 42.66 4.6, 47.17 5.68 C51.68 6.77, 49.7 6.03, 49.56 6.38 M30.46 0.53 C36.59 0.3, 46.18 3.55, 50.93 7.5 C55.69 11.45, 58.23 18.59, 58.99 24.26 C59.75 29.92, 58.51 36.57, 55.49 41.46 C52.48 46.36, 46.78 51.99, 40.88 53.64 C34.98 55.28, 26.08 53.29, 20.09 51.32 C14.1 49.36, 8.23 46.67, 4.94 41.86 C1.65 37.06, -0.46 28.66, 0.35 22.49 C1.16 16.32, 4.63 8.74, 9.82 4.86 C15.01 0.97, 28.28 -0.31, 31.51 -0.81 C34.74 -1.31, 29.41 1.45, 29.17 1.85" stroke="#1e1e1e" stroke-width="2" fill="none"></path></g><g transform="translate(31.03443109617956 142.76121384778867) rotate(181.30195267257852 16.475000381469727 12.5)"><text x="16.475000381469727" y="17.52" font-family="Virgil, Segoe UI Emoji" font-size="20px" fill="#1e1e1e" text-anchor="middle" style="white-space: pre;" direction="ltr" dominant-baseline="alphabetic">100</text></g><g stroke-linecap="round" transform="translate(78.78831525126384 116.34752665347645) rotate(0 15.656332504062334 16.699590688193638)"><path d="M14.07 -0.27 C17.16 -0.85, 21.62 0.37, 24.41 2.52 C27.21 4.68, 29.89 9.07, 30.86 12.66 C31.83 16.25, 31.64 20.81, 30.22 24.07 C28.81 27.33, 25.41 30.77, 22.38 32.21 C19.34 33.65, 15.26 33.72, 12.01 32.7 C8.76 31.68, 4.81 29.01, 2.89 26.09 C0.97 23.17, 0.14 18.75, 0.49 15.18 C0.84 11.62, 2.51 7.26, 4.97 4.69 C7.44 2.13, 13.53 0.49, 15.27 -0.19 C17.01 -0.86, 15.52 0.4, 15.42 0.64 M19.33 0.13 C22.54 0.48, 25.77 3.23, 27.81 5.98 C29.85 8.74, 31.61 12.99, 31.58 16.64 C31.54 20.29, 29.81 25.01, 27.59 27.88 C25.37 30.74, 21.57 33.35, 18.23 33.85 C14.9 34.36, 10.46 32.94, 7.57 30.88 C4.68 28.83, 1.99 24.84, 0.89 21.52 C-0.21 18.2, -0.25 14.21, 0.98 10.96 C2.2 7.71, 5.18 3.84, 8.26 2.02 C11.34 0.2, 17.74 0.25, 19.45 0.04 C21.16 -0.17, 18.73 0.55, 18.51 0.77" stroke="none" stroke-width="0" fill="#b2f2bb"></path><path d="M15.97 0.48 C19.29 0.37, 23.69 1.99, 26.19 4.32 C28.68 6.64, 30.46 10.98, 30.94 14.42 C31.42 17.86, 30.67 21.98, 29.05 24.96 C27.43 27.95, 24.3 31.05, 21.22 32.31 C18.13 33.56, 13.81 33.73, 10.55 32.5 C7.29 31.28, 3.37 28.13, 1.65 24.96 C-0.07 21.8, -0.37 17.03, 0.25 13.49 C0.86 9.95, 2.6 6, 5.34 3.7 C8.07 1.41, 14.55 0.28, 16.65 -0.3 C18.76 -0.89, 17.89 -0.14, 17.96 0.18 M14.31 0.12 C17.34 -0.32, 21.24 1.47, 23.99 3.47 C26.73 5.48, 29.79 8.94, 30.79 12.16 C31.8 15.39, 31.38 19.51, 30.02 22.82 C28.66 26.12, 25.6 30.37, 22.63 31.98 C19.66 33.6, 15.4 33.29, 12.2 32.51 C8.99 31.73, 5.47 30.06, 3.4 27.29 C1.33 24.52, -0.46 19.59, -0.22 15.91 C0.03 12.23, 2.49 7.73, 4.9 5.2 C7.3 2.67, 12.81 1.5, 14.22 0.73 C15.62 -0.04, 13.38 0.42, 13.32 0.58" stroke="#1e1e1e" stroke-width="2" fill="none"></path></g><g transform="translate(88.74061566701562 127.88158066586584) rotate(0 5.633333206176758 5.357142857142861)"><text x="5.633333206176758" y="7.508571428571427" font-family="Virgil, Segoe UI Emoji" font-size="8.571428571428571px" fill="#1e1e1e" text-anchor="middle" style="white-space: pre;" direction="ltr" dominant-baseline="alphabetic">50</text></g><g stroke-linecap="round" transform="translate(158.96757908635755 122.49353059786176) rotate(0 29.118765383068535 9)"><path d="M4.5 0 C15.77 1.45, 25.8 4.13, 53.74 0 C56.09 -0.5, 60.66 1.99, 58.24 4.5 C59.33 8.02, 56.87 10.45, 58.24 13.5 C56.8 18.53, 55.73 18.37, 53.74 18 C36.01 21.39, 20.58 17.73, 4.5 18 C2.18 16.17, -2.82 15.2, 0 13.5 C-0.82 12.26, 1.63 9.15, 0 4.5 C2.72 4.42, 1.01 -2.5, 4.5 0" stroke="none" stroke-width="0" fill="#b2f2bb"></path><path d="M4.5 0 C23.45 -0.03, 39.71 0.78, 53.74 0 M4.5 0 C19.56 -0.8, 34.71 -0.39, 53.74 0 M53.74 0 C57.98 0.98, 59.86 2.74, 58.24 4.5 M53.74 0 C56.62 1.74, 58.24 1.6, 58.24 4.5 M58.24 4.5 C57.95 7.15, 59.09 11.81, 58.24 13.5 M58.24 4.5 C57.96 7.84, 58.5 11.61, 58.24 13.5 M58.24 13.5 C58.17 18.21, 57.6 19.03, 53.74 18 M58.24 13.5 C57.26 18.18, 57.05 19.59, 53.74 18 M53.74 18 C40.29 18.64, 25.82 16.93, 4.5 18 M53.74 18 C43.2 17.41, 33.54 18.42, 4.5 18 M4.5 18 C2.27 17.6, -1.22 17.62, 0 13.5 M4.5 18 C3.57 16.34, -1.04 16.65, 0 13.5 M0 13.5 C-0.51 10.1, -0.71 7.42, 0 4.5 M0 13.5 C0.34 11.18, -0.14 9.4, 0 4.5 M0 4.5 C-1.17 0.79, 1.69 1.07, 4.5 0 M0 4.5 C-0.99 -0.22, 0.33 -0.67, 4.5 0" stroke="#1e1e1e" stroke-width="2" fill="none"></path></g><g transform="translate(167.27801202618866 127.81170465933639) rotate(0 20.808332443237305 3.68182593852535)"><text x="20.808332443237305" y="5.160447235437138" font-family="Virgil, Segoe UI Emoji" font-size="5.890921501640569px" fill="#1e1e1e" text-anchor="middle" style="white-space: pre;" direction="ltr" dominant-baseline="alphabetic">No Funcionales</text></g><g stroke-linecap="round" transform="translate(158.6594440029387 57.564134915142915) rotate(0 20.953185672472728 9)"><path d="M4.5 0 C14.8 0.16, 29.48 0.26, 37.41 0 C41.89 3.21, 40.75 3.55, 41.91 4.5 C40.63 9.26, 40.61 9.82, 41.91 13.5 C41.1 15.77, 39.15 21.02, 37.41 18 C25.43 18.53, 15.3 18.73, 4.5 18 C3.53 19.61, -3.25 15.99, 0 13.5 C1.62 10.75, -1.16 9.43, 0 4.5 C-1.46 2.33, 4.3 1.53, 4.5 0" stroke="none" stroke-width="0" fill="#a5d8ff"></path><path d="M4.5 0 C13.73 -1.45, 26.92 0.92, 37.41 0 M4.5 0 C16.75 -0.83, 30.7 -0.19, 37.41 0 M37.41 0 C38.42 1.53, 40.31 -0.43, 41.91 4.5 M37.41 0 C40.65 1.26, 41.58 3.72, 41.91 4.5 M41.91 4.5 C41.59 6.71, 42.08 9.12, 41.91 13.5 M41.91 4.5 C42.31 7.2, 42.12 10.42, 41.91 13.5 M41.91 13.5 C43.9 14.91, 40.96 16.86, 37.41 18 M41.91 13.5 C40.72 17.35, 39.37 15.86, 37.41 18 M37.41 18 C23.34 17.75, 13.53 19.73, 4.5 18 M37.41 18 C26.47 18.71, 16.48 17.91, 4.5 18 M4.5 18 C3.45 17.16, -1.06 15.4, 0 13.5 M4.5 18 C1.97 19.05, -0.5 16.9, 0 13.5 M0 13.5 C0.24 10.6, 0.47 6.72, 0 4.5 M0 13.5 C0.44 11.27, 0.11 9.5, 0 4.5 M0 4.5 C-1.79 -0.35, -0.21 1.51, 4.5 0 M0 4.5 C1.07 -0.02, 1.97 0.12, 4.5 0" stroke="#1e1e1e" stroke-width="2" fill="none"></path></g><g transform="translate(163.8042962784998 62.88230897661754) rotate(0 15.808333396911621 3.68182593852535)"><text x="15.808333396911621" y="5.160447235437138" font-family="Virgil, Segoe UI Emoji" font-size="5.890921501640569px" fill="#1e1e1e" text-anchor="middle" style="white-space: pre;" direction="ltr" dominant-baseline="alphabetic">Funcionales</text></g><g stroke-linecap="round" transform="translate(158.3513089195203 88.06950817359598) rotate(0 20.953185672472728 9)"><path d="M4.5 0 C18.3 -0.18, 27.26 1.29, 37.41 0 C40.98 2.04, 44.63 -0.28, 41.91 4.5 C42.76 7.61, 43.07 10.13, 41.91 13.5 C41.72 19.22, 40.42 18.15, 37.41 18 C23.86 15.05, 16.09 20.18, 4.5 18 C4.96 19.55, 2.88 14.01, 0 13.5 C-0.14 12.65, 0.61 9.85, 0 4.5 C-1.53 4.12, 1.99 2.49, 4.5 0" stroke="none" stroke-width="0" fill="#ffec99"></path><path d="M4.5 0 C15.76 -0.31, 30.1 -0.52, 37.41 0 M4.5 0 C17.25 0.41, 28.99 -0.7, 37.41 0 M37.41 0 C40.98 -1.04, 40.32 1.28, 41.91 4.5 M37.41 0 C39.35 0.15, 40.57 0.89, 41.91 4.5 M41.91 4.5 C42.84 5.78, 42.07 9.21, 41.91 13.5 M41.91 4.5 C41.71 6.92, 41.84 9.06, 41.91 13.5 M41.91 13.5 C42.9 17.07, 41.88 19.83, 37.41 18 M41.91 13.5 C40.79 18.17, 38.65 17.96, 37.41 18 M37.41 18 C26.65 18.2, 17.01 16.45, 4.5 18 M37.41 18 C25.82 17.72, 13.04 18.12, 4.5 18 M4.5 18 C0.12 16.1, 1.89 17.36, 0 13.5 M4.5 18 C3.4 19.72, 1.74 15.79, 0 13.5 M0 13.5 C0.84 10.73, -0.89 9.48, 0 4.5 M0 13.5 C-0.15 12.02, -0.39 9.53, 0 4.5 M0 4.5 C-0.91 -0.34, 3.49 -0.64, 4.5 0 M0 4.5 C-1.44 3.7, -0.78 2.04, 4.5 0" stroke="#1e1e1e" stroke-width="2" fill="none"></path></g><g transform="translate(166.92949459199303 93.3876822350706) rotate(0 12.375 3.68182593852535)"><text x="12.375" y="5.160447235437138" font-family="Virgil, Segoe UI Emoji" font-size="5.890921501640569px" fill="#1e1e1e" text-anchor="middle" style="white-space: pre;" direction="ltr" dominant-baseline="alphabetic">Técnicos</text></g></svg>